<?xml version="1.0" encoding="utf-8"?>
<!-- Generator: Adobe Illustrator 17.0.0, SVG Export Plug-In . SVG Version: 6.00 Build 0)  -->
<!DOCTYPE svg PUBLIC "-//W3C//DTD SVG 1.1//EN" "http://www.w3.org/Graphics/SVG/1.1/DTD/svg11.dtd">
<svg version="1.1" id="Слой_1" xmlns="http://www.w3.org/2000/svg" xmlns:xlink="http://www.w3.org/1999/xlink" x="0px" y="0px"
	 width="21px" height="15px" viewBox="0 0 21 15" enable-background="new 0 0 21 15" xml:space="preserve">
<path fill="#C2C2C2" d="M15,0c-3.313,0-6,2.686-6,6s2.686,6,6,6s6-2.686,6-6S18.313,0,15,0z M15,9c-1.657,0-3-1.343-3-3s1.343-3,3-3
	c1.657,0,3,1.343,3,3S16.657,9,15,9z"/>
<path fill="#A0A0A0" d="M21,6c0-3.314-2.687-6-6-6c-2.608,0-4.803,1.675-5.629,4H7l1-4L0,5v1l8,5L7,7h4c1,0,1-0.614,1-1
	c0-1.657,1.343-3,3-3c1.657,0,3,1.343,3,3s-1.343,3-3,3c-0.386,0-1,0-1,1v1v3v1h3v-3.371C19.325,10.803,21,8.608,21,6z"/>
</svg>
