<?xml version="1.0" encoding="utf-8"?>
<!-- Generator: Adobe Illustrator 17.0.0, SVG Export Plug-In . SVG Version: 6.00 Build 0)  -->
<!DOCTYPE svg PUBLIC "-//W3C//DTD SVG 1.1//EN" "http://www.w3.org/Graphics/SVG/1.1/DTD/svg11.dtd">
<svg version="1.1" id="Слой_1" xmlns="http://www.w3.org/2000/svg" xmlns:xlink="http://www.w3.org/1999/xlink" x="0px" y="0px"
	 width="12px" height="25px" viewBox="0 0 12 25" enable-background="new 0 0 12 25" xml:space="preserve">
<path fill="#C2C2C2" d="M6,10c-3.314,0-6,2.686-6,6s2.686,6,6,6s6-2.686,6-6S9.313,10,6,10z M6,19c-1.657,0-3-1.343-3-3s1.343-3,3-3
	c1.657,0,3,1.343,3,3S7.657,19,6,19z"/>
<path fill-rule="evenodd" clip-rule="evenodd" fill="#A0A0A0" d="M11.926,16c0-2.795-1.984-5.136-4.667-5.803V7l4.148,1L6.222,0
	H5.185L0,8l4.148-1v4.5c0,0.828,0.697,1.5,1.556,1.5c1.718,0,3.111,1.343,3.111,3c0,1.657-1.393,3-3.111,3
	c-0.859,0-1.556,0.672-1.556,1.5V25h3.111v-3.197C9.941,21.136,11.926,18.795,11.926,16z"/>
</svg>
