<?xml version="1.0" encoding="utf-8"?>
<!-- Generator: Adobe Illustrator 17.0.0, SVG Export Plug-In . SVG Version: 6.00 Build 0)  -->
<!DOCTYPE svg PUBLIC "-//W3C//DTD SVG 1.1//EN" "http://www.w3.org/Graphics/SVG/1.1/DTD/svg11.dtd">
<svg version="1.1" id="Слой_1" xmlns="http://www.w3.org/2000/svg" xmlns:xlink="http://www.w3.org/1999/xlink" x="0px" y="0px"
	 width="17px" height="21px" viewBox="0 0 17 21" enable-background="new 0 0 17 21" xml:space="preserve">
<path fill="#C2C2C2" d="M11,5c-3.313,0-6,2.686-6,6s2.687,6,6,6s6-2.686,6-6S14.313,5,11,5z M11,14c-1.657,0-3-1.343-3-3
	s1.343-3,3-3c1.657,0,3,1.343,3,3S12.657,14,11,14z"/>
<path fill="#A0A0A0" d="M17,11.5c0-3.314-2.687-6-6-6c-0.837,0-1.63,0.178-2.354,0.489L6.668,4.01l3.249-2.005L0.698,0L0,0.716
	l2.237,9.165l2.076-3.562L4.52,6.106l2.995,2.972c0.562,0.41,1.353,0.385,1.89-0.1L9.403,8.975C9.866,8.68,10.41,8.5,11,8.5
	c1.657,0,3,1.343,3,3c0,1.657-1.343,3-3,3c-0.386,0-1,0.5-1,1.5v1v4h3v-3.871C15.325,16.303,17,14.108,17,11.5z"/>
</svg>
