<?xml version="1.0" encoding="utf-8"?>
<!-- Generator: Adobe Illustrator 17.0.0, SVG Export Plug-In . SVG Version: 6.00 Build 0)  -->
<!DOCTYPE svg PUBLIC "-//W3C//DTD SVG 1.1//EN" "http://www.w3.org/Graphics/SVG/1.1/DTD/svg11.dtd">
<svg version="1.1" id="Слой_1" xmlns="http://www.w3.org/2000/svg" xmlns:xlink="http://www.w3.org/1999/xlink" x="0px" y="0px"
	 width="18px" height="21px" viewBox="0 0 18 21" enable-background="new 0 0 18 21" xml:space="preserve">
<path fill="#C2C2C2" d="M6,6c-3.314,0-6,2.686-6,6s2.686,6,6,6s6-2.686,6-6S9.313,6,6,6z M6,15c-1.657,0-3-1.343-3-3s1.343-3,3-3
	c1.657,0,3,1.343,3,3S7.657,15,6,15z"/>
<path fill="#A0A0A0" d="M17.298,0.01L8.028,2.026l3.269,2.016L8.08,7.43l0.005,0.005C7.566,8.004,7.569,8.86,8.115,9.398
	L8.113,9.401C8.117,9.403,8.121,9.407,8.125,9.41C8.13,9.414,8.133,9.42,8.138,9.424l0.003-0.003
	c0.836,0.536,1.395,1.466,1.395,2.532c0,1.665-1.351,3.016-3.017,3.016c-0.833,0-1.508,0.675-1.508,1.508V21h3.017v-3.213
	c2.601-0.671,4.525-3.024,4.525-5.833c0-1.347-0.453-2.581-1.202-3.582l2.103-2.223l0.208,0.214l2.088,3.581L18,0.73L17.298,0.01z"
	/>
</svg>
