<?xml version="1.0" encoding="utf-8"?>
<!-- Generator: Adobe Illustrator 17.0.0, SVG Export Plug-In . SVG Version: 6.00 Build 0)  -->
<!DOCTYPE svg PUBLIC "-//W3C//DTD SVG 1.1//EN" "http://www.w3.org/Graphics/SVG/1.1/DTD/svg11.dtd">
<svg version="1.1" id="Слой_1" xmlns="http://www.w3.org/2000/svg" xmlns:xlink="http://www.w3.org/1999/xlink" x="0px" y="0px"
	 width="21px" height="15px" viewBox="0 0 21 15" enable-background="new 0 0 21 15" xml:space="preserve">
<path fill="#C2C2C2" d="M6,0C2.686,0,0,2.686,0,6s2.686,6,6,6s6-2.686,6-6S9.313,0,6,0z M6,9C4.343,9,3,7.657,3,6s1.343-3,3-3
	c1.657,0,3,1.343,3,3S7.657,9,6,9z"/>
<path fill="#A0A0A0" d="M13,1l1,4h-1h-1h-1c-1,0-1.437,0.188-1.497,0.969H9.497C9.497,5.979,9.5,5.989,9.5,6c0,1.657-1.343,3-3,3
	C5.672,9,5,9.672,5,10.5V15h3v-3.197c1.934-0.499,3.476-1.94,4.138-3.803H14l-1,4l8-5V6L13,1z"/>
</svg>
