<?xml version="1.0" encoding="utf-8"?>
<!-- Generator: Adobe Illustrator 17.0.0, SVG Export Plug-In . SVG Version: 6.00 Build 0)  -->
<!DOCTYPE svg PUBLIC "-//W3C//DTD SVG 1.1//EN" "http://www.w3.org/Graphics/SVG/1.1/DTD/svg11.dtd">
<svg version="1.1" id="Слой_1" xmlns="http://www.w3.org/2000/svg" xmlns:xlink="http://www.w3.org/1999/xlink" x="0px" y="0px"
	 width="18px" height="18px" viewBox="0 0 18 18" enable-background="new 0 0 18 18" xml:space="preserve">
<path fill="#A0A0A0" d="M16.799,2.419c-0.008-0.009-0.014-0.018-0.021-0.027c-0.179-0.237-0.372-0.462-0.583-0.67
	c-0.002-0.002-0.005-0.005-0.008-0.007c-0.188-0.184-0.39-0.353-0.6-0.511c-0.049-0.037-0.097-0.075-0.146-0.11
	c-0.205-0.144-0.418-0.278-0.641-0.395c-0.071-0.039-0.147-0.072-0.22-0.107c-0.174-0.083-0.352-0.158-0.534-0.224
	c-0.077-0.029-0.153-0.06-0.232-0.086c-0.236-0.075-0.479-0.132-0.726-0.178c-0.083-0.015-0.166-0.027-0.25-0.038
	c-0.256-0.036-0.516-0.06-0.78-0.063C12.046,0.003,12.034,0,12.022,0c-0.004,0-0.007,0.001-0.011,0.001C12.007,0.001,12.004,0,12,0
	v0.001C8.696,0.013,6.022,2.705,6.022,6.025c0,0.84,0.376,1.91,0.687,2.636L4.01,11.296L2.005,8.033L0,17.292l0.716,0.7l9.165-2.247
	L6.318,13.66l-0.213-0.208l3.693-3.656c0.41-0.565,0.385-1.359-0.1-1.898L9.694,7.902C9.399,7.436,9.022,6.618,9.022,6.025
	c0-1.659,1.338-3.006,2.989-3.012c0.088,0,0.171,0.019,0.256,0.026c0.118,0.01,0.239,0.015,0.352,0.039
	c0.127,0.027,0.246,0.072,0.367,0.115c0.068,0.024,0.141,0.041,0.206,0.07c0.113,0.05,0.218,0.114,0.324,0.176
	c0.065,0.039,0.134,0.074,0.196,0.118c0.1,0.07,0.189,0.15,0.278,0.23c0.056,0.051,0.114,0.098,0.167,0.152
	C14.677,4.481,15,5.214,15,6.025c0,1.664-1.348,2.895-3,3.012c-0.352,0.025-0.984,0.141-1,1.004v1.004v4.017h3v-3.887
	c2.324-0.83,4-2.531,4-5.15C18,4.671,17.55,3.425,16.799,2.419z"/>
</svg>
