<?xml version="1.0" encoding="utf-8"?>
<!-- Generator: Adobe Illustrator 17.0.0, SVG Export Plug-In . SVG Version: 6.00 Build 0)  -->
<!DOCTYPE svg PUBLIC "-//W3C//DTD SVG 1.1//EN" "http://www.w3.org/Graphics/SVG/1.1/DTD/svg11.dtd">
<svg version="1.1" id="Слой_1" xmlns="http://www.w3.org/2000/svg" xmlns:xlink="http://www.w3.org/1999/xlink" x="0px" y="0px"
	 width="20px" height="18px" viewBox="0 0 20 18" enable-background="new 0 0 20 18" xml:space="preserve">
<path fill="#C2C2C2" d="M6,0C2.686,0,0,2.686,0,6s2.686,6,6,6s6-2.686,6-6S9.313,0,6,0z M6,9C4.343,9,3,7.657,3,6s1.343-3,3-3
	c1.657,0,3,1.343,3,3S7.657,9,6,9z"/>
<path fill-rule="evenodd" clip-rule="evenodd" fill="#A0A0A0" d="M17.878,8.127l-2.121,3.526l-4.298-4.287
	c-0.361-0.174-0.726-0.323-1.178-0.344C9.707,6.995,9.256,7.087,8.775,7.333L8.626,7.527C8.572,7.558,8.525,7.589,8.505,7.623
	C7.812,8.76,6.638,9.006,5.281,9.055C4.406,9.086,4,10.021,4,11.018v0.997v3.989h3v-3.861c1.168-0.414,2.312-1.012,3.162-1.838
	l3.474,3.462l-3.535,2.116L19.292,18L20,17.295L17.878,8.127z"/>
</svg>
