<?xml version="1.0" encoding="utf-8"?>
<!-- Generator: Adobe Illustrator 17.0.0, SVG Export Plug-In . SVG Version: 6.00 Build 0)  -->
<!DOCTYPE svg PUBLIC "-//W3C//DTD SVG 1.1//EN" "http://www.w3.org/Graphics/SVG/1.1/DTD/svg11.dtd">
<svg version="1.1" id="Слой_1" xmlns="http://www.w3.org/2000/svg" xmlns:xlink="http://www.w3.org/1999/xlink" x="0px" y="0px"
	 width="14px" height="23px" viewBox="0 0 14 23" enable-background="new 0 0 14 23" xml:space="preserve">
<path fill="#A0A0A0" d="M14,6c0-3.314-2.687-6-6-6S2,2.686,2,6c0,1.77,0.779,3.347,2,4.443V16l-4-1l5,8h1l5-8l-4,1v-2V9.209V9.204
	L6.959,9C6.86,8.552,6.43,8.422,6.001,8.209C5.458,7.938,5,6.885,5,6c0-1.657,1.344-3,3-3c1.656,0,3,1.343,3,3
	c0,0.887-0.387,1.679-1,2.226c0,0,0.002-0.009,0-0.007c-0.516,0.391-0.969,0.188-1,0.75V9v4h3v-2.557C13.221,9.347,14,7.77,14,6z"/>
</svg>
