<?xml version="1.0" encoding="utf-8"?>
<!-- Generator: Adobe Illustrator 17.1.0, SVG Export Plug-In . SVG Version: 6.00 Build 0)  -->
<!DOCTYPE svg PUBLIC "-//W3C//DTD SVG 1.1//EN" "http://www.w3.org/Graphics/SVG/1.1/DTD/svg11.dtd">
<svg version="1.1" id="Layer_1" xmlns="http://www.w3.org/2000/svg" xmlns:xlink="http://www.w3.org/1999/xlink" x="0px" y="0px"
	 width="11px" height="14px" viewBox="0 0 11 14" enable-background="new 0 0 11 14" xml:space="preserve">
<path fill="#CCCCCC" d="M7.395,5.93V5.891c1.068-0.319,1.906-1.347,1.906-2.847C9.301,1.102,7.704,0,5.974,0H0v13.197h5.467
	c3.336,0,4.643-2.082,4.643-4.003C10.11,7.118,8.98,6.257,7.395,5.93z M3.083,2.347h0.693c0.503,0,1.286-0.058,1.714,0.192
	c0.41,0.25,0.633,0.712,0.633,1.192c0,0.442-0.186,0.924-0.54,1.193C5.137,5.272,4.522,5.233,4,5.233H3.083V2.347z M6.24,10.465
	c-0.466,0.328-1.155,0.289-1.696,0.289H3.083V7.475h1.591c0.485,0,1.081,0,1.51,0.25c0.427,0.249,0.726,0.848,0.726,1.349
	C6.911,9.612,6.667,10.177,6.24,10.465z"/>
</svg>
