<?xml version="1.0" encoding="utf-8"?>
<!-- Generator: Adobe Illustrator 17.1.0, SVG Export Plug-In . SVG Version: 6.00 Build 0)  -->
<!DOCTYPE svg PUBLIC "-//W3C//DTD SVG 1.1//EN" "http://www.w3.org/Graphics/SVG/1.1/DTD/svg11.dtd">
<svg version="1.1" id="Layer_1" xmlns="http://www.w3.org/2000/svg" xmlns:xlink="http://www.w3.org/1999/xlink" x="0px" y="0px"
	 width="15px" height="12px" viewBox="0 0 15 12" enable-background="new 0 0 15 12" xml:space="preserve">
<path fill="#FFFFFF" d="M14.634,1.408c-0.538,0.239-1.117,0.4-1.724,0.473c0.62-0.371,1.095-0.96,1.32-1.661
	c-0.58,0.344-1.223,0.594-1.907,0.729C11.775,0.365,10.995,0,10.131,0C8.474,0,7.129,1.344,7.129,3.002
	c0,0.235,0.026,0.465,0.078,0.684C4.712,3.561,2.499,2.366,1.018,0.55C0.76,0.993,0.612,1.509,0.612,2.059
	c0,1.042,0.53,1.961,1.335,2.499c-0.492-0.016-0.955-0.151-1.36-0.376C0.587,4.195,0.587,4.207,0.587,4.22
	c0,1.455,1.035,2.668,2.409,2.944C2.744,7.233,2.479,7.27,2.205,7.27c-0.194,0-0.381-0.019-0.565-0.054
	C2.022,8.409,3.131,9.277,4.445,9.3c-1.028,0.806-2.322,1.286-3.729,1.286c-0.243,0-0.481-0.014-0.716-0.042
	c1.329,0.852,2.906,1.349,4.602,1.349c5.522,0,8.542-4.575,8.542-8.543c0-0.13-0.003-0.26-0.009-0.388
	C13.722,2.539,14.232,2.01,14.634,1.408z"/>
</svg>
