<?xml version="1.0" encoding="utf-8"?>
<!-- Generator: Adobe Illustrator 18.1.1, SVG Export Plug-In . SVG Version: 6.00 Build 0)  -->
<svg version="1.1" id="Layer_1" xmlns="http://www.w3.org/2000/svg" xmlns:xlink="http://www.w3.org/1999/xlink" x="0px" y="0px"
	 width="35px" height="39px" viewBox="0 0 35 39" enable-background="new 0 0 35 39" xml:space="preserve">
<path fill="#231F20" d="M17.475,24.74c-6.821,0-12.37-5.549-12.37-12.369C5.104,5.549,10.654,0,17.475,0
	c6.82,0,12.369,5.549,12.369,12.37C29.844,19.19,24.295,24.74,17.475,24.74z M17.475,2.757c-5.387,0-9.77,4.226-9.77,9.614
	s4.383,9.769,9.77,9.769c5.387,0,9.769-4.382,9.769-9.769S22.862,2.757,17.475,2.757z"/>
<path fill="#231F20" d="M34.92,10.99l-2.863-0.018l-0.002,1.88l1.064,0c-0.651,6.895-5.014,15.142-15.658,15.142
	c-10.644,0-14.973-8.018-15.704-15.142h1.107v-1.88L0,10.99c0,9.631,5.422,18.033,16.052,18.722v5.391
	c-3.256,0.48-5.926,2.422-5.926,2.422v1.27h14.742v-1.27c0,0-2.761-1.963-6.057-2.429v-5.382C29.479,29.048,34.92,20.57,34.92,10.99
	z"/>
<rect x="16.694" y="7.309" transform="matrix(0.7071 0.7071 -0.7071 0.7071 14.2557 -8.52)" fill="#231F20" width="1.436" height="11.279"/>
<rect x="17.194" y="16.344" transform="matrix(0.7071 0.7071 -0.7071 0.7071 18.2913 -7.2626)" fill="#231F20" width="1.436" height="4.208"/>
<rect x="16.194" y="4.344" transform="matrix(0.7071 0.7071 -0.7071 0.7071 9.5131 -10.0702)" fill="#231F20" width="1.436" height="4.208"/>
</svg>
