<?xml version="1.0" encoding="utf-8"?>
<!-- Generator: Adobe Illustrator 18.1.1, SVG Export Plug-In . SVG Version: 6.00 Build 0)  -->
<svg version="1.1" id="Layer_1" xmlns="http://www.w3.org/2000/svg" xmlns:xlink="http://www.w3.org/1999/xlink" x="0px" y="0px"
	 width="43px" height="25px" viewBox="0 0 43 25" enable-background="new 0 0 43 25" xml:space="preserve">
<path fill="#231F20" d="M41.296,4.956h-3.859L35.5,7.117c-0.032-0.031-0.06-0.065-0.093-0.096H6.956L5.161,4.956H1.924
	c-0.912,0-1.652,0.74-1.652,1.652V7.15c0,0.912,0.74,1.652,1.652,1.652h3.269c-1.244,1.828-1.928,4-1.928,6.247v2.989v0.826v4.224
	c0,0.948,0.769,1.717,1.717,1.717h2.297c0.948,0,1.717-0.769,1.717-1.717v-4.224h24.14v4.224c0,0.948,0.769,1.717,1.717,1.717h2.391
	c0.948,0,1.717-0.769,1.717-1.717v-4.224v-0.826v-2.875c0-2.295-0.713-4.511-2.007-6.361h4.343C42.237,8.802,43,8.062,43,7.15V6.608
	C43,5.696,42.237,4.956,41.296,4.956z M9.922,14.109c-1.773,0-4.087-1.021-4.087-2.28c0-1.259,1.437-0.999,3.209-0.999
	c1.772,0,3.209-0.069,3.209,0.999C12.254,13.089,11.695,14.109,9.922,14.109z M18.155,15.129h-2.098v-4.266h2.098V15.129z
	 M22.155,15.129h-2.098v-4.266h2.098V15.129z M26.155,15.129h-2.098v-4.266h2.098V15.129z M29.913,11.829
	c0-1.068,1.437-0.999,3.209-0.999c1.772,0,3.209-0.26,3.209,0.999c0,1.259-2.315,2.28-4.087,2.28
	C30.472,14.109,29.913,13.089,29.913,11.829z"/>
<path fill="#231F20" d="M10.776,4.826c1.715-1.969,3.701-2.92,6.044-2.92h8.19c2.421,0,4.735,1.105,6.388,2.936l1.205,1.03
	l1.414-1.403l-1.15-1.138C30.875,1.12,28,0,25.011,0h-8.19c-2.918,0-5.469,1.131-7.508,3.476L8.258,4.523l1.414,1.403L10.776,4.826z
	"/>
</svg>
