<?xml version="1.0" encoding="utf-8"?>
<!-- Generator: Adobe Illustrator 18.1.1, SVG Export Plug-In . SVG Version: 6.00 Build 0)  -->
<svg version="1.1" id="Layer_1" xmlns="http://www.w3.org/2000/svg" xmlns:xlink="http://www.w3.org/1999/xlink" x="0px" y="0px"
	 width="31px" height="39px" viewBox="0 0 31 39" enable-background="new 0 0 31 39" xml:space="preserve">
<rect x="24.104" y="-0.868" transform="matrix(0.757 0.6535 -0.6535 0.757 9.9151 -14.9859)" fill="#A3CA29" width="2" height="13.409"/>
<path fill="#A3CA29" d="M16.591,26.05L31,8.538l-1.545-1.271l-4.344,5.28H6.458L2.163,7.271L0.612,8.533L14.832,26v11.431H9.771
	v1.818h11.882v-1.818h-5.061V26.05z M13.468,18.386c0-1.24,1.005-2.246,2.246-2.246c1.24,0,2.246,1.005,2.246,2.246
	s-1.005,2.246-2.246,2.246C14.474,20.632,13.468,19.626,13.468,18.386z"/>
</svg>
