<?xml version="1.0" encoding="utf-8"?>
<!-- Generator: Adobe Illustrator 18.1.1, SVG Export Plug-In . SVG Version: 6.00 Build 0)  -->
<svg version="1.1" id="Layer_1" xmlns="http://www.w3.org/2000/svg" xmlns:xlink="http://www.w3.org/1999/xlink" x="0px" y="0px"
	 width="33px" height="41px" viewBox="0 0 33 41" enable-background="new 0 0 33 41" xml:space="preserve">
<path fill="#231F20" d="M15.641,24.347c0.017,0.022,0.041,0.044,0.058,0.066c0.693,0.92,0.688,2.124,0.438,2.595
	c-0.226,0.426-0.955,0.68-1.952,0.68c-1.506,0-3.414-0.553-5.235-1.518c-3.637-1.927-5.23-4.529-4.73-5.474
	c0.226-0.427,1.237-1.02,2.234-1.02c0.451,0,0.709,0.161,1.22,0.256l0.125-1.542c-0.625-0.479-1.075-0.375-1.627-0.375
	c-1.802,0-3.123,0.619-3.72,1.744c-0.143,0.27-0.237,0.557-0.284,0.855C2.11,20.979,0,40.751,0,40.751l17.5-12.25
	c0.155-0.171,0.296-0.353,0.404-0.558c0.641-1.21,0.331-2.76-0.869-4.366C16.533,23.866,16.045,24.138,15.641,24.347z"/>
<path fill="#231F20" d="M12.11,21.981l-1.115-1.66l4.907-3.347l-0.792-3.083c-0.384-1.272-0.336-3.235,0.394-4.467
	c1.419-2.403,4.568-3.157,6.898-1.783c2.409,1.425,3.209,4.171,1.833,6.5c-0.682,1.15-2.417,2.39-4.208,1.333
	c-1.873-1.108-1.131-3.221-0.625-4.208l1.497,0.839l-0.789-0.44l0.792,0.434c-0.06,0.122-0.825,1.32-0.083,1.856
	c0.75,0.542,1.756-0.067,1.956-0.444c0.75-1.416,0.421-3.434-1.247-4.328c-1.4-0.75-3.458-0.375-4.458,1.208
	c-0.466,0.738-0.608,1.947-0.375,2.725l1.394,4.863L12.11,21.981z"/>
<polygon fill="#231F20" points="7.936,15.74 6.677,14.185 10.235,11.475 6.078,8.575 10.193,5.558 6.603,2.773 7.885,1.238 
	13.062,5.562 9.254,8.6 12.97,11.66 "/>
<polygon fill="#231F20" points="21.452,23.491 20.833,17.969 26.339,17.952 26.344,19.766 22.724,19.774 23.131,23.37 "/>
<circle fill="#231F20" cx="25.266" cy="2.439" r="2.439"/>
<circle fill="#231F20" cx="17.266" cy="2.439" r="2.439"/>
<circle fill="#231F20" cx="30.266" cy="9.439" r="2.439"/>
</svg>
