<?xml version="1.0" encoding="utf-8"?>
<!-- Generator: Adobe Illustrator 18.1.1, SVG Export Plug-In . SVG Version: 6.00 Build 0)  -->
<svg version="1.1" id="Layer_1" xmlns="http://www.w3.org/2000/svg" xmlns:xlink="http://www.w3.org/1999/xlink" x="0px" y="0px"
	 width="40px" height="24px" viewBox="0 0 40 24" enable-background="new 0 0 40 24" xml:space="preserve">
<path fill="#231F20" d="M39.803,0.112l-0.888-0.008c-2.411,0-3.851,7.461-3.851,9.879c0,2.927,1.397,3.635,3.066,3.806
	c0,0.079,0.001,0.161,0.001,0.238c0,4.039-1.088,5.289-1.113,7.613c-0.017,1.596,1.031,2.236,1.904,2.236
	c0.873,0,0.907-0.611,0.882-2.189C39.775,19.879,39.803,0.112,39.803,0.112z"/>
<path fill="#231F20" d="M0.097,5.952C0.406,7.484,1.595,8.464,3.012,8.74c0,0.773,0,1.648,0,2.544c0,4.039-0.969,8.032-0.994,10.355
	C2,23.235,3.048,23.876,3.921,23.876s1.916-0.611,1.891-2.189c-0.036-2.293-1.016-6.273-1.016-10.444c0-0.927,0-1.78,0-2.53
	c1.389-0.326,2.61-1.369,2.939-2.761c0.053-0.223,0.06-0.916,0.06-0.916v-5H6.529v5H4.796v-5H3.49v5H1.393v-5H0.024v5
	C0.024,5.036,0.051,5.727,0.097,5.952z"/>
<path fill="#231F20" d="M20.948,0C14.371,0,9.039,5.332,9.039,11.909c0,6.577,5.332,11.909,11.909,11.909
	c6.577,0,11.909-5.332,11.909-11.909C32.857,5.332,27.525,0,20.948,0z M20.885,19.784c-4.377,0-7.938-3.561-7.938-7.938
	c0-4.376,3.561-7.938,7.938-7.938c4.377,0,7.938,3.561,7.938,7.938C28.823,16.223,25.262,19.784,20.885,19.784z"/>
<path fill="#231F20" d="M20.885,5.597c-3.447,0-6.25,2.804-6.25,6.25c0,3.447,2.803,6.25,6.25,6.25c3.446,0,6.251-2.803,6.251-6.25
	C27.136,8.4,24.331,5.597,20.885,5.597z"/>
</svg>
