<?xml version="1.0" encoding="utf-8"?>
<!-- Generator: Adobe Illustrator 18.1.1, SVG Export Plug-In . SVG Version: 6.00 Build 0)  -->
<svg version="1.1" id="Layer_1" xmlns="http://www.w3.org/2000/svg" xmlns:xlink="http://www.w3.org/1999/xlink" x="0px" y="0px"
	 width="33px" height="41px" viewBox="0 0 33 41" enable-background="new 0 0 33 41" xml:space="preserve">
<path fill="#A3CA29" d="M15.641,24.596c0.017,0.022,0.041,0.044,0.058,0.066c0.693,0.92,0.688,2.123,0.438,2.595
	c-0.226,0.426-0.955,0.68-1.952,0.68c-1.506,0-3.414-0.553-5.235-1.518c-3.637-1.927-5.23-4.529-4.73-5.474
	c0.226-0.427,1.237-1.02,2.234-1.02c0.451,0,0.709,0.161,1.22,0.256l0.125-1.542c-0.625-0.479-1.075-0.375-1.627-0.375
	c-1.802,0-3.123,0.619-3.72,1.744c-0.143,0.27-0.237,0.557-0.284,0.856C2.11,21.228,0,41,0,41l17.5-12.25
	c0.155-0.171,0.296-0.353,0.404-0.558c0.641-1.21,0.331-2.76-0.869-4.366C16.533,24.115,16.045,24.387,15.641,24.596z"/>
<path fill="#A3CA29" d="M12.11,22.23l-1.115-1.66l4.907-3.347L15.11,14.14c-0.384-1.272-0.336-3.235,0.394-4.467
	c1.419-2.403,4.568-3.157,6.898-1.783c2.409,1.425,3.209,4.171,1.833,6.5c-0.682,1.15-2.417,2.39-4.208,1.333
	c-1.873-1.108-1.131-3.221-0.625-4.208l1.497,0.839l-0.789-0.44l0.792,0.434c-0.06,0.122-0.825,1.32-0.083,1.856
	c0.75,0.542,1.756-0.067,1.956-0.444c0.75-1.416,0.421-3.434-1.247-4.328c-1.4-0.75-3.458-0.375-4.458,1.208
	c-0.466,0.738-0.608,1.947-0.375,2.725l1.394,4.863L12.11,22.23z"/>
<polygon fill="#A3CA29" points="7.936,15.988 6.677,14.434 10.235,11.724 6.078,8.823 10.193,5.807 6.603,3.022 7.885,1.487 
	13.062,5.811 9.254,8.849 12.97,11.908 "/>
<polygon fill="#A3CA29" points="21.452,23.74 20.833,18.217 26.339,18.201 26.344,20.014 22.724,20.023 23.131,23.619 "/>
<circle fill="#A3CA29" cx="25.266" cy="2.688" r="2.439"/>
<circle fill="#A3CA29" cx="17.266" cy="2.688" r="2.439"/>
<circle fill="#A3CA29" cx="30.266" cy="9.688" r="2.439"/>
</svg>
