<?xml version="1.0" encoding="utf-8"?>
<!-- Generator: Adobe Illustrator 18.1.1, SVG Export Plug-In . SVG Version: 6.00 Build 0)  -->
<!DOCTYPE svg PUBLIC "-//W3C//DTD SVG 1.1//EN" "http://www.w3.org/Graphics/SVG/1.1/DTD/svg11.dtd">
<svg version="1.1" id="Слой_1" xmlns="http://www.w3.org/2000/svg" xmlns:xlink="http://www.w3.org/1999/xlink" x="0px" y="0px"
	 width="16px" height="17px" viewBox="0 0 16 17" style="enable-background:new 0 0 16 17;" xml:space="preserve">
<rect x="12" y="13" style="fill:#1C1C1C;" width="1" height="3"/>
<polygon style="fill:#FF8249;" points="12,16 13,16 13,17 11,17 "/>
<polygon style="fill:#FF8249;" points="14,14 13,11 13,10 13,8 12,7 11,7 11,8 11,10 11,11 10,14 "/>
<path style="fill:#1C1C1C;" d="M13,7c0-0.2-1-2-1-2h-1l-1,1v1h1l-0.4-0.5L11,6h1v1H13z"/>
<polygon style="fill:#1C1C1C;" points="6,6 6,5 9,9 12,8 12,9 9,10 8,10 6,7 "/>
<polygon style="fill:#1C1C1C;" points="11,5 12,6 12,7 14,6 16,6 15,4 13,5 12,4 "/>
<rect x="11" y="6" style="fill:#FFFFFF;" width="1" height="1"/>
<polygon style="fill:#93CD00;" points="6,10 6,15 5,15 4,10 "/>
<polygon style="fill:#1C1C1C;" points="4,15 6,15 6,17 3,17 "/>
<polygon style="fill:#1C1C1C;" points="6,10 6,8 6,7 6,5 4.3,3 3,3 3,4 3,7 3,8 3,10 "/>
<path style="fill:#1C1C1C;" d="M6,4c0-0.1-0.6-1.5-0.8-2C4.8,1.2,4.3,0.3,4.3,0.3L3,0L2,1v2l1,0l0-1V1l1,1v1L6,4z"/>
<polygon style="fill:#1C1C1C;" points="0,7 2,7 4,5 4,6 2,8 0,8 "/>
<rect x="3" y="1" style="fill:#FFFFFF;" width="1" height="2"/>
<polygon style="fill:#1C1C1C;" points="15,11 13,11 13,8 14,8 15,10 "/>
</svg>
