<?xml version="1.0" encoding="utf-8"?>
<!-- Generator: Adobe Illustrator 18.1.1, SVG Export Plug-In . SVG Version: 6.00 Build 0)  -->
<svg version="1.1" id="Layer_1" xmlns="http://www.w3.org/2000/svg" xmlns:xlink="http://www.w3.org/1999/xlink" x="0px" y="0px"
	 width="40px" height="24px" viewBox="0 0 40 24" enable-background="new 0 0 40 24" xml:space="preserve">
<path fill="#A3CA29" d="M39.803,0.361l-0.888-0.008c-2.411,0-3.851,7.461-3.851,9.879c0,2.927,1.397,3.635,3.066,3.806
	c0,0.079,0.001,0.161,0.001,0.238c0,4.039-1.088,5.289-1.113,7.613c-0.017,1.596,1.031,2.236,1.904,2.236
	c0.873,0,0.907-0.611,0.882-2.189C39.775,20.128,39.803,0.361,39.803,0.361z"/>
<path fill="#A3CA29" d="M7.796,5.285v-5H6.529v5H4.796v-5H3.49v5H1.393v-5H0.024v5l0,0c0,0.089-0.005,0.166,0,0.252l0.073,0.664l0,0
	c0.329,1.558,1.499,2.512,2.915,2.788c0,0.773,0,1.648,0,2.544c0,4.039-0.969,8.032-0.994,10.356
	C2,23.484,3.048,24.125,3.921,24.125s1.916-0.611,1.891-2.189c-0.036-2.293-1.016-6.273-1.016-10.444c0-0.927,0-1.78,0-2.53
	c1.389-0.326,2.57-1.363,2.939-2.761l0,0l0,0C7.772,5.995,7.796,5.503,7.796,5.285L7.796,5.285z"/>
<path fill="#A3CA29" d="M20.948,0.249c-6.577,0-11.909,5.332-11.909,11.909c0,6.577,5.332,11.909,11.909,11.909
	c6.577,0,11.909-5.332,11.909-11.909C32.857,5.581,27.525,0.249,20.948,0.249z M20.885,20.033c-4.377,0-7.938-3.561-7.938-7.937
	c0-4.376,3.561-7.938,7.938-7.938c4.377,0,7.938,3.561,7.938,7.938C28.823,16.472,25.262,20.033,20.885,20.033z"/>
<path fill="#A3CA29" d="M20.885,5.845c-3.447,0-6.25,2.804-6.25,6.25c0,3.447,2.803,6.25,6.25,6.25c3.446,0,6.251-2.803,6.251-6.25
	C27.136,8.649,24.331,5.845,20.885,5.845z"/>
</svg>
