<?xml version="1.0" encoding="utf-8"?>
<!-- Generator: Adobe Illustrator 18.1.1, SVG Export Plug-In . SVG Version: 6.00 Build 0)  -->
<svg version="1.1" id="Layer_1" xmlns="http://www.w3.org/2000/svg" xmlns:xlink="http://www.w3.org/1999/xlink" x="0px" y="0px"
	 width="26px" height="34px" viewBox="0 0 26 34" enable-background="new 0 0 26 34" xml:space="preserve">
<path fill="#231F20" d="M19.336,13.261c-2.505-0.016-2.861,1.055-6.484,1.055c-3.623,0-2.977-1.152-6.516-1.152
	C2.106,13.164,0,16.885,0,21.116c0,4.104,1.671,7.282,2.912,9.416c1.534,2.637,3.072,3.416,4.51,3.402
	c2.152-0.021,2.999-1.068,5.431-1.068S16.056,33.99,18.193,34c1.6,0.007,3.325-1.032,5.005-4.688c0.9-1.959,2.543-4.814,2.543-8.063
	C25.742,14.772,22.347,13.28,19.336,13.261z M7.969,18.163c-1.757,0-3.016,0.648-3.016,4.031H2.766c0-1.499,0.357-6.141,5.203-6.141
	V18.163z"/>
<path fill="#231F20" d="M25.972,0.133c-2.624,0.056-5.136,1.011-7.033,2.908c-1.897,1.897-2.851,4.408-2.908,7.033
	c2.624-0.057,5.136-1.011,7.033-2.908C24.96,5.269,25.915,2.757,25.972,0.133z"/>
<path fill="#231F20" d="M12,11.973h1.875c0-8.983-4.648-9.814-4.846-9.846L8.721,4.104C8.752,4.109,12,4.799,12,11.973z"/>
</svg>
