<?xml version="1.0" encoding="utf-8"?>
<!-- Generator: Adobe Illustrator 18.1.1, SVG Export Plug-In . SVG Version: 6.00 Build 0)  -->
<svg version="1.1" id="Layer_1" xmlns="http://www.w3.org/2000/svg" xmlns:xlink="http://www.w3.org/1999/xlink" x="0px" y="0px"
	 width="42px" height="33px" viewBox="0 0 42 33" enable-background="new 0 0 42 33" xml:space="preserve">
<path fill="#231F20" d="M40.2,2.424v4.909H35V2.424h-1.8V33H35v-5.667h5.2V33H42V2.424H40.2z M40.2,9.333v4H35v-4H40.2z
	 M40.2,15.333v4H35v-4H40.2z M35,25.333v-4h5.2v4H35z"/>
<path fill="#231F20" d="M6.252,18.433c-1.113,0-2.014,0.902-2.014,2.014v0.771c0,1.113,0.902,2.014,2.014,2.014h3.64
	c1.113,0,2.014-0.902,2.014-2.014v-0.771c0-1.112-0.902-2.014-2.014-2.014H6.252z"/>
<path fill="#231F20" d="M14.164,9.182h0.739h16.19V5.113c0-1.535-1.245-2.78-2.78-2.78H16.944c-1.535,0-2.78,1.245-2.78,2.78v2.22H2
	V0.685H0.2V33H2v-5.818h12.164h0.927h16.002v-4.069c0-1.535-1.245-2.78-2.78-2.78H16.944c-1.535,0-2.78,1.245-2.78,2.78v2.22H2
	V9.182H14.164z"/>
<path fill="#231F20" d="M6.252,5.233h3.64c1.113,0,2.014-0.902,2.014-2.014V2.447c0-1.112-0.902-2.014-2.014-2.014h-3.64
	c-1.113,0-2.014,0.902-2.014,2.014v0.771C4.238,4.331,5.139,5.233,6.252,5.233z"/>
</svg>
