<?xml version="1.0" encoding="utf-8"?>
<!-- Generator: Adobe Illustrator 18.1.1, SVG Export Plug-In . SVG Version: 6.00 Build 0)  -->
<svg version="1.1" id="Layer_1" xmlns="http://www.w3.org/2000/svg" xmlns:xlink="http://www.w3.org/1999/xlink" x="0px" y="0px"
	 width="35px" height="39px" viewBox="0 0 35 39" enable-background="new 0 0 35 39" xml:space="preserve">
<path fill="#A3CA29" d="M17.555,24.989c-6.821,0-12.37-5.549-12.37-12.369c0-6.821,5.549-12.37,12.37-12.37
	c6.82,0,12.369,5.549,12.369,12.37C29.924,19.439,24.375,24.989,17.555,24.989z M17.555,3.006c-5.387,0-9.77,4.226-9.77,9.614
	s4.383,9.769,9.77,9.769c5.387,0,9.769-4.382,9.769-9.769S22.942,3.006,17.555,3.006z"/>
<path fill="#A3CA29" d="M35,11.239l-2.863-0.018l-0.002,1.88l1.064,0c-0.651,6.895-5.014,15.142-15.658,15.142
	c-10.644,0-14.973-8.018-15.704-15.142h1.107v-1.88L0.08,11.239c0,9.631,5.422,18.033,16.052,18.722v5.391
	c-3.256,0.48-5.926,2.422-5.926,2.422v1.27h14.742v-1.27c0,0-2.761-1.963-6.057-2.429v-5.382C29.559,29.296,35,20.819,35,11.239z"/>
<rect x="16.774" y="7.558" transform="matrix(0.7071 0.7071 -0.7071 0.7071 14.4552 -8.5036)" fill="#A3CA29" width="1.436" height="11.279"/>
<rect x="17.274" y="16.593" transform="matrix(0.7071 0.7071 -0.7071 0.7071 18.4907 -7.2463)" fill="#A3CA29" width="1.436" height="4.208"/>
<rect x="16.274" y="4.593" transform="matrix(0.7071 0.7071 -0.7071 0.7071 9.7125 -10.0539)" fill="#A3CA29" width="1.436" height="4.208"/>
</svg>
