<?xml version="1.0" encoding="utf-8"?>
<!-- Generator: Adobe Illustrator 18.1.1, SVG Export Plug-In . SVG Version: 6.00 Build 0)  -->
<!DOCTYPE svg PUBLIC "-//W3C//DTD SVG 1.1//EN" "http://www.w3.org/Graphics/SVG/1.1/DTD/svg11.dtd">
<svg version="1.1" id="Layer_1" xmlns="http://www.w3.org/2000/svg" xmlns:xlink="http://www.w3.org/1999/xlink" x="0px" y="0px"
	 width="10px" height="17px" viewBox="0 0 10 17" enable-background="new 0 0 10 17" xml:space="preserve">
<path fill="#FFFFFF" d="M5,8.605c2.324,0,4.208-1.926,4.208-4.302C9.208,1.927,7.323,0,5,0C2.676,0,0.792,1.927,0.792,4.303
	C0.792,6.679,2.676,8.605,5,8.605z M5,2.186c1.143,0,2.07,0.948,2.07,2.117c0,1.169-0.927,2.116-2.07,2.116
	c-1.143,0-2.07-0.948-2.07-2.116C2.93,3.134,3.857,2.186,5,2.186z M9.85,9.131C9.612,8.642,8.955,8.237,8.08,8.941
	C6.898,9.893,5,9.893,5,9.893s-1.898,0-3.08-0.952C1.046,8.237,0.387,8.642,0.15,9.131c-0.414,0.85,0.054,1.262,1.11,1.954
	c0.902,0.593,2.141,0.814,2.941,0.897l-0.668,0.683c-0.941,0.962-1.849,1.891-2.48,2.535c-0.376,0.386-0.376,1.01,0,1.395
	l0.114,0.117c0.377,0.385,0.988,0.385,1.364,0l2.48-2.535c0.941,0.962,1.849,1.891,2.479,2.535c0.377,0.386,0.988,0.386,1.364,0
	l0.114-0.116c0.376-0.386,0.376-1.01,0-1.395l-2.48-2.535l-0.67-0.685c0.801-0.084,2.027-0.307,2.921-0.894
	C9.796,10.393,10.264,9.981,9.85,9.131z"/>
</svg>
