<?xml version="1.0" encoding="utf-8"?>
<!-- Generator: Adobe Illustrator 17.1.0, SVG Export Plug-In . SVG Version: 6.00 Build 0)  -->
<!DOCTYPE svg PUBLIC "-//W3C//DTD SVG 1.1//EN" "http://www.w3.org/Graphics/SVG/1.1/DTD/svg11.dtd">
<svg version="1.1" id="Layer_1" xmlns="http://www.w3.org/2000/svg" xmlns:xlink="http://www.w3.org/1999/xlink" x="0px" y="0px"
	 width="12px" height="15px" viewBox="0 0 12 15" enable-background="new 0 0 12 15" xml:space="preserve">
<path fill="#FFFFFF" d="M8.424,6.755V6.711c1.217-0.363,2.171-1.534,2.171-3.243C10.595,1.255,8.776,0,6.805,0H0v15.032h6.228
	c3.799,0,5.289-2.372,5.289-4.56C11.517,8.108,10.228,7.128,8.424,6.755z M3.512,2.673h0.79c0.573,0,1.465-0.066,1.953,0.219
	c0.466,0.285,0.721,0.811,0.721,1.358c0,0.504-0.212,1.052-0.615,1.359c-0.509,0.394-1.21,0.35-1.804,0.35H3.512V2.673z
	 M7.108,11.92c-0.531,0.373-1.316,0.329-1.932,0.329H3.512V8.514h1.812c0.552,0,1.231,0,1.72,0.285
	c0.487,0.285,0.827,0.966,0.827,1.536C7.871,10.948,7.595,11.592,7.108,11.92z"/>
</svg>
