<?xml version="1.0" encoding="utf-8"?>
<!-- Generator: Adobe Illustrator 18.1.1, SVG Export Plug-In . SVG Version: 6.00 Build 0)  -->
<svg version="1.1" id="Layer_1" xmlns="http://www.w3.org/2000/svg" xmlns:xlink="http://www.w3.org/1999/xlink" x="0px" y="0px"
	 width="26px" height="34px" viewBox="0 0 26 34" enable-background="new 0 0 26 34" xml:space="preserve">
<path fill="#A3CA29" d="M19.365,13.51c-2.505-0.016-2.861,1.055-6.484,1.055c-3.623,0-2.977-1.152-6.516-1.152
	c-4.231,0-6.336,3.721-6.336,7.952c0,4.104,1.671,7.282,2.912,9.416c1.534,2.637,3.072,3.416,4.51,3.402
	c2.152-0.021,2.999-1.068,5.431-1.068s3.204,1.124,5.341,1.134c1.6,0.007,3.325-1.032,5.005-4.688
	c0.9-1.959,2.543-4.814,2.543-8.063C25.77,15.02,22.376,13.529,19.365,13.51z M7.997,18.412c-1.757,0-3.016,0.648-3.016,4.031H2.794
	c0-1.499,0.357-6.141,5.203-6.141V18.412z"/>
<path fill="#A3CA29" d="M26,0.382c-2.624,0.056-5.136,1.011-7.033,2.908c-1.897,1.897-2.851,4.408-2.908,7.033
	c2.624-0.056,5.136-1.011,7.033-2.908C24.989,5.518,25.944,3.006,26,0.382z"/>
<path fill="#A3CA29" d="M12.028,12.222h1.875c0-8.983-4.648-9.814-4.846-9.846L8.749,4.353C8.78,4.358,12.028,5.048,12.028,12.222z"
	/>
</svg>
