<?xml version="1.0" encoding="utf-8"?>
<!-- Generator: Adobe Illustrator 17.1.0, SVG Export Plug-In . SVG Version: 6.00 Build 0)  -->
<!DOCTYPE svg PUBLIC "-//W3C//DTD SVG 1.1//EN" "http://www.w3.org/Graphics/SVG/1.1/DTD/svg11.dtd">
<svg version="1.1" id="Layer_1" xmlns="http://www.w3.org/2000/svg" xmlns:xlink="http://www.w3.org/1999/xlink" x="0px" y="0px"
	 width="15px" height="12px" viewBox="0 0 15 12" enable-background="new 0 0 15 12" xml:space="preserve">
<path fill="#CCCCCC" d="M14.428,1.388c-0.531,0.235-1.101,0.394-1.701,0.466c0.611-0.367,1.081-0.947,1.301-1.638
	c-0.572,0.339-1.205,0.586-1.88,0.718C11.609,0.36,10.839,0,9.988,0c-1.635,0-2.96,1.325-2.96,2.96c0,0.233,0.026,0.459,0.076,0.675
	c-2.46-0.124-4.642-1.302-6.101-3.093c-0.255,0.437-0.4,0.945-0.4,1.488c0,1.027,0.521,1.933,1.316,2.464
	c-0.485-0.016-0.942-0.148-1.341-0.37v0.036c0,1.435,1.021,2.63,2.374,2.903c-0.247,0.068-0.51,0.104-0.779,0.104
	c-0.191,0-0.377-0.019-0.557-0.053c0.377,1.176,1.47,2.032,2.765,2.056c-1.013,0.794-2.289,1.267-3.677,1.267
	c-0.239,0-0.474-0.014-0.705-0.041c1.309,0.84,2.865,1.33,4.536,1.33c5.445,0,8.423-4.511,8.423-8.422
	c0-0.128-0.003-0.256-0.009-0.384C13.529,2.503,14.031,1.982,14.428,1.388z"/>
</svg>
