<?xml version="1.0" encoding="utf-8"?>
<!-- Generator: Adobe Illustrator 18.1.1, SVG Export Plug-In . SVG Version: 6.00 Build 0)  -->
<svg version="1.1" id="Layer_1" xmlns="http://www.w3.org/2000/svg" xmlns:xlink="http://www.w3.org/1999/xlink" x="0px" y="0px"
	 width="126px" height="63px" viewBox="0 0 126 63" enable-background="new 0 0 126 63" xml:space="preserve">
<path fill="#515151" d="M125.685,10.057c-4.707-3.439-9.411-4.606-14.118-4.606c-8.681,0-17.357,3.969-26.038,4.981
	c-0.34,0.041-0.685,0.074-1.024,0.106c-0.34,0.03-0.681,0.055-1.021,0.074c-0.584,0.033-1.171,0.053-1.755,0.053
	c-1.829,0-3.659-0.18-5.49-0.598c-0.313-0.072-0.625-0.148-0.938-0.234c-0.305-0.083-0.611-0.173-0.915-0.271
	c-1.917-0.616-3.828-1.519-5.743-2.785c-0.252,3.911-0.5,7.815-0.752,11.716c-0.035,0.558-0.07,1.116-0.107,1.676
	c-0.035,0.558-0.072,1.116-0.109,1.674c-0.021,0.338-0.04,0.678-0.063,1.014c1.797,1.313,3.593,2.293,5.39,3.003
	c0.289,0.116,0.577,0.225,0.866,0.327c0.299,0.106,0.598,0.199,0.894,0.29c2.323,0.701,4.649,0.987,6.97,0.987
	c9.941,0,19.886-5.208,29.827-5.208c4.374,0,8.75,1.007,13.124,3.911c-1.002-3.594-2.008-7.09-3.012-10.496
	C123.013,13.632,124.347,11.752,125.685,10.057z"/>
<path fill="#515151" d="M41.326,12.687l-0.033-0.049l-0.032-0.051c-1.503-2.494-2.263-5.008-2.283-7.415
	c-9.341,2.839-18.68,8.134-28.02,8.134c-3.652,0-7.305-0.81-10.959-2.895c1.144,3.43,2.288,6.734,3.43,9.929
	c-0.6,2.603-1.2,5.178-1.799,7.718c3.108,1.459,6.219,2.049,9.327,2.049c11.904,0,23.806-8.602,35.71-9.758L41.326,12.687z"/>
<path fill="#515151" d="M58.53,5.451c-3.098-1.45-6.197-2.033-9.294-2.033c-0.748,0-1.496,0.037-2.242,0.1L60.049,21.56
	C59.542,16.169,59.037,10.797,58.53,5.451z"/>
<path fill="#515151" d="M84.237,8.758c0.859-2.637,0.903-5.61-0.88-8.48L77.4,8.47c1.391,0.266,2.827,0.399,4.328,0.399
	C82.565,8.869,83.401,8.829,84.237,8.758z"/>
<path fill="#515151" d="M82.473,45.213c-0.442,0-0.885,0.046-1.327,0.15c-4.075,0.931-3.337,2.265-4.881,2.707
	c-0.086,0.025-0.172,0.035-0.257,0.035c-1.834,0-3.218-5.763-8.766-13.537l-0.172-0.236l4.877-6.96
	c-1.868-0.776-3.659-1.795-5.391-3.063l-0.437-0.319l-3.274,4.506l-2.216-3.065l-1.266-1.748l-1.134-1.568L44.954,3.767
	l-0.591-0.815L43.78,2.146L42.227,0c-0.563,0.905-0.947,1.822-1.179,2.735c-0.083,0.326-0.144,0.65-0.19,0.973
	c-0.046,0.317-0.076,0.634-0.09,0.949c-0.102,2.542,0.81,4.981,2.031,7.004l5.976,8.57l0.621,0.889l0.635,0.914l8.574,12.295
	l-0.336,0.465c-5.566,7.755-6.961,13.518-8.795,13.518c-0.084,0-0.171-0.012-0.259-0.037c-1.54-0.445-0.799-1.779-4.876-2.721
	c-0.449-0.104-0.898-0.153-1.34-0.153c-3.446,0-6.664,2.945-7.401,6.416c-1.105,3.839,0.688,8.665,4.698,9.855
	c0.804,0.294,1.637,0.431,2.468,0.431c3.279,0,6.518-2.147,7.646-5.335c2.045-4.568,3.093-10.6,9.709-15.78l2.779-2.175l2.48,1.948
	c6.602,5.194,7.639,11.231,9.675,15.804c1.121,3.196,4.365,5.353,7.651,5.353c0.826,0,1.651-0.136,2.45-0.426
	c4.013-1.181,5.815-6.002,4.719-9.846C89.141,48.163,85.921,45.213,82.473,45.213z M42.756,59.5c-0.855,0-1.718-0.229-2.519-0.741
	c-3.151-1.676-3.131-6.502-0.811-8.838c1.158-1.169,2.624-1.693,4.048-1.693c2.732,0,5.314,1.927,5.307,4.918
	C48.969,56.435,45.897,59.5,42.756,59.5z M85.221,58.576c-0.801,0.509-1.658,0.734-2.512,0.734c-3.145,0-6.217-3.068-6.021-6.367
	c0-2.987,2.579-4.906,5.305-4.906c1.429,0,2.899,0.526,4.062,1.704C88.363,52.084,88.377,56.907,85.221,58.576z"/>
</svg>
