<?xml version="1.0" encoding="utf-8"?>
<!-- Generator: Adobe Illustrator 18.1.1, SVG Export Plug-In . SVG Version: 6.00 Build 0)  -->
<!DOCTYPE svg PUBLIC "-//W3C//DTD SVG 1.1//EN" "http://www.w3.org/Graphics/SVG/1.1/DTD/svg11.dtd">
<svg version="1.1" id="Layer_1" xmlns="http://www.w3.org/2000/svg" xmlns:xlink="http://www.w3.org/1999/xlink" x="0px" y="0px"
	 width="9px" height="15px" viewBox="0 0 9 15" enable-background="new 0 0 9 15" xml:space="preserve">
<path fill="#CCCCCC" d="M4.504,7.593c2.089,0,3.784-1.7,3.784-3.796C8.288,1.7,6.593,0,4.504,0C2.415,0,0.721,1.7,0.721,3.797
	C0.721,5.893,2.415,7.593,4.504,7.593z M4.504,1.929c1.028,0,1.862,0.836,1.862,1.868c0,1.031-0.833,1.867-1.862,1.867
	c-1.028,0-1.861-0.836-1.861-1.867C2.643,2.765,3.476,1.929,4.504,1.929z M8.865,8.056C8.651,7.625,8.06,7.268,7.274,7.889
	c-1.063,0.84-2.77,0.84-2.77,0.84s-1.707,0-2.769-0.84C0.948,7.268,0.356,7.625,0.143,8.056C-0.23,8.807,0.192,9.17,1.141,9.781
	c0.811,0.523,1.925,0.718,2.645,0.791l-0.6,0.602c-0.846,0.849-1.663,1.668-2.23,2.237c-0.339,0.34-0.339,0.891,0,1.231l0.102,0.103
	c0.339,0.34,0.888,0.34,1.227,0l2.23-2.237c0.846,0.849,1.663,1.668,2.23,2.237c0.339,0.34,0.888,0.34,1.227,0l0.102-0.102
	c0.339-0.34,0.339-0.891,0-1.231l-2.23-2.237L5.24,10.57c0.72-0.075,1.823-0.271,2.627-0.789C8.817,9.17,9.237,8.807,8.865,8.056z"
	/>
</svg>
