<?xml version="1.0" encoding="utf-8"?>
<!-- Generator: Adobe Illustrator 18.1.1, SVG Export Plug-In . SVG Version: 6.00 Build 0)  -->
<svg version="1.1" id="Layer_1" xmlns="http://www.w3.org/2000/svg" xmlns:xlink="http://www.w3.org/1999/xlink" x="0px" y="0px"
	 width="45px" height="28px" viewBox="0 0 45 28" enable-background="new 0 0 45 28" xml:space="preserve">
<path fill="#A3CA29" d="M43.027,9h-4.774l-3.424,2.131c-0.201-0.018-0.404-0.031-0.61-0.031H10.791
	c-0.215,0-0.428,0.012-0.638,0.032L7.117,9H1.652C0.74,9,0,9.74,0,10.652v0.632c0,0.912,0.74,1.652,1.652,1.652h4.583
	c-1.212,1.164-1.98,2.786-2.025,4.589l0,0l-0.023,8.607c0,0.948,0.769,1.717,1.717,1.717h2.391c0.948,0,1.717-0.769,1.717-1.717
	v-4.308h24.985v4.308c0,0.948,0.769,1.717,1.717,1.717h2.391c0.948,0,1.717-0.769,1.717-1.717v-8.287l-0.033,0.024
	c0.005-0.061,0.02-0.118,0.02-0.18c0-1.918-0.825-3.639-2.133-4.843h4.352c1.001,0,1.812-0.811,1.812-1.812v-0.222
	C44.839,9.811,44.028,9,43.027,9z M9.969,18.189c-2.538,0-3.191-0.819-3.191-1.745c0-0.926,1.304-1.609,2.838-1.609
	c2.543,0,2.506,0.84,2.506,1.677C12.123,17.349,12.085,18.189,9.969,18.189z M29.788,17.074H15.163v-2.089h14.626V17.074z
	 M35.072,18.141c-2.055,0-2.215-0.816-2.215-1.629c0-0.814,0.087-1.629,2.557-1.629c1.491,0,2.757,0.663,2.757,1.563
	C38.172,17.346,37.538,18.141,35.072,18.141z"/>
<path fill="#A3CA29" d="M17.421,4.852h9.795c2.825,0,5.734,1.564,7.24,3.626l1.377-1.18c-1.716-2.349-4.732-3.93-7.877-4.209V0
	H17.122v3.058C13.853,3.191,10.973,4.7,9.174,7.274l1.473,1.146C12.153,6.267,14.622,4.852,17.421,4.852z"/>
</svg>
