<?xml version="1.0" encoding="utf-8"?>
<!-- Generator: Adobe Illustrator 18.1.1, SVG Export Plug-In . SVG Version: 6.00 Build 0)  -->
<svg version="1.1" id="Layer_1" xmlns="http://www.w3.org/2000/svg" xmlns:xlink="http://www.w3.org/1999/xlink" x="0px" y="0px"
	 width="31px" height="33px" viewBox="0 0 31 33" enable-background="new 0 0 31 33" xml:space="preserve">
<path fill="#A3CA29" d="M12.919,9.128h-1.902c0-2.443-0.423-2.706-0.959-3.04C8.86,5.341,8.062,4.436,8.062,0.249h1.881
	c0,3.41,0.559,3.679,1.084,4.11C12.001,5.16,12.919,5.836,12.919,9.128z"/>
<path fill="#A3CA29" d="M17.919,9.128h-1.902c0-2.814-0.461-3.054-0.95-3.306c-1.408-0.728-2.005-1.791-2.005-5.573h1.881
	c0,3.257,0.484,3.43,0.954,3.766C17.21,4.952,17.919,5.72,17.919,9.128z"/>
<path fill="#A3CA29" d="M26.918,29.202H0v1.881h1.314c1.464,0.827,4.782,2.008,11.864,2.008c7.082,0,10.703-1.181,12.378-2.008
	h1.362V29.202z"/>
<path fill="#A3CA29" d="M26.509,11.212h-1.566v-0.004H3.08v2.066c0,8.595,4.957,8.143,4.957,12.646c0,0.75,0,1.164,0,1.164h11.881
	v-1.164c0-2.656,1.728-3.697,3.157-5.775c0.598,0.034,1.159,0.047,1.646,0.047c1.029,0,1.735-0.052,1.787-0.057
	c2.434,0,4.414-2.001,4.414-4.461C30.923,13.213,28.943,11.212,26.509,11.212z M26.647,18.271c-0.023,0.003-1.116,0.053-2.552-0.011
	c0.504-1.244,0.848-2.823,0.848-4.986v-0.121l1.722,0.021c1.336,0,2.482,1.167,2.482,2.529S28.06,18.268,26.647,18.271z"/>
</svg>
