<?xml version="1.0" encoding="utf-8"?>
<!-- Generator: Adobe Illustrator 18.1.1, SVG Export Plug-In . SVG Version: 6.00 Build 0)  -->
<svg version="1.1" id="Layer_1" xmlns="http://www.w3.org/2000/svg" xmlns:xlink="http://www.w3.org/1999/xlink" x="0px" y="0px"
	 width="29px" height="34px" viewBox="0 0 29 34" enable-background="new 0 0 29 34" xml:space="preserve">
<line fill="#FFFFFF" x1="5.98" y1="27.805" x2="10.566" y2="32.971"/>
<path fill="#A3CA29" d="M5.715,6.29c0-2.219,1.968-4.198,4.186-4.198c0.446,0,0.885,0.072,1.302,0.216l0.648-1.703
	c-0.626-0.215-1.282-0.323-1.95-0.323c-3.32,0-6.022,2.702-6.022,6.023v1.944l1.836-0.015V6.29z"/>
<path fill="#A3CA29" d="M24.788,10.249V6.305c0-3.321-2.567-6.023-5.887-6.023s-6.022,2.702-6.022,6.023v3.944H11.9h-0.716H0v24
	h11.184H11.9h16.977v-24H24.788z M9.9,30.714l-3.079-3.469V12.249H9.9V30.714z M9.039,32.249H2.859l3.022-3.453L9.039,32.249z
	 M4.975,12.249v15.054l-3.128,3.24V12.249H4.975z M14.729,6.305c0-2.438,1.954-4.232,4.171-4.232s4.023,1.647,4.023,4.232v3.944
	h-8.194V6.305z"/>
</svg>
