<?xml version="1.0" encoding="utf-8"?>
<!-- Generator: Adobe Illustrator 18.1.1, SVG Export Plug-In . SVG Version: 6.00 Build 0)  -->
<svg version="1.1" id="Layer_1" xmlns="http://www.w3.org/2000/svg" xmlns:xlink="http://www.w3.org/1999/xlink" x="0px" y="0px"
	 width="31px" height="39px" viewBox="0 0 31 39" enable-background="new 0 0 31 39" xml:space="preserve">
<rect x="24.104" y="-1.117" transform="matrix(0.757 0.6535 -0.6535 0.757 9.7525 -15.0464)" fill="#231F20" width="2" height="13.409"/>
<path fill="#231F20" d="M16.591,25.802L31,8.289l-1.545-1.271l-4.344,5.28H6.458L2.163,7.022L0.612,8.284l14.219,17.467v11.431
	H9.771V39h11.882v-1.818h-5.061V25.802z M13.468,18.137c0-1.24,1.005-2.246,2.246-2.246c1.24,0,2.246,1.005,2.246,2.246
	s-1.005,2.246-2.246,2.246C14.474,20.383,13.468,19.378,13.468,18.137z"/>
</svg>
