<?xml version="1.0" encoding="utf-8"?>
<!-- Generator: Adobe Illustrator 18.0.0, SVG Export Plug-In . SVG Version: 6.00 Build 0)  -->
<!DOCTYPE svg PUBLIC "-//W3C//DTD SVG 1.1//EN" "http://www.w3.org/Graphics/SVG/1.1/DTD/svg11.dtd">
<svg version="1.1" id="Layer_1" xmlns="http://www.w3.org/2000/svg" xmlns:xlink="http://www.w3.org/1999/xlink" x="0px" y="0px"
	 width="36px" height="26px" viewBox="0 0 36 26" enable-background="new 0 0 36 26" xml:space="preserve">
<path fill="#48B1DF" d="M34.5,21c-0.3,0-0.5,0.2-0.5,0.5V23H23v-1.5c0-0.3-0.2-0.5-0.5-0.5c-0.3,0-0.5,0.2-0.5,0.5V26h1v-2h11v2h1
	v-4.5C35,21.2,34.8,21,34.5,21z"/>
<path fill="#48B1DF" d="M25,19h7c0.6,0,1-0.4,1-1s-0.4-1-1-1h-7c-0.6,0-1,0.4-1,1S24.4,19,25,19z"/>
<path fill="#48B1DF" d="M25,22h7c0.6,0,1-0.4,1-1s-0.4-1-1-1h-7c-0.6,0-1,0.4-1,1S24.4,22,25,22z"/>
<circle fill="#48B1DF" cx="30" cy="8" r="2"/>
<path fill="#48B1DF" d="M21,13c0-0.2,0-0.3,0-0.5c0-3-1.8-5.5-4-5.5s-4,2.5-4,5.5c0,0.2,0,0.3,0,0.5c-1.2,0.7-2,1.8-2,3
	c0,2.2,2.7,4,6,4c3.3,0,6-1.8,6-4C23,14.8,22.2,13.7,21,13z"/>
<path fill="#48B1DF" d="M10,16c0-1.4,0.8-2.6,2-3.5c0-0.2,0-0.3,0-0.5c0-2.4,1.2-4.5,2.9-5.5C14.6,2.8,12.1,0,9,0C5.7,0,3,3.4,3,7.5
	c0,0.4,0,0.8,0.1,1.2C1.2,10,0,11.9,0,14c0,3.9,4,7,9,7c1.5,0,2.9-0.3,4.2-0.8C11.3,19.3,10,17.8,10,16z"/>
<rect x="8" y="21" fill="#48B1DF" width="2" height="5"/>
<rect x="16" y="20" fill="#48B1DF" width="2" height="6"/>
<polygon fill="#48B1DF" points="30.5,2.8 30,4.8 31,5 31.7,2.1 "/>
<polygon fill="#48B1DF" points="25,4.6 26.4,6 27.1,5.3 25,3.2 "/>
<polygon fill="#48B1DF" points="34.1,11.4 32.7,10 32,10.7 34.1,12.8 "/>
<polygon fill="#48B1DF" points="29.1,13.1 29.3,11.1 28.3,11 28,14 "/>
<polygon fill="#48B1DF" points="34.7,6.2 32.9,7.1 33.3,8 36,6.7 "/>
<polygon fill="#48B1DF" points="25.4,9.9 27.1,8.9 26.6,8 24,9.5 "/>
</svg>
