<?xml version="1.0" encoding="utf-8"?>
<!-- Generator: Adobe Illustrator 18.0.0, SVG Export Plug-In . SVG Version: 6.00 Build 0)  -->
<!DOCTYPE svg PUBLIC "-//W3C//DTD SVG 1.1//EN" "http://www.w3.org/Graphics/SVG/1.1/DTD/svg11.dtd">
<svg version="1.1" id="Layer_1" xmlns="http://www.w3.org/2000/svg" xmlns:xlink="http://www.w3.org/1999/xlink" x="0px" y="0px"
	 width="20px" height="20px" viewBox="0 0 20 20" enable-background="new 0 0 20 20" xml:space="preserve">
<path fill="#48B1DF" d="M15.3,3.3h-0.7L9.3,8.7L8,7.3H6.7l-2.7,4v1.3L7.3,16h1.3l4-2.7V12l-1.3-1.3L12,9.3h1.3V8h1.3V6.7H16V5.3V4
	L15.3,3.3z M8.7,14.7H8L5.3,12v-0.7L6,10.7L9.3,14L8.7,14.7z"/>
<path fill="#63B3D1" d="M18.7,0.7H1.3C1,0.7,0.7,1,0.7,1.3v17.3c0,0.4,0.3,0.7,0.7,0.7h17.3c0.4,0,0.7-0.3,0.7-0.7V1.3
	C19.3,1,19,0.7,18.7,0.7z M18.7,18.7H1.3V1.3h17.3V18.7z"/>
<rect x="0.7" fill="#48B1DF" width="18.7" height="2"/>
<rect x="0.7" y="18" fill="#48B1DF" width="18.7" height="2"/>
<rect y="0.7" fill="#48B1DF" width="2" height="18.7"/>
<rect x="18" y="0.7" fill="#48B1DF" width="2" height="18.7"/>
<rect x="0" y="0" opacity="0.5" fill="#48B1DF" width="0.7" height="0.7"/>
<rect x="19.3" y="0" opacity="0.5" fill="#48B1DF" width="0.7" height="0.7"/>
<rect x="0" y="19.3" opacity="0.5" fill="#48B1DF" width="0.7" height="0.7"/>
<rect x="19.3" y="19.3" opacity="0.5" fill="#48B1DF" width="0.7" height="0.7"/>
</svg>
