<?xml version="1.0" encoding="utf-8"?>
<!-- Generator: Adobe Illustrator 18.0.0, SVG Export Plug-In . SVG Version: 6.00 Build 0)  -->
<!DOCTYPE svg PUBLIC "-//W3C//DTD SVG 1.1//EN" "http://www.w3.org/Graphics/SVG/1.1/DTD/svg11.dtd">
<svg version="1.1" id="Layer_1" xmlns="http://www.w3.org/2000/svg" xmlns:xlink="http://www.w3.org/1999/xlink" x="0px" y="0px"
	 width="41px" height="22px" viewBox="0 0 41 22" enable-background="new 0 0 41 22" xml:space="preserve">
<path fill="#F5A864" d="M41,3c0-1.7-1.3-3-3-3H3C1.3,0,0,1.3,0,3v16c0,1.7,1.4,3,3,3h35c1.7,0,3-1.3,3-3V3z"/>
<path fill="#FFFFFF" d="M8.2,5.2h2.6c2.7,0,4.2,0.6,4.2,3.4c0,2.8-1.5,3.5-4.2,3.5H9.7V17H8.2V5.2z M10.7,11c1.9,0,2.7-0.3,2.7-2.4
	c0-2-0.8-2.4-2.7-2.4h-1V11H10.7z"/>
<path fill="#FFFFFF" d="M16.4,5.2h1.8l4,9.9V5.2h1.3V17h-1.7l-4-9.9V17h-1.3V5.2z"/>
<path fill="#FFFFFF" d="M25.3,11.8v-1.5c0-3.7,1.1-5.4,3.8-5.4c2.3,0,3.6,1.4,3.6,3.8v0h-1.4v0c0-1.8-0.7-2.7-2.1-2.7
	c-1.9,0-2.3,1.7-2.3,4.7v0.6c0,3,0.4,4.7,2.3,4.7c1.7,0,2.3-1.3,2.3-3.5v-0.5h-2.8V11h4.1v6h-1.1l0-1.6c-0.5,1.1-1.3,1.8-2.7,1.8
	C26.4,17.2,25.3,15.5,25.3,11.8z"/>
</svg>
