<?xml version="1.0" encoding="utf-8"?>
<!-- Generator: Adobe Illustrator 18.0.0, SVG Export Plug-In . SVG Version: 6.00 Build 0)  -->
<!DOCTYPE svg PUBLIC "-//W3C//DTD SVG 1.1//EN" "http://www.w3.org/Graphics/SVG/1.1/DTD/svg11.dtd">
<svg version="1.1" id="Layer_1" xmlns="http://www.w3.org/2000/svg" xmlns:xlink="http://www.w3.org/1999/xlink" x="0px" y="0px"
	 width="19px" height="16px" viewBox="0 0 19 16" enable-background="new 0 0 19 16" xml:space="preserve">
<path fill="#DBBD6E" d="M4.5,6C2,6,0,5.1,0,4v2c0,1.1,2,2,4.5,2C7,8,9,7.1,9,6V4C9,5.1,7,6,4.5,6z"/>
<ellipse fill="#DBBD6E" cx="4.5" cy="2" rx="4.5" ry="2"/>
<path fill="#DBBD6E" d="M4.5,10C2,10,0,9.1,0,8v2c0,1.1,2,2,4.5,2C7,12,9,11.1,9,10V8C9,9.1,7,10,4.5,10z"/>
<path fill="#DBBD6E" d="M4.5,14C2,14,0,13.1,0,12v2c0,1.1,2,2,4.5,2C7,16,9,15.1,9,14v-2C9,13.1,7,14,4.5,14z"/>
<ellipse fill="#DBBD6E" cx="14.5" cy="6" rx="4.5" ry="2"/>
<path fill="#DBBD6E" d="M14.5,10C12,10,10,9.1,10,8v2c0,1.1,2,2,4.5,2c2.5,0,4.5-0.9,4.5-2V8C19,9.1,17,10,14.5,10z"/>
<path fill="#DBBD6E" d="M14.5,14C12,14,10,13.1,10,12v2c0,1.1,2,2,4.5,2c2.5,0,4.5-0.9,4.5-2v-2C19,13.1,17,14,14.5,14z"/>
</svg>
