<?xml version="1.0" encoding="utf-8"?>
<!-- Generator: Adobe Illustrator 16.0.4, SVG Export Plug-In . SVG Version: 6.00 Build 0)  -->
<!DOCTYPE svg PUBLIC "-//W3C//DTD SVG 1.1//EN" "http://www.w3.org/Graphics/SVG/1.1/DTD/svg11.dtd">
<svg version="1.1" id="Слой_1" xmlns="http://www.w3.org/2000/svg" xmlns:xlink="http://www.w3.org/1999/xlink" x="0px" y="0px"
	 width="11px" height="11px" viewBox="0 0 11 11" style="enable-background:new 0 0 11 11;" xml:space="preserve">
<path style="fill:#ECEAEA;" d="M10.1,10c-0.6,0.6-1.4,0.9-2.1,1c-1.4-0.2-2.5-0.6-3.6-1.3l-3-3C0.7,5.6,0.2,4.4,0,3
	c0.2-0.7,0.5-1.5,1.1-2L2,0l2.4,2.5v0.6L3.8,3.7C3.3,4.2,3.3,5,3.8,5.5l1.8,1.8c0.5,0.5,1.3,0.5,1.8,0L8,6.7h0.7L11,9L10.1,10z"/>
</svg>
