<?xml version="1.0" encoding="utf-8"?>
<!-- Generator: Adobe Illustrator 18.0.0, SVG Export Plug-In . SVG Version: 6.00 Build 0)  -->
<!DOCTYPE svg PUBLIC "-//W3C//DTD SVG 1.1//EN" "http://www.w3.org/Graphics/SVG/1.1/DTD/svg11.dtd">
<svg version="1.1" id="Layer_1" xmlns="http://www.w3.org/2000/svg" xmlns:xlink="http://www.w3.org/1999/xlink" x="0px" y="0px"
	 width="47px" height="61px" viewBox="0 0 47 61" enable-background="new 0 0 47 61" xml:space="preserve">
<path fill="#FFFFFF" d="M3,60.5c-1.7,0-2.5-0.8-2.5-2.5V3c0-1.7,0.8-2.5,2.5-2.5h29.8l13.7,13.7V58c0,1.7-0.8,2.5-2.5,2.5H3z"/>
<path fill="#C3B9A9" d="M32.6,1L46,14.4V58c0,1.4-0.6,2-2,2H3c-1.4,0-2-0.6-2-2V3c0-1.4,0.6-2,2-2H32.6 M33,0H3C1.1,0,0,1.1,0,3v55
	c0,1.9,1.1,3,3,3h41c1.9,0,3-1.1,3-3V14L33,0L33,0z"/>
<path fill="#C3B9A9" d="M33,12c0,1.9,1.1,3,3,3h11L33,1V12z"/>
<path fill="#63B3D1" d="M44,39c0-1.7-1.3-3-3-3H6c-1.7,0-3,1.3-3,3v16c0,1.7,1.4,3,3,3h35c1.7,0,3-1.3,3-3V39z"/>
<path fill="#FFFFFF" d="M11.2,41.2h2.6c2.8,0,4.5,1.2,4.5,5.3v1.3c0,4-1.7,5.3-4.5,5.3h-2.6V41.2z M13.9,51.9c2.1,0,2.9-1.1,2.9-4.6
	v-0.6c0-3.4-0.8-4.6-2.9-4.6h-1.2v9.7H13.9z"/>
<path fill="#FFFFFF" d="M27.6,46.4v1.5c0,3.7-1.2,5.4-3.9,5.4c-2.7,0-3.9-1.7-3.9-5.4v-1.5c0-3.7,1.2-5.4,3.9-5.4
	C26.4,41,27.6,42.6,27.6,46.4z M21.3,46.8v0.6c0,3,0.5,4.7,2.3,4.7c1.9,0,2.3-1.7,2.3-4.7v-0.6c0-3-0.5-4.7-2.3-4.7
	C21.8,42,21.3,43.8,21.3,46.8z"/>
<path fill="#FFFFFF" d="M29.1,47.8v-1.5c0-3.7,1.1-5.4,3.8-5.4c2.3,0,3.6,1.4,3.6,3.9v0.1H35v-0.1c0-2-0.7-2.8-2.1-2.8
	c-1.9,0-2.3,1.7-2.3,4.7v0.6c0,3,0.4,4.7,2.3,4.7c1.4,0,2.1-0.8,2.1-2.8v-0.1h1.4v0.1c0,2.5-1.2,3.9-3.6,3.9
	C30.2,53.2,29.1,51.5,29.1,47.8z"/>
<path fill="#C3B9A9" d="M26,21c0,0.6-0.4,1-1,1H7c-0.6,0-1-0.4-1-1l0,0c0-0.6,0.4-1,1-1h18C25.6,20,26,20.4,26,21L26,21z"/>
<path fill="#C3B9A9" d="M41,25c0,0.6-0.4,1-1,1H7c-0.6,0-1-0.4-1-1l0,0c0-0.6,0.4-1,1-1h33C40.6,24,41,24.4,41,25L41,25z"/>
<path fill="#C3B9A9" d="M41,29c0,0.6-0.4,1-1,1H7c-0.6,0-1-0.4-1-1l0,0c0-0.6,0.4-1,1-1h33C40.6,28,41,28.4,41,29L41,29z"/>
</svg>
