<?xml version="1.0" encoding="utf-8"?>
<!-- Generator: Adobe Illustrator 18.0.0, SVG Export Plug-In . SVG Version: 6.00 Build 0)  -->
<!DOCTYPE svg PUBLIC "-//W3C//DTD SVG 1.1//EN" "http://www.w3.org/Graphics/SVG/1.1/DTD/svg11.dtd">
<svg version="1.1" id="Layer_1" xmlns="http://www.w3.org/2000/svg" xmlns:xlink="http://www.w3.org/1999/xlink" x="0px" y="0px"
	 width="20px" height="20px" viewBox="0 0 20 20" enable-background="new 0 0 20 20" xml:space="preserve">
<circle fill-rule="evenodd" clip-rule="evenodd" fill="#4D8F44" cx="10" cy="10" r="10"/>
<path fill="#FFFFFF" d="M8,6.9H6V6h2V6.9z"/>
<path fill="#FFFFFF" d="M7,13h2v2H8l-1-1V13z"/>
<path fill="#FFFFFF" d="M10,13h2v2h-1l-1-1V13z"/>
<path fill="#FFFFFF" d="M7,7v4h6l2-4H7z M12,9v1h-1V9h-1v1H9V9H8V8h1v1h1V8h1v1H12V8h1v1H12z"/>
<path fill="#FFFFFF" d="M12,11.6H7V12h5V11.6z"/>
<path fill="#FFFFFF" d="M7.5,12H7v-1h0.5V12z"/>
<rect x="9" y="9" fill="#FFFFFF" width="3" height="1"/>
</svg>
