<?xml version="1.0" encoding="utf-8"?>
<!-- Generator: Adobe Illustrator 18.0.0, SVG Export Plug-In . SVG Version: 6.00 Build 0)  -->
<!DOCTYPE svg PUBLIC "-//W3C//DTD SVG 1.1//EN" "http://www.w3.org/Graphics/SVG/1.1/DTD/svg11.dtd">
<svg version="1.1" id="Layer_1" xmlns="http://www.w3.org/2000/svg" xmlns:xlink="http://www.w3.org/1999/xlink" x="0px" y="0px"
	 width="26px" height="17px" viewBox="0 0 26 17" enable-background="new 0 0 26 17" xml:space="preserve">
<path fill="#A1CD93" d="M6,0v11h20V0H6z M10,9H8V8h2V9z M10,4H8V2h2V4z M16,9c-1.7,0-3-1.6-3-3.5C13,3.6,14.3,2,16,2
	c1.7,0,3,1.6,3,3.5C19,7.4,17.7,9,16,9z M24,9h-2V8h2V9z M24,4h-2V2h2V4z"/>
<path fill="#A1CD93" d="M23,12H5V3H3v11h20V12z"/>
<path fill="#A1CD93" d="M20,15H2V6H0v11h20V15z"/>
</svg>
