<?xml version="1.0" encoding="utf-8"?>
<!-- Generator: Adobe Illustrator 18.0.0, SVG Export Plug-In . SVG Version: 6.00 Build 0)  -->
<!DOCTYPE svg PUBLIC "-//W3C//DTD SVG 1.1//EN" "http://www.w3.org/Graphics/SVG/1.1/DTD/svg11.dtd">
<svg version="1.1" id="Layer_1" xmlns="http://www.w3.org/2000/svg" xmlns:xlink="http://www.w3.org/1999/xlink" x="0px" y="0px"
	 width="28px" height="20px" viewBox="0 0 28 20" enable-background="new 0 0 28 20" xml:space="preserve">
<path fill="#48B1DF" d="M12.6,0H1.4C0.6,0,0,0.7,0,1.7v5c0,0.9,0.6,1.7,1.4,1.7h11.2c0.8,0,1.4-0.7,1.4-1.7v-5C14,0.7,13.4,0,12.6,0
	z M11.9,5.8h-1.4h-7H2.1V2.5h1.4h7h1.4V5.8z"/>
<path fill="#48B1DF" d="M26.6,0H15.4C14.6,0,14,0.7,14,1.7v5c0,0.9,0.6,1.7,1.4,1.7h11.2c0.8,0,1.4-0.7,1.4-1.7v-5
	C28,0.7,27.4,0,26.6,0z M25.9,5.8h-1.4h-7h-1.4V2.5h1.4h7h1.4V5.8z"/>
<path fill="#48B1DF" d="M12.6,11.7H1.4c-0.8,0-1.4,0.7-1.4,1.7v5C0,19.3,0.6,20,1.4,20h11.2c0.8,0,1.4-0.7,1.4-1.7v-5
	C14,12.4,13.4,11.7,12.6,11.7z M11.9,17.5h-1.4h-7H2.1v-3.3h1.4h7h1.4V17.5z"/>
<path fill="#48B1DF" d="M26.6,11.7H15.4c-0.8,0-1.4,0.7-1.4,1.7v5c0,0.9,0.6,1.7,1.4,1.7h11.2c0.8,0,1.4-0.7,1.4-1.7v-5
	C28,12.4,27.4,11.7,26.6,11.7z M25.9,17.5h-1.4h-7h-1.4v-3.3h1.4h7h1.4V17.5z"/>
<path fill="#48B1DF" d="M19.6,5.8H8.4C7.6,5.8,7,6.6,7,7.5v5c0,0.9,0.6,1.7,1.4,1.7h11.2c0.8,0,1.4-0.7,1.4-1.7v-5
	C21,6.6,20.4,5.8,19.6,5.8z M18.9,11.7h-1.4h-7H9.1V8.3h1.4h7h1.4V11.7z"/>
</svg>
