<?xml version="1.0" encoding="utf-8"?>
<!-- Generator: Adobe Illustrator 18.0.0, SVG Export Plug-In . SVG Version: 6.00 Build 0)  -->
<!DOCTYPE svg PUBLIC "-//W3C//DTD SVG 1.1//EN" "http://www.w3.org/Graphics/SVG/1.1/DTD/svg11.dtd">
<svg version="1.1" id="Layer_1" xmlns="http://www.w3.org/2000/svg" xmlns:xlink="http://www.w3.org/1999/xlink" x="0px" y="0px"
	 width="20px" height="20px" viewBox="0 0 20 20" enable-background="new 0 0 20 20" xml:space="preserve">
<circle fill-rule="evenodd" clip-rule="evenodd" fill="#48B1DF" cx="10" cy="10" r="10"/>
<path fill="#FFFFFF" d="M4.8,7.5c0-0.8,0.2-1.5,0.5-1.9c0.4-0.4,0.9-0.6,1.5-0.6c0.6,0,1.2,0.2,1.5,0.6c0.4,0.4,0.5,1,0.5,1.9
	c0,0.8-0.2,1.5-0.5,1.9C8,9.8,7.5,10,6.9,10c-0.6,0-1.2-0.2-1.5-0.6C5,9,4.8,8.4,4.8,7.5z M6.2,7.5c0,0.6,0.1,1,0.2,1.2
	C6.5,8.9,6.7,9,6.8,9C7,9,7.2,8.9,7.3,8.7c0.1-0.2,0.2-0.6,0.2-1.2c0-0.6-0.1-1-0.2-1.2C7.2,6.2,7,6.1,6.8,6.1
	c-0.2,0-0.3,0.1-0.4,0.2C6.3,6.5,6.2,6.9,6.2,7.5z M8.2,14.9H6.9l5-9.8h1.3L8.2,14.9z M11.1,12.5c0-0.8,0.2-1.5,0.5-1.9
	c0.4-0.4,0.9-0.6,1.5-0.6c0.6,0,1.1,0.2,1.5,0.6c0.4,0.4,0.5,1,0.5,1.9c0,0.8-0.2,1.5-0.5,1.9c-0.4,0.4-0.9,0.6-1.5,0.6
	c-0.6,0-1.2-0.2-1.5-0.6C11.3,13.9,11.1,13.3,11.1,12.5z M12.5,12.5c0,0.6,0.1,1,0.2,1.2c0.1,0.2,0.3,0.2,0.4,0.2
	c0.2,0,0.3-0.1,0.4-0.2c0.1-0.2,0.2-0.6,0.2-1.2c0-0.6-0.1-1-0.2-1.2c-0.1-0.2-0.3-0.2-0.4-0.2c-0.2,0-0.3,0.1-0.4,0.2
	C12.5,11.4,12.5,11.8,12.5,12.5z"/>
</svg>
