<?xml version="1.0" encoding="utf-8"?>
<!-- Generator: Adobe Illustrator 18.0.0, SVG Export Plug-In . SVG Version: 6.00 Build 0)  -->
<!DOCTYPE svg PUBLIC "-//W3C//DTD SVG 1.1//EN" "http://www.w3.org/Graphics/SVG/1.1/DTD/svg11.dtd">
<svg version="1.1" id="Layer_1" xmlns="http://www.w3.org/2000/svg" xmlns:xlink="http://www.w3.org/1999/xlink" x="0px" y="0px"
	 width="21px" height="24px" viewBox="0 0 21 24" enable-background="new 0 0 21 24" xml:space="preserve">
<path fill="#49B2E0" d="M3.4,22.4c0,0.9,1,1.6,2.2,1.6h10.6c1.2,0,2.2-0.7,2.2-1.6v-1H3.4V22.4z"/>
<path fill="#49B2E0" d="M19.1,8.8l-7.4-3.4c0,0-0.1,0-0.1-0.1c0,0,0.1-0.1,0.1-0.1C11.9,5.2,12,5.1,12.1,5c0.7-0.5,1.2-1.3,1.2-2.1
	c0.1-0.8-0.3-1.6-0.9-2.2c-0.8-0.7-1.8-0.9-3-0.5c-1,0.3-1.7,1.2-1.7,2.2c0,0.5,0.3,0.9,0.8,1c0.1,0,0.1,0,0.2,0
	c0.5,0,0.9-0.3,1-0.8c0-0.2,0.1-0.4,0.2-0.4C10.1,2.1,10.2,2,10.4,2c0.3,0,0.6,0.1,0.7,0.3c0.1,0.2,0.2,0.4,0.1,0.5
	c0,0.2-0.2,0.4-0.4,0.5c-0.1,0.1-0.2,0.1-0.4,0.2C10.3,3.8,10.1,3.9,9.9,4C9.4,4.4,9.2,4.9,9.4,5.4c0,0-0.1,0-0.1,0.1L2.4,8.9
	c-1.3,0.6-2,2.1-1.8,3.6C0.9,14,2,15.1,3.4,15.3v4.8h14.9v-4.8c1.4-0.2,2.5-1.3,2.7-2.8C21.2,10.9,20.4,9.4,19.1,8.8z M18.3,12.9
	v-0.2c0-0.9-1-1.6-2.2-1.6H5.5c-1.2,0-2.2,0.7-2.2,1.6v0.2v0.2c-0.3-0.2-0.5-0.5-0.6-0.9c-0.1-0.6,0.2-1.2,0.6-1.4l6.8-3.4
	c0.1-0.1,0.2-0.1,0.4-0.1c0.1,0,0.2,0,0.3,0.1l7.4,3.4c0.5,0.2,0.7,0.8,0.6,1.4c-0.1,0.4-0.3,0.8-0.6,0.9V12.9z"/>
</svg>
