<?xml version="1.0" encoding="utf-8"?>
<!-- Generator: Adobe Illustrator 18.0.0, SVG Export Plug-In . SVG Version: 6.00 Build 0)  -->
<!DOCTYPE svg PUBLIC "-//W3C//DTD SVG 1.1//EN" "http://www.w3.org/Graphics/SVG/1.1/DTD/svg11.dtd">
<svg version="1.1" id="Layer_1" xmlns="http://www.w3.org/2000/svg" xmlns:xlink="http://www.w3.org/1999/xlink" x="0px" y="0px"
	 width="18px" height="18px" viewBox="0 0 18 18" enable-background="new 0 0 18 18" xml:space="preserve">
<path fill="#48B1DF" d="M14,3V0c0,0-6.5,0-7.3,0C5.9,0,5.5,0.2,5.2,0.5C4.9,0.9,1.4,4.2,0.9,4.8C0.3,5.4,0,5.6,0,6.5
	C0,7.2,0,17,0,17v1h14v-1v-7l3.6-3.5L14,3z M13,3L7,9l-2,4v2h2l4-2l2-2l0,6H1c0,0,0-9.1,0-10c0-0.7,0.3-1,1-1c0.7,0,4,0,4,0
	s0-3.5,0-4c0-0.5,0.3-1,1-1c0.7,0,6,0,6,0L13,3z M10,12l-3,2l-1-1l2-3L10,12z"/>
</svg>
