<?xml version="1.0" encoding="utf-8"?>
<!-- Generator: Adobe Illustrator 18.0.0, SVG Export Plug-In . SVG Version: 6.00 Build 0)  -->
<!DOCTYPE svg PUBLIC "-//W3C//DTD SVG 1.1//EN" "http://www.w3.org/Graphics/SVG/1.1/DTD/svg11.dtd">
<svg version="1.1" id="Layer_1" xmlns="http://www.w3.org/2000/svg" xmlns:xlink="http://www.w3.org/1999/xlink" x="0px" y="0px"
	 width="47px" height="61px" viewBox="0 0 47 61" enable-background="new 0 0 47 61" xml:space="preserve">
<path fill="#FFFFFF" d="M3,60.5c-1.7,0-2.5-0.8-2.5-2.5V3c0-1.7,0.8-2.5,2.5-2.5h29.8l13.7,13.7V58c0,1.7-0.8,2.5-2.5,2.5H3z"/>
<path fill="#C3B9A9" d="M32.6,1L46,14.4V58c0,1.4-0.6,2-2,2H3c-1.4,0-2-0.6-2-2V3c0-1.4,0.6-2,2-2H32.6 M33,0H3C1.1,0,0,1.1,0,3v55
	c0,1.9,1.1,3,3,3h41c1.9,0,3-1.1,3-3V14L33,0L33,0z"/>
<path fill="#C3B9A9" d="M33,12c0,1.9,1.1,3,3,3h11L33,1V12z"/>
<path fill="#A1CD93" d="M44,39c0-1.7-1.3-3-3-3H6c-1.7,0-3,1.3-3,3v16c0,1.7,1.4,3,3,3h35c1.7,0,3-1.3,3-3V39z"/>
<path fill="#FFFFFF" d="M15.3,46.9l-3-5.7h1.5l2.2,4.4l2.3-4.4h1.5l-3,5.6L20,53h-1.5L16,48.2L13.5,53H12L15.3,46.9z"/>
<path fill="#FFFFFF" d="M21.2,41.2h1.5v10.7h4.5V53h-6V41.2z"/>
<path fill="#FFFFFF" d="M27.9,49.4v-0.1h1.5v0.1c0,1.9,0.8,2.8,2.3,2.8c1.4,0,2.1-0.8,2.1-2c0-1.2-0.6-1.7-1.8-2.3l-1.5-0.7
	c-1.3-0.6-2.3-1.3-2.3-3.2c0-1.9,1.4-3,3.3-3c2,0,3.4,1.1,3.4,3.3v0.1h-1.4v-0.1c0-1.4-0.8-2.3-2-2.3c-1.2,0-1.9,0.7-1.9,1.8
	c0,1.1,0.5,1.5,1.3,1.9l1.5,0.7c1.5,0.7,2.8,1.4,2.8,3.5s-1.3,3.3-3.5,3.3C29.2,53.2,27.9,51.9,27.9,49.4z"/>
<path fill="#C3B9A9" d="M39,27v4H14v-4H39 M40,26H13v6h27V26L40,26z"/>
<path fill="#C3B9A9" d="M39,21v5H14v-5H39 M40,20H13v7h27V20L40,20z"/>
<path fill="#C3B9A9" d="M13,27v4H8v-4H13 M14,26H7v6h7V26L14,26z"/>
<path fill="#C3B9A9" d="M13,21v5H8v-5H13 M14,20H7v7h7V20L14,20z"/>
</svg>
