<?xml version="1.0" encoding="utf-8"?>
<!-- Generator: Adobe Illustrator 18.0.0, SVG Export Plug-In . SVG Version: 6.00 Build 0)  -->
<!DOCTYPE svg PUBLIC "-//W3C//DTD SVG 1.1//EN" "http://www.w3.org/Graphics/SVG/1.1/DTD/svg11.dtd">
<svg version="1.1" id="Слой_1" xmlns="http://www.w3.org/2000/svg" xmlns:xlink="http://www.w3.org/1999/xlink" x="0px" y="0px"
	 width="64px" height="64px" viewBox="0 0 64 64" enable-background="new 0 0 64 64" xml:space="preserve">
<path fill="#F1F2F4" d="M40.4,25.8h-4.9V29h4.9V25.8z M40.4,30.7h-4.9v3.3h4.9V30.7z M47,35.6h-4.9v3.3H47V35.6z M47,25.8h-4.9V29
	H47V25.8z M40.4,35.6h-4.9v3.3h4.9V35.6z M47,30.7h-4.9v3.3H47V30.7z M20.9,48.6h4.9v-9.8h-4.9V48.6z M17.7,22.5H29v-3.3H17.7V22.5z
	 M17.7,32.3H29V29H17.7V32.3z M32,0C14.3,0,0,14.3,0,32c0,17.7,14.3,32,32,32s32-14.3,32-32C64,14.3,49.7,0,32,0z M50.2,50.2H14.4
	V14.4h17.9v6.5h17.9V50.2z M17.7,27.4H29v-3.3H17.7V27.4z"/>
</svg>
