<?xml version="1.0" encoding="utf-8"?>
<!-- Generator: Adobe Illustrator 18.0.0, SVG Export Plug-In . SVG Version: 6.00 Build 0)  -->
<!DOCTYPE svg PUBLIC "-//W3C//DTD SVG 1.1//EN" "http://www.w3.org/Graphics/SVG/1.1/DTD/svg11.dtd">
<svg version="1.1" id="Layer_1" xmlns="http://www.w3.org/2000/svg" xmlns:xlink="http://www.w3.org/1999/xlink" x="0px" y="0px"
	 width="47px" height="61px" viewBox="0 0 47 61" enable-background="new 0 0 47 61" xml:space="preserve">
<path fill="#FFFFFF" d="M3,60.5c-1.7,0-2.5-0.8-2.5-2.5V3c0-1.7,0.8-2.5,2.5-2.5h29.8l13.7,13.7V58c0,1.7-0.8,2.5-2.5,2.5H3z"/>
<path fill="#C3B9A9" d="M32.6,1L46,14.4V58c0,1.4-0.6,2-2,2H3c-1.4,0-2-0.6-2-2V3c0-1.4,0.6-2,2-2H32.6 M33,0H3C1.1,0,0,1.1,0,3v55
	c0,1.9,1.1,3,3,3h41c1.9,0,3-1.1,3-3V14L33,0L33,0z"/>
<path fill="#C3B9A9" d="M33,12c0,1.9,1.1,3,3,3h11L33,1V12z"/>
<path fill="#DBBD6E" d="M44,39c0-1.7-1.3-3-3-3H6c-1.7,0-3,1.3-3,3v16c0,1.7,1.4,3,3,3h35c1.7,0,3-1.3,3-3V39z"/>
<path fill="#FFFFFF" d="M11.1,49.7v-0.2h1.5v0.2c0,1.6,0.4,2.4,1.5,2.4c1.2,0,1.5-0.8,1.5-2.4v-8.6h1.5v8.6c0,2.3-0.9,3.5-3,3.5
	C12,53.2,11.1,51.9,11.1,49.7z"/>
<path fill="#FFFFFF" d="M19.5,41.2h2.6c2.7,0,4.2,0.6,4.2,3.4c0,2.8-1.5,3.5-4.2,3.5h-1.1V53h-1.5V41.2z M22,47
	c1.9,0,2.7-0.3,2.7-2.4c0-2-0.8-2.4-2.7-2.4h-1V47H22z"/>
<path fill="#FFFFFF" d="M27.2,47.8v-1.5c0-3.7,1.1-5.4,3.8-5.4c2.3,0,3.6,1.4,3.6,3.8v0h-1.4v0c0-1.8-0.7-2.7-2.1-2.7
	c-1.9,0-2.3,1.7-2.3,4.7v0.6c0,3,0.4,4.7,2.3,4.7c1.7,0,2.3-1.3,2.3-3.5v-0.5h-2.8V47h4.1v6h-1.1l0-1.6c-0.5,1.1-1.3,1.8-2.7,1.8
	C28.3,53.2,27.2,51.5,27.2,47.8z"/>
<polygon fill="#C3B9A9" points="7,32 33,32 20,19 "/>
<polyline fill="#C3B9A9" points="40,32 31,23 22,32 40,32 "/>
<circle fill="#C3B9A9" cx="11.5" cy="14.5" r="2.5"/>
</svg>
