<?xml version="1.0" encoding="utf-8"?>
<!-- Generator: Adobe Illustrator 18.0.0, SVG Export Plug-In . SVG Version: 6.00 Build 0)  -->
<!DOCTYPE svg PUBLIC "-//W3C//DTD SVG 1.1//EN" "http://www.w3.org/Graphics/SVG/1.1/DTD/svg11.dtd">
<svg version="1.1" id="Layer_1" xmlns="http://www.w3.org/2000/svg" xmlns:xlink="http://www.w3.org/1999/xlink" x="0px" y="0px"
	 width="28px" height="20px" viewBox="0 0 28 20" enable-background="new 0 0 28 20" xml:space="preserve">
<path fill="#48B1DF" d="M26.6,0H1.4C0.6,0,0,0.7,0,1.7v7.5C0,9.5,0.1,9.8,0.2,10C0.1,10.2,0,10.5,0,10.8v7.5C0,19.3,0.6,20,1.4,20
	h25.2c0.8,0,1.4-0.7,1.4-1.7v-7.5c0-0.3-0.1-0.6-0.2-0.8C27.9,9.8,28,9.5,28,9.2V1.7C28,0.7,27.4,0,26.6,0z M2.1,2.5h6.3v5.8H2.1
	V2.5z M8.4,17.5H2.1v-5.8h6.3V17.5z M11.2,17.5v-15h5.6v15H11.2z M25.9,17.5h-6.3v-5.8h6.3V17.5z M25.9,8.3h-6.3V2.5h6.3V8.3z"/>
</svg>
