<?xml version="1.0" encoding="utf-8"?>
<!-- Generator: Adobe Illustrator 16.0.4, SVG Export Plug-In . SVG Version: 6.00 Build 0)  -->
<!DOCTYPE svg PUBLIC "-//W3C//DTD SVG 1.1//EN" "http://www.w3.org/Graphics/SVG/1.1/DTD/svg11.dtd">
<svg version="1.1" id="Слой_1" xmlns="http://www.w3.org/2000/svg" xmlns:xlink="http://www.w3.org/1999/xlink" x="0px" y="0px"
	 width="21px" height="18px" viewBox="0 0 21 18" style="enable-background:new 0 0 21 18;" xml:space="preserve">
<path style="fill:#49B2E0;" d="M10.5,0C4.9,0,0.3,4.6,0.3,10.2c0,3.1,1.4,5.9,3.6,7.8l2.5-2.5c0.3-0.3,0.3-0.7,0-0.9l-0.1-0.1
	c0,0,0,0,0,0l-0.1-0.1l-0.1-0.1l0,0l-0.1-0.1c-0.3-0.3-0.7-0.3-1,0l-0.9,0.9c-1.1-1.4-1.8-3.1-1.8-5.1c0-0.8,0.1-1.6,0.3-2.3
	l1.6,0.7c0.4,0.2,0.7,0,0.9-0.3l0-0.1c0,0,0,0,0,0l0-0.1l0-0.1l0,0l0-0.1c0.1-0.4,0-0.7-0.3-0.9L3.4,6.4C4.7,4.1,7,2.5,9.7,2.2
	c0,0,0,0,0,0.1v2.1c0,0.4,0.3,0.7,0.7,0.7h0.1c0,0,0,0,0,0h0.1h0.1h0h0.1c0.4,0,0.7-0.3,0.7-0.7V2.3c0,0,0,0,0-0.1
	c2.7,0.3,5,1.9,6.2,4.2L16,7c-0.4,0.2-0.5,0.6-0.3,0.9l0,0.1c0,0,0,0,0,0l0,0.1l0,0.1v0l0,0.1c0.1,0.4,0.5,0.5,0.9,0.3l1.6-0.7
	c0.2,0.7,0.3,1.5,0.3,2.3c0,2.5-1.2,4.8-3,6.3l1.5,1.5c2.2-1.9,3.6-4.7,3.6-7.8C20.7,4.6,16.1,0,10.5,0z M11.7,9.2
	c-0.3-0.4-0.7-0.6-1.3-0.6c-0.4,0-0.7,0.2-1,0.5C9.1,9.4,9,9.7,9,10.1c0,0.5,0.2,1,0.6,1.3l4.4,3.4c0.1,0.1,0.2,0.1,0.4,0.1
	c0.2,0,0.4-0.1,0.6-0.3c0.2-0.1,0.3-0.3,0.3-0.6c0-0.1,0-0.3-0.1-0.4L11.7,9.2z"/>
</svg>
