<?xml version="1.0" encoding="utf-8"?>
<!-- Generator: Adobe Illustrator 18.0.0, SVG Export Plug-In . SVG Version: 6.00 Build 0)  -->
<!DOCTYPE svg PUBLIC "-//W3C//DTD SVG 1.1//EN" "http://www.w3.org/Graphics/SVG/1.1/DTD/svg11.dtd">
<svg version="1.1" id="Layer_1" xmlns="http://www.w3.org/2000/svg" xmlns:xlink="http://www.w3.org/1999/xlink" x="0px" y="0px"
	 width="10px" height="15px" viewBox="0 0 10 15" enable-background="new 0 0 10 15" xml:space="preserve">
<path fill="#8B8782" d="M9.3,1.4H0.7C0.3,1.4,0,1.9,0,2.2v12.1C0,14.7,0.3,15,0.7,15H4v-1.9h2V15h3.4c0.4,0,0.6-0.3,0.6-0.6V2.1
	C10,1.7,9.7,1.4,9.3,1.4z"/>
<rect x="1" y="1" fill="#8B8782" width="8" height="1"/>
<rect x="2" fill="#8B8782" width="6" height="1"/>
<rect x="4" y="9" fill="#FFFFFF" width="2" height="2"/>
<rect x="4" y="6" fill="#FFFFFF" width="2" height="2"/>
<rect x="4" y="3" fill="#FFFFFF" width="2" height="2"/>
<rect x="2" y="9" fill="#FFFFFF" width="1" height="2"/>
<rect x="2" y="6" fill="#FFFFFF" width="1" height="2"/>
<rect x="2" y="3" fill="#FFFFFF" width="1" height="2"/>
<rect x="7" y="9" fill="#FFFFFF" width="1" height="2"/>
<rect x="7" y="6" fill="#FFFFFF" width="1" height="2"/>
<rect x="7" y="3" fill="#FFFFFF" width="1" height="2"/>
</svg>
