<?xml version="1.0" encoding="utf-8"?>
<!-- Generator: Adobe Illustrator 18.0.0, SVG Export Plug-In . SVG Version: 6.00 Build 0)  -->
<!DOCTYPE svg PUBLIC "-//W3C//DTD SVG 1.1//EN" "http://www.w3.org/Graphics/SVG/1.1/DTD/svg11.dtd">
<svg version="1.1" id="Layer_1" xmlns="http://www.w3.org/2000/svg" xmlns:xlink="http://www.w3.org/1999/xlink" x="0px" y="0px"
	 width="27px" height="26px" viewBox="0 0 27 26" enable-background="new 0 0 27 26" xml:space="preserve">
<path fill="#48B1DF" d="M7.5,10.4c0,0.4-0.3,0.7-0.8,0.7H5.2c-0.4,0-0.8-0.3-0.8-0.7V9.7c0-0.4,0.3-0.7,0.8-0.7h1.5
	c0.4,0,0.8,0.3,0.8,0.7V10.4z"/>
<path fill="#48B1DF" d="M12,10.4c0,0.4-0.3,0.7-0.8,0.7H9.8c-0.4,0-0.8-0.3-0.8-0.7V9.7c0-0.4,0.3-0.7,0.8-0.7h1.5
	c0.4,0,0.8,0.3,0.8,0.7V10.4z"/>
<path fill="#48B1DF" d="M16.5,10.4c0,0.4-0.3,0.7-0.8,0.7h-1.5c-0.4,0-0.8-0.3-0.8-0.7V9.7c0-0.4,0.3-0.7,0.8-0.7h1.5
	c0.4,0,0.8,0.3,0.8,0.7V10.4z"/>
<path fill="#48B1DF" d="M7.5,13.4c0,0.4-0.3,0.7-0.8,0.7H5.2c-0.4,0-0.8-0.3-0.8-0.7v-0.7c0-0.4,0.3-0.7,0.8-0.7h1.5
	c0.4,0,0.8,0.3,0.8,0.7V13.4z"/>
<path fill="#48B1DF" d="M12,13.4c0,0.4-0.3,0.7-0.8,0.7H9.8c-0.4,0-0.8-0.3-0.8-0.7v-0.7c0-0.4,0.3-0.7,0.8-0.7h1.5
	c0.4,0,0.8,0.3,0.8,0.7V13.4z"/>
<path fill="#48B1DF" d="M16.5,13.4c0,0.4-0.3,0.7-0.8,0.7h-1.5c-0.4,0-0.8-0.3-0.8-0.7v-0.7c0-0.4,0.3-0.7,0.8-0.7h1.5
	c0.4,0,0.8,0.3,0.8,0.7V13.4z"/>
<path fill="#48B1DF" d="M7.5,16.3c0,0.4-0.3,0.7-0.8,0.7H5.2c-0.4,0-0.8-0.3-0.8-0.7v-0.7c0-0.4,0.3-0.7,0.8-0.7h1.5
	c0.4,0,0.8,0.3,0.8,0.7V16.3z"/>
<path fill="#48B1DF" d="M12,16.3c0,0.4-0.3,0.7-0.8,0.7H9.8c-0.4,0-0.8-0.3-0.8-0.7v-0.7c0-0.4,0.3-0.7,0.8-0.7h1.5
	c0.4,0,0.8,0.3,0.8,0.7V16.3z"/>
<path fill="#48B1DF" d="M6,4.1c0,0.6-0.5,1.1-1.1,1.1l0,0c-0.6,0-1.1-0.5-1.1-1.1v-3C3.8,0.5,4.3,0,4.9,0l0,0C5.5,0,6,0.5,6,1.1V4.1
	z"/>
<path fill="#48B1DF" d="M18,4.1c0,0.6-0.5,1.1-1.1,1.1l0,0c-0.6,0-1.1-0.5-1.1-1.1v-3c0-0.6,0.5-1.1,1.1-1.1l0,0
	C17.5,0,18,0.5,18,1.1V4.1z"/>
<path fill="#48B1DF" d="M15,3c0-0.3,0-0.5,0-0.7H6.8c0,0.2,0,0.5,0,0.7H15z"/>
<path fill="#48B1DF" d="M21.8,13.5V4.7V4.5c0-1.2-1-2.2-2.2-2.2h-0.4c0,0,0,0,0,0h-0.3v2.2c0,0.8-0.7,1.5-1.5,1.5h-0.8
	c-0.8,0-1.5-0.7-1.5-1.5V2.2H6.8v2.2c0,0.8-0.7,1.5-1.5,1.5H4.5C3.7,5.9,3,5.3,3,4.5V2.2h0H1.7c0,0,0,0.1,0,0.1C0.7,2.6,0,3.4,0,4.5
	v0.4v14.2v0.2c0,1.2,1,2.2,2.2,2.2h1.1h11.2c0.8,2.6,3.2,4.5,6.1,4.5c3.5,0,6.4-2.8,6.4-6.3C27,16.6,24.7,14,21.8,13.5z M18.8,13.6
	c-2.5,0.8-4.3,3-4.5,5.7H3.8c-0.8,0-1.5-0.7-1.5-1.5V8.9c0-0.8,0.7-1.5,1.5-1.5h13.5c0.8,0,1.5,0.7,1.5,1.5V13.6z M24.8,20.8h-5.2
	v-5.2H21v3.7h3.8V20.8z"/>
</svg>
