<?xml version="1.0" encoding="utf-8"?>
<!-- Generator: Adobe Illustrator 18.0.0, SVG Export Plug-In . SVG Version: 6.00 Build 0)  -->
<!DOCTYPE svg PUBLIC "-//W3C//DTD SVG 1.1//EN" "http://www.w3.org/Graphics/SVG/1.1/DTD/svg11.dtd">
<svg version="1.1" id="Layer_1" xmlns="http://www.w3.org/2000/svg" xmlns:xlink="http://www.w3.org/1999/xlink" x="0px" y="0px"
	 width="20px" height="20px" viewBox="0 0 20 20" enable-background="new 0 0 20 20" xml:space="preserve">
<rect x="4" y="8" fill="#48B1DF" width="6" height="8"/>
<rect x="4" y="6" fill="#48B1DF" width="6" height="1"/>
<rect x="4" y="4" fill="#48B1DF" width="6" height="1"/>
<rect x="11" y="12" fill="#48B1DF" width="6" height="4"/>
<rect x="11" y="10" fill="#48B1DF" width="6" height="1"/>
<rect x="11" y="8" fill="#48B1DF" width="6" height="1"/>
<path fill="#48B1DF" d="M19,0H1C0.4,0,0,0.4,0,1v18c0,0.6,0.4,1,1,1h18c0.6,0,1-0.4,1-1V1C20,0.4,19.6,0,19,0z M19,2v16v1h-1H2H1v-1
	V2V1h1h16h1V2z"/>
</svg>
