<?xml version="1.0" encoding="utf-8"?>
<!-- Generator: Adobe Illustrator 18.0.0, SVG Export Plug-In . SVG Version: 6.00 Build 0)  -->
<!DOCTYPE svg PUBLIC "-//W3C//DTD SVG 1.1//EN" "http://www.w3.org/Graphics/SVG/1.1/DTD/svg11.dtd">
<svg version="1.1" id="Layer_1" xmlns="http://www.w3.org/2000/svg" xmlns:xlink="http://www.w3.org/1999/xlink" x="0px" y="0px"
	 width="14px" height="14px" viewBox="0 0 14 14" enable-background="new 0 0 14 14" xml:space="preserve">
<path fill="#DCDCDD" d="M14,8V6l-2.2-0.4c-0.1-0.4-0.3-0.7-0.4-1.1l1.3-1.8l-1.4-1.4L9.4,2.6C9.1,2.4,8.7,2.3,8.4,2.2L8,0H6L5.6,2.2
	C5.3,2.3,4.9,2.4,4.6,2.6L2.8,1.3L1.3,2.8l1.3,1.8C2.4,4.9,2.3,5.3,2.2,5.6L0,6v2l2.2,0.4c0.1,0.4,0.3,0.7,0.4,1.1l-1.3,1.8l1.4,1.4
	l1.8-1.3c0.3,0.2,0.7,0.3,1.1,0.4L6,14h2l0.4-2.2c0.4-0.1,0.7-0.3,1.1-0.4l1.8,1.3l1.4-1.4l-1.3-1.8c0.2-0.3,0.3-0.7,0.4-1.1L14,8z
	 M7,9C5.9,9,5,8.1,5,7s0.9-2,2-2c1.1,0,2,0.9,2,2S8.1,9,7,9z"/>
</svg>
