<?xml version="1.0" encoding="utf-8"?>
<!-- Generator: Adobe Illustrator 18.0.0, SVG Export Plug-In . SVG Version: 6.00 Build 0)  -->
<!DOCTYPE svg PUBLIC "-//W3C//DTD SVG 1.1//EN" "http://www.w3.org/Graphics/SVG/1.1/DTD/svg11.dtd">
<svg version="1.1" id="Layer_1" xmlns="http://www.w3.org/2000/svg" xmlns:xlink="http://www.w3.org/1999/xlink" x="0px" y="0px"
	 width="16px" height="15px" viewBox="0 0 16 15" enable-background="new 0 0 16 15" xml:space="preserve">
<path fill="#8B8782" d="M4,2c0,0.6-0.4,1-1,1l0,0C2.4,3,2,2.6,2,2V1c0-0.6,0.4-1,1-1l0,0c0.6,0,1,0.4,1,1V2z"/>
<path fill="#8B8782" d="M14,2c0,0.6-0.4,1-1,1l0,0c-0.6,0-1-0.4-1-1V1c0-0.6,0.4-1,1-1l0,0c0.6,0,1,0.4,1,1V2z"/>
<rect x="4" y="6" fill="#8B8782" width="2" height="1"/>
<rect x="7" y="6" fill="#8B8782" width="2" height="1"/>
<rect x="10" y="6" fill="#8B8782" width="2" height="1"/>
<rect x="4" y="8" fill="#8B8782" width="2" height="4"/>
<rect x="7" y="8" fill="#8B8782" width="2" height="4"/>
<rect x="10" y="8" fill="#8B8782" width="2" height="4"/>
<rect x="1" y="2" fill="#8B8782" width="1" height="13"/>
<rect x="14" y="2" fill="#8B8782" width="1" height="13"/>
<rect x="1" y="2" fill="#8B8782" width="14" height="3"/>
<rect x="1" y="13" fill="#8B8782" width="14" height="2"/>
<rect y="3" fill="#8B8782" width="1" height="11"/>
<rect x="15" y="3" fill="#8B8782" width="1" height="11"/>
<rect y="2" fill="#BFBBB8" width="1" height="1"/>
<rect x="15" y="2" fill="#BFBBB8" width="1" height="1"/>
<rect y="14" fill="#BFBBB8" width="1" height="1"/>
<rect x="15" y="14" fill="#BFBBB8" width="1" height="1"/>
</svg>
