<?xml version="1.0" encoding="utf-8"?>
<!-- Generator: Adobe Illustrator 18.0.0, SVG Export Plug-In . SVG Version: 6.00 Build 0)  -->
<!DOCTYPE svg PUBLIC "-//W3C//DTD SVG 1.1//EN" "http://www.w3.org/Graphics/SVG/1.1/DTD/svg11.dtd">
<svg version="1.1" id="Layer_1" xmlns="http://www.w3.org/2000/svg" xmlns:xlink="http://www.w3.org/1999/xlink" x="0px" y="0px"
	 width="13px" height="15px" viewBox="0 0 13 15" enable-background="new 0 0 13 15" xml:space="preserve">
<path fill="#8B8782" d="M3,4.5C1.3,4.5,0,3.8,0,3v1.5C0,5.3,1.3,6,3,6c1.7,0,3-0.7,3-1.5V3C6,3.8,4.7,4.5,3,4.5z"/>
<ellipse fill="#8B8782" cx="3" cy="1.5" rx="3" ry="1.5"/>
<path fill="#8B8782" d="M3,7.5C1.3,7.5,0,6.8,0,6v1.5C0,8.3,1.3,9,3,9c1.7,0,3-0.7,3-1.5V6C6,6.8,4.7,7.5,3,7.5z"/>
<path fill="#8B8782" d="M3,10.5c-1.7,0-3-0.7-3-1.5v1.5C0,11.3,1.3,12,3,12c1.7,0,3-0.7,3-1.5V9C6,9.8,4.7,10.5,3,10.5z"/>
<path fill="#8B8782" d="M3,13.5c-1.7,0-3-0.7-3-1.5v1.5C0,14.3,1.3,15,3,15c1.7,0,3-0.7,3-1.5V12C6,12.8,4.7,13.5,3,13.5z"/>
<ellipse fill="#8B8782" cx="10" cy="4.5" rx="3" ry="1.5"/>
<path fill="#8B8782" d="M10,7.5C8.3,7.5,7,6.8,7,6v1.5C7,8.3,8.3,9,10,9c1.7,0,3-0.7,3-1.5V6C13,6.8,11.7,7.5,10,7.5z"/>
<path fill="#8B8782" d="M10,10.5c-1.7,0-3-0.7-3-1.5v1.5c0,0.8,1.3,1.5,3,1.5c1.7,0,3-0.7,3-1.5V9C13,9.8,11.7,10.5,10,10.5z"/>
<path fill="#8B8782" d="M10,13.5c-1.7,0-3-0.7-3-1.5v1.5c0,0.8,1.3,1.5,3,1.5c1.7,0,3-0.7,3-1.5V12C13,12.8,11.7,13.5,10,13.5z"/>
<rect x="1" y="4" fill="#8B8782" width="4" height="1"/>
<rect x="1" y="7" fill="#8B8782" width="4" height="1"/>
<rect x="1" y="10" fill="#8B8782" width="4" height="1"/>
<rect x="1" y="13" fill="#8B8782" width="4" height="1"/>
<rect x="8" y="13" fill="#8B8782" width="4" height="1"/>
<rect x="8" y="10" fill="#8B8782" width="4" height="1"/>
<rect x="8" y="7" fill="#8B8782" width="4" height="1"/>
</svg>
