<?xml version="1.0" encoding="utf-8"?>
<!-- Generator: Adobe Illustrator 18.0.0, SVG Export Plug-In . SVG Version: 6.00 Build 0)  -->
<!DOCTYPE svg PUBLIC "-//W3C//DTD SVG 1.1//EN" "http://www.w3.org/Graphics/SVG/1.1/DTD/svg11.dtd">
<svg version="1.1" id="Layer_1" xmlns="http://www.w3.org/2000/svg" xmlns:xlink="http://www.w3.org/1999/xlink" x="0px" y="0px"
	 width="41px" height="22px" viewBox="0 0 41 22" enable-background="new 0 0 41 22" xml:space="preserve">
<path fill="#EC827F" d="M41,3c0-1.7-1.3-3-3-3H3C1.3,0,0,1.3,0,3v16c0,1.7,1.4,3,3,3h35c1.7,0,3-1.3,3-3V3z"/>
<path fill="#FFFFFF" d="M10.2,5.2h2.6c2.7,0,4.2,0.6,4.2,3.4c0,2.8-1.5,3.5-4.2,3.5h-1.1V17h-1.5V5.2z M12.7,11
	c1.9,0,2.7-0.3,2.7-2.4c0-2-0.8-2.4-2.7-2.4h-1V11H12.7z"/>
<path fill="#FFFFFF" d="M18.4,5.2H21c2.8,0,4.5,1.2,4.5,5.3v1.3c0,4-1.7,5.3-4.5,5.3h-2.6V5.2z M21,15.9c2.1,0,2.9-1.1,2.9-4.6v-0.6
	c0-3.4-0.8-4.6-2.9-4.6h-1.2v9.7H21z"/>
<path fill="#FFFFFF" d="M27.4,5.2H33v1.1h-4.2v4h3.8v1.2h-3.8V17h-1.5V5.2z"/>
</svg>
