<?xml version="1.0" encoding="utf-8"?>
<!-- Generator: Adobe Illustrator 18.0.0, SVG Export Plug-In . SVG Version: 6.00 Build 0)  -->
<!DOCTYPE svg PUBLIC "-//W3C//DTD SVG 1.1//EN" "http://www.w3.org/Graphics/SVG/1.1/DTD/svg11.dtd">
<svg version="1.1" id="Layer_1" xmlns="http://www.w3.org/2000/svg" xmlns:xlink="http://www.w3.org/1999/xlink" x="0px" y="0px"
	 width="20px" height="20px" viewBox="0 0 20 20" enable-background="new 0 0 20 20" xml:space="preserve">
<circle fill-rule="evenodd" clip-rule="evenodd" fill="#72549E" cx="10" cy="10" r="10"/>
<path fill="#FFFFFF" d="M15,8.8v3.1v1h1v1h-1l-1-2.1V8.8H15z"/>
<polygon fill="#FFFFFF" points="13,8.8 14.8,8.8 15.7,8.4 16,7.8 15.7,7.2 10.7,4.8 10,4.7 9.3,4.8 4.3,7.2 4,7.8 4.3,8.4 9.3,10.7 
	10,10.9 10.7,10.7 13,9.6 "/>
<path fill="#FFFFFF" d="M13,10.8l-2.3,1.4L10,12.4l-0.7-0.2l-2.5-1.6C6.3,11,6,11.5,6,11.9c0,1.1,1.8,2.1,4,2.1c1.2,0,2.3-0.3,3-0.7
	V10.8z"/>
</svg>
