<?xml version="1.0" encoding="utf-8"?>
<!-- Generator: Adobe Illustrator 18.0.0, SVG Export Plug-In . SVG Version: 6.00 Build 0)  -->
<!DOCTYPE svg PUBLIC "-//W3C//DTD SVG 1.1//EN" "http://www.w3.org/Graphics/SVG/1.1/DTD/svg11.dtd">
<svg version="1.1" id="Layer_1" xmlns="http://www.w3.org/2000/svg" xmlns:xlink="http://www.w3.org/1999/xlink" x="0px" y="0px"
	 width="15px" height="23px" viewBox="0 0 15 23" enable-background="new 0 0 15 23" xml:space="preserve">
<path fill="#8B8782" d="M14,2H1C0.4,2,0,2.7,0,3.2V22c0,0.6,0.5,1,1,1h5v-3h3v3h5.1c0.6,0,0.9-0.4,0.9-1V3C15,2.4,14.6,2,14,2z
	 M4,17H2v-3h2V17z M4,13H2v-3h2V13z M4,9H2V6h2V9z M9,17H6v-3h3V17z M9,13H6v-3h3V13z M9,9H6V6h3V9z M13,17h-2v-3h2V17z M13,13h-2
	v-3h2V13z M13,9h-2V6h2V9z"/>
<rect x="3" fill="#8B8782" width="9" height="2"/>
</svg>
