<?xml version="1.0" encoding="utf-8"?>
<!-- Generator: Adobe Illustrator 18.0.0, SVG Export Plug-In . SVG Version: 6.00 Build 0)  -->
<!DOCTYPE svg PUBLIC "-//W3C//DTD SVG 1.1//EN" "http://www.w3.org/Graphics/SVG/1.1/DTD/svg11.dtd">
<svg version="1.1" id="Layer_1" xmlns="http://www.w3.org/2000/svg" xmlns:xlink="http://www.w3.org/1999/xlink" x="0px" y="0px"
	 width="41px" height="22px" viewBox="0 0 41 22" enable-background="new 0 0 41 22" xml:space="preserve">
<path fill="#DBBD6E" d="M41,3c0-1.7-1.3-3-3-3H3C1.3,0,0,1.3,0,3v16c0,1.7,1.4,3,3,3h35c1.7,0,3-1.3,3-3V3z"/>
<path fill="#FFFFFF" d="M8.1,13.7v-0.2h1.5v0.2c0,1.6,0.4,2.4,1.5,2.4c1.2,0,1.5-0.8,1.5-2.4V5.2h1.5v8.6c0,2.3-0.9,3.5-3,3.5
	C9,17.2,8.1,15.9,8.1,13.7z"/>
<path fill="#FFFFFF" d="M16.5,5.2h2.6c2.7,0,4.2,0.6,4.2,3.4c0,2.8-1.5,3.5-4.2,3.5h-1.1V17h-1.5V5.2z M19,11c1.9,0,2.7-0.3,2.7-2.4
	c0-2-0.8-2.4-2.7-2.4h-1V11H19z"/>
<path fill="#FFFFFF" d="M24.2,11.8v-1.5C24.2,6.6,25.3,5,28,5c2.3,0,3.6,1.4,3.6,3.8v0h-1.4v0C30.1,6.9,29.4,6,28,6
	c-1.9,0-2.3,1.7-2.3,4.7v0.6c0,3,0.4,4.7,2.3,4.7c1.7,0,2.3-1.3,2.3-3.5v-0.5h-2.8V11h4.1v6h-1.1l0-1.6c-0.5,1.1-1.3,1.8-2.7,1.8
	C25.3,17.2,24.2,15.5,24.2,11.8z"/>
</svg>
