<?xml version="1.0" encoding="utf-8"?>
<!-- Generator: Adobe Illustrator 18.0.0, SVG Export Plug-In . SVG Version: 6.00 Build 0)  -->
<!DOCTYPE svg PUBLIC "-//W3C//DTD SVG 1.1//EN" "http://www.w3.org/Graphics/SVG/1.1/DTD/svg11.dtd">
<svg version="1.1" id="Layer_1" xmlns="http://www.w3.org/2000/svg" xmlns:xlink="http://www.w3.org/1999/xlink" x="0px" y="0px"
	 width="24px" height="22px" viewBox="0 0 24 22" enable-background="new 0 0 24 22" xml:space="preserve">
<path fill="#49B2E0" d="M10.2,18.4c-0.8,0-1.4,0.6-1.4,1.4c0,0.8,0.6,1.4,1.4,1.4c0.8,0,1.4-0.6,1.4-1.4
	C11.6,19,10.9,18.4,10.2,18.4 M7.2,15.5c-0.8,0-1.4,0.6-1.4,1.4c0,0.8,0.6,1.4,1.4,1.4c0.8,0,1.4-0.6,1.4-1.4
	C8.7,16.1,8,15.5,7.2,15.5 M4.3,12.6c-0.8,0-1.4,0.6-1.4,1.4c0,0.8,0.6,1.4,1.4,1.4s1.4-0.6,1.4-1.4C5.7,13.2,5.1,12.6,4.3,12.6
	 M1.4,9.6C0.6,9.6,0,10.3,0,11.1c0,0.8,0.6,1.4,1.4,1.4s1.4-0.6,1.4-1.4C2.8,10.3,2.2,9.6,1.4,9.6 M13.1,15.5
	c-0.8,0-1.4,0.6-1.4,1.4c0,0.8,0.6,1.4,1.4,1.4c0.8,0,1.4-0.6,1.4-1.4C14.5,16.1,13.9,15.5,13.1,15.5 M10.2,12.6
	c-0.8,0-1.4,0.6-1.4,1.4c0,0.8,0.6,1.4,1.4,1.4c0.8,0,1.4-0.6,1.4-1.4C11.6,13.2,10.9,12.6,10.2,12.6 M7.2,9.6
	c-0.8,0-1.4,0.6-1.4,1.4c0,0.8,0.6,1.4,1.4,1.4c0.8,0,1.4-0.6,1.4-1.4C8.7,10.3,8,9.6,7.2,9.6 M4.3,6.7c-0.8,0-1.4,0.6-1.4,1.4
	c0,0.8,0.6,1.4,1.4,1.4s1.4-0.6,1.4-1.4C5.7,7.4,5.1,6.7,4.3,6.7 M5.4,3.4c0,0-0.3,0.9,0.1,1.3c2.2,2.2,8.9,8.9,11.1,11.1
	c0.4,0.4,1.3,0.1,1.3,0.1l1.4-1.4L6.8,1.9L5.4,3.4z M18.5,1.3c-0.9,0.9-1.6,1.6-1.6,1.6l-0.1,0c-5.5-5-9-2-9-2l12.6,12.6
	c0,0,2.5-3.3-1.3-8.3c0-0.1,0.3-0.6,1.1-1.4c1.6-1.6,3.9-1,3.9-1s0-0.8,0-2.7c-0.6,0-1.1,0-1.6,0C20.8,0.1,19.6,0.2,18.5,1.3"/>
</svg>
