<?xml version="1.0" encoding="utf-8"?>
<!-- Generator: Adobe Illustrator 18.0.0, SVG Export Plug-In . SVG Version: 6.00 Build 0)  -->
<!DOCTYPE svg PUBLIC "-//W3C//DTD SVG 1.1//EN" "http://www.w3.org/Graphics/SVG/1.1/DTD/svg11.dtd">
<svg version="1.1" id="Layer_1" xmlns="http://www.w3.org/2000/svg" xmlns:xlink="http://www.w3.org/1999/xlink" x="0px" y="0px"
	 width="24px" height="24px" viewBox="0 0 24 24" enable-background="new 0 0 24 24" xml:space="preserve">
<path fill="#D2807E" d="M8.2,7.4L8.2,7.4c-0.9,0-1.3,1-1.3,2.3c0,1.3,0.4,2.2,1.3,2.2c0.8,0,1.3-0.9,1.3-2.3
	C9.4,8.4,9.1,7.4,8.2,7.4z M15.9,12L15.9,12c-0.9,0-1.3,1-1.3,2.3c0,1.3,0.4,2.2,1.3,2.2c0.9,0,1.3-0.9,1.3-2.3
	C17.2,13,16.8,12,15.9,12z M12,0C5.4,0,0,5.4,0,12c0,6.6,5.4,12,12,12c6.6,0,12-5.4,12-12C24,5.4,18.6,0,12,0z M5.2,9.7
	c0-2.1,1.2-3.5,3-3.5l0,0C10,6.2,11,7.5,11,9.5c0,2.4-1.4,3.6-2.9,3.6C6.5,13.1,5.2,11.9,5.2,9.7z M9.3,17.8l-1.2,0l6.5-11.6h1.2
	L9.3,17.8z M15.8,17.8c-1.6,0-2.9-1.2-2.9-3.4c0-2.1,1.2-3.5,2.9-3.5l0,0c1.8,0,2.8,1.3,2.8,3.4C18.8,16.5,17.4,17.8,15.8,17.8z"/>
</svg>
