<?xml version="1.0" encoding="utf-8"?>
<!-- Generator: Adobe Illustrator 18.0.0, SVG Export Plug-In . SVG Version: 6.00 Build 0)  -->
<!DOCTYPE svg PUBLIC "-//W3C//DTD SVG 1.1//EN" "http://www.w3.org/Graphics/SVG/1.1/DTD/svg11.dtd">
<svg version="1.1" id="Layer_1" xmlns="http://www.w3.org/2000/svg" xmlns:xlink="http://www.w3.org/1999/xlink" x="0px" y="0px"
	 width="14px" height="25px" viewBox="0 0 14 25" enable-background="new 0 0 14 25" xml:space="preserve">
<path fill="#D18A4C" d="M7.1,1.7c1.3,0,2,1,2,2.3v8.3v0.9l0.9,0.5c1.4,1,2.3,2.6,2.3,4.2c0,2.9-2.3,5.2-5.2,5.2
	c-2.9,0-5.2-2.3-5.2-5.2c0-1.7,1-3.3,2.4-4.2l0.9-0.5v-0.9V4.1C5.1,2.8,5.8,1.7,7.1,1.7 M7.1,0c-2.2,0-4,1.8-4,4.1v8.3
	c-2,1.3-3,3.3-3,5.7c0,3.9,3.1,7,7,7c3.9,0,6.9-3.1,6.9-7c0-2.3-0.9-4.4-2.9-5.7V4.1C11.1,1.8,9.3,0,7.1,0L7.1,0z"/>
<rect x="6.1" y="6.9" fill="#D18A4C" width="2" height="9"/>
<circle fill="#D18A4C" cx="7.1" cy="18.1" r="3.6"/>
</svg>
