<?xml version="1.0" encoding="utf-8"?>
<!-- Generator: Adobe Illustrator 18.0.0, SVG Export Plug-In . SVG Version: 6.00 Build 0)  -->
<!DOCTYPE svg PUBLIC "-//W3C//DTD SVG 1.1//EN" "http://www.w3.org/Graphics/SVG/1.1/DTD/svg11.dtd">
<svg version="1.1" id="Layer_1" xmlns="http://www.w3.org/2000/svg" xmlns:xlink="http://www.w3.org/1999/xlink" x="0px" y="0px"
	 width="13px" height="15px" viewBox="0 0 13 15" enable-background="new 0 0 13 15" xml:space="preserve">
<path fill="#8B8782" d="M12,3V1c0-0.6-0.4-1-1-1H2C1.4,0,1,0.4,1,1v2C0.4,3,0,3.4,0,4v2c0,0.6,0.4,1,1,1v5c0,0.6,0.4,1,1,1v1
	c0,0.6,0.4,1,1,1c0.6,0,1-0.4,1-1v-1h5v1c0,0.6,0.4,1,1,1c0.6,0,1-0.4,1-1v-1c0.6,0,1-0.4,1-1V7c0.6,0,1-0.4,1-1V4
	C13,3.4,12.6,3,12,3z M9,11v-1h1v1H9z M3,2c0-0.6,0.4-1,1-1h5c0.6,0,1,0.4,1,1l0,0H3L3,2z M4,11H3v-1h1V11z M4,9C3.4,9,3,8.6,3,8V4
	h7v2v2c0,0.6-0.4,1-1,1H4z"/>
</svg>
