<?xml version="1.0" encoding="utf-8"?>
<!-- Generator: Adobe Illustrator 18.0.0, SVG Export Plug-In . SVG Version: 6.00 Build 0)  -->
<!DOCTYPE svg PUBLIC "-//W3C//DTD SVG 1.1//EN" "http://www.w3.org/Graphics/SVG/1.1/DTD/svg11.dtd">
<svg version="1.1" id="Layer_1" xmlns="http://www.w3.org/2000/svg" xmlns:xlink="http://www.w3.org/1999/xlink" x="0px" y="0px"
	 width="41px" height="22px" viewBox="0 0 41 22" enable-background="new 0 0 41 22" xml:space="preserve">
<path fill="#A1CD93" d="M41,3c0-1.7-1.3-3-3-3H3C1.3,0,0,1.3,0,3v16c0,1.7,1.4,3,3,3h35c1.7,0,3-1.3,3-3V3z"/>
<path fill="#FFFFFF" d="M8.3,10.9l-3-5.7h1.5L9,9.5l2.3-4.4h1.5l-3,5.6L13,17h-1.5L9,12.2L6.5,17H5L8.3,10.9z"/>
<path fill="#FFFFFF" d="M14.2,5.2h1.5v10.7h4.5V17h-6V5.2z"/>
<path fill="#FFFFFF" d="M20.9,13.4v-0.1h1.5v0.1c0,1.9,0.8,2.8,2.3,2.8c1.4,0,2.1-0.8,2.1-2c0-1.2-0.6-1.7-1.8-2.3l-1.5-0.7
	C22.1,10.6,21,9.8,21,7.9c0-1.9,1.4-3,3.3-3c2,0,3.4,1.1,3.4,3.3v0.1h-1.4V8.3c0-1.4-0.8-2.3-2-2.3c-1.2,0-1.9,0.7-1.9,1.8
	c0,1.1,0.5,1.5,1.3,1.9l1.5,0.7c1.5,0.7,2.8,1.4,2.8,3.5s-1.3,3.3-3.5,3.3C22.2,17.2,20.9,15.9,20.9,13.4z"/>
<path fill="#FFFFFF" d="M31.5,10.9l-3-5.7h1.5l2.2,4.4l2.3-4.4H36l-3,5.6l3.2,6.2h-1.5l-2.5-4.8L29.8,17h-1.5L31.5,10.9z"/>
</svg>
