<?xml version="1.0" encoding="utf-8"?>
<!-- Generator: Adobe Illustrator 18.0.0, SVG Export Plug-In . SVG Version: 6.00 Build 0)  -->
<!DOCTYPE svg PUBLIC "-//W3C//DTD SVG 1.1//EN" "http://www.w3.org/Graphics/SVG/1.1/DTD/svg11.dtd">
<svg version="1.1" id="Layer_1" xmlns="http://www.w3.org/2000/svg" xmlns:xlink="http://www.w3.org/1999/xlink" x="0px" y="0px"
	 width="20px" height="20px" viewBox="0 0 20 20" enable-background="new 0 0 20 20" xml:space="preserve">
<circle fill-rule="evenodd" clip-rule="evenodd" fill="#CDA42D" cx="10" cy="10" r="10"/>
<path fill-rule="evenodd" clip-rule="evenodd" fill="#FFFFFF" d="M7.2,11.7L11.9,7L13,8.1l-4.7,4.7L7.2,11.7z"/>
<path fill-rule="evenodd" clip-rule="evenodd" fill="#FFFFFF" d="M9.9,6.4l0.9-0.9l3.7,3.7l-0.9,0.9L9.9,6.4z"/>
<path fill-rule="evenodd" clip-rule="evenodd" fill="#FFFFFF" d="M5.6,10.7l1-1l3.7,3.8l-1,1L5.6,10.7z"/>
<path fill-rule="evenodd" clip-rule="evenodd" fill="#FFFFFF" d="M11.7,5.5l2.8,2.8L15,7.8l0-0.6l-2.3-2.6L11.7,5.5z"/>
<path fill-rule="evenodd" clip-rule="evenodd" fill="#FFFFFF" d="M5,12.8l2.5,2.6l0.9-0.9l-2.8-2.8l-0.5,0.5L5,12.8z"/>
</svg>
