<?xml version="1.0" encoding="utf-8"?>
<!-- Generator: Adobe Illustrator 18.0.0, SVG Export Plug-In . SVG Version: 6.00 Build 0)  -->
<!DOCTYPE svg PUBLIC "-//W3C//DTD SVG 1.1//EN" "http://www.w3.org/Graphics/SVG/1.1/DTD/svg11.dtd">
<svg version="1.1" id="Layer_1" xmlns="http://www.w3.org/2000/svg" xmlns:xlink="http://www.w3.org/1999/xlink" x="0px" y="0px"
	 width="47px" height="61px" viewBox="0 0 47 61" enable-background="new 0 0 47 61" xml:space="preserve">
<path fill="#FFFFFF" d="M2.9,60.5c-1.7,0-2.5-0.8-2.5-2.5V3c0-1.7,0.8-2.5,2.5-2.5h29.8l13.7,13.7V58c0,1.7-0.8,2.5-2.5,2.5H2.9z"/>
<path fill="#C3B9A9" d="M32.5,1l13.4,13.4V58c0,1.4-0.6,2-2,2h-41c-1.4,0-2-0.6-2-2V3c0-1.4,0.6-2,2-2H32.5 M32.9,0h-30
	c-1.9,0-3,1.1-3,3v55c0,1.9,1.1,3,3,3h41c1.9,0,3-1.1,3-3V14L32.9,0L32.9,0z"/>
<path fill="#C3B9A9" d="M32.9,12c0,1.9,1.1,3,3,3h11l-14-14V12z"/>
<path fill="#A1CD93" d="M43.9,39c0-1.7-1.3-3-3-3h-35c-1.7,0-3,1.3-3,3v16c0,1.7,1.4,3,3,3h35c1.7,0,3-1.3,3-3V39z"/>
<path fill="#C3B9A9" d="M38.9,27v4h-25v-4H38.9 M39.9,26h-27v6h27V26L39.9,26z"/>
<path fill="#C3B9A9" d="M38.9,21v5h-25v-5H38.9 M39.9,20h-27v7h27V20L39.9,20z"/>
<path fill="#C3B9A9" d="M12.9,27v4h-5v-4H12.9 M13.9,26h-7v6h7V26L13.9,26z"/>
<path fill="#C3B9A9" d="M12.9,21v5h-5v-5H12.9 M13.9,20h-7v7h7V20L13.9,20z"/>
<path fill="#FFFFFF" d="M11.2,46.9l-3-5.7h1.5l2.2,4.4l2.3-4.4h1.5l-3,5.6l3.2,6.2h-1.5L12,48.2L9.5,53H8L11.2,46.9z"/>
<path fill="#FFFFFF" d="M17.2,41.2h1.5v10.7h4.5V53h-6V41.2z"/>
<path fill="#FFFFFF" d="M23.8,49.4v-0.1h1.5v0.1c0,1.9,0.8,2.8,2.3,2.8c1.4,0,2.1-0.8,2.1-2c0-1.2-0.6-1.7-1.8-2.3l-1.5-0.7
	C25,46.6,24,45.8,24,43.9c0-1.9,1.4-3,3.3-3c2,0,3.4,1.1,3.4,3.3v0.1h-1.4v-0.1c0-1.4-0.8-2.3-2-2.3c-1.2,0-1.9,0.7-1.9,1.8
	c0,1.1,0.5,1.5,1.3,1.9l1.5,0.7c1.5,0.7,2.8,1.4,2.8,3.5s-1.3,3.3-3.5,3.3C25.1,53.2,23.8,51.9,23.8,49.4z"/>
<path fill="#FFFFFF" d="M34.5,46.9l-3-5.7H33l2.2,4.4l2.3-4.4H39l-3,5.6l3.2,6.2h-1.5l-2.5-4.8L32.7,53h-1.5L34.5,46.9z"/>
</svg>
