<?xml version="1.0" encoding="utf-8"?>
<!-- Generator: Adobe Illustrator 18.0.0, SVG Export Plug-In . SVG Version: 6.00 Build 0)  -->
<!DOCTYPE svg PUBLIC "-//W3C//DTD SVG 1.1//EN" "http://www.w3.org/Graphics/SVG/1.1/DTD/svg11.dtd">
<svg version="1.1" id="Layer_1" xmlns="http://www.w3.org/2000/svg" xmlns:xlink="http://www.w3.org/1999/xlink" x="0px" y="0px"
	 width="38px" height="32px" viewBox="0 0 38 32" enable-background="new 0 0 38 32" xml:space="preserve">
<path fill="#48B1DF" d="M16,1h-1c0-0.6-0.4-1-1-1h-2c-0.6,0-1,0.4-1,1H1C0.4,1,0,1.4,0,2v1c0,0.6,0.4,1,1,1h15c0.6,0,1-0.4,1-1V2
	C17,1.4,16.6,1,16,1z"/>
<path fill="#48B1DF" d="M16,5H1C0.4,5,0,5.4,0,6v25c0,0.6,0.4,1,1,1h15c0.6,0,1-0.4,1-1V6C17,5.4,16.6,5,16,5z M15,20
	c0,0.6-0.4,1-1,1H3c-0.6,0-1-0.4-1-1V8c0-0.6,0.4-1,1-1h11c0.6,0,1,0.4,1,1V20z"/>
<path fill="#48B1DF" d="M11,14c0,0.6-0.4,1-1,1H7c-0.6,0-1-0.4-1-1v-3c0-0.6,0.4-1,1-1h3c0.6,0,1,0.4,1,1V14z"/>
<path fill="#48B1DF" d="M10,16c0,0.6-0.4,1-1,1H8c-0.6,0-1-0.4-1-1v-1c0-0.6,0.4-1,1-1h1c0.6,0,1,0.4,1,1V16z"/>
<path fill="#48B1DF" d="M12,12v-1c0-0.6-0.4-1-1-1H6c-0.6,0-1,0.4-1,1v1H12z"/>
<path fill="#48B1DF" d="M13,16.3V17l-6,6h5c1.1,0,2-0.9,2-2v-3C14,17.3,13.6,16.6,13,16.3z"/>
<path fill="#48B1DF" d="M12,16H5c-1.1,0-2,0.9-2,2v3c0,1.1,0.9,2,2,2h1v-1L12,16z"/>
<path fill="#48B1DF" d="M29.3,21H22c-0.4,0-0.6,0.2-0.8,0.5l-1.3-1.3c-0.2-0.2-0.5-0.2-0.7,0c-0.2,0.2-0.2,0.5,0,0.7l1.4,1.4
	c0.1,0.1,0.3,0.2,0.4,0.1V26v1h3.4H31h3v-1v-0.3L29.3,21z"/>
<path fill="#48B1DF" d="M37.5,15c-0.3,0-0.5,0.2-0.5,0.5V16h-4v-1c0-0.6-0.4-1-1-1c-0.6,0-1,0.4-1,1v1c-0.6,0-1,0.4-1,1v2v1.2l4,4
	V23v-1v-2h1h2c0.6,0,1-0.4,1-1v-1.5V17v-1.5C38,15.2,37.8,15,37.5,15z M33,18h-1v-1h1V18z"/>
<path fill="#48B1DF" d="M34,31c0,0.6-0.4,1-1,1h-1c-0.6,0-1-0.4-1-1v-4c0-0.6,0.4-1,1-1h1c0.6,0,1,0.4,1,1V31z"/>
<path fill="#48B1DF" d="M28.7,29.6c0.4,0.4,0.4,1,0,1.4L28,31.7c-0.4,0.4-1,0.4-1.4,0l-2.8-2.8c-0.4-0.4-0.4-1,0-1.4l0.7-0.7
	c0.4-0.4,1-0.4,1.4,0L28.7,29.6z"/>
<path fill="#48B1DF" d="M24,31c0,0.6-0.4,1-1,1h-1c-0.6,0-1-0.4-1-1v-4c0-0.6,0.4-1,1-1h1c0.6,0,1,0.4,1,1V31z"/>
</svg>
