<?xml version="1.0" encoding="utf-8"?>
<!-- Generator: Adobe Illustrator 18.0.0, SVG Export Plug-In . SVG Version: 6.00 Build 0)  -->
<!DOCTYPE svg PUBLIC "-//W3C//DTD SVG 1.1//EN" "http://www.w3.org/Graphics/SVG/1.1/DTD/svg11.dtd">
<svg version="1.1" id="Layer_1" xmlns="http://www.w3.org/2000/svg" xmlns:xlink="http://www.w3.org/1999/xlink" x="0px" y="0px"
	 width="24px" height="24px" viewBox="0 0 24 24" enable-background="new 0 0 24 24" xml:space="preserve">
<path fill="#49B2E0" d="M20.7,12.1c0-0.9-0.7-1.6-1.6-1.6H4.9c-0.9,0-1.6,0.7-1.6,1.6v3.4h17.4V12.1z M6.2,9h11.6
	c1.6,0,2.8-1.3,2.8-2.8V3c0-1.6-1.3-2.8-2.8-2.8H6.2C4.6,0.2,3.4,1.4,3.4,3v3.2C3.4,7.8,4.6,9,6.2,9z M21.9,10.5v6.1H2.1v-6.1H0V24
	l2.1-0.1l0-4.8h19.9l0,4.8L24,24V10.5H21.9z"/>
</svg>
