<?xml version="1.0" encoding="utf-8"?>
<!-- Generator: Adobe Illustrator 18.0.0, SVG Export Plug-In . SVG Version: 6.00 Build 0)  -->
<!DOCTYPE svg PUBLIC "-//W3C//DTD SVG 1.1//EN" "http://www.w3.org/Graphics/SVG/1.1/DTD/svg11.dtd">
<svg version="1.1" id="Layer_1" xmlns="http://www.w3.org/2000/svg" xmlns:xlink="http://www.w3.org/1999/xlink" x="0px" y="0px"
	 width="64px" height="64px" viewBox="0 0 64 64" enable-background="new 0 0 64 64" xml:space="preserve">
<path fill="#F1F2F3" d="M32,0C14.3,0,0,14.3,0,32c0,17.7,14.3,32,32,32c17.7,0,32-14.3,32-32C64,14.3,49.7,0,32,0z M37,14.6
	c-0.6-0.5-0.7-1.4-0.3-2c0.5-0.6,1.4-0.7,2-0.3c1.1,0.9,1.7,2.2,1.7,3.6c0,1.4-0.6,2.7-1.7,3.6c-0.4,0.3-0.6,0.8-0.6,1.3
	c0,0.5,0.2,1,0.6,1.3c0.6,0.5,0.7,1.4,0.3,2c-0.3,0.4-0.7,0.5-1.1,0.5c-0.3,0-0.6-0.1-0.9-0.3c-1.1-0.9-1.7-2.2-1.7-3.6
	c0-1.4,0.6-2.7,1.7-3.6c0.4-0.3,0.6-0.8,0.6-1.3C37.6,15.4,37.4,14.9,37,14.6z M36.4,26.8l-1.6,18.7h-6.5l-1.6-18.7H36.4z
	 M30.7,14.6c-0.6-0.5-0.7-1.4-0.3-2c0.5-0.6,1.4-0.7,2-0.3c1.1,0.9,1.7,2.2,1.7,3.6c0,1.4-0.6,2.7-1.7,3.6c-0.4,0.3-0.6,0.8-0.6,1.3
	c0,0.5,0.2,1,0.6,1.3c0.6,0.5,0.7,1.4,0.3,2c-0.3,0.4-0.7,0.5-1.1,0.5c-0.3,0-0.6-0.1-0.9-0.3c-1.1-0.9-1.7-2.2-1.7-3.6
	c0-1.4,0.6-2.7,1.7-3.6c0.4-0.3,0.6-0.8,0.6-1.3C31.4,15.4,31.1,14.9,30.7,14.6z M24.5,14.6c-0.6-0.5-0.7-1.4-0.3-2
	c0.5-0.6,1.4-0.7,2-0.3c1.1,0.9,1.7,2.2,1.7,3.6c0,1.4-0.6,2.7-1.7,3.6c-0.4,0.3-0.6,0.8-0.6,1.3c0,0.5,0.2,1,0.6,1.3
	c0.6,0.5,0.7,1.4,0.3,2c-0.3,0.4-0.7,0.5-1.1,0.5c-0.3,0-0.6-0.1-0.9-0.3c-1.1-0.9-1.7-2.2-1.7-3.6c0-1.4,0.6-2.7,1.7-3.6
	c0.4-0.3,0.6-0.8,0.6-1.3C25.1,15.4,24.9,14.9,24.5,14.6z M15.5,35.7c-1.1,0-1.7-0.8-1.7-2v-0.6c0-1.1,0.5-1.4,1.7-1.4h2.3l-0.6-4.9
	h7.9l1.6,18.7h-6.4l-1.7-9.8H15.5z M19.8,50.5l0.5-3.9h22.9l0.4,3.9H19.8z M49.2,33.7c0,1.1-0.9,2-2,2h-2.5l-1.7,9.8h-6.4l1.6-18.7
	H46l-0.6,4.9h1.8c1.1,0,2,0.3,2,1.4V33.7z"/>
</svg>
