<?xml version="1.0" encoding="utf-8"?>
<!-- Generator: Adobe Illustrator 18.0.0, SVG Export Plug-In . SVG Version: 6.00 Build 0)  -->
<!DOCTYPE svg PUBLIC "-//W3C//DTD SVG 1.1//EN" "http://www.w3.org/Graphics/SVG/1.1/DTD/svg11.dtd">
<svg version="1.1" id="Layer_1" xmlns="http://www.w3.org/2000/svg" xmlns:xlink="http://www.w3.org/1999/xlink" x="0px" y="0px"
	 width="11px" height="15px" viewBox="0 0 11 15" enable-background="new 0 0 11 15" xml:space="preserve">
<path fill="#DCDCDD" d="M10,5H1C0.4,5,0,5.4,0,6l1,8c0,0.6,0.4,1,1,1h7c0.6,0,1-0.4,1-1l1-8C11,5.4,10.6,5,10,5z M3,12l-1-1V6h1V12z
	 M6,13H5V6h1V13z M9,11l-1,1V6h1V11z"/>
<path fill="#DCDCDD" d="M10,2H9H8V1c0-0.6-0.4-1-1-1H4C3.4,0,3,0.4,3,1v1H1C0.4,2,0,2.4,0,3v1h5h1h5V3C11,2.4,10.6,2,10,2z M5,2H4
	c0-0.6,0.4-1,1-1h1c0.6,0,1,0.4,1,1H6H5z"/>
</svg>
