<?xml version="1.0" encoding="utf-8"?>
<!-- Generator: Adobe Illustrator 18.0.0, SVG Export Plug-In . SVG Version: 6.00 Build 0)  -->
<!DOCTYPE svg PUBLIC "-//W3C//DTD SVG 1.1//EN" "http://www.w3.org/Graphics/SVG/1.1/DTD/svg11.dtd">
<svg version="1.1" id="Layer_1" xmlns="http://www.w3.org/2000/svg" xmlns:xlink="http://www.w3.org/1999/xlink" x="0px" y="0px"
	 width="22px" height="16px" viewBox="0 0 22 16" enable-background="new 0 0 22 16" xml:space="preserve">
<path fill="#A1CD93" d="M21,0H1C0.4,0,0,0.4,0,1v2v5v7c0,0.6,0.4,1,1,1h20c0.6,0,1-0.4,1-1V8V3V1C22,0.4,21.6,0,21,0z M21,14
	c0,0.6-0.4,1-1,1H2c-0.6,0-1-0.4-1-1V8h20V14z M1,3V2c0-0.6,0.4-1,1-1h18c0.6,0,1,0.4,1,1v1H1z"/>
<rect x="3" y="10" fill="#A1CD93" width="2" height="3"/>
<rect x="6" y="10" fill="#A1CD93" width="2" height="3"/>
<rect x="9" y="10" fill="#A1CD93" width="2" height="3"/>
</svg>
