<?xml version="1.0" encoding="utf-8"?>
<!-- Generator: Adobe Illustrator 18.0.0, SVG Export Plug-In . SVG Version: 6.00 Build 0)  -->
<!DOCTYPE svg PUBLIC "-//W3C//DTD SVG 1.1//EN" "http://www.w3.org/Graphics/SVG/1.1/DTD/svg11.dtd">
<svg version="1.1" id="Layer_1" xmlns="http://www.w3.org/2000/svg" xmlns:xlink="http://www.w3.org/1999/xlink" x="0px" y="0px"
	 width="22px" height="18px" viewBox="0 0 22 18" enable-background="new 0 0 22 18" xml:space="preserve">
<path fill="#EC827F" d="M17,11.5c0,0.8-0.7,1.5-1.5,1.5l0,0c-0.8,0-1.5-0.7-1.5-1.5l0,0c0-0.8,0.7-1.5,1.5-1.5l0,0
	C16.3,10,17,10.7,17,11.5L17,11.5z"/>
<polygon fill="#EC827F" points="15,0 20,5 10,5 "/>
<path fill="#EC827F" d="M15,9h7V6h-4H6H4C3.4,6,3,5.6,3,5s0.4-1,1-1h4l1-1H2C1,3,0,4,0,5v11c0,1,1,2,2,2h18c1,0,2-1,2-2v-2h-7
	c-1.1,0-2-0.9-2-2v-1C13,9.9,13.9,9,15,9z"/>
</svg>
