<?xml version="1.0" encoding="utf-8"?>
<!-- Generator: Adobe Illustrator 18.0.0, SVG Export Plug-In . SVG Version: 6.00 Build 0)  -->
<!DOCTYPE svg PUBLIC "-//W3C//DTD SVG 1.1//EN" "http://www.w3.org/Graphics/SVG/1.1/DTD/svg11.dtd">
<svg version="1.1" id="Layer_1" xmlns="http://www.w3.org/2000/svg" xmlns:xlink="http://www.w3.org/1999/xlink" x="0px" y="0px"
	 width="37px" height="31px" viewBox="0 0 37 31" enable-background="new 0 0 37 31" xml:space="preserve">
<rect x="9" y="19" fill="#48B1DF" width="2" height="12"/>
<path fill="#48B1DF" d="M10,0C4.5,0,0,4.5,0,10s4.5,10,10,10c5.5,0,10-4.5,10-10S15.5,0,10,0z M10,18c-4.4,0-8-3.6-8-8s3.6-8,8-8
	s8,3.6,8,8S14.4,18,10,18z"/>
<path fill="#48B1DF" d="M36,21h-2h-0.1c-0.3-2.2-2.1-4-4.4-4h-7c-2.3,0-4.2,1.8-4.4,4H18h-2c-0.6,0-1,0.4-1,1s0.4,1,1,1h1v5
	c0,0.6,0.4,1,1,1l0,0v1c0,0.6,0.4,1,1,1h2c0.6,0,1-0.4,1-1v-1h8v1c0,0.6,0.4,1,1,1h2c0.6,0,1-0.4,1-1v-1l0,0c0.6,0,1-0.4,1-1v-5h1
	c0.6,0,1-0.4,1-1S36.6,21,36,21z M19.5,27c-0.8,0-1.5-0.7-1.5-1.5s0.7-1.5,1.5-1.5c0.8,0,1.5,0.7,1.5,1.5S20.3,27,19.5,27z M29,26
	h-6c-0.6,0-1-0.4-1-1s0.4-1,1-1h6c0.6,0,1,0.4,1,1S29.6,26,29,26z M20.1,21c0.2-1.1,1.2-2,2.4-2h7c1.2,0,2.2,0.9,2.4,2H20.1z
	 M32.5,27c-0.8,0-1.5-0.7-1.5-1.5s0.7-1.5,1.5-1.5c0.8,0,1.5,0.7,1.5,1.5S33.3,27,32.5,27z"/>
<rect x="7" y="9" fill="#48B1DF" width="2" height="6"/>
<path fill="#48B1DF" d="M11,6H7v6h4c1.7,0,3-1.3,3-3S12.7,6,11,6z M11,10H9V8h2c0.6,0,1,0.4,1,1S11.6,10,11,10z"/>
</svg>
