<?xml version="1.0" encoding="utf-8"?>
<!-- Generator: Adobe Illustrator 18.0.0, SVG Export Plug-In . SVG Version: 6.00 Build 0)  -->
<!DOCTYPE svg PUBLIC "-//W3C//DTD SVG 1.1//EN" "http://www.w3.org/Graphics/SVG/1.1/DTD/svg11.dtd">
<svg version="1.1" id="Layer_1" xmlns="http://www.w3.org/2000/svg" xmlns:xlink="http://www.w3.org/1999/xlink" x="0px" y="0px"
	 width="20px" height="20px" viewBox="0 0 20 20" enable-background="new 0 0 20 20" xml:space="preserve">
<circle fill-rule="evenodd" clip-rule="evenodd" fill="#E88C46" cx="10" cy="10" r="10"/>
<path fill-rule="evenodd" clip-rule="evenodd" fill="#FFFFFF" d="M5.8,11.9c0,0-0.1,0.5,0.4,0.9C6.8,13.4,7.8,14,9.5,14
	c1.7,0,2.8-0.6,3.4-1.1c0.2-0.1,0.2-0.9,0.2-0.9l0.9,0c0,0,0.2,1-0.1,1.3c-0.5,0.7-1.8,1.8-4.5,1.8C5.7,15,5,13.1,5,13.1L5,12
	L5.8,11.9z"/>
<path fill-rule="evenodd" clip-rule="evenodd" fill="#FFFFFF" d="M14,6.1L14,5c0,0-0.8-0.2-0.8,0.8c-1.1,0.1-2.5,1.1-2.5,2.2l-2.9,0
	c0,0-0.5-0.8-0.8-0.9C6.1,6.8,5,7.2,5,7.2l0,1.9l1-0.3c0,0,0.2-0.6,0.4-0.8C6.7,7.6,7,8.3,7,8.3l0,2.3l-0.7,1.9l0.5,0.7l1.9-2.3h1.9
	l1.8,2.4l0.5-1L12,10.5c0,0-0.1-2.1,1.3-3.1C13.8,8.6,15,8.6,15,7.7S14,6.1,14,6.1z M10.4,10H8.7V8.5h1.8V10z"/>
</svg>
