<?xml version="1.0" encoding="utf-8"?>
<!-- Generator: Adobe Illustrator 18.0.0, SVG Export Plug-In . SVG Version: 6.00 Build 0)  -->
<!DOCTYPE svg PUBLIC "-//W3C//DTD SVG 1.1//EN" "http://www.w3.org/Graphics/SVG/1.1/DTD/svg11.dtd">
<svg version="1.1" id="Layer_1" xmlns="http://www.w3.org/2000/svg" xmlns:xlink="http://www.w3.org/1999/xlink" x="0px" y="0px"
	 width="20px" height="19px" viewBox="0 0 20 19" enable-background="new 0 0 20 19" xml:space="preserve">
<path fill="#8B8782" d="M18,2h-4H6H2C0.9,2,0,2.9,0,4v13c0,1.1,0.9,2,2,2h16c1.1,0,2-0.9,2-2V4C20,2.9,19.1,2,18,2z M18,17H2V6h16
	V17z"/>
<path fill="#8B8782" d="M5,2c0,0.6-0.4,1-1,1l0,0C3.4,3,3,2.6,3,2V1c0-0.6,0.4-1,1-1l0,0c0.6,0,1,0.4,1,1V2z"/>
<path fill="#8B8782" d="M17,2c0,0.6-0.4,1-1,1l0,0c-0.6,0-1-0.4-1-1V1c0-0.6,0.4-1,1-1l0,0c0.6,0,1,0.4,1,1V2z"/>
<rect x="4" y="10" fill="#8B8782" width="3" height="6"/>
<rect x="8" y="10" fill="#8B8782" width="4" height="6"/>
<rect x="13" y="10" fill="#8B8782" width="3" height="6"/>
<rect x="4" y="7" fill="#8B8782" width="3" height="2"/>
<rect x="8" y="7" fill="#8B8782" width="4" height="2"/>
<rect x="13" y="7" fill="#8B8782" width="3" height="2"/>
</svg>
