<?xml version="1.0" encoding="utf-8"?>
<!-- Generator: Adobe Illustrator 18.0.0, SVG Export Plug-In . SVG Version: 6.00 Build 0)  -->
<!DOCTYPE svg PUBLIC "-//W3C//DTD SVG 1.1//EN" "http://www.w3.org/Graphics/SVG/1.1/DTD/svg11.dtd">
<svg version="1.1" id="Layer_1" xmlns="http://www.w3.org/2000/svg" xmlns:xlink="http://www.w3.org/1999/xlink" x="0px" y="0px"
	 width="36px" height="28px" viewBox="0 0 36 28" enable-background="new 0 0 36 28" xml:space="preserve">
<g>
	<polygon fill="none" points="25.1,22.7 20.1,16.7 17,20.7 17,26 33.1,26 28.1,19.9 	"/>
	<circle fill="none" cx="29.1" cy="13.7" r="2"/>
	<path fill="#7CAFCB" d="M35,10c0-0.6-0.4-1-1-1H16c-0.6,0-1,0.4-1,1v17c0,0.6,0.4,1,1,1h18c0.6,0,1-0.4,1-1V10z M29.1,11.7
		c1.1,0,2,0.9,2,2s-0.9,2-2,2s-2-0.9-2-2S28,11.7,29.1,11.7z M17,26v-5.3l3.1-4l5,6l3-2.9l5,6.1H17z"/>
	<path fill="#7CAFCB" d="M32,8V6.7C32,6.2,31.7,6,31.1,6h-18C12.6,6,12,6.2,12,6.7v17c0,0.6,0.6,1.3,1.1,1.3H14V8.7
		C14,8.2,14.6,8,15.1,8H32z"/>
	<path fill="#7CAFCB" d="M5.8,0.3C5.7,0.2,5.6,0.1,5.5,0.1C5.4,0,5.3,0,5.1,0C4.9,0,4.6,0.1,4.4,0.3L0.3,4.4c-0.4,0.4-0.4,1,0,1.4
		c0.4,0.4,0.9,0.4,1.3,0L4,3.3v7.4V11c0,0.5,0.5,1,1,1c0.5,0,1-0.4,1-1v-0.2V3.3l2.5,2.5c0.4,0.4,1,0.4,1.4,0c0.4-0.4,0.4-1,0-1.4
		L5.8,0.3z"/>
</g>
</svg>
