<?xml version="1.0" encoding="utf-8"?>
<!-- Generator: Adobe Illustrator 18.0.0, SVG Export Plug-In . SVG Version: 6.00 Build 0)  -->
<!DOCTYPE svg PUBLIC "-//W3C//DTD SVG 1.1//EN" "http://www.w3.org/Graphics/SVG/1.1/DTD/svg11.dtd">
<svg version="1.1" id="Layer_1" xmlns="http://www.w3.org/2000/svg" xmlns:xlink="http://www.w3.org/1999/xlink" x="0px" y="0px"
	 width="47px" height="61px" viewBox="0 0 47 61" enable-background="new 0 0 47 61" xml:space="preserve">
<path fill="#FFFFFF" d="M3,60.5c-1.7,0-2.5-0.8-2.5-2.5V3c0-1.7,0.8-2.5,2.5-2.5h29.8l13.7,13.7V58c0,1.7-0.8,2.5-2.5,2.5H3z"/>
<path fill="#C3B9A9" d="M32.6,1L46,14.4V58c0,1.4-0.6,2-2,2H3c-1.4,0-2-0.6-2-2V3c0-1.4,0.6-2,2-2H32.6 M33,0H3C1.1,0,0,1.1,0,3v55
	c0,1.9,1.1,3,3,3h41c1.9,0,3-1.1,3-3V14L33,0L33,0z"/>
<path fill="#C3B9A9" d="M33,12c0,1.9,1.1,3,3,3h11L33,1V12z"/>
<path fill="#EC827F" d="M44,39c0-1.7-1.3-3-3-3H6c-1.7,0-3,1.3-3,3v16c0,1.7,1.4,3,3,3h35c1.7,0,3-1.3,3-3V39z"/>
<path fill="#FFFFFF" d="M13.2,41.2h2.6c2.7,0,4.2,0.6,4.2,3.4c0,2.8-1.5,3.5-4.2,3.5h-1.1V53h-1.5V41.2z M15.7,47
	c1.9,0,2.7-0.3,2.7-2.4c0-2-0.8-2.4-2.7-2.4h-1V47H15.7z"/>
<path fill="#FFFFFF" d="M21.4,41.2H24c2.8,0,4.5,1.2,4.5,5.3v1.3c0,4-1.7,5.3-4.5,5.3h-2.6V41.2z M24,51.9c2.1,0,2.9-1.1,2.9-4.6
	v-0.6c0-3.4-0.8-4.6-2.9-4.6h-1.2v9.7H24z"/>
<path fill="#FFFFFF" d="M30.4,41.2H36v1.1h-4.2v4h3.8v1.2h-3.8V53h-1.5V41.2z"/>
<path fill="#C3B9A9" d="M17.3,8c-0.3,0-0.6,0.2-0.8,0.5c-0.2,0.3-0.3,0.8-0.4,1.4c-0.1,1.2,0.2,2.8,1,4.9c-0.7,2.3-3.8,9-4,9.2
	c-4.9,1.4-5.7,2.4-6,3.2c-0.3,0.9,0.1,2.6,1.3,2.6c0.6,0,2.1,0.5,5.1-5.3c1.3-0.4,3-0.7,5-1c1.4-0.2,2.5-0.3,3.5-0.4
	c2.3,2.7,3.9,2.5,4.7,2.4l0.3,0c0.3,0,0.6-0.2,0.7-0.5c0.2-0.4,0.2-0.9-0.1-1.3c-0.5-0.7-2.6-1.7-6.1-1.5c-1.3-1.6-1.6-2.5-2.4-3.9
	C18.4,17,18,16,17.7,15.1c0.9-3.2,1.1-5,1.1-5c0-0.2-0.1-0.8-0.1-0.9C18.4,8.2,17.8,8,17.3,8z M16.7,9.9c0-0.5,0.1-0.9,0.3-1.1
	c0.1-0.2,0.3-0.2,0.4-0.2c0.2,0,1,0.2,0.8,1.1c0,0.4-0.2,2.3-0.8,4.7C16.7,12.7,16.6,10.8,16.7,9.9z M14.2,23.5
	c1-1.9,2.3-4.3,3.4-7.7c0.4,0.9,0.7,1.7,1.3,2.7c1,1.8,1.6,2.9,2.5,3.9c-0.9,0.1-2,0.3-3.2,0.5C16.3,23.1,14.1,23.6,14.2,23.5z
	 M7.9,29.1c-1-0.5-0.7-2.4,4.2-3.9C10,28.8,8.8,29.5,7.9,29.1z M27.2,24.1c0.2,0.3,0.1,0.6,0.1,0.7C27.2,25,27.1,25,27.1,25l-0.4,0
	c-0.7,0.1-2.6,0.1-4.6-2C25.4,23,27,23.7,27.2,24.1z"/>
<path fill="#C3B9A9" d="M8.8,30.3c-0.1,0-0.2,0-0.2,0l-0.1,0c-0.6,0-1.1-0.3-1.5-0.8c-0.5-0.7-0.6-1.7-0.3-2.4
	c0.4-0.9,1.2-2,6.1-3.5c0.5-1.1,3.1-6.6,3.8-8.8c-0.7-1.9-1-3.6-1-4.9c0-0.7,0.2-1.3,0.4-1.7c0.3-0.4,0.7-0.7,1.2-0.7l0.1,0
	c0.4,0,1.4,0.2,1.8,1.6c0.1,0.3,0.2,0.8,0.2,1.1c0,0.2-0.2,1.9-1.1,4.9c0.3,0.9,0.7,1.8,1.4,3.1c0.2,0.4,0.4,0.7,0.5,1
	c0.4,0.8,0.8,1.5,1.6,2.6c3.5-0.1,5.7,0.9,6.3,1.8c0.4,0.6,0.4,1.2,0.1,1.8c-0.3,0.5-0.7,0.8-1.1,0.8l-0.3,0c-0.2,0-0.4,0-0.6,0
	c-1.4,0-2.9-0.8-4.4-2.4c-0.9,0.1-2,0.2-3.2,0.4c-1.8,0.3-3.4,0.6-4.8,0.9C11.4,29.7,9.9,30.3,8.8,30.3z M11,26.1
	C8.7,27,8,27.9,8,28.3c0,0.1,0,0.2,0.2,0.3c0,0,0.1,0,0.2,0C8.8,28.7,9.6,28.2,11,26.1z M23.4,23.6c1.1,0.8,2.1,1,2.8,1
	c0.2,0,0.3,0,0.4,0l0.2,0c0-0.1,0-0.1,0-0.2C26.7,24.2,25.7,23.7,23.4,23.6z M17.6,17.2c-0.8,2.3-1.7,4.2-2.5,5.7
	c0.2,0,0.3-0.1,0.5-0.1c0.7-0.1,1.7-0.3,2.5-0.4c0.4-0.1,0.7-0.1,1.1-0.2c0.4-0.1,0.8-0.1,1.2-0.2c-0.6-0.8-1.2-1.8-2-3.3
	C18.1,18.1,17.9,17.6,17.6,17.2z M17.3,9.1c-0.1,0.1-0.1,0.4-0.2,0.8c0,0.4,0,1.3,0.1,2.2c0.1-0.8,0.3-1.6,0.3-2.4l0-0.1
	c0-0.2,0-0.3,0-0.4C17.5,9.1,17.4,9.1,17.3,9.1L17.3,9.1C17.3,9.1,17.3,9.1,17.3,9.1z"/>
</svg>
