<?xml version="1.0" encoding="utf-8"?>
<!-- Generator: Adobe Illustrator 18.0.0, SVG Export Plug-In . SVG Version: 6.00 Build 0)  -->
<!DOCTYPE svg PUBLIC "-//W3C//DTD SVG 1.1//EN" "http://www.w3.org/Graphics/SVG/1.1/DTD/svg11.dtd">
<svg version="1.1" id="Layer_1" xmlns="http://www.w3.org/2000/svg" xmlns:xlink="http://www.w3.org/1999/xlink" x="0px" y="0px"
	 width="41px" height="22px" viewBox="0 0 41 22" enable-background="new 0 0 41 22" xml:space="preserve">
<path fill="#63B3D1" d="M41,3c0-1.7-1.3-3-3-3H3C1.4,0,0,1.3,0,3v16c0,1.7,1.4,3,3,3h35c1.7,0,3-1.3,3-3V3z"/>
<path fill="#FFFFFF" d="M3.7,5.2h2.6c2.8,0,4.5,1.2,4.5,5.3v1.3c0,4-1.7,5.3-4.5,5.3H3.7V5.2z M6.4,15.9c2.1,0,2.9-1.1,2.9-4.6v-0.6
	c0-3.4-0.8-4.6-2.9-4.6H5.2v9.7H6.4z"/>
<path fill="#FFFFFF" d="M20.1,10.4v1.5c0,3.7-1.2,5.4-3.9,5.4c-2.7,0-3.9-1.7-3.9-5.4v-1.5c0-3.7,1.2-5.4,3.9-5.4
	C18.9,5,20.1,6.6,20.1,10.4z M13.9,10.8v0.6c0,3,0.5,4.7,2.3,4.7c1.9,0,2.3-1.7,2.3-4.7v-0.6c0-3-0.5-4.7-2.3-4.7
	C14.3,6,13.9,7.8,13.9,10.8z"/>
<path fill="#FFFFFF" d="M21.6,11.8v-1.5c0-3.7,1.1-5.4,3.8-5.4C27.8,5,29,6.3,29,8.8v0.1h-1.4V8.9c0-2-0.7-2.8-2.1-2.8
	c-1.9,0-2.3,1.7-2.3,4.7v0.6c0,3,0.4,4.7,2.3,4.7c1.4,0,2.1-0.8,2.1-2.8v-0.1H29v0.1c0,2.5-1.2,3.9-3.6,3.9
	C22.7,17.2,21.6,15.5,21.6,11.8z"/>
<path fill="#FFFFFF" d="M32.6,10.9l-3-5.7h1.5l2.2,4.4l2.3-4.4h1.5l-3,5.6l3.2,6.2h-1.5l-2.5-4.8L30.9,17h-1.5L32.6,10.9z"/>
</svg>
