<?xml version="1.0" encoding="utf-8"?>
<!-- Generator: Adobe Illustrator 17.0.0, SVG Export Plug-In . SVG Version: 6.00 Build 0)  -->
<!DOCTYPE svg PUBLIC "-//W3C//DTD SVG 1.1//EN" "http://www.w3.org/Graphics/SVG/1.1/DTD/svg11.dtd">
<svg version="1.1" id="Layer_1" xmlns="http://www.w3.org/2000/svg" xmlns:xlink="http://www.w3.org/1999/xlink" x="0px" y="0px"
	 width="12px" height="12px" viewBox="0 0 12 12" enable-background="new 0 0 12 12" xml:space="preserve">
<path fill="#A0A0A0" d="M9,9c-0.765,0-1.238,0.522-1.741,1.023C7.795,10.38,8.051,11.05,7.879,12H12C12,10.46,10.535,9,9,9z
	 M6.132,10.248c-0.965,0-1.747,0.784-1.747,1.752h3.494C7.879,11.032,7.097,10.248,6.132,10.248z M10,1V0H7v1H5v5l1,1V2h1v5l1,1V2h1
	v6h1V2h1v7l1,0.607V1H10z M6.66,9.539l0.061-0.06C6.903,9.297,7.103,9.14,7.314,9.004v-0.59L6.131,7.187L3,8v4l0.62,0
	c0-1.388,1.127-2.517,2.512-2.517C6.312,9.482,6.49,9.502,6.66,9.539z M2,12l0.156,0L2,12L2,12z M1,2L0,5v7h2V5L1,2z M1.111,6.955
	c-0.307,0-0.555-0.249-0.555-0.555c0-0.307,0.248-0.555,0.555-0.555c0.307,0,0.554,0.248,0.554,0.555
	C1.665,6.706,1.418,6.955,1.111,6.955z"/>
</svg>
