<?xml version="1.0" encoding="utf-8"?>
<!-- Generator: Adobe Illustrator 17.0.0, SVG Export Plug-In . SVG Version: 6.00 Build 0)  -->
<!DOCTYPE svg PUBLIC "-//W3C//DTD SVG 1.1//EN" "http://www.w3.org/Graphics/SVG/1.1/DTD/svg11.dtd">
<svg version="1.1" id="Layer_1" xmlns="http://www.w3.org/2000/svg" xmlns:xlink="http://www.w3.org/1999/xlink" x="0px" y="0px"
	 width="12px" height="8px" viewBox="0 0 12 8" enable-background="new 0 0 12 8" xml:space="preserve">
<path fill-rule="evenodd" clip-rule="evenodd" fill="#A0A0A0" d="M8,0C7.049,0,6.186,0.346,5.5,0.901C6.408,1.634,7,2.742,7,4
	S6.408,6.366,5.5,7.099C6.186,7.654,7.049,8,8,8c2.209,0,4-1.791,4-4S10.209,0,8,0z M3,1C1.344,1,0,2.343,0,4s1.344,3,3,3
	c1.656,0,3-1.343,3-3S4.656,1,3,1z"/>
</svg>
