<?xml version="1.0" encoding="utf-8"?>
<!-- Generator: Adobe Illustrator 17.0.0, SVG Export Plug-In . SVG Version: 6.00 Build 0)  -->
<!DOCTYPE svg PUBLIC "-//W3C//DTD SVG 1.1//EN" "http://www.w3.org/Graphics/SVG/1.1/DTD/svg11.dtd">
<svg version="1.1" id="Layer_1" xmlns="http://www.w3.org/2000/svg" xmlns:xlink="http://www.w3.org/1999/xlink" x="0px" y="0px"
	 width="9px" height="14px" viewBox="0 0 9 14" enable-background="new 0 0 9 14" xml:space="preserve">
<path fill-rule="evenodd" clip-rule="evenodd" fill="#A0A0A0" d="M8.972,12.865L4.866,7.055V5.783l2.872,1.562
	c0,0,0.141,0.009,0.354,0.009c0.475,0,0.859-0.372,0.859-0.831c0-0.418-0.312-0.68-0.527-0.767L5.399,4.031H3.2
	C0.866,5.278,1.174,4.533,0.028,7.748c-0.003,1.318,1.514,0.974,1.586,0.57c-0.001,0.01,0.734-2.156,0.734-2.156l0.824-0.398
	l-0.836,5.1c0,0-1.975,1.774-1.965,1.766c-0.961,0.9,0.279,1.835,1.053,1.109c-0.002,0.004,2.467-1.989,2.467-1.989l0.619-2.233
	l2.766,3.894C7.382,13.75,7.706,14,8.093,14C9.245,13.936,8.972,12.865,8.972,12.865z M4.515,3.031c0.828,0,1.5-0.672,1.5-1.5
	c0-0.828-0.672-1.5-1.5-1.5c-0.828,0-1.5,0.672-1.5,1.5C3.015,2.359,3.686,3.031,4.515,3.031z"/>
</svg>
