<?xml version="1.0" encoding="utf-8"?>
<!-- Generator: Adobe Illustrator 17.0.0, SVG Export Plug-In . SVG Version: 6.00 Build 0)  -->
<!DOCTYPE svg PUBLIC "-//W3C//DTD SVG 1.1//EN" "http://www.w3.org/Graphics/SVG/1.1/DTD/svg11.dtd">
<svg version="1.1" id="Layer_1" xmlns="http://www.w3.org/2000/svg" xmlns:xlink="http://www.w3.org/1999/xlink" x="0px" y="0px"
	 width="11px" height="11px" viewBox="0 0 11 11" enable-background="new 0 0 11 11" xml:space="preserve">
<path fill-rule="evenodd" clip-rule="evenodd" fill="#A0A0A0" d="M5.5,11C2.463,11,0,8.538,0,5.5S2.463,0,5.5,0
	C8.537,0,11,2.462,11,5.5S8.537,11,5.5,11z M5.5,2C3.566,2,2,3.567,2,5.5S3.566,9,5.5,9c0.155,0,0.304-0.026,0.454-0.046L3,6V5
	l2.571-1.714l0.413-1.237C5.824,2.026,5.666,2,5.5,2z M8.949,5H7.375C7.021,5.505,6.545,6.082,6,6.497V8.95
	C7.693,8.705,9,7.262,9,5.5C9,5.329,8.974,5.165,8.949,5z"/>
</svg>
