<?xml version="1.0" encoding="utf-8"?>
<!-- Generator: Adobe Illustrator 17.0.0, SVG Export Plug-In . SVG Version: 6.00 Build 0)  -->
<!DOCTYPE svg PUBLIC "-//W3C//DTD SVG 1.1//EN" "http://www.w3.org/Graphics/SVG/1.1/DTD/svg11.dtd">
<svg version="1.1" id="Layer_1" xmlns="http://www.w3.org/2000/svg" xmlns:xlink="http://www.w3.org/1999/xlink" x="0px" y="0px"
	 width="18px" height="18px" viewBox="0 0 18 18" enable-background="new 0 0 18 18" xml:space="preserve">
<g id="fav_x5F_dark_x5F_hover">
	<g opacity="0.2">
		<path d="M17.016,6.002l-5.938-0.004L9.099,0.02l-1.98,5.979L1.182,6.002L5.896,9.86L4.111,15.97l4.987-3.82l4.986,3.82
			L12.301,9.86L17.016,6.002z M9.066,10.717l-3.008,2.326L7.19,9.448L4.102,7l3.942-0.001l1.054-3.505l1.022,3.505L14,7
			l-2.995,2.354l1.077,3.669L9.066,10.717z"/>
	</g>
	<g>
		<path fill="#E6E6E6" d="M17.016,7.002l-5.938-0.004L9.099,1.02l-1.98,5.979L1.182,7.002l4.714,3.858L4.111,16.97l4.987-3.82
			l4.986,3.82l-1.784-6.109L17.016,7.002z M9.066,11.717l-3.008,2.326l1.132-3.595L4.102,8l3.942-0.001l1.054-3.505l1.022,3.505
			L14,8l-2.995,2.354l1.077,3.669L9.066,11.717z"/>
	</g>
</g>
</svg>
