<?xml version="1.0" encoding="utf-8"?>
<!-- Generator: Adobe Illustrator 17.0.0, SVG Export Plug-In . SVG Version: 6.00 Build 0)  -->
<!DOCTYPE svg PUBLIC "-//W3C//DTD SVG 1.1//EN" "http://www.w3.org/Graphics/SVG/1.1/DTD/svg11.dtd">
<svg version="1.1" id="Layer_1" xmlns="http://www.w3.org/2000/svg" xmlns:xlink="http://www.w3.org/1999/xlink" x="0px" y="0px"
	 width="58px" height="45px" viewBox="0 0 58 45" enable-background="new 0 0 58 45" xml:space="preserve">
<path fill="#323232" fill-opacity="0.85" d="M0,0c12.642,0,28,7.116,28,44h2C30,7.116,45.358,0,58,0H0z"/>
<linearGradient id="SVGID_1_" gradientUnits="userSpaceOnUse" x1="29" y1="45" x2="29" y2="32">
	<stop  offset="0" style="stop-color:#000000;stop-opacity:0.05"/>
	<stop  offset="1" style="stop-color:#000000;stop-opacity:0"/>
</linearGradient>
<path fill="url(#SVGID_1_)" d="M48,32c-10,0-17,8-17,12c-1,1-1,1-1,1h-2c0,0,0,0-1-1c0-4-7-12-17-12H48z"/>
<linearGradient id="SVGID_2_" gradientUnits="userSpaceOnUse" x1="29" y1="44" x2="29" y2="30">
	<stop  offset="0" style="stop-color:#000000;stop-opacity:0.05"/>
	<stop  offset="1" style="stop-color:#000000;stop-opacity:0"/>
</linearGradient>
<path fill="url(#SVGID_2_)" d="M48,30c-10,0-18,10-18,14c-1,0-1,0-2,0c0-4-8-14-18-14H48z"/>
<g>
	<g>
		<linearGradient id="SVGID_3_" gradientUnits="userSpaceOnUse" x1="29" y1="44" x2="29" y2="30">
			<stop  offset="0" style="stop-color:#000000;stop-opacity:0.2"/>
			<stop  offset="0.8" style="stop-color:#000000;stop-opacity:0"/>
		</linearGradient>
		<path fill="url(#SVGID_3_)" d="M30,38c-1,0-1,0-2,0c0-1.936-2.831-7.603-12.08-7.965C25.185,30.743,28,42.063,28,44c1,0,1,0,2,0
			c0-1.937,2.815-13.257,12.08-13.965C32.831,30.397,30,36.064,30,38z"/>
	</g>
</g>
</svg>
