<?xml version="1.0" encoding="utf-8"?>
<!-- Generator: Adobe Illustrator 17.0.0, SVG Export Plug-In . SVG Version: 6.00 Build 0)  -->
<!DOCTYPE svg PUBLIC "-//W3C//DTD SVG 1.1//EN" "http://www.w3.org/Graphics/SVG/1.1/DTD/svg11.dtd">
<svg version="1.1" id="Layer_1" xmlns="http://www.w3.org/2000/svg" xmlns:xlink="http://www.w3.org/1999/xlink" x="0px" y="0px"
	 width="18px" height="18px" viewBox="0 0 18 18" enable-background="new 0 0 18 18" xml:space="preserve">
<g id="fav_x5F_dark_x5F_off" opacity="0.5">
	<g opacity="0.4">
		<path fill="#FFFFFF" d="M17,8.032l-5.938-0.004L9.083,2.05L7.104,8.028L1.167,8.032l4.714,3.858L4.097,18l4.986-3.82L14.069,18
			l-1.783-6.109L17,8.032z M9.051,12.747l-3.007,2.326l1.131-3.595L4.087,9.03l3.941-0.001l1.054-3.505l1.023,3.505l3.88,0.001
			l-2.995,2.355l1.077,3.669L9.051,12.747z"/>
	</g>
	<g>
		<path d="M17,7.032l-5.938-0.004L9.083,1.05L7.104,7.028L1.167,7.032l4.714,3.858L4.097,17l4.986-3.82L14.069,17l-1.783-6.109
			L17,7.032z M9.051,11.747l-3.007,2.326l1.131-3.595L4.087,8.03l3.941-0.001l1.054-3.505l1.023,3.505l3.88,0.001l-2.995,2.355
			l1.077,3.669L9.051,11.747z"/>
	</g>
</g>
</svg>
