<?xml version="1.0" encoding="utf-8"?>
<!-- Generator: Adobe Illustrator 17.0.0, SVG Export Plug-In . SVG Version: 6.00 Build 0)  -->
<!DOCTYPE svg PUBLIC "-//W3C//DTD SVG 1.1//EN" "http://www.w3.org/Graphics/SVG/1.1/DTD/svg11.dtd">
<svg version="1.1" id="Layer_1" xmlns="http://www.w3.org/2000/svg" xmlns:xlink="http://www.w3.org/1999/xlink" x="0px" y="0px"
	 width="12px" height="12px" viewBox="0 0 12 12" enable-background="new 0 0 12 12" xml:space="preserve">
<path fill-rule="evenodd" clip-rule="evenodd" fill="#A0A0A0" d="M6,0C2.687,0,0,2.686,0,6c0,3.313,2.687,6,6,6s6-2.687,6-6
	C12,2.686,9.314,0,6,0z M7,8L5,9L4,8l1-3h2L6,8H7z M6.5,4.5c-0.553,0-1-0.448-1-1s0.447-1,1-1c0.552,0,1,0.448,1,1
	S7.052,4.5,6.5,4.5z"/>
</svg>
