<?xml version="1.0" encoding="utf-8"?>
<!-- Generator: Adobe Illustrator 17.0.0, SVG Export Plug-In . SVG Version: 6.00 Build 0)  -->
<!DOCTYPE svg PUBLIC "-//W3C//DTD SVG 1.1//EN" "http://www.w3.org/Graphics/SVG/1.1/DTD/svg11.dtd">
<svg version="1.1" id="Layer_1" xmlns="http://www.w3.org/2000/svg" xmlns:xlink="http://www.w3.org/1999/xlink" x="0px" y="0px"
	 width="12px" height="10px" viewBox="0 0 12 10" enable-background="new 0 0 12 10" xml:space="preserve">
<g>
	<path fill="none" d="M9,11H8v-1H4v1H3v-1H0v1c0,1.104,0.896,2,2,2h8c1.104,0,2-0.896,2-2v-1H9V11z M10,5H9V4L8,3H4L3,4v1H2
		C0.896,5,0,5.896,0,7v2h3V8h1v1h4V8h1v1h3V7C12,5.896,11.104,5,10,5z M4,5l1-1h2l1,1H4z"/>
</g>
<g>
	<g>
		<path fill-rule="evenodd" clip-rule="evenodd" fill="#A0A0A0" d="M9,8H8V7H4v1H3V7H0v1c0,1.104,0.896,2,2,2h8c1.104,0,2-0.896,2-2
			V7H9V8z M10,2H9V1L8,0H4L3,1v1H2C0.896,2,0,2.896,0,4v2h3V5h1v1h4V5h1v1h3V4C12,2.896,11.104,2,10,2z M4,2l1-1h2l1,1H4z"/>
	</g>
</g>
</svg>
