<?xml version="1.0" encoding="utf-8"?>
<!-- Generator: Adobe Illustrator 17.0.0, SVG Export Plug-In . SVG Version: 6.00 Build 0)  -->
<!DOCTYPE svg PUBLIC "-//W3C//DTD SVG 1.1//EN" "http://www.w3.org/Graphics/SVG/1.1/DTD/svg11.dtd">
<svg version="1.1" id="Layer_1" xmlns="http://www.w3.org/2000/svg" xmlns:xlink="http://www.w3.org/1999/xlink" x="0px" y="0px"
	 width="8px" height="12px" viewBox="0 0 8 12" enable-background="new 0 0 8 12" xml:space="preserve">
<g id="showplace_x5F_card_2_">
	<g>
		<path fill-rule="evenodd" clip-rule="evenodd" fill="#AAAAAA" d="M7,0c0,0-3.653,0-4.453,0C0.547,0,0,0.828,0,2.5
			C0,3.734,0.5,5,2,5c1.359,0,2-1.156,2-2c0-0.719-1.141-1-2-1c0,0.766,0.234,1,1,1c0,0.69-0.52,1-1,1C1.234,4,1,3.329,1,2.5
			C1,1.693,1.375,1,2.5,1C4.391,1,5,1.656,5,3c0,1.6-0.662,2.119-2,3c0,1.372,0,0.78,0,4H2v2h6V1L7,0z M4,10V6l1,1v3H4z M6,10V6l1,1
			v3H6z"/>
	</g>
</g>
</svg>
