<?xml version="1.0" encoding="utf-8"?>
<!-- Generator: Adobe Illustrator 17.0.0, SVG Export Plug-In . SVG Version: 6.00 Build 0)  -->
<!DOCTYPE svg PUBLIC "-//W3C//DTD SVG 1.1//EN" "http://www.w3.org/Graphics/SVG/1.1/DTD/svg11.dtd">
<svg version="1.1" id="Layer_1" xmlns="http://www.w3.org/2000/svg" xmlns:xlink="http://www.w3.org/1999/xlink" x="0px" y="0px"
	 width="12px" height="10px" viewBox="0 0 12 10" enable-background="new 0 0 12 10" xml:space="preserve">
<path fill-rule="evenodd" clip-rule="evenodd" fill="#A0A0A0" d="M6,0C2.686,0,0,2.719,0,6.071C0,7.57,0.54,8.94,1.43,10h9.141
	C11.46,8.94,12,7.57,12,6.071C12,2.719,9.313,0,6,0z M8,8V7h0.5L8.4,3.967L6.769,7H5.23L3.6,3.967L3.5,7H4v1H1V7h0.5l1.334-5h0.931
	L6,5.223L8.235,2h0.932L10.5,7H11v1H8z"/>
</svg>
