<?xml version="1.0" encoding="utf-8"?>
<!-- Generator: Adobe Illustrator 17.0.0, SVG Export Plug-In . SVG Version: 6.00 Build 0)  -->
<!DOCTYPE svg PUBLIC "-//W3C//DTD SVG 1.1//EN" "http://www.w3.org/Graphics/SVG/1.1/DTD/svg11.dtd">
<svg version="1.1" id="Layer_1" xmlns="http://www.w3.org/2000/svg" xmlns:xlink="http://www.w3.org/1999/xlink" x="0px" y="0px"
	 width="12px" height="12px" viewBox="0 0 12 12" enable-background="new 0 0 12 12" xml:space="preserve">
<path fill-rule="evenodd" clip-rule="evenodd" fill="#A0A0A0" d="M5,9l4-3L5,3v2H0v2h5V9z M9.6,0H2.4C1.074,0,0,1.074,0,2.4V4h2V3.6
	C2,2.716,2.716,2,3.6,2H8.4C9.283,2,10,2.716,10,3.6v4.8C10,9.284,9.283,10,8.4,10H3.6C2.716,10,2,9.284,2,8.4V8H0v1.6
	C0,10.925,1.074,12,2.4,12H9.6c1.326,0,2.4-1.075,2.4-2.4V2.4C12,1.074,10.926,0,9.6,0z"/>
</svg>
