<?xml version="1.0" encoding="utf-8"?>
<!-- Generator: Adobe Illustrator 17.0.0, SVG Export Plug-In . SVG Version: 6.00 Build 0)  -->
<!DOCTYPE svg PUBLIC "-//W3C//DTD SVG 1.1//EN" "http://www.w3.org/Graphics/SVG/1.1/DTD/svg11.dtd">
<svg version="1.1" id="Layer_1" xmlns="http://www.w3.org/2000/svg" xmlns:xlink="http://www.w3.org/1999/xlink" x="0px" y="0px"
	 width="18px" height="18px" viewBox="0 0 18 18" enable-background="new 0 0 18 18" xml:space="preserve">
<g id="fav_x5F_on">
	<g id="Favorites_On">
		<g>
			<g opacity="0.2">
				<path d="M9.083,2.05l1.979,5.979L17,8.032l-4.715,3.858L14.069,18l-4.986-3.82L4.097,18l1.784-6.109L1.166,8.032l5.938-0.004
					L9.083,2.05z"/>
			</g>
			<linearGradient id="SVGID_1_" gradientUnits="userSpaceOnUse" x1="9.083" y1="17" x2="9.083" y2="1.0498">
				<stop  offset="0" style="stop-color:#FF8C00"/>
				<stop  offset="1" style="stop-color:#FFC864"/>
			</linearGradient>
			<path fill="url(#SVGID_1_)" d="M9.083,1.05l1.979,5.979L17,7.032l-4.715,3.858L14.069,17l-4.986-3.82L4.097,17l1.784-6.109
				L1.166,7.032l5.938-0.004L9.083,1.05z"/>
		</g>
		<g opacity="0.05">
			<path d="M9.083,1.05l1.979,5.979L17,7.032l-4.715,3.858L14.069,17l-4.986-3.82L4.097,17l1.784-6.109L1.166,7.032l5.938-0.004
				L9.083,1.05 M9.083,0.05c-0.432,0-0.814,0.276-0.949,0.686L6.381,6.028L1.165,6.032c-0.422,0-0.799,0.266-0.94,0.664
				C0.082,7.095,0.206,7.538,0.532,7.806l4.203,3.439L3.137,16.72c-0.121,0.415,0.038,0.861,0.395,1.105
				C3.702,17.942,3.899,18,4.097,18c0.215,0,0.429-0.069,0.608-0.206l4.378-3.354l4.378,3.354C13.641,17.931,13.854,18,14.069,18
				c0.197,0,0.395-0.058,0.566-0.175c0.356-0.244,0.516-0.69,0.394-1.105l-1.599-5.475l4.203-3.439
				c0.326-0.268,0.45-0.711,0.308-1.109c-0.142-0.398-0.519-0.664-0.94-0.664l-5.216-0.004l-1.753-5.293
				C9.896,0.326,9.515,0.05,9.083,0.05L9.083,0.05z"/>
		</g>
		<g opacity="0.1">
			<path fill="#883300" d="M9.083,4.231l1.03,3.111l0.226,0.686h0.722l3.14,0.002l-2.55,2.087l-0.512,0.419l0.186,0.635l0.928,3.178
				l-2.562-1.963L9.083,11.92l-0.608,0.466l-2.562,1.963l0.928-3.178l0.186-0.635l-0.512-0.419L3.965,8.03l3.14-0.002h0.722
				l0.227-0.686L9.083,4.231 M9.083,1.05l-1.98,5.979L1.166,7.032l4.715,3.858L4.097,17l4.986-3.82L14.069,17l-1.784-6.109L17,7.032
				l-5.938-0.004L9.083,1.05L9.083,1.05z"/>
		</g>
	</g>
	<g opacity="0.1">
		<path d="M5.881,9.891L2.387,7.031L1.166,7.032l4.478,3.666L5.881,9.891z M9.083,12.18l-4.61,3.532L4.097,17l4.986-3.82L14.069,17
			l-0.376-1.288L9.083,12.18z M17,7.032l-1.221-0.001l-3.494,2.859l0.236,0.808L17,7.032z"/>
	</g>
</g>
</svg>
