<?xml version="1.0" encoding="utf-8"?>
<!-- Generator: Adobe Illustrator 17.0.0, SVG Export Plug-In . SVG Version: 6.00 Build 0)  -->
<!DOCTYPE svg PUBLIC "-//W3C//DTD SVG 1.1//EN" "http://www.w3.org/Graphics/SVG/1.1/DTD/svg11.dtd">
<svg version="1.1" id="Layer_1" xmlns="http://www.w3.org/2000/svg" xmlns:xlink="http://www.w3.org/1999/xlink" x="0px" y="0px"
	 width="10px" height="10px" viewBox="0 0 10 10" enable-background="new 0 0 10 10" xml:space="preserve">
<path fill-rule="evenodd" clip-rule="evenodd" fill="#A0A0A0" d="M9.181,9.05C8.673,9.556,8.047,9.873,7.391,10
	C6.156,9.841,5.008,9.417,3.998,8.788L1.293,6.092c-0.654-1.039-1.09-2.227-1.241-3.503c0.138-0.625,0.442-1.221,0.931-1.707
	l0.82-0.817l2.184,2.176V2.79L3.441,3.332c-0.452,0.451-0.453,1.183,0,1.634L5.082,6.6c0.452,0.451,1.187,0.451,1.639,0l0.523-0.521
	h0.594L10,8.233L9.181,9.05z"/>
</svg>
