<?xml version="1.0" encoding="utf-8"?>
<!-- Generator: Adobe Illustrator 17.0.0, SVG Export Plug-In . SVG Version: 6.00 Build 0)  -->
<!DOCTYPE svg PUBLIC "-//W3C//DTD SVG 1.1//EN" "http://www.w3.org/Graphics/SVG/1.1/DTD/svg11.dtd">
<svg version="1.1" id="Layer_1" xmlns="http://www.w3.org/2000/svg" xmlns:xlink="http://www.w3.org/1999/xlink" x="0px" y="0px"
	 width="8px" height="12px" viewBox="0 0 8 12" enable-background="new 0 0 8 12" xml:space="preserve">
<path fill="#A0A0A0" d="M3.582,8c0.211,0,0.798,0.035,1,0v3v1l-2-1V8C2.954,8.066,3.443,8,3.582,8z M0.44,5.384
	C0.163,4.866,0,4.276,0,3.646c0-2.013,1.603-3.644,3.582-3.644c1.978,0,3.582,1.631,3.582,3.644c0,0.647-0.169,1.254-0.461,1.781
	C6.682,5.461,6.664,5.461,6.641,5.495c-0.006,0.012-0.017,0.06-0.023,0.072C5.954,6.549,4.844,7.192,3.584,7.192
	C2.25,7.192,1.084,6.467,0.44,5.384z M2.613,1.276c-0.549,0-0.995,0.453-0.995,1.013c0,0.559,0.446,1.013,0.995,1.013
	c0.551,0,0.996-0.454,0.996-1.013C3.609,1.729,3.164,1.276,2.613,1.276z"/>
</svg>
