<?xml version="1.0" encoding="utf-8"?>
<!-- Generator: Adobe Illustrator 17.0.0, SVG Export Plug-In . SVG Version: 6.00 Build 0)  -->
<!DOCTYPE svg PUBLIC "-//W3C//DTD SVG 1.1//EN" "http://www.w3.org/Graphics/SVG/1.1/DTD/svg11.dtd">
<svg version="1.1" id="Layer_1" xmlns="http://www.w3.org/2000/svg" xmlns:xlink="http://www.w3.org/1999/xlink" x="0px" y="0px"
	 width="10px" height="14px" viewBox="0 0 10 14" enable-background="new 0 0 10 14" xml:space="preserve">
<path fill-rule="evenodd" clip-rule="evenodd" fill="#A0A0A0" d="M8.82,10.82L7,10H3l-1.82,0.82C0.485,10.507,0,9.812,0,9V8V7l1-4
	C0.963,0.325,3.323,0.035,5,0.004C6.677,0.035,9.037,0.325,9,3l1,4v1v1C10,9.812,9.515,10.507,8.82,10.82z M1,9h2V7H1V9z M5,2.004
	C3.663,2.025,2.014,2.177,2,3.2L1.625,6h6.75L8,3.2C7.986,2.177,6.337,2.025,5,2.004z M9,7H7v2h2V7z M7,11l1,3H2l1-3H7z"/>
</svg>
