<?xml version="1.0" encoding="utf-8"?>
<!-- Generator: Adobe Illustrator 17.0.0, SVG Export Plug-In . SVG Version: 6.00 Build 0)  -->
<!DOCTYPE svg PUBLIC "-//W3C//DTD SVG 1.1//EN" "http://www.w3.org/Graphics/SVG/1.1/DTD/svg11.dtd">
<svg version="1.1" id="Layer_1" xmlns="http://www.w3.org/2000/svg" xmlns:xlink="http://www.w3.org/1999/xlink" x="0px" y="0px"
	 width="11px" height="11px" viewBox="0 0 11 11" enable-background="new 0 0 11 11" xml:space="preserve">
<path fill-rule="evenodd" clip-rule="evenodd" fill="#A0A0A0" d="M9,7H8L7.28,6.28C7.731,5.633,8,4.849,8,4c0-2.209-1.791-4-4-4
	S0,1.791,0,4c0,2.209,1.791,4,4,4c0.849,0,1.633-0.269,2.28-0.72L7,8v1l2,2l2-2L9,7z M4,6C2.895,6,2,5.104,2,4s0.895-2,2-2
	c1.104,0,2,0.896,2,2S5.104,6,4,6z"/>
</svg>
