<?xml version="1.0" encoding="utf-8"?>
<!-- Generator: Adobe Illustrator 17.0.0, SVG Export Plug-In . SVG Version: 6.00 Build 0)  -->
<!DOCTYPE svg PUBLIC "-//W3C//DTD SVG 1.1//EN" "http://www.w3.org/Graphics/SVG/1.1/DTD/svg11.dtd">
<svg version="1.1" id="Layer_1" xmlns="http://www.w3.org/2000/svg" xmlns:xlink="http://www.w3.org/1999/xlink" x="0px" y="0px"
	 width="12px" height="8px" viewBox="0 0 12 8" enable-background="new 0 0 12 8" xml:space="preserve">
<path fill-rule="evenodd" clip-rule="evenodd" fill="#A0A0A0" d="M9.5,5C8.672,5,8,5.671,8,6.5S8.672,8,9.5,8
	C10.328,8,11,7.329,11,6.5S10.328,5,9.5,5z M11,2H9L7,0H3L2,2H1L0,3v2l0.312,0.312C0.736,4.534,1.552,4,2.5,4
	c1.21,0,2.218,0.859,2.449,2h2.102C7.282,4.859,8.29,4,9.5,4c0.948,0,1.764,0.534,2.187,1.312L12,5V3L11,2z M2.5,5
	C1.672,5,1,5.671,1,6.5S1.672,8,2.5,8C3.328,8,4,7.329,4,6.5S3.328,5,2.5,5z"/>
</svg>
