<?xml version="1.0" encoding="utf-8"?>
<!-- Generator: Adobe Illustrator 17.0.0, SVG Export Plug-In . SVG Version: 6.00 Build 0)  -->
<!DOCTYPE svg PUBLIC "-//W3C//DTD SVG 1.1//EN" "http://www.w3.org/Graphics/SVG/1.1/DTD/svg11.dtd">
<svg version="1.1" id="Layer_1" xmlns="http://www.w3.org/2000/svg" xmlns:xlink="http://www.w3.org/1999/xlink" x="0px" y="0px"
	 width="12px" height="15px" viewBox="0 0 12 15" enable-background="new 0 0 12 15" xml:space="preserve">
<path fill-rule="evenodd" clip-rule="evenodd" fill="#A0A0A0" d="M11.5,6H11V5.5C11,4.396,9.104,3,8,3l2-3H9L7,3H4.5l2-3h-1l-2,3H4
	C2.895,3,1,4.396,1,5.5V6H0.5C0.225,6,0,6.225,0,6.5v2C0,8.776,0.225,9,0.5,9H1v5h1v1h2v-1h4v1h2v-1h1V9h0.5
	C11.775,9,12,8.776,12,8.5v-2C12,6.225,11.775,6,11.5,6z M4,13H2v-2l2,1V13z M10,13H8v-1l2-1V13z M10,9H2V6c0-0.553,0.447-1,1-1h6
	c0.553,0,1,0.447,1,1V9z"/>
</svg>
