<?xml version="1.0" encoding="utf-8"?>
<!-- Generator: Adobe Illustrator 18.0.0, SVG Export Plug-In . SVG Version: 6.00 Build 0)  -->
<!DOCTYPE svg PUBLIC "-//W3C//DTD SVG 1.1//EN" "http://www.w3.org/Graphics/SVG/1.1/DTD/svg11.dtd">
<svg version="1.1" id="Layer_1" xmlns="http://www.w3.org/2000/svg" xmlns:xlink="http://www.w3.org/1999/xlink" x="0px" y="0px"
	 width="12px" height="10px" viewBox="0 0 12 10" enable-background="new 0 0 12 10" xml:space="preserve">
<path fill-rule="evenodd" clip-rule="evenodd" fill="#AAA5A0" d="M6,0C2.686,0,0,2.719,0,6.071C0,7.57,0.54,8.94,1.43,10h9.141
	C11.46,8.94,12,7.57,12,6.071C12,2.719,9.313,0,6,0z M10.958,6.853c-0.074,0.571-0.263,1.182-0.573,1.822
	C10.326,8.784,10.274,8.896,10.209,9H7.538c3.176-1.87,1.63-5.451,1.077-5.471C8.614,3.559,6.385,9,6.385,9h-0.77
	c0,0-2.229-5.441-2.23-5.471C2.832,3.549,1.286,7.13,4.461,9h-2.67C1.726,8.896,1.674,8.784,1.615,8.676
	C1.305,8.035,1.116,7.425,1.041,6.853c-0.016-0.143-0.026-0.285-0.03-0.431C1.008,6.362,1.002,6.302,1.002,6.242
	C1.014,4.452,1.949,2.889,3.348,2h0.884L6,6.45L7.769,2h0.884c1.398,0.889,2.334,2.452,2.346,4.242c0,0.06-0.006,0.12-0.009,0.181
	C10.985,6.568,10.975,6.711,10.958,6.853z"/>
</svg>
