<?xml version="1.0" encoding="utf-8"?>
<!-- Generator: Adobe Illustrator 18.0.0, SVG Export Plug-In . SVG Version: 6.00 Build 0)  -->
<!DOCTYPE svg PUBLIC "-//W3C//DTD SVG 1.1//EN" "http://www.w3.org/Graphics/SVG/1.1/DTD/svg11.dtd">
<svg version="1.1" id="Layer_1" xmlns="http://www.w3.org/2000/svg" xmlns:xlink="http://www.w3.org/1999/xlink" x="0px" y="0px"
	 width="12px" height="10px" viewBox="0 0 12 10" enable-background="new 0 0 12 10" xml:space="preserve">
<path fill-rule="evenodd" clip-rule="evenodd" fill="#FAF5F0" d="M1.43,10C0.54,8.94,0,7.57,0,6.071V10H1.43z"/>
<path fill-rule="evenodd" clip-rule="evenodd" fill="#FAF5F0" d="M6,0c3.313,0,6,2.719,6,6.071V0H6z"/>
<path fill-rule="evenodd" clip-rule="evenodd" fill="#FAF5F0" d="M12,10V6.071C12,7.57,11.46,8.94,10.57,10H12z"/>
<path fill-rule="evenodd" clip-rule="evenodd" fill="#FAF5F0" d="M0,6.071C0,2.719,2.686,0,6,0H0V6.071z"/>
<path fill-rule="evenodd" clip-rule="evenodd" fill="#FAF5F0" d="M10.987,6.423c0.003-0.061,0.009-0.121,0.009-0.181
	C10.984,4.452,10.049,2.889,8.65,2H7.767L5.998,6.45L4.229,2H3.346C1.947,2.889,1.012,4.452,1,6.242c0,0.06,0.006,0.12,0.009,0.181
	c0.004,0.145,0.015,0.288,0.03,0.431c0.075,0.571,0.264,1.182,0.574,1.822C1.672,8.784,1.724,8.896,1.789,9h2.67
	C1.284,7.13,2.83,3.549,3.383,3.529C3.384,3.559,5.613,9,5.613,9h0.385h0.385c0,0,2.229-5.441,2.231-5.471
	C9.166,3.549,10.712,7.13,7.537,9h2.67c0.065-0.104,0.117-0.216,0.176-0.324c0.311-0.641,0.499-1.251,0.574-1.822
	C10.973,6.711,10.983,6.568,10.987,6.423z"/>
</svg>
