<?xml version="1.0" encoding="utf-8"?>
<!-- Generator: Adobe Illustrator 18.0.0, SVG Export Plug-In . SVG Version: 6.00 Build 0)  -->
<!DOCTYPE svg PUBLIC "-//W3C//DTD SVG 1.1//EN" "http://www.w3.org/Graphics/SVG/1.1/DTD/svg11.dtd">
<svg version="1.1" id="Layer_1" xmlns="http://www.w3.org/2000/svg" xmlns:xlink="http://www.w3.org/1999/xlink" x="0px" y="0px"
	 width="12px" height="10px" viewBox="0 0 12 10" enable-background="new 0 0 12 10" xml:space="preserve">
<path fill-rule="evenodd" clip-rule="evenodd" fill="#FFFFFF" d="M1.43,10C0.54,8.94,0,7.57,0,6.071V10H1.43z"/>
<path fill-rule="evenodd" clip-rule="evenodd" fill="#FFFFFF" d="M12,10V6.071C12,7.57,11.46,8.94,10.57,10H12z"/>
<path fill-rule="evenodd" clip-rule="evenodd" fill="#FFFFFF" d="M6,0c3.313,0,6,2.719,6,6.071V0H6z"/>
<path fill-rule="evenodd" clip-rule="evenodd" fill="#FFFFFF" d="M0,6.071C0,2.719,2.686,0,6,0H0V6.071z"/>
<polygon fill-rule="evenodd" clip-rule="evenodd" fill="#FFFFFF" points="8,8 11,8 11,7 10.5,7 9.166,2 8.235,2 6,5.223 3.765,2 
	2.834,2 1.5,7 1,7 1,8 4,8 4,7 3.5,7 3.6,3.967 5.23,7 6.769,7 8.4,3.967 8.5,7 8,7 "/>
</svg>
