<?xml version="1.0" encoding="utf-8"?>
<!-- Generator: Adobe Illustrator 18.0.0, SVG Export Plug-In . SVG Version: 6.00 Build 0)  -->
<!DOCTYPE svg PUBLIC "-//W3C//DTD SVG 1.1//EN" "http://www.w3.org/Graphics/SVG/1.1/DTD/svg11.dtd">
<svg version="1.1" id="Layer_1" xmlns="http://www.w3.org/2000/svg" xmlns:xlink="http://www.w3.org/1999/xlink" x="0px" y="0px"
	 width="11px" height="13px" viewBox="0 0 11 13" enable-background="new 0 0 11 13" xml:space="preserve">
<path fill-rule="evenodd" clip-rule="evenodd" fill="#AAA5A0" d="M11,7v4.727l-1.184-1.76C9.816,10.936,8.619,13,5.5,13l0,0l0,0l0,0
	c-3.119,0-4.316-2.076-4.316-3.032L0,11.727V7l4.1,2.455L1.825,9.094c0.94,1.619,1.157,2.253,3.175,2.418V7H3.4
	C3.18,7,3,6.776,3,6.5S3.18,6,3.4,6H5V5l0,0l0,0h0.5H6l0,0l0,0v1h1.6C7.82,6,8,6.224,8,6.5S7.82,7,7.6,7H6v4.512
	c2.018-0.165,2.234-0.799,3.175-2.418L6.9,9.455L11,7z M5.5,13L5.5,13L5.5,13L5.5,13z M5.5,13L5.5,13L5.5,13L5.5,13z M3,6.5L3,6.5
	L3,6.5L3,6.5z M3,2.5C3,1.119,4.119,0,5.5,0C6.881,0,8,1.119,8,2.5S6.881,5,5.5,5C4.119,5,3,3.881,3,2.5z M5,3h1V2H5V3z M8,6.5
	L8,6.5L8,6.5L8,6.5z"/>
</svg>
