<?xml version="1.0" encoding="utf-8"?>
<!-- Generator: Adobe Illustrator 18.0.0, SVG Export Plug-In . SVG Version: 6.00 Build 0)  -->
<!DOCTYPE svg PUBLIC "-//W3C//DTD SVG 1.1//EN" "http://www.w3.org/Graphics/SVG/1.1/DTD/svg11.dtd">
<svg version="1.1" id="Layer_1" xmlns="http://www.w3.org/2000/svg" xmlns:xlink="http://www.w3.org/1999/xlink" x="0px" y="0px"
	 width="9px" height="14px" viewBox="0 0 9 14" enable-background="new 0 0 9 14" xml:space="preserve">
<path fill-rule="evenodd" clip-rule="evenodd" fill="#AAA5A0" d="M8.949,12.834L4.844,7.023V5.752l2.872,1.562
	c0,0,0.141,0.009,0.355,0.009c0.475,0,0.859-0.372,0.859-0.831c0-0.418-0.312-0.68-0.527-0.767L5.377,4H3.178
	C0.844,5.247,1.151,4.502,0.006,7.717C0.003,9.035,1.519,8.69,1.592,8.287c-0.001,0.01,0.734-2.156,0.734-2.156L3.15,5.732
	l-0.836,5.1c0,0-1.975,1.774-1.965,1.766c-0.961,0.9,0.279,1.835,1.053,1.109c-0.002,0.004,2.467-1.989,2.467-1.989l0.619-2.233
	l2.766,3.894c0.106,0.341,0.43,0.591,0.816,0.591C9.223,13.904,8.949,12.834,8.949,12.834z M4.492,3c0.828,0,1.5-0.672,1.5-1.5
	S5.32,0,4.492,0s-1.5,0.672-1.5,1.5S3.664,3,4.492,3z"/>
</svg>
