<?xml version="1.0" encoding="utf-8"?>
<!-- Generator: Adobe Illustrator 18.0.0, SVG Export Plug-In . SVG Version: 6.00 Build 0)  -->
<!DOCTYPE svg PUBLIC "-//W3C//DTD SVG 1.1//EN" "http://www.w3.org/Graphics/SVG/1.1/DTD/svg11.dtd">
<svg version="1.1" id="Layer_1" xmlns="http://www.w3.org/2000/svg" xmlns:xlink="http://www.w3.org/1999/xlink" x="0px" y="0px"
	 width="16px" height="16px" viewBox="0 0 16 16" enable-background="new 0 0 16 16" xml:space="preserve">
<path fill="#FBF6F0" d="M10,3.125l-2,2l-2-2H4v4H2v2l6,6l6-6v-2h-2v-4H10z M8,12.125l-3-3h1v-3l2,2l2-2v3h1L8,12.125z"/>
<path fill="#FBF6F0" d="M0,0v8.125c0-4.418,3.582-8,8-8s8,3.582,8,8V0H0z"/>
<path fill="#FBF6F0" d="M6.634,16C2.868,15.351,0,12.076,0,8.125V16H6.634z"/>
<path fill="#FBF6F0" d="M9.366,16H16V8.125C16,12.076,13.132,15.351,9.366,16z"/>
</svg>
