<?xml version="1.0" encoding="utf-8"?>
<!-- Generator: Adobe Illustrator 18.0.0, SVG Export Plug-In . SVG Version: 6.00 Build 0)  -->
<!DOCTYPE svg PUBLIC "-//W3C//DTD SVG 1.1//EN" "http://www.w3.org/Graphics/SVG/1.1/DTD/svg11.dtd">
<svg version="1.1" id="Layer_1" xmlns="http://www.w3.org/2000/svg" xmlns:xlink="http://www.w3.org/1999/xlink" x="0px" y="0px"
	 width="12px" height="10px" viewBox="0 0 12 10" enable-background="new 0 0 12 10" xml:space="preserve">
<path fill-rule="evenodd" clip-rule="evenodd" fill="#FFFFFF" d="M1.43,10C0.539,8.94,0,7.57,0,6.071V10H1.43z"/>
<path fill-rule="evenodd" clip-rule="evenodd" fill="#FFFFFF" d="M12,10V6.071C12,7.57,11.46,8.94,10.57,10H12z"/>
<path fill-rule="evenodd" clip-rule="evenodd" fill="#FFFFFF" d="M0,6.071C0,2.719,2.685,0,6,0H0V6.071z"/>
<polygon fill-rule="evenodd" clip-rule="evenodd" fill="#FFFFFF" points="6.5,8 7.9,4.467 9,8 11,8 8.646,2 7.738,2 6,5.223 
	4.262,2 3.353,2 1,8 3,8 4.1,4.467 5.5,8 "/>
<path fill-rule="evenodd" clip-rule="evenodd" fill="#FFFFFF" d="M6,0c3.313,0,6,2.719,6,6.071V0H6z"/>
</svg>
