<?xml version="1.0" encoding="utf-8"?>
<!-- Generator: Adobe Illustrator 18.0.0, SVG Export Plug-In . SVG Version: 6.00 Build 0)  -->
<!DOCTYPE svg PUBLIC "-//W3C//DTD SVG 1.1//EN" "http://www.w3.org/Graphics/SVG/1.1/DTD/svg11.dtd">
<svg version="1.1" id="Layer_1" xmlns="http://www.w3.org/2000/svg" xmlns:xlink="http://www.w3.org/1999/xlink" x="0px" y="0px"
	 width="10px" height="14px" viewBox="0 0 10 14" enable-background="new 0 0 10 14" xml:space="preserve">
<path fill-rule="evenodd" clip-rule="evenodd" fill="#AAA5A0" d="M8.82,10.816L7,9.996H3l-1.82,0.82C0.485,10.503,0,9.808,0,8.996
	v-1v-1l1-4C0.963,0.321,3.323,0.031,5,0c1.677,0.031,4.037,0.321,4,2.996l1,4v1v1C10,9.808,9.515,10.503,8.82,10.816z M1,8.996h2v-2
	H1V8.996z M5,2C3.663,2.022,2.014,2.173,2,3.196l-0.375,2.8h6.75L8,3.196C7.986,2.173,6.337,2.022,5,2z M9,6.996H7v2h2V6.996z
	 M7,10.996l1,3H2l1-3H7z"/>
</svg>
