<?xml version="1.0" encoding="utf-8"?>
<!-- Generator: Adobe Illustrator 18.0.0, SVG Export Plug-In . SVG Version: 6.00 Build 0)  -->
<!DOCTYPE svg PUBLIC "-//W3C//DTD SVG 1.1//EN" "http://www.w3.org/Graphics/SVG/1.1/DTD/svg11.dtd">
<svg version="1.1" id="Layer_1" xmlns="http://www.w3.org/2000/svg" xmlns:xlink="http://www.w3.org/1999/xlink" x="0px" y="0px"
	 width="11px" height="11px" viewBox="0 0 11 11" enable-background="new 0 0 11 11" xml:space="preserve">
<path fill-rule="evenodd" clip-rule="evenodd" fill="#AAA5A0" d="M10,6v5H8v-1H3v1H1V6H0V4h1l0,0c0-0.492,0.02-4,3.5-4
	c0.562,0,2.348,0,2,0C9.994-0.007,10,3.508,10,4l0,0h1v2H10z M2,8h2V7L2,6V8z M9,3c0-0.553-0.447-1-1-1H3C2.447,2,2,2.447,2,3v2h7V3
	z M9,6L7,7v1h2V6z"/>
</svg>
