<?xml version="1.0" encoding="utf-8"?>
<!-- Generator: Adobe Illustrator 18.0.0, SVG Export Plug-In . SVG Version: 6.00 Build 0)  -->
<!DOCTYPE svg PUBLIC "-//W3C//DTD SVG 1.1//EN" "http://www.w3.org/Graphics/SVG/1.1/DTD/svg11.dtd">
<svg version="1.1" id="Layer_1" xmlns="http://www.w3.org/2000/svg" xmlns:xlink="http://www.w3.org/1999/xlink" x="0px" y="0px"
	 width="9px" height="16px" viewBox="0 0 9 16" enable-background="new 0 0 9 16" xml:space="preserve">
<path fill-rule="evenodd" clip-rule="evenodd" fill="#AAA5A0" d="M7.197,12.593L9,16H7l-0.678-3.033H5l0,0H2.678L2,16H0l1.803-3.407
	C1.084,12.699,0.155,12.232,0,11V5c0-1.361,0.912-2.496,2.153-2.863C2.133,2.093,2.121,2.045,2.103,2H3l0,0h2l0,0h1l0,0h0.896
	c-0.018,0.045-0.029,0.093-0.05,0.137C8.088,2.504,9,3.639,9,5v6C8.845,12.232,7.916,12.699,7.197,12.593z M1,11h2V9H1V11z M4,4
	H2.461C1.785,4,1.309,3.92,1.102,4.5H1V7h2.666l0,0H4V4z M8,4.5H7.898C7.691,3.92,7.215,4,6.539,4H5l0,0l0,0v3l0,0l0,0h0.334l0,0H8
	V4.5z M8,9H6v2h2V9z M5,2V1H4v1H3.12C3.06,1.842,3,1.681,3,1.5C3,0.672,3.672,0,4.5,0C4.676,0,4.843,0.036,5,0.092v0.01
	C5.58,0.309,6,0.85,6,1.5C6,1.681,5.94,1.842,5.879,2H5z"/>
</svg>
