<?xml version="1.0" encoding="utf-8"?>
<!-- Generator: Adobe Illustrator 18.0.0, SVG Export Plug-In . SVG Version: 6.00 Build 0)  -->
<!DOCTYPE svg PUBLIC "-//W3C//DTD SVG 1.1//EN" "http://www.w3.org/Graphics/SVG/1.1/DTD/svg11.dtd">
<svg version="1.1" id="Layer_1" xmlns="http://www.w3.org/2000/svg" xmlns:xlink="http://www.w3.org/1999/xlink" x="0px" y="0px"
	 width="11px" height="10px" viewBox="0 0 11 10" enable-background="new 0 0 11 10" xml:space="preserve">
<g>
	<g>
		<path fill-rule="evenodd" clip-rule="evenodd" fill="#AAA5A0" d="M0,3c0,3.75,0,7,0,7h5V0c0,0-0.779,0-2,0C1.779,0,0,1.055,0,3z
			 M4,6H3V5h1V6z M8,0C6.779,0,6,0,6,0v10h5c0,0,0-3.25,0-7C11,1.055,9.221,0,8,0z M8,6H7V5h1V6z"/>
	</g>
</g>
</svg>
