<?xml version="1.0" encoding="utf-8"?>
<!-- Generator: Adobe Illustrator 18.0.0, SVG Export Plug-In . SVG Version: 6.00 Build 0)  -->
<!DOCTYPE svg PUBLIC "-//W3C//DTD SVG 1.1//EN" "http://www.w3.org/Graphics/SVG/1.1/DTD/svg11.dtd">
<svg version="1.1" id="Layer_1" xmlns="http://www.w3.org/2000/svg" xmlns:xlink="http://www.w3.org/1999/xlink" x="0px" y="0px"
	 width="16px" height="16px" viewBox="0 0 16 16" enable-background="new 0 0 16 16" xml:space="preserve">
<g>
	<g>
		<path fill="#FBF6F0" d="M0,8v8h8C3.582,16,0,12.418,0,8z M8,16h8V8C16,12.418,12.418,16,8,16z M8,0H0v8C0,3.582,3.582,0,8,0z
			 M10,8l2,4l2-4l-2-4L10,8z M8,0c4.418,0,8,3.582,8,8V0H8z M6,8l2,4l2-4L8,4L6,8z M2,8l2,4l2-4L4,4L2,8z"/>
	</g>
</g>
</svg>
