<?xml version="1.0" encoding="utf-8"?>
<!-- Generator: Adobe Illustrator 18.0.0, SVG Export Plug-In . SVG Version: 6.00 Build 0)  -->
<!DOCTYPE svg PUBLIC "-//W3C//DTD SVG 1.1//EN" "http://www.w3.org/Graphics/SVG/1.1/DTD/svg11.dtd">
<svg version="1.1" id="Layer_1" xmlns="http://www.w3.org/2000/svg" xmlns:xlink="http://www.w3.org/1999/xlink" x="0px" y="0px"
	 width="12px" height="12px" viewBox="0 0 12 12" enable-background="new 0 0 12 12" xml:space="preserve">
<path fill-rule="evenodd" clip-rule="evenodd" fill="#A99B8D" d="M11,6.277V2h-0.184C10.402,0.838,9.304,0,8,0
	C6.696,0,5.598,0.838,5.184,2H5v7c0,0.553-0.448,1-1,1c-0.553,0-1-0.447-1-1V5.723C3.596,5.376,4,4.738,4,4c0-1.105-0.896-2-2-2
	C0.895,2,0,2.895,0,4c0,0.738,0.404,1.376,1,1.723V10h0.184C1.598,11.162,2.696,12,4,12c1.304,0,2.402-0.838,2.816-2H7V3
	c0-0.553,0.447-1,1-1c0.553,0,1,0.447,1,1v3.277C8.404,6.624,8,7.262,8,8c0,1.104,0.895,2,2,2c1.104,0,2-0.896,2-2
	C12,7.262,11.596,6.624,11,6.277z"/>
</svg>
