<?xml version="1.0" encoding="utf-8"?>
<!-- Generator: Adobe Illustrator 18.0.0, SVG Export Plug-In . SVG Version: 6.00 Build 0)  -->
<!DOCTYPE svg PUBLIC "-//W3C//DTD SVG 1.1//EN" "http://www.w3.org/Graphics/SVG/1.1/DTD/svg11.dtd">
<svg version="1.1" id="Layer_1" xmlns="http://www.w3.org/2000/svg" xmlns:xlink="http://www.w3.org/1999/xlink" x="0px" y="0px"
	 width="11px" height="12px" viewBox="0 0 11 12" enable-background="new 0 0 11 12" xml:space="preserve">
<path fill-rule="evenodd" clip-rule="evenodd" fill="#AAA5A0" d="M9,4c1.316,0.041,2,0.812,2,2v5c0,0.553-0.447,1-1,1H1
	c-0.553,0-1-0.447-1-1V6c0-1.203,0.684-1.959,2-2h3.001V2.635l0,0l0,0l0,0L0,3V1l11-1v2L6.001,2.508V4H9z M6.001,9h4l0,0l0,0V7
	c0-0.553-0.447-1-1-1h-3V9z M5.001,6L5.001,6L5.001,6h-3c-0.553,0-1,0.447-1,1v2l0,0l0,0h4V6z"/>
</svg>
