<?xml version="1.0" encoding="utf-8"?>
<!-- Generator: Adobe Illustrator 18.0.0, SVG Export Plug-In . SVG Version: 6.00 Build 0)  -->
<!DOCTYPE svg PUBLIC "-//W3C//DTD SVG 1.1//EN" "http://www.w3.org/Graphics/SVG/1.1/DTD/svg11.dtd">
<svg version="1.1" id="Layer_1" xmlns="http://www.w3.org/2000/svg" xmlns:xlink="http://www.w3.org/1999/xlink" x="0px" y="0px"
	 width="10px" height="18px" viewBox="0 0 10 18" enable-background="new 0 0 10 18" xml:space="preserve">
<path fill-rule="evenodd" clip-rule="evenodd" fill="#AAA5A0" d="M10,13H9v-2H7v2l0,0l0,0H10L10,13
	c-0.155,1.232-1.084,1.699-1.803,1.593L10,18H8l-0.678-3.032H2.678L2,18H0l1.803-3.407C1.084,14.699,0.155,14.232,0,13h3l0,0l0,0v-2
	H1v2H0l0,0l0,0v-2l0,0l1-4C0.963,4.325,3.323,4.035,5,4.004C6.677,4.035,9.037,4.325,9,7l1,4l0,0V13L10,13z M8,7.2
	C7.986,6.177,6.337,6.025,5,6.004C3.663,6.025,2.014,6.177,2,7.2L1.625,10h6.75L8,7.2z M6,4l0.334-1H3.666L4,4H3L2,2V1
	c0-0.553,0.447-1,1-1h4c0.553,0,1,0.447,1,1v1L7,4H6z M3,1L3,1l0.334,1h3.332L7,1H3z"/>
</svg>
