<?xml version="1.0" encoding="utf-8"?>
<!-- Generator: Adobe Illustrator 18.0.0, SVG Export Plug-In . SVG Version: 6.00 Build 0)  -->
<!DOCTYPE svg PUBLIC "-//W3C//DTD SVG 1.1//EN" "http://www.w3.org/Graphics/SVG/1.1/DTD/svg11.dtd">
<svg version="1.1" id="Layer_1" xmlns="http://www.w3.org/2000/svg" xmlns:xlink="http://www.w3.org/1999/xlink" x="0px" y="0px"
	 width="13px" height="8px" viewBox="0 0 13 8" enable-background="new 0 0 13 8" xml:space="preserve">
<g>
	<g>
		<path fill-rule="evenodd" clip-rule="evenodd" fill="#AAA5A0" d="M8.5,0C7.549,0,6.686,0.346,6,0.9C6.908,1.634,7.5,2.742,7.5,4
			S6.908,6.366,6,7.1C6.686,7.654,7.549,8,8.5,8c2.209,0,4-1.791,4-4S10.709,0,8.5,0z M3.5,1c-1.656,0-3,1.344-3,3
			c0,1.656,1.344,3,3,3c1.656,0,3-1.344,3-3C6.5,2.344,5.156,1,3.5,1z"/>
	</g>
</g>
</svg>
