<?xml version="1.0" encoding="utf-8"?>
<!-- Generator: Adobe Illustrator 17.1.0, SVG Export Plug-In . SVG Version: 6.00 Build 0)  -->
<!DOCTYPE svg PUBLIC "-//W3C//DTD SVG 1.1//EN" "http://www.w3.org/Graphics/SVG/1.1/DTD/svg11.dtd">
<svg version="1.1" id="Layer_1" xmlns="http://www.w3.org/2000/svg" xmlns:xlink="http://www.w3.org/1999/xlink" x="0px" y="0px"
	 width="20px" height="12px" viewBox="0 0 20 12" enable-background="new 0 0 20 12" xml:space="preserve">
<path fill="#FFFFFF" d="M19,3h-1c0-1-1-3-3-3H9.999c-2,0-3,2-3,3h-1C5.446,3,4.999,3.45,4.999,4.002C4.999,4.554,5,5.004,6,5.004
	v3.998c0,0.552,0,0.999,1,0.999V12h2v-2h7v2h2v-1.999c1,0,1-0.447,1-0.999V5.004c1,0,1-0.45,1-1.002C20,3.45,19.553,3,19,3z
	 M9.999,2h5.001c2.049,0,1.954,1,2,2H7.999C8.026,3,7.95,2,9.999,2z M8.999,8h-1c-0.553,0-1-0.448-1-1c0-0.552,0.447-1,1-1h1
	c0.553,0,1,0.448,1,1C9.999,7.552,9.552,8,8.999,8z M17,8h-1c-0.553,0-1-0.448-1-1c0-0.552,0.447-1,1-1h1c0.553,0,1,0.448,1,1
	C18,7.552,17.552,8,17,8z"/>
<path fill="#FFFFFF" d="M4,2h2V1H4C1,1,1,4,1,5H0v1h1v5h2v-1h2V5H2C2,4,2,2,4,2z M3,7.003l1,0.999H2V7.003H3z"/>
</svg>
