<?xml version="1.0" encoding="utf-8"?>
<!-- Generator: Adobe Illustrator 17.1.0, SVG Export Plug-In . SVG Version: 6.00 Build 0)  -->
<!DOCTYPE svg PUBLIC "-//W3C//DTD SVG 1.1//EN" "http://www.w3.org/Graphics/SVG/1.1/DTD/svg11.dtd">
<svg version="1.1" id="Layer_1" xmlns="http://www.w3.org/2000/svg" xmlns:xlink="http://www.w3.org/1999/xlink" x="0px" y="0px"
	 width="6px" height="6px" viewBox="0 0 6 6" enable-background="new 0 0 6 6" xml:space="preserve">
<path fill="#E05F45" d="M5.501,0h-3C2.224,0,2,0.224,2,0.5C2,0.776,2.224,1,2.5,1h1.793L0,5.143c0,0,0,0,0,0.001l0.05,0.022
	l0.041,0.004c-0.077,0.088-0.11,0.199-0.11,0.326c0,0.276,0.233,0.5,0.509,0.5c0.134,0,0.259-0.054,0.349-0.14l0.077,0.001L1,5.851
	C1,5.85,1,5.85,1,5.85l4-4.143v1.792c0,0.276,0.224,0.5,0.5,0.5c0.276,0,0.5-0.223,0.5-0.5V0.5C6,0.223,5.777,0,5.501,0z"/>
</svg>
