<?xml version="1.0" encoding="utf-8"?>
<!-- Generator: Adobe Illustrator 17.1.0, SVG Export Plug-In . SVG Version: 6.00 Build 0)  -->
<!DOCTYPE svg PUBLIC "-//W3C//DTD SVG 1.1//EN" "http://www.w3.org/Graphics/SVG/1.1/DTD/svg11.dtd">
<svg version="1.1" id="Layer_1" xmlns="http://www.w3.org/2000/svg" xmlns:xlink="http://www.w3.org/1999/xlink" x="0px" y="0px"
	 width="15px" height="12px" viewBox="0 0 15 12" enable-background="new 0 0 15 12" xml:space="preserve">
<path fill="#1DAAD6" d="M14,3h-1c0-1-1-3-3-3h-3h-2c-2,0-3,2-3,3h-1C0.446,3-0.001,3.45-0.001,4.002C-0.001,4.554,0,5.004,1,5.004
	v3.998c0,0.552,0,0.999,1,0.999V12h2v-2h7v2h2v-1.999c1,0,1-0.447,1-0.999V5.004c1,0,1-0.45,1-1.002C15,3.45,14.553,3,14,3z
	 M4.999,2h2h3c2.049,0,2.023,1,2,2H2.999C2.985,3,2.905,2,4.999,2z M3.999,8h-1c-0.553,0-1-0.448-1-1c0-0.552,0.447-1,1-1h1
	c0.553,0,1,0.448,1,1C4.999,7.552,4.552,8,3.999,8z M12,8h-1c-0.553,0-1-0.448-1-1c0-0.552,0.447-1,1-1h1c0.553,0,1,0.448,1,1
	C13,7.552,12.552,8,12,8z"/>
</svg>
