<?xml version="1.0" encoding="utf-8"?>
<!-- Generator: Adobe Illustrator 17.1.0, SVG Export Plug-In . SVG Version: 6.00 Build 0)  -->
<!DOCTYPE svg PUBLIC "-//W3C//DTD SVG 1.1//EN" "http://www.w3.org/Graphics/SVG/1.1/DTD/svg11.dtd">
<svg version="1.1" id="Layer_1" xmlns="http://www.w3.org/2000/svg" xmlns:xlink="http://www.w3.org/1999/xlink" x="0px" y="0px"
	 width="15px" height="12px" viewBox="0 0 15 12" enable-background="new 0 0 15 12" xml:space="preserve">
<path fill="#424242" d="M14.002,3h-1c0-1-1-3-3-3h-3h-2C3,0,2,2,2,3H1C0.447,3,0,3.446,0,3.999c0,0.552,0,0.998,1,0.998v3.998
	c0,0.552,0,0.999,1,0.999V12h2v-2h7v2h2V9.994c1,0,1-0.447,1-0.999V4.997c1,0,1.001-0.446,1.001-0.998
	C15.001,3.446,14.554,3,14.002,3z M5.001,2h2h3c2.049,0,2.023,1,2,2H3C2.987,3,2.906,2,5.001,2z M4,8H3C2.448,8,2,7.552,2,7
	c0-0.552,0.447-1,1-1h1c0.553,0,1,0.448,1,1C5.001,7.552,4.553,8,4,8z M12.002,8h-1c-0.553,0-1-0.448-1-1c0-0.552,0.447-1,1-1h1
	c0.553,0,1,0.448,1,1C13.002,7.552,12.554,8,12.002,8z"/>
</svg>
