<?xml version="1.0" encoding="utf-8"?>
<!-- Generator: Adobe Illustrator 17.1.0, SVG Export Plug-In . SVG Version: 6.00 Build 0)  -->
<!DOCTYPE svg PUBLIC "-//W3C//DTD SVG 1.1//EN" "http://www.w3.org/Graphics/SVG/1.1/DTD/svg11.dtd">
<svg version="1.1" id="Layer_1" xmlns="http://www.w3.org/2000/svg" xmlns:xlink="http://www.w3.org/1999/xlink" x="0px" y="0px"
	 width="6px" height="6px" viewBox="0 0 6 6" enable-background="new 0 0 6 6" xml:space="preserve">
<path fill="#7BEA69" d="M5.5,1.999c-0.276,0-0.5,0.224-0.5,0.5V4.29L1,0.147c0-0.001,0-0.001,0-0.001L0.919,0.139L0.881,0.14
	C0.791,0.054,0.653,0,0.518,0C0.242,0,0.009,0.223,0.009,0.5c0,0.127,0.046,0.238,0.123,0.326L0.053,0.83L0,0.852
	c0,0.001,0,0.001,0,0.001L4.293,5H2.5C2.224,5,2,5.224,2,5.5C2,5.776,2.224,6,2.5,6h3C5.777,6,6,5.773,6,5.497V2.498
	C6,2.222,5.776,1.999,5.5,1.999z"/>
</svg>
