<?xml version="1.0" encoding="utf-8"?>
<!-- Generator: Adobe Illustrator 17.0.0, SVG Export Plug-In . SVG Version: 6.00 Build 0)  -->
<!DOCTYPE svg PUBLIC "-//W3C//DTD SVG 1.1//EN" "http://www.w3.org/Graphics/SVG/1.1/DTD/svg11.dtd">
<svg version="1.1" id="Layer_1" xmlns="http://www.w3.org/2000/svg" xmlns:xlink="http://www.w3.org/1999/xlink" x="0px" y="0px"
	 width="20px" height="14px" viewBox="0 0 20 14" enable-background="new 0 0 20 14" xml:space="preserve">
<g>
	<path fill="#FFFFFF" d="M6,6V5H5v1c0,0.553,0.447,1,1,1V6z"/>
	<path fill="#FFFFFF" d="M16,7c-0.553,0-1,0.447-1,1c0,0.186,0.064,0.351,0.153,0.5C15.327,8.206,15.634,8,16,8h1
		c0.366,0,0.673,0.206,0.847,0.5C17.935,8.351,18,8.186,18,8c0-0.553-0.447-1-1-1H16z"/>
	<path fill="#FFFFFF" d="M10,3h2h3c1.67-0.035,1.942,0.662,1.987,2H17c0-2,0.049-3.043-2-3h-3h-2C7.951,1.957,8,3,8,5h0.013
		C8.058,3.662,8.33,2.965,10,3z"/>
	<path fill="#FFFFFF" d="M8,8h1c0.366,0,0.673,0.206,0.847,0.5C9.935,8.351,10,8.186,10,8c0-0.553-0.447-1-1-1H8
		C7.447,7,7,7.447,7,8c0,0.186,0.064,0.351,0.153,0.5C7.327,8.206,7.634,8,8,8z"/>
	<path fill="#FFFFFF" d="M7,11c-0.553,0-1-0.447-1-1v1c0,0.553,0.447,1,1,1V11z"/>
	<path fill="#FFFFFF" d="M18,11v1c0.553,0,1-0.447,1-1v-1C19,10.553,18.553,11,18,11z"/>
	<rect x="9" y="11" fill="#FFFFFF" width="7" height="1"/>
	<rect x="16" y="13" fill="#FFFFFF" width="2" height="1"/>
	<rect x="7" y="13" fill="#FFFFFF" width="2" height="1"/>
	<path fill="#FFFFFF" d="M19,5v1v1c0.553,0,1-0.447,1-1V5H19z"/>
</g>
<path fill-rule="evenodd" clip-rule="evenodd" fill="#616161" d="M5,6H2c0-0.553,0-3,2-3h2V2H4C1,2,1,4.896,1,6H0v1h1v4h2v-1h2V6z
	 M2,8h1l1,1H2V8z"/>
<path fill="#616161" d="M19,4h-1c0-1.105-1-4-3-4h-3h-2C8,0,7,2.895,7,4H6C5.447,4,5,4.447,5,5s0.447,1,1,1v4c0,0.553,0.447,1,1,1v2
	h2v-2h7v2h2v-2c0.553,0,1-0.447,1-1V6c0.553,0,1-0.447,1-1S19.553,4,19,4z M10,2h2h3c2.049-0.043,2,1,2,3H8C8,3,7.951,1.957,10,2z
	 M9,9H8C7.447,9,7,8.553,7,8s0.447-1,1-1h1c0.553,0,1,0.447,1,1S9.553,9,9,9z M17,9h-1c-0.553,0-1-0.447-1-1s0.447-1,1-1h1
	c0.553,0,1,0.447,1,1S17.553,9,17,9z"/>
<g>
	<path fill="#444444" d="M19,4h-1c0-1.105-1-4-3-4h-3h-2C8,0,7,2.895,7,4H6C5.447,4,5,4.447,5,5c0,0.184,0.053,0.352,0.139,0.5
		C5.312,5.202,5.631,5,6,5h1c0-1.105,1-4,3-4h2h3c2,0,3,2.895,3,4h1c0.369,0,0.687,0.202,0.861,0.5C19.947,5.352,20,5.184,20,5
		C20,4.447,19.553,4,19,4z"/>
	<path fill="#444444" d="M9.665,8.736C9.596,8.799,9.518,8.852,9.433,8.893c-0.029,0.014-0.06,0.026-0.09,0.038
		C9.235,8.971,9.121,9,9,9H8C7.878,9,7.765,8.971,7.657,8.931c-0.03-0.012-0.061-0.024-0.09-0.038
		C7.482,8.852,7.404,8.799,7.335,8.736C7.309,8.712,7.285,8.688,7.262,8.66C7.103,8.483,7,8.256,7,8v1c0,0.553,0.447,1,1,1h1
		c0.553,0,1-0.447,1-1V8c0,0.256-0.104,0.483-0.262,0.66C9.715,8.688,9.691,8.712,9.665,8.736z"/>
	<path fill="#444444" d="M16.991,5H8.009C7.998,5.301,8,5.634,8,6h9C17,5.634,17.002,5.301,16.991,5z"/>
	<path fill="#444444" d="M17.665,8.736c-0.069,0.062-0.147,0.115-0.232,0.156c-0.029,0.014-0.06,0.026-0.09,0.038
		C17.235,8.971,17.121,9,17,9h-1c-0.122,0-0.235-0.029-0.343-0.069c-0.03-0.012-0.061-0.024-0.09-0.038
		c-0.085-0.041-0.163-0.094-0.232-0.156c-0.026-0.024-0.05-0.049-0.073-0.076C15.103,8.483,15,8.256,15,8v1c0,0.553,0.447,1,1,1h1
		c0.553,0,1-0.447,1-1V8c0,0.256-0.104,0.483-0.262,0.66C17.715,8.688,17.691,8.712,17.665,8.736z"/>
</g>
<g>
	<path fill-rule="evenodd" clip-rule="evenodd" fill="#444444" d="M2,7h3V6H2.071C2.002,6.435,2,6.819,2,7z"/>
	<polygon fill-rule="evenodd" clip-rule="evenodd" fill="#444444" points="3,10 4,10 4,9 2,9 2,10 	"/>
	<path fill-rule="evenodd" clip-rule="evenodd" fill="#444444" d="M4,2C1,2,1,4.896,1,6H0v1h1c0-1.104,0-4,3-4h2V2H4z"/>
</g>
<g>
	<path fill="#FFFFFF" d="M7,11c-0.553,0-1-0.447-1-1v1c0,0.553,0.447,1,1,1V11z"/>
	<path fill="#FFFFFF" d="M18,11v1c0.553,0,1-0.447,1-1v-1C19,10.553,18.553,11,18,11z"/>
	<rect x="16" y="13" fill="#FFFFFF" width="2" height="1"/>
	<rect x="9" y="11" fill="#FFFFFF" width="7" height="1"/>
	<rect x="7" y="13" fill="#FFFFFF" width="2" height="1"/>
</g>
<rect x="3" y="10" fill="#FFFFFF" width="2" height="1"/>
<rect x="1" y="11" fill="#FFFFFF" width="2" height="1"/>
<g>
	<rect y="7" fill-rule="evenodd" clip-rule="evenodd" fill="#FFFFFF" width="1" height="1"/>
	<rect x="1" y="11" fill-rule="evenodd" clip-rule="evenodd" fill="#FFFFFF" width="2" height="1"/>
	<polygon fill-rule="evenodd" clip-rule="evenodd" fill="#FFFFFF" points="2,9 3,9 4,9 3,8 2,8 	"/>
	<path fill-rule="evenodd" clip-rule="evenodd" fill="#FFFFFF" d="M2,6h0.071C2.216,5.106,2.654,4,4,4h2V3H4C2,3,2,5.447,2,6z"/>
	<polygon fill-rule="evenodd" clip-rule="evenodd" fill="#FFFFFF" points="3,10 3,11 5,11 5,10 4,10 	"/>
</g>
</svg>
