<?xml version="1.0" encoding="utf-8"?>
<!-- Generator: Adobe Illustrator 17.0.0, SVG Export Plug-In . SVG Version: 6.00 Build 0)  -->
<!DOCTYPE svg PUBLIC "-//W3C//DTD SVG 1.1//EN" "http://www.w3.org/Graphics/SVG/1.1/DTD/svg11.dtd">
<svg version="1.1" id="Layer_1" xmlns="http://www.w3.org/2000/svg" xmlns:xlink="http://www.w3.org/1999/xlink" x="0px" y="0px"
	 width="11px" height="11px" viewBox="0 0 11 11" enable-background="new 0 0 11 11" xml:space="preserve">
<path fill-rule="evenodd" clip-rule="evenodd" fill="#A5A09C" d="M10,5.5v0.293C10.607,6.338,11,7.117,11,8c0,1.656-1.344,3-3,3
	c-0.883,0-1.662-0.393-2.207-1H5.5l0,0l0,0H5c-2.209,0-4-1.791-4-4V5.5l0,0l0,0V5.207C0.392,4.662,0,3.883,0,3c0-1.657,1.343-3,3-3
	c0.883,0,1.662,0.392,2.207,1H5.5l0,0l0,0H6c2.209,0,4,1.791,4,4V5.5L10,5.5L10,5.5z M6.271,2.092
	c-0.037-0.008-0.07-0.02-0.109-0.025C5.947,2.025,5.727,2,5.5,2l0,0C5.229,2,4.969,2.034,4.718,2.095
	C4.703,2.098,4.69,2.104,4.676,2.107C4.435,2.169,4.202,2.252,3.982,2.359l0,0c-0.24,0.143-0.447,0.311-0.59,0.529
	c-0.105,0.16-0.174,0.334-0.221,0.52C2.957,3.287,3.167,3.442,3.167,3.442c-0.033,0.142-0.06,0.286-0.06,0.442
	c0,0.337,0.08,0.618,0.214,0.861c0.047,0.189,1.642,1.162,3.216,2.083c0.019,0.021,0.051,0.036,0.066,0.06
	C6.672,6.987,6.707,7.104,6.707,7.24c0,0.219-0.102,0.406-0.305,0.562C6.2,7.959,5.934,8.037,5.603,8.037
	c-0.356,0-0.615-0.072-0.776-0.216C4.666,7.678,4.529,7.479,4.414,7.223C4.362,7.119,4.318,7.069,4.271,7H4H3.379
	C3.31,7.109,3.268,7.227,3.268,7.356c0,0.179,0.043,0.362,0.129,0.551c0.086,0.188,0.223,0.368,0.409,0.54
	c0.169,0.154,0.391,0.273,0.64,0.373C4.539,8.85,4.631,8.886,4.727,8.908c0.038,0.008,0.071,0.02,0.11,0.025
	C5.053,8.975,5.273,9,5.5,9l0,0c0.269,0,0.531-0.035,0.781-0.096C6.297,8.901,6.31,8.896,6.324,8.892
	c0.24-0.062,0.473-0.145,0.693-0.251l0,0c0.24-0.143,0.447-0.311,0.59-0.529C7.715,7.947,7.783,7.768,7.83,7.578
	c0.244,0.139,0.002-0.021,0.002-0.021c0.033-0.141,0.061-0.285,0.061-0.441c0-0.381-0.089-0.7-0.26-0.96
	C7.594,5.979,5.977,5.013,4.394,4.104C4.328,4.006,4.293,3.893,4.293,3.759c0-0.219,0.101-0.406,0.304-0.562
	c0.202-0.155,0.47-0.233,0.8-0.233c0.356,0,0.615,0.072,0.775,0.215c0.161,0.145,0.299,0.344,0.414,0.6
	C6.637,3.881,6.682,3.93,6.728,4H7h0.621c0.068-0.109,0.111-0.227,0.111-0.356c0-0.179-0.043-0.362-0.129-0.552
	c-0.086-0.188-0.223-0.367-0.41-0.539C7.024,2.397,6.803,2.279,6.555,2.18C6.461,2.149,6.369,2.113,6.271,2.092z M4.396,4.111
	C4.43,4.16,4.49,4.194,4.536,4.236L3.167,3.442C3.17,3.432,3.169,3.419,3.172,3.408c0.386,0.218,0.801,0.453,1.223,0.695
	C4.396,4.105,4.394,4.109,4.396,4.111z M6.463,6.764l1.369,0.793c-0.001,0.007,0,0.014-0.002,0.021
	C7.423,7.344,6.982,7.09,6.537,6.829C6.549,6.844,6.326,6.641,6.463,6.764z"/>
</svg>
