<?xml version="1.0" encoding="utf-8"?>
<!-- Generator: Adobe Illustrator 17.0.0, SVG Export Plug-In . SVG Version: 6.00 Build 0)  -->
<!DOCTYPE svg PUBLIC "-//W3C//DTD SVG 1.1//EN" "http://www.w3.org/Graphics/SVG/1.1/DTD/svg11.dtd">
<svg version="1.1" id="Layer_1" xmlns="http://www.w3.org/2000/svg" xmlns:xlink="http://www.w3.org/1999/xlink" x="0px" y="0px"
	 width="8px" height="12px" viewBox="0 0 8 12" enable-background="new 0 0 8 12" xml:space="preserve">
<g>
	<rect x="3" y="10" fill-rule="evenodd" clip-rule="evenodd" fill="#FFFFFF" width="2" height="1"/>
	<path fill-rule="evenodd" clip-rule="evenodd" fill="#FFFFFF" d="M6,3c0-0.552-0.448-1-1-1H3C2.448,2,2,2.448,2,3v5
		c0,0.552,0.448,1,1,1h2c0.552,0,1-0.448,1-1V3z"/>
	<path fill-rule="evenodd" clip-rule="evenodd" fill="#FFFFFF" d="M2,0H0v2C0,0.896,0.895,0,2,0z"/>
	<path fill-rule="evenodd" clip-rule="evenodd" fill="#FFFFFF" d="M6,0c1.104,0,2,0.896,2,2V0H6z"/>
	<path fill-rule="evenodd" clip-rule="evenodd" fill="#FFFFFF" d="M0,10v2h2C0.895,12,0,11.104,0,10z"/>
	<path fill-rule="evenodd" clip-rule="evenodd" fill="#FFFFFF" d="M6,12h2v-2C8,11.104,7.104,12,6,12z"/>
</g>
</svg>
