<?xml version="1.0" encoding="utf-8"?>
<!-- Generator: Adobe Illustrator 17.0.0, SVG Export Plug-In . SVG Version: 6.00 Build 0)  -->
<!DOCTYPE svg PUBLIC "-//W3C//DTD SVG 1.1//EN" "http://www.w3.org/Graphics/SVG/1.1/DTD/svg11.dtd">
<svg version="1.1" id="Layer_1" xmlns="http://www.w3.org/2000/svg" xmlns:xlink="http://www.w3.org/1999/xlink" x="0px" y="0px"
	 width="10px" height="10px" viewBox="0 0 10 10" enable-background="new 0 0 10 10" xml:space="preserve">
<path fill-rule="evenodd" clip-rule="evenodd" fill="#A5A09C" d="M9.129,8.985c-0.508,0.506-1.135,0.823-1.79,0.95
	C6.105,9.776,4.956,9.354,3.946,8.724L1.241,6.027C0.588,4.988,0.151,3.802,0,2.523c0.137-0.624,0.443-1.221,0.931-1.706L1.75,0
	l2.184,2.177v0.549L3.39,3.268c-0.453,0.451-0.453,1.183,0,1.634l1.64,1.634c0.453,0.451,1.187,0.451,1.64,0l0.523-0.521h0.594
	l2.162,2.154L9.129,8.985z"/>
</svg>
