<?xml version="1.0" encoding="utf-8"?>
<!-- Generator: Adobe Illustrator 17.0.0, SVG Export Plug-In . SVG Version: 6.00 Build 0)  -->
<!DOCTYPE svg PUBLIC "-//W3C//DTD SVG 1.1//EN" "http://www.w3.org/Graphics/SVG/1.1/DTD/svg11.dtd">
<svg version="1.1" id="Layer_1" xmlns="http://www.w3.org/2000/svg" xmlns:xlink="http://www.w3.org/1999/xlink" x="0px" y="0px"
	 width="12px" height="12px" viewBox="0 0 12 12" enable-background="new 0 0 12 12" xml:space="preserve">
<g>
	<g>
		<path fill-rule="evenodd" clip-rule="evenodd" fill="#A5A09C" d="M10.466,4.652c0.051,0.028-2,0.207-3.318,0.318
			c0,0.007,0.004,0.013,0.004,0.021c0,0.553-0.447,1-1,1c-0.553,0-1-0.447-1-1c0-0.553,0.447-1,1-1c0.498,0,0.892,0.37,0.969,0.846
			c1.112-0.151,2.486-0.329,2.512-0.285c3.104-1.781,1.061-5.3-2.043-3.519C7.622,1.015,7.256,1.807,6.84,2.69
			C6.757,2.025,6.696,1.506,6.712,1.533c-1.791-3.085-5.33-1.054-3.538,2.031C3.2,3.55,3.713,3.778,4.361,4.077
			C3.319,3.73,2.302,3.385,2.343,3.373C-1.079,4.382,0.095,8.29,3.517,7.28c-0.013-0.042,0.79-0.702,1.571-1.332
			C4.197,6.95,3.266,7.988,3.273,7.938c-0.64,4.069,4.049,4.93,4.689,0.86C7.917,8.79,7.639,7.791,7.352,6.721
			c0.56,0.727,1.085,1.425,1.064,1.459C11.511,9.957,13.56,6.429,10.466,4.652z"/>
	</g>
</g>
</svg>
