<?xml version="1.0" encoding="utf-8"?>
<!-- Generator: Adobe Illustrator 17.0.0, SVG Export Plug-In . SVG Version: 6.00 Build 0)  -->
<!DOCTYPE svg PUBLIC "-//W3C//DTD SVG 1.1//EN" "http://www.w3.org/Graphics/SVG/1.1/DTD/svg11.dtd">
<svg version="1.1" id="Layer_1" xmlns="http://www.w3.org/2000/svg" xmlns:xlink="http://www.w3.org/1999/xlink" x="0px" y="0px"
	 width="11px" height="11px" viewBox="0 0 11 11" enable-background="new 0 0 11 11" xml:space="preserve">
<path fill-rule="evenodd" clip-rule="evenodd" fill="#A5A09C" d="M5.5,11C2.463,11,0,8.537,0,5.5C0,2.462,2.463,0,5.5,0
	C8.538,0,11,2.462,11,5.5C11,8.537,8.538,11,5.5,11z M5.5,2C3.567,2,2,3.566,2,5.5C2,7.433,3.567,9,5.5,9
	c0.156,0,0.304-0.026,0.455-0.047L3,6V5l2.572-1.715l0.412-1.236C5.825,2.026,5.666,2,5.5,2z M8.95,5H7.374
	C7.022,5.505,6.544,6.081,6,6.496v2.453C7.694,8.705,9,7.262,9,5.5C9,5.328,8.974,5.164,8.95,5z"/>
</svg>
