<?xml version="1.0" encoding="utf-8"?>
<!-- Generator: Adobe Illustrator 17.1.0, SVG Export Plug-In . SVG Version: 6.00 Build 0)  -->
<!DOCTYPE svg PUBLIC "-//W3C//DTD SVG 1.1//EN" "http://www.w3.org/Graphics/SVG/1.1/DTD/svg11.dtd">
<svg version="1.1" id="Layer_1" xmlns="http://www.w3.org/2000/svg" xmlns:xlink="http://www.w3.org/1999/xlink" x="0px" y="0px"
	 width="165px" height="21px" viewBox="0 0 165 21" enable-background="new 0 0 165 21" xml:space="preserve">
<path fill="#FFFFFF" d="M11.814,0.913c0.562,0.667,1.001,1.668,1.001,3.335c0,3.458-1.949,5.846-5.46,9.251L0,20.644h6.794
	c-0.228-0.334-0.334-0.79-0.334-1.229c0-0.895,0.421-1.615,1.229-2.229l5.354-4.125c2.897-2.229,4.459-4.283,4.459-7.127
	C17.502,3.037,15.044,1.018,11.814,0.913z"/>
<path fill="#FFFFFF" d="M9.374,20.627h5.46l1.896-5.793h-0.053C14.5,17.502,12.376,19.24,9.374,20.627z"/>
<path fill="#FFFFFF" d="M10.726,0.895C7.689,1.229,4.898,2.791,3.792,6.021h4.125C8.479,3.686,9.62,1.791,10.726,0.895z"/>
<path fill="#FFFFFF" d="M30.211,1.123c-6.021,0.562-10.48,5.565-10.48,12.148c0,4.125,2.335,7.127,6.355,7.355
	c-0.667-1.439-1.334-3.002-1.334-6.126C24.752,8.373,27.42,3.23,30.211,1.123z"/>
<path fill="#FFFFFF" d="M35.337,8.479v0.772h0.105l1.79-8.128h-5.46C34.442,2.229,35.337,4.74,35.337,8.479z"/>
<path fill="#FFFFFF" d="M31.247,14.096l-0.386,2.177c-0.334,1.896-1.106,3.353-2.563,4.353h6.249
	c-0.053-0.281-0.105-0.72-0.105-1.229c0-0.843,0.105-2.019,0.334-3.125l0.983-4.915h-5.793L31.247,14.096z"/>
<path fill="#FFFFFF" d="M46.414,4.634l2.879-3.511H40.27l1.58,3.423l-2.598,11.849c-0.421,1.913-1.124,3.458-2.791,4.231h8.689
	c-1.001-0.544-1.334-1.668-1.334-2.668c0-0.79,0.105-1.404,0.334-2.458L46.414,4.634z"/>
<path fill="#FFFFFF" d="M49.153,12.481h-0.105l-1.791,8.145h5.021C49.925,19.275,49.047,16.607,49.153,12.481z"/>
<path fill="#FFFFFF" d="M58.421,1.123c2.229,1.229,3.125,3.564,3.125,7.689v0.439h0.105l1.791-8.128H58.421z"/>
<path fill="#FFFFFF" d="M57.07,1.141h-0.333c-3.792,0-6.46,2.44-6.46,5.565c0,4.178,5.688,5.986,5.688,10.024
	c0,1.633-0.79,3.23-2.458,3.897c5.249-0.105,7.355-2.563,7.355-5.67c0-3.897-5.916-6.46-5.916-10.357
	C54.946,3.037,55.613,1.808,57.07,1.141z"/>
<path fill="#95CA68" d="M84.279,1.123c2.229,1.229,3.125,3.564,3.125,7.689v0.439h0.105l1.79-8.128H84.279z"/>
<polygon fill="#95CA68" points="82.155,15.834 84.156,5.793 80.364,10.48 "/>
<path fill="#95CA68" d="M80.066,5.249c0.421-1.949,1.229-3.353,2.791-4.125H73.94l1.58,3.423l-2.598,11.849
	c-0.421,1.913-1.124,3.458-2.791,4.231h9.251c-1.457-0.562-1.896-1.457-1.896-2.563c0-0.878,0.211-2.019,0.439-3.002L80.066,5.249z"
	/>
<polygon fill="#95CA68" points="93.302,0.123 92.635,3.248 97.199,3.248 97.866,0.123 "/>
<path fill="#95CA68" d="M96.866,5.038l-6.794,1.106l1.229,3.335l-2.458,11.147h6.249c-0.667-0.456-0.895-1.229-0.895-2.124
	c0-1.124,0.299-2.458,0.667-4.125L96.866,5.038z"/>
<path fill="#95CA68" d="M105.678,10.146l-0.316,1.334c1.001-1.334,1.878-1.896,3.335-2.001l1.001-4.459
	C107.679,5.249,106.45,7.057,105.678,10.146z"/>
<path fill="#95CA68" d="M104.888,8.251l0.895-3.212l-7.022,1.106l1.229,3.335l-2.458,11.147h6.249
	c-0.667-0.456-0.895-1.229-0.895-2.124c0-1.124,0.298-2.458,0.667-4.125L104.888,8.251z"/>
<path fill="#95CA68" d="M118.142,5.021c-5.354,0.562-8.689,4.792-8.689,10.147c0,3.564,2.229,5.688,5.021,5.688v-0.018h0.088
	c-0.211-0.667-0.439-1.668-0.439-3.23C114.122,11.27,116.351,6.811,118.142,5.021z"/>
<path fill="#95CA68" d="M115.596,20.855c4.125-0.439,6.021-2.897,6.583-5.126h-4.02C117.826,17.291,116.702,19.731,115.596,20.855z"
	/>
<path fill="#95CA68" d="M118.932,5.021c0.439,0.456,0.667,1.123,0.667,2.124c0,1.896-1.229,4.125-2.896,5.126v0h0.544
	c3.686,0,6.249-1.562,6.249-4.02C123.496,6.249,121.723,5.126,118.932,5.021z"/>
<path fill="#95CA68" d="M136.749,3.511L137.785,0l-3.125,0.14C135.714,0.772,136.276,1.861,136.749,3.511z"/>
<path fill="#95CA68" d="M131.887,5.354c0.246-2.44,0.808-4.248,2.089-5.231c-4.318,0.211-5.74,1.808-6.601,5.231v0.018h-1.527
	l1.106,1.791h0.035l-2.932,13.482h6.249c-0.667-0.456-0.895-1.229-0.895-2.124c0-1.123,0.298-2.458,0.667-4.125l1.562-7.25h2.054
	l0.386-1.791H131.887z"/>
<path fill="#95CA68" d="M142.665,5.021c-5.354,0.562-8.689,4.792-8.689,10.147c0,3.564,2.229,5.688,5.021,5.688v-0.018h0.088
	c-0.211-0.667-0.439-1.668-0.439-3.23C138.645,11.27,140.875,6.811,142.665,5.021z"/>
<path fill="#95CA68" d="M143.684,5.021v0.018h-0.088c0.211,0.667,0.439,1.668,0.439,3.23c0,6.232-2.229,10.796-4.02,12.587
	c5.354-0.562,8.689-4.792,8.689-10.146C148.704,7.145,146.475,5.021,143.684,5.021z"/>
<polygon fill="#95CA68" points="160.518,5.372 159.061,10.936 164.749,5.372 "/>
<path fill="#95CA68" d="M160.185,17.168l-3.687-11.814h-6.126c0.895,0.562,1.475,1.668,2.001,3.458l3.686,11.814h6.127
	C161.291,20.065,160.711,18.959,160.185,17.168z"/>
<polygon fill="#95CA68" points="151.934,20.627 153.497,14.711 147.704,20.627 "/>
</svg>
