<?xml version="1.0" encoding="utf-8"?>
<!-- Generator: Adobe Illustrator 17.1.0, SVG Export Plug-In . SVG Version: 6.00 Build 0)  -->
<!DOCTYPE svg PUBLIC "-//W3C//DTD SVG 1.1//EN" "http://www.w3.org/Graphics/SVG/1.1/DTD/svg11.dtd">
<svg version="1.1" id="Layer_1" xmlns="http://www.w3.org/2000/svg" xmlns:xlink="http://www.w3.org/1999/xlink" x="0px" y="0px"
	 width="150px" height="25px" viewBox="0 0 150 25" enable-background="new 0 0 150 25" xml:space="preserve">
<path fill="#FFFFFF" d="M10.726,0C7.689,0.334,4.898,1.896,3.792,5.126h4.125C8.479,2.791,9.62,0.895,10.726,0z"/>
<path fill="#FFFFFF" d="M11.814,0.018c0.562,0.667,1.001,1.668,1.001,3.335c0,3.458-1.949,5.846-5.46,9.251L0,19.749h6.794
	c-0.228-0.334-0.334-0.79-0.334-1.229c0-0.895,0.421-1.615,1.229-2.229l5.354-4.125c2.897-2.229,4.459-4.283,4.459-7.127
	C17.502,2.142,15.044,0.123,11.814,0.018z"/>
<path fill="#FFFFFF" d="M9.357,19.731h5.459l1.896-5.793h-0.053C14.482,16.606,12.358,18.344,9.357,19.731z"/>
<path fill="#FFFFFF" d="M30.211,0.228c-6.021,0.562-10.48,5.565-10.48,12.148c0,4.125,2.335,7.127,6.355,7.355
	c-0.667-1.439-1.334-3.002-1.334-6.126C24.752,7.478,27.42,2.335,30.211,0.228z"/>
<path fill="#FFFFFF" d="M35.337,7.584v0.772h0.105l1.791-8.128h-5.46C34.442,1.334,35.337,3.844,35.337,7.584z"/>
<path fill="#FFFFFF" d="M31.247,13.201l-0.386,2.177c-0.334,1.896-1.106,3.353-2.563,4.354h6.249
	c-0.053-0.281-0.105-0.72-0.105-1.229c0-0.843,0.105-2.019,0.334-3.125l0.983-4.915h-5.793L31.247,13.201z"/>
<path fill="#FFFFFF" d="M46.396,3.739l2.879-3.511h-9.023l1.58,3.423l-2.598,11.849c-0.421,1.913-1.123,3.458-2.791,4.231h8.689
	c-1.001-0.544-1.334-1.668-1.334-2.668c0-0.79,0.105-1.404,0.334-2.458L46.396,3.739z"/>
<path fill="#FFFFFF" d="M58.404,0.228c2.229,1.229,3.125,3.564,3.125,7.689v0.439h0.105l1.791-8.128H58.404z"/>
<path fill="#FFFFFF" d="M57.069,0.246h-0.333c-3.792,0-6.46,2.44-6.46,5.565c0,4.178,5.688,5.986,5.688,10.024
	c0,1.633-0.79,3.23-2.458,3.897c5.231-0.105,7.355-2.563,7.355-5.67c0-3.897-5.916-6.46-5.916-10.357
	C54.945,2.142,55.613,0.913,57.069,0.246z"/>
<path fill="#FFFFFF" d="M49.152,11.586h-0.105l-1.791,8.145h5.021C49.925,18.379,49.047,15.711,49.152,11.586z"/>
<path fill="#95CA68" d="M84.314,0c0.667,1.457,1.334,3.23,1.334,6.355c0,6.127-2.668,11.481-5.459,13.605
	c6.021-0.667,10.48-5.793,10.48-12.376C90.669,3.564,88.334,0.334,84.314,0z"/>
<path fill="#95CA68" d="M82.98,0C76.959,0.667,72.5,5.793,72.5,12.376c0,4.02,2.335,7.25,6.355,7.584
	c-0.667-1.457-1.334-3.23-1.334-6.355C77.52,7.478,80.189,2.124,82.98,0z"/>
<path fill="#95CA68" d="M102.378,4.125v0.018h-0.211c0.333,0.667,0.562,1.668,0.562,3.23c0,6.337-2.229,10.796-4.02,12.587
	c5.354-0.562,8.689-4.792,8.689-10.146C107.398,6.249,105.169,4.125,102.378,4.125z"/>
<path fill="#95CA68" d="M96.251,22.206c0-1.123,0.369-2.791,0.667-4.125l2.335-10.708l1.001-3.23l-7.461,1.106l1.562,3.335
	L90.897,24.33h6.249C96.479,23.874,96.251,23.102,96.251,22.206z"/>
<path fill="#95CA68" d="M117.966,4.125c-5.354,0.562-8.69,4.792-8.69,10.146c0,3.564,2.229,5.688,5.021,5.688v-0.018h0.088
	c-0.211-0.667-0.439-1.668-0.439-3.23C113.946,10.375,116.175,5.916,117.966,4.125z"/>
<path fill="#95CA68" d="M115.42,19.959c4.125-0.439,6.021-2.896,6.583-5.126h-4.02C117.65,16.396,116.526,18.836,115.42,19.959z"/>
<path fill="#95CA68" d="M118.756,4.125c0.439,0.456,0.667,1.124,0.667,2.124c0,1.896-1.229,4.125-2.897,5.126h0.544
	c3.686,0,6.249-1.562,6.249-4.02C123.32,5.354,121.547,4.231,118.756,4.125z"/>
<path fill="#95CA68" d="M132.132,9.251l-0.316,1.334c1.001-1.334,1.878-1.896,3.335-2.001l1.001-4.459
	C134.134,4.354,132.905,6.162,132.132,9.251z"/>
<path fill="#95CA68" d="M131.36,7.355l0.895-3.212l-7.022,1.106l1.229,3.335l-2.458,11.147h6.249
	c-0.667-0.456-0.895-1.229-0.895-2.124c0-1.123,0.298-2.458,0.667-4.125L131.36,7.355z"/>
<path fill="#95CA68" d="M143.402,4.336c-4.248,0.562-6.021,2.458-6.249,5.021l4.125-0.334
	C141.489,7.022,142.279,5.126,143.402,4.336z"/>
<path fill="#95CA68" d="M149.406,7.584c0-2.352-1.685-3.458-4.02-3.458c-0.228,0-0.667,0-1.334,0.105
	c0.667,0.228,0.895,1.018,0.895,2.124c0,1.457-0.333,2.879-0.667,4.459l-2.001,9.146l6.021-0.562
	c-0.439-0.334-0.667-1.106-0.667-2.001c0-0.895,0.298-2.229,0.667-3.897C149.02,10.199,149.406,8.918,149.406,7.584z"/>
<path fill="#95CA68" d="M139.821,15.939c0-1.124,0.386-2.124,1.001-2.791l2.352-1.457l-2.001,0.228
	c-3.195,0.351-5.793,1.773-5.793,4.898c0,1.896,1.106,3.125,3.002,3.125c1.545,0,2.44-0.667,3.002-1.334
	C140.594,18.274,139.821,17.396,139.821,15.939z"/>
</svg>
