<?xml version="1.0" encoding="utf-8"?>
<!-- Generator: Adobe Illustrator 17.0.0, SVG Export Plug-In . SVG Version: 6.00 Build 0)  -->
<!DOCTYPE svg PUBLIC "-//W3C//DTD SVG 1.1//EN" "http://www.w3.org/Graphics/SVG/1.1/DTD/svg11.dtd">
<svg version="1.1" id="Layer_1" xmlns="http://www.w3.org/2000/svg" xmlns:xlink="http://www.w3.org/1999/xlink" x="0px" y="0px"
	 width="92px" height="20px" viewBox="0 0 92 20" enable-background="new 0 0 92 20" xml:space="preserve">
<g>
	<g>
		<path fill="#FFFFFF" d="M57.083,12.564c-0.644,0.314-1.345,0.62-2.289,0.62c-1.891,0-3.603-1.457-4.098-3.962l1.531-0.118
			l4.678-1.872c-0.143-0.453-0.4-1.3-1.395-1.949c-0.597-0.376-1.333-0.553-2.049-0.553c-2.048,0-4.561,1.498-4.561,4.554
			c0,1.476,0.618,3.169,2.031,4.154c1.017,0.729,2.012,0.769,2.647,0.769c0.598,0,1.271-0.074,1.931-0.371
			c0.219-0.1,0.438-0.238,0.657-0.358l0.952-0.889C57.212,12.497,57.083,12.564,57.083,12.564z M50.615,8.122
			c0-2.13,1.493-2.743,2.288-2.743c1.072,0,1.972,0.91,1.972,1.696c0,0.274-0.197,0.393-0.577,0.53l-3.623,1.557
			C50.655,8.808,50.615,8.454,50.615,8.122z M47.338,12.436l0.005-11.177c0.08-0.689,0.265-0.905,0.881-1.259h-2.847l-1.489,0.711
			h1.548l0.008,11.717v0.439c0,0.394-0.079,0.453-0.539,1.044h3.507l0.736-0.435c-0.337-0.039-0.677-0.057-1.018-0.096
			C47.477,13.32,47.338,13.201,47.338,12.436z M44.411,4.983H40.31c-1.075,0-2.427,0.16-3.562,1.085
			c-0.857,0.729-1.275,1.734-1.275,2.641c0,1.537,1.193,3.096,3.304,3.096c0.199,0,0.418-0.021,0.637-0.042
			c-0.098,0.235-0.2,0.435-0.2,0.769c0,0.611,0.319,0.985,0.599,1.343c-0.895,0.059-2.567,0.158-3.8,0.904
			c-1.178,0.689-1.533,1.693-1.533,2.404c0,1.458,1.394,2.817,4.276,2.817c3.424,0,5.235-1.869,5.235-3.723
			c0-1.36-0.797-2.03-1.67-2.761l-0.72-0.55c-0.216-0.176-0.517-0.413-0.517-0.849c0-0.43,0.301-0.709,0.558-0.965
			c0.838-0.65,1.668-1.339,1.668-2.798c0-1.498-0.953-2.287-1.41-2.659h1.235L44.411,4.983z M42.656,17.046
			c0,1.221-1.015,2.128-2.925,2.128c-2.127,0-3.502-1.007-3.502-2.404c0-1.399,1.273-1.871,1.714-2.03
			c0.833-0.277,1.908-0.315,2.088-0.315c0.197,0,0.295,0,0.458,0.021C41.999,15.511,42.656,16.041,42.656,17.046z M41.061,10.7
			c-0.314,0.311-0.851,0.552-1.35,0.552c-1.71,0-2.487-2.189-2.487-3.508c0-0.513,0.102-1.045,0.437-1.455
			c0.318-0.396,0.877-0.653,1.393-0.653c1.655,0,2.509,2.207,2.509,3.624C41.562,9.617,41.522,10.246,41.061,10.7z M29.86,4.729
			c-3.026,0-5.154,2.208-5.154,4.789c0,2.208,1.692,4.647,4.856,4.647c3.245,0,5.056-2.462,5.056-4.787
			C34.618,6.997,32.786,4.729,29.86,4.729z M32.05,12.571c-0.458,0.63-1.252,1.003-2.03,1.003c-2.411,0-3.383-3.211-3.383-5.158
			c0-0.851,0.138-1.717,0.915-2.406c0.476-0.415,1.137-0.669,1.794-0.669c2.468,0,3.303,3.31,3.303,5.045
			C32.648,11.153,32.532,11.94,32.05,12.571z M19.271,4.729c-3.024,0-5.153,2.208-5.153,4.789c0,2.208,1.689,4.647,4.854,4.647
			c3.246,0,5.054-2.462,5.054-4.787C24.025,6.997,22.195,4.729,19.271,4.729z M21.461,12.571c-0.459,0.63-1.253,1.003-2.029,1.003
			c-2.408,0-3.384-3.211-3.384-5.158c0-0.851,0.138-1.717,0.916-2.406c0.479-0.415,1.132-0.669,1.791-0.669
			c2.465,0,3.302,3.31,3.302,5.045C22.057,11.153,21.938,11.94,21.461,12.571z M8.112,10.378l2.816-0.15v2.979
			c-0.557,0.222-1.172,0.459-2.367,0.459c-4.065,0-6.601-3.267-6.601-6.741c0-3.235,2.221-5.45,5.164-5.45
			c2.201,0,3.36,1.126,3.992,1.736l-0.467,0.735l0.654-0.145l1.55-1.458c-0.408-0.281-1.062-0.76-2.461-1.149
			C9.511,0.955,8.542,0.809,7.535,0.809C2.778,0.809,0,4.133,0,7.718c0,2.936,1.96,6.687,7.105,6.687
			c1.028,0,1.999-0.149,3.081-0.317l2.667-0.604v-2.253c0-0.188,0.019-0.723,0.037-0.892c0.037-0.148,0.055-0.184,0.186-0.294
			l0.483-0.461H9.606L8.112,10.378z M66.102,4.688c-1.392,0-2.59,0.745-3.246,1.686V4.919h-1.007v12.772h1.007v-5.02
			c0.756,1.052,1.932,1.723,3.246,1.723c2.495,0,4.177-1.914,4.177-4.863C70.278,6.563,68.597,4.688,66.102,4.688z M65.932,13.494
			c-1.297,0-2.537-1.046-3.076-1.928V7.478c0.539-0.88,1.779-1.89,3.076-1.89c2.088,0,3.267,1.707,3.267,3.943
			C69.198,11.773,68.019,13.494,65.932,13.494z M71.654,14.165h1.005V1.393h-1.005V14.165z M90.862,4.919l-3.369,8.079l-3.402-8.079
			h-1.123l3.967,9.323l-0.735,1.646c-0.384,0.881-0.812,1.131-1.429,1.131c-0.233,0-0.6-0.06-0.815-0.154l-0.174,0.92
			c0.253,0.076,0.682,0.134,1.006,0.134c1.086,0,1.876-0.559,2.376-1.722L92,4.919H90.862z M81.917,12.269V7.708
			c0-0.977-0.336-1.724-1.004-2.24c-0.67-0.521-1.559-0.783-2.654-0.783c-1.102,0-1.996,0.266-2.679,0.794
			c-0.686,0.529-1.009,1.142-0.972,1.84l0.021,0.05h1.03c0-0.518,0.234-0.948,0.698-1.295c0.47-0.34,1.084-0.514,1.845-0.514
			c0.83,0,1.471,0.19,1.926,0.568c0.456,0.377,0.684,0.897,0.684,1.56v1.148h-2.348c-1.259,0-2.275,0.257-3.062,0.773
			c-0.786,0.515-1.182,1.188-1.182,2.016c0,0.83,0.273,1.486,0.815,1.97c0.543,0.485,1.303,0.724,2.284,0.724
			c0.815,0,1.408-0.162,2.033-0.493c0.624-0.328,1.113-0.746,1.459-1.248c0,0.245,0.017,0.485,0.048,0.721
			c0.037,0.236,0.088,0.518,0.155,0.839h1.16c-0.092-0.298-0.158-0.606-0.2-0.915C81.933,12.913,81.917,12.597,81.917,12.269z
			 M80.811,11.402c-0.224,0.587-0.647,1.073-1.27,1.445c-0.629,0.374-1.244,0.563-2.1,0.563c-0.654,0-1.169-0.16-1.545-0.483
			c-0.375-0.319-0.564-0.741-0.564-1.269c0-0.559,0.298-1.039,0.887-1.436c0.587-0.398,1.333-0.596,2.233-0.596h2.359V11.402z"/>
	</g>
</g>
</svg>
