<?xml version="1.0" encoding="utf-8"?>
<!-- Generator: Adobe Illustrator 17.0.0, SVG Export Plug-In . SVG Version: 6.00 Build 0)  -->
<!DOCTYPE svg PUBLIC "-//W3C//DTD SVG 1.1//EN" "http://www.w3.org/Graphics/SVG/1.1/DTD/svg11.dtd">
<svg version="1.1" id="Layer_1" xmlns="http://www.w3.org/2000/svg" xmlns:xlink="http://www.w3.org/1999/xlink" x="0px" y="0px"
	 width="22px" height="23px" viewBox="0 0 22 23" enable-background="new 0 0 22 23" xml:space="preserve">
<path fill="#E6E6E6" d="M10.47,22.529c2.489,0,4.59-0.51,6.059-1.38l-0.93-1.89c-1.08,0.69-2.699,1.17-5.25,1.17
	c-4.289,0-8.1-3.87-8.1-8.999s3.78-9.33,8.67-9.33c4.26,0,7.95,3,7.98,7.74c0.029,3.51-1.68,5.61-3.18,5.61
	c-0.99,0-1.261-1.2-1.021-3.39l0.69-6.78h-2.16c-0.061,0.51-0.061,1.44-0.12,2.01c-0.33-1.26-1.32-2.55-3-2.55
	c-3,0-5.25,3.6-5.25,7.29c0,3.9,2.19,5.58,4.08,5.58c1.62,0,2.999-1.05,3.69-2.58c0.149,1.44,1.289,2.52,3.119,2.52
	c2.609,0,5.4-3.09,5.369-7.89C21.089,3.72,16.528,0,10.979,0C4.979,0,0,4.92,0,11.399C0,18,4.35,22.529,10.47,22.529z M9.449,15.12
	c-1.05,0-1.769-1.05-1.769-3.09c0-2.55,1.019-4.77,2.579-4.77c1.231,0,1.981,1.08,1.981,2.97C12.239,12.81,11.099,15.12,9.449,15.12
	z"/>
</svg>
