<?xml version="1.0" encoding="utf-8"?>
<!-- Generator: Adobe Illustrator 17.1.0, SVG Export Plug-In . SVG Version: 6.00 Build 0)  -->
<!DOCTYPE svg PUBLIC "-//W3C//DTD SVG 1.1//EN" "http://www.w3.org/Graphics/SVG/1.1/DTD/svg11.dtd">
<svg version="1.1" id="Layer_1" xmlns="http://www.w3.org/2000/svg" xmlns:xlink="http://www.w3.org/1999/xlink" x="0px" y="0px"
	 width="194px" height="27px" viewBox="0 0 194 27" enable-background="new 0 0 194 27" xml:space="preserve">
<path fill="#FFFFFF" d="M11.929,26.554h6.958l2.414-7.385h-0.071C18.461,22.577,15.763,24.778,11.929,26.554z M15.053,1.42
	c0.71,0.852,1.277,2.13,1.277,4.26c0,4.402-2.484,7.455-6.957,11.786L0,26.554h8.662c-0.283-0.426-0.426-0.994-0.426-1.562
	c0-1.136,0.533-2.059,1.562-2.84l6.815-5.254c3.692-2.84,5.681-5.467,5.681-9.088C22.295,4.118,19.17,1.562,15.053,1.42z
	 M13.668,1.42c-3.869,0.426-7.42,2.414-8.84,6.532h5.254C10.793,4.97,12.248,2.556,13.668,1.42z M38.482,1.704
	c-7.668,0.709-13.349,7.1-13.349,15.478c0,5.254,2.982,9.088,8.095,9.372c-0.852-1.846-1.705-3.834-1.705-7.81
	C31.523,10.934,34.932,4.402,38.482,1.704z M45.014,11.076v0.994h0.143l2.271-10.366H40.47C43.878,3.124,45.014,6.319,45.014,11.076
	z M39.83,18.247l-0.496,2.768c-0.426,2.414-1.42,4.26-3.266,5.538h7.951c-0.07-0.355-0.142-0.924-0.142-1.562
	c0-1.064,0.142-2.556,0.426-3.976l1.278-6.248h-7.385L39.83,18.247z M59.107,6.177l3.656-4.473H51.262l2.023,4.366l-3.302,15.087
	c-0.532,2.449-1.42,4.402-3.55,5.396H57.51c-1.278-0.71-1.705-2.131-1.705-3.408c0-0.994,0.143-1.775,0.427-3.124L59.107,6.177z
	 M74.406,1.704c2.841,1.562,3.977,4.544,3.977,9.798v0.568h0.143l2.271-10.366H74.406z M62.621,16.188h-0.143l-2.271,10.366h6.391
	C63.615,24.85,62.478,21.441,62.621,16.188z M72.703,1.704h-0.426c-4.828,0-8.236,3.124-8.236,7.1c0,5.325,7.242,7.633,7.242,12.779
	c0,2.096-0.994,4.119-3.124,4.971c6.674-0.143,9.372-3.266,9.372-7.242c0-4.97-7.526-8.236-7.526-13.206
	C70.005,4.118,70.857,2.556,72.703,1.704z"/>
<path fill="#FFC84B" d="M108.093,1.42c0.853,1.42,1.705,3.833,1.705,7.81c0,7.81-3.267,14.341-6.959,17.041
	c7.668-0.853,13.349-7.101,13.349-15.479C116.187,5.68,113.063,1.846,108.093,1.42z M102.271,6.674
	c0.532-2.485,1.562-4.26,3.55-5.254H94.462l2.024,4.366l-3.302,15.087c-0.532,2.449-1.42,4.402-3.55,5.396h11.076
	c-1.278-0.711-1.705-2.131-1.705-3.408c0-0.994,0.143-1.775,0.427-3.125L102.271,6.674z M127.972,6.39l-8.661,1.42l1.562,4.26
	l-3.123,14.201h7.951c-0.852-0.568-1.136-1.562-1.136-2.699c0-1.42,0.391-3.123,0.853-5.254L127.972,6.39z M123.429,0.142
	l-0.853,3.976h5.822l0.852-3.976H123.429z M134.362,21.442c0-1.42,0.496-2.699,1.277-3.551l2.982-1.846l-2.557,0.284
	c-4.082,0.462-7.383,2.272-7.383,6.247c0,2.414,1.42,3.977,3.834,3.977c1.987,0,3.123-0.852,3.834-1.704
	C135.356,24.424,134.362,23.288,134.362,21.442z M141.462,6.39c-0.284,0-0.852,0-1.704,0.142c0.853,0.284,1.136,1.278,1.136,2.698
	c0,1.846-0.426,3.656-0.852,5.679l-2.557,11.644l7.668-0.71c-0.567-0.426-0.852-1.42-0.852-2.556c0-1.137,0.391-2.84,0.852-4.971
	c0.924-4.189,1.42-5.821,1.42-7.525C146.573,7.81,144.444,6.39,141.462,6.39z M138.905,6.674c-5.395,0.71-7.668,3.124-7.951,6.39
	l5.254-0.426C136.491,10.082,137.485,7.668,138.905,6.674z M159.211,4.118L160.489,0l-9.514,1.42l1.846,4.26l-4.402,20.59h7.952
	c-0.852-0.568-1.136-1.562-1.136-2.699c0-1.42,0.461-3.549,0.852-5.254L159.211,4.118z M167.589,26.554
	c5.254-0.568,7.668-3.691,8.378-6.531h-5.112C170.429,22.01,169.009,25.134,167.589,26.554z M170.854,6.39
	c-6.815,0.71-11.076,6.106-11.076,12.921c0,4.545,2.84,7.242,6.391,7.242h0.142c-0.284-0.852-0.567-2.13-0.567-4.117
	C165.743,14.342,168.583,8.662,170.854,6.39z M171.849,6.39c0.568,0.568,0.852,1.42,0.852,2.698c0,2.414-1.561,5.254-3.691,6.532
	h0.71c4.687,0,7.952-1.988,7.952-5.112C177.671,7.952,175.398,6.532,171.849,6.39z M188.888,12.922l-0.426,1.704
	c1.277-1.704,2.414-2.414,4.26-2.556L194,6.39C191.444,6.674,189.882,8.981,188.888,12.922z M187.894,10.508l1.137-4.118
	l-8.946,1.42l1.561,4.26l-3.123,14.201h7.951c-0.852-0.568-1.136-1.562-1.136-2.699c0-1.42,0.391-3.123,0.852-5.254L187.894,10.508z
	"/>
</svg>
