<?xml version="1.0" encoding="utf-8"?>
<!-- Generator: Adobe Illustrator 17.1.0, SVG Export Plug-In . SVG Version: 6.00 Build 0)  -->
<!DOCTYPE svg PUBLIC "-//W3C//DTD SVG 1.1//EN" "http://www.w3.org/Graphics/SVG/1.1/DTD/svg11.dtd">
<svg version="1.1" id="Layer_1" xmlns="http://www.w3.org/2000/svg" xmlns:xlink="http://www.w3.org/1999/xlink" x="0px" y="0px"
	 width="149px" height="21px" viewBox="0 0 149 21" enable-background="new 0 0 149 21" xml:space="preserve">
<path fill="#FFFFFF" d="M10.726,0.895C7.689,1.229,4.898,2.791,3.792,6.021h4.125C8.479,3.686,9.62,1.791,10.726,0.895z"/>
<path fill="#FFFFFF" d="M9.374,20.626h5.46l1.896-5.793h-0.053C14.5,17.502,12.376,19.24,9.374,20.626z"/>
<path fill="#FFFFFF" d="M11.814,0.913c0.562,0.667,1.001,1.668,1.001,3.335c0,3.458-1.949,5.846-5.459,9.251L0,20.644h6.794
	c-0.228-0.334-0.334-0.79-0.334-1.229c0-0.895,0.422-1.615,1.229-2.229l5.354-4.125c2.897-2.229,4.459-4.283,4.459-7.127
	C17.502,3.037,15.044,1.018,11.814,0.913z"/>
<path fill="#FFFFFF" d="M30.211,1.123c-6.021,0.562-10.48,5.565-10.48,12.148c0,4.125,2.335,7.127,6.355,7.355
	c-0.667-1.439-1.334-3.002-1.334-6.126C24.752,8.373,27.42,3.23,30.211,1.123z"/>
<path fill="#FFFFFF" d="M31.247,14.096l-0.386,2.177c-0.334,1.896-1.106,3.353-2.563,4.353h6.249
	c-0.053-0.281-0.105-0.72-0.105-1.229c0-0.843,0.105-2.019,0.334-3.125l0.983-4.915h-5.793L31.247,14.096z"/>
<path fill="#FFFFFF" d="M35.337,8.479v0.772h0.105l1.791-8.128h-5.46C34.442,2.229,35.337,4.74,35.337,8.479z"/>
<path fill="#FFFFFF" d="M46.414,4.634l2.879-3.511H40.27l1.58,3.423l-2.598,11.849c-0.421,1.913-1.124,3.458-2.791,4.231h8.689
	c-1.001-0.544-1.334-1.668-1.334-2.668c0-0.79,0.105-1.404,0.334-2.458L46.414,4.634z"/>
<path fill="#FFFFFF" d="M58.421,1.123c2.229,1.229,3.125,3.564,3.125,7.689v0.439h0.105l1.791-8.128H58.421z"/>
<path fill="#FFFFFF" d="M57.069,1.141h-0.333c-3.792,0-6.46,2.44-6.46,5.565c0,4.178,5.688,5.986,5.688,10.024
	c0,1.633-0.79,3.23-2.458,3.897c5.249-0.105,7.355-2.563,7.355-5.67c0-3.897-5.916-6.46-5.916-10.357
	C54.945,3.037,55.612,1.808,57.069,1.141z"/>
<path fill="#FFFFFF" d="M49.152,12.481h-0.105l-1.791,8.145h5.021C49.925,19.275,49.047,16.606,49.152,12.481z"/>
<path fill="#95CA68" d="M72.78,12.481h-0.105l-1.791,8.145h5.021C73.553,19.275,72.675,16.606,72.78,12.481z"/>
<path fill="#95CA68" d="M82.049,1.123c2.229,1.229,3.125,3.564,3.125,7.689v0.439h0.105l1.791-8.128H82.049z"/>
<path fill="#95CA68" d="M80.698,1.141h-0.334c-3.792,0-6.46,2.44-6.46,5.565c0,4.178,5.688,5.986,5.688,10.024
	c0,1.633-0.79,3.23-2.458,3.897c5.249-0.105,7.355-2.563,7.355-5.67c0-3.897-5.916-6.46-5.916-10.357
	C78.573,3.037,79.241,1.808,80.698,1.141z"/>
<path fill="#95CA68" d="M96.848,5.021c-0.228,0-0.667,0-1.334,0.105c0.667,0.228,0.895,1.018,0.895,2.124
	c0,1.457-0.333,2.879-0.667,4.459l-2.001,9.146l6.021-0.562c-0.439-0.334-0.667-1.106-0.667-2.001c0-0.895,0.298-2.229,0.667-3.897
	c0.72-3.3,1.106-4.582,1.106-5.916C100.868,6.127,99.182,5.021,96.848,5.021z"/>
<path fill="#95CA68" d="M94.864,5.231c-4.248,0.562-6.021,2.458-6.249,5.021l4.125-0.334C92.968,7.917,93.741,6.021,94.864,5.231z"
	/>
<path fill="#95CA68" d="M91.3,16.835c0-1.123,0.386-2.124,1.001-2.791l2.352-1.457l-2.001,0.228
	c-3.195,0.351-5.793,1.773-5.793,4.898c0,1.896,1.106,3.125,3.002,3.125c1.545,0,2.44-0.667,3.002-1.334
	C92.073,19.169,91.3,18.292,91.3,16.835z"/>
<path fill="#95CA68" d="M114.894,3.511L115.929,0l-3.125,0.14C113.858,0.772,114.42,1.861,114.894,3.511z"/>
<path fill="#95CA68" d="M109.803,7.145h2.054l0.386-1.791h-2.194c0.246-2.44,0.807-4.248,2.089-5.231
	c-4.318,0.211-5.74,1.808-6.6,5.231v0.018h-1.527l1.106,1.791h0.035l-2.931,13.482h6.249c-0.667-0.456-0.895-1.229-0.895-2.124
	c0-1.123,0.299-2.458,0.667-4.125L109.803,7.145z"/>
<path fill="#95CA68" d="M113.366,10.252l4.125-0.334c0.211-2.001,1.001-3.897,2.124-4.687
	C115.367,5.793,113.595,7.689,113.366,10.252z"/>
<path fill="#95CA68" d="M116.035,16.835c0-1.123,0.386-2.124,1.001-2.791l2.352-1.457l-2.001,0.228
	c-3.195,0.351-5.793,1.773-5.793,4.898c0,1.896,1.106,3.125,3.002,3.125c1.545,0,2.44-0.667,3.002-1.334
	C116.807,19.169,116.035,18.292,116.035,16.835z"/>
<path fill="#95CA68" d="M121.599,5.021c-0.228,0-0.667,0-1.334,0.105c0.667,0.228,0.895,1.018,0.895,2.124
	c0,1.457-0.333,2.879-0.667,4.459l-2.001,9.146l6.021-0.562c-0.439-0.334-0.667-1.106-0.667-2.001c0-0.895,0.299-2.229,0.667-3.897
	c0.72-3.3,1.106-4.582,1.106-5.916C125.619,6.127,123.934,5.021,121.599,5.021z"/>
<path fill="#95CA68" d="M134.432,8.251l0.895-3.212l-7.022,1.106l1.229,3.335l-2.458,11.147h6.249
	c-0.667-0.456-0.895-1.229-0.895-2.124c0-1.124,0.298-2.458,0.667-4.125L134.432,8.251z"/>
<path fill="#95CA68" d="M135.204,10.146l-0.316,1.334c1.001-1.334,1.878-1.896,3.335-2.001l1.001-4.459
	C137.205,5.249,135.977,7.057,135.204,10.146z"/>
<path fill="#95CA68" d="M147.246,5.038l-6.794,1.106l1.229,3.335l-2.458,11.147h6.249c-0.667-0.456-0.895-1.229-0.895-2.124
	c0-1.124,0.298-2.458,0.667-4.125L147.246,5.038z"/>
<polygon fill="#95CA68" points="143.683,0.123 143.016,3.248 147.58,3.248 148.247,0.123 "/>
</svg>
