<?xml version="1.0" encoding="utf-8"?>
<!-- Generator: Adobe Illustrator 17.1.0, SVG Export Plug-In . SVG Version: 6.00 Build 0)  -->
<!DOCTYPE svg PUBLIC "-//W3C//DTD SVG 1.1//EN" "http://www.w3.org/Graphics/SVG/1.1/DTD/svg11.dtd">
<svg version="1.1" id="Layer_1" xmlns="http://www.w3.org/2000/svg" xmlns:xlink="http://www.w3.org/1999/xlink" x="0px" y="0px"
	 width="79px" height="64px" viewBox="0 0 79 64" enable-background="new 0 0 79 64" xml:space="preserve">
<path fill-rule="evenodd" clip-rule="evenodd" fill="#FF6767" d="M22.627,39.029l6.157,6.157C31.68,42.291,35.68,40.5,40.098,40.5
	c4.164,0,7.943,1.604,10.79,4.21l5.681-5.681C52.226,34.686,46.225,32,39.598,32C32.97,32,26.97,34.686,22.627,39.029z M43.598,48
	l-4,4l-4-4l-4,4l4,4l-4,4l4,4l4-4l4,4l4-4l-4-4l4-4L43.598,48z"/>
<path fill-rule="evenodd" clip-rule="evenodd" fill="#A0A0A0" d="M39.598,0C24.134,0,10.134,6.268,0,16.402l6.158,6.159
	c8.686-8.686,20.685-14.058,33.939-14.058c13,0,24.784,5.176,33.427,13.57l5.67-5.67C69.062,6.268,55.062,0,39.598,0z"/>
<path fill-rule="evenodd" clip-rule="evenodd" fill="#A0A0A0" d="M11.313,27.715l6.157,6.157c5.791-5.791,13.791-9.373,22.627-9.373
	c8.582,0,16.369,3.385,22.115,8.884l5.669-5.669c-7.239-7.239-17.239-11.716-28.285-11.716S18.552,20.476,11.313,27.715z"/>
</svg>
