<?xml version="1.0" encoding="utf-8"?>
<!-- Generator: Adobe Illustrator 17.0.0, SVG Export Plug-In . SVG Version: 6.00 Build 0)  -->
<!DOCTYPE svg PUBLIC "-//W3C//DTD SVG 1.1//EN" "http://www.w3.org/Graphics/SVG/1.1/DTD/svg11.dtd">
<svg version="1.1" id="Layer_1" xmlns="http://www.w3.org/2000/svg" xmlns:xlink="http://www.w3.org/1999/xlink" x="0px" y="0px"
	 width="26px" height="17px" viewBox="0 0 26 17" enable-background="new 0 0 26 17" xml:space="preserve">
<path fill="#E6E6E6" d="M25,15c0-0.576,0-2.316,0-4c0-2.039-1.129-3-3-3c0,0-1.246,0-7,0V6c0-0.515-0.481-1-1-1h-2V4
	c0.195-0.115,0.863-0.824,1-1c0.678,0,1.245,0,4,0c0.322,0.41,1.438,1,2,1c0.957,0,2-1.047,2-2c0-0.955-1.043-2-2-2
	c-0.574,0-1.686,0.57-2,1c-0.759,0-1.418,0-4,0c-0.32-0.43-1.424-1-2-1c-0.572,0-1.686,0.57-2,1C7.526,1,7.037,1,5,1
	C4.685,0.57,3.572,0,3,0C2.041,0,1,1.046,1,2c0,0.953,1.04,2,2,2c0.559,0,1.685-0.59,2-1c0.869,0,1.15,0,4,0
	c0.139,0.18,0.801,0.89,1,1v1H8C7.482,5,7,5.486,7,6v2C6.412,8,4.734,8,0,8v5c0.165,0,1.506,0,8,0c0,1.523,1.47,2,3,2
	c1.529,0,3-0.768,3-2c0,0,1.195,0,4,0c0.837,0,0.911,0.974,1,2c-0.245,0.166-1,0.682-1,1c0,0.516,0.482,1,1,1h6c0.518,0,1-0.484,1-1
	C26.001,15.597,25.361,15.131,25,15z"/>
</svg>
