<?xml version="1.0" encoding="utf-8"?>
<!-- Generator: Adobe Illustrator 17.1.0, SVG Export Plug-In . SVG Version: 6.00 Build 0)  -->
<!DOCTYPE svg PUBLIC "-//W3C//DTD SVG 1.1//EN" "http://www.w3.org/Graphics/SVG/1.1/DTD/svg11.dtd">
<svg version="1.1" id="Layer_1" xmlns="http://www.w3.org/2000/svg" xmlns:xlink="http://www.w3.org/1999/xlink" x="0px" y="0px"
	 width="174px" height="21px" viewBox="0 0 174 21" enable-background="new 0 0 174 21" xml:space="preserve">
<path fill="#FFFFFF" d="M10.726,1.041C7.689,1.374,4.898,2.936,3.792,6.167h4.125C8.479,3.832,9.62,1.936,10.726,1.041z"/>
<path fill="#FFFFFF" d="M11.814,1.058c0.562,0.667,1.001,1.668,1.001,3.335c0,3.458-1.949,5.846-5.46,9.251L0,20.789h6.794
	c-0.228-0.334-0.334-0.79-0.334-1.229c0-0.895,0.421-1.615,1.229-2.229l5.354-4.125c2.897-2.229,4.459-4.283,4.459-7.127
	C17.502,3.182,15.044,1.163,11.814,1.058z"/>
<path fill="#FFFFFF" d="M9.374,20.772h5.46l1.896-5.793h-0.053C14.5,17.647,12.376,19.385,9.374,20.772z"/>
<path fill="#FFFFFF" d="M30.211,1.269c-6.021,0.562-10.48,5.565-10.48,12.148c0,4.125,2.335,7.127,6.355,7.355
	c-0.667-1.439-1.334-3.002-1.334-6.126C24.752,8.519,27.42,3.375,30.211,1.269z"/>
<path fill="#FFFFFF" d="M35.337,8.624v0.772h0.105l1.79-8.128h-5.46C34.442,2.375,35.337,4.885,35.337,8.624z"/>
<path fill="#FFFFFF" d="M31.247,14.242l-0.386,2.177c-0.334,1.896-1.106,3.353-2.563,4.354h6.249
	c-0.053-0.281-0.105-0.72-0.105-1.229c0-0.843,0.105-2.019,0.334-3.125l0.983-4.915h-5.793L31.247,14.242z"/>
<path fill="#FFFFFF" d="M46.414,4.78l2.879-3.511H40.27l1.58,3.423l-2.598,11.849c-0.421,1.913-1.124,3.458-2.791,4.231h8.689
	c-1.001-0.544-1.334-1.668-1.334-2.668c0-0.79,0.105-1.404,0.334-2.458L46.414,4.78z"/>
<path fill="#FFFFFF" d="M58.421,1.269c2.229,1.229,3.125,3.564,3.125,7.689v0.439h0.105l1.791-8.128H58.421z"/>
<path fill="#FFFFFF" d="M49.153,12.627h-0.105l-1.791,8.145h5.021C49.925,19.42,49.047,16.752,49.153,12.627z"/>
<path fill="#FFFFFF" d="M57.07,1.286h-0.333c-3.792,0-6.46,2.44-6.46,5.565c0,4.178,5.688,5.986,5.688,10.024
	c0,1.633-0.79,3.23-2.458,3.897c5.249-0.105,7.355-2.563,7.355-5.67c0-3.897-5.916-6.46-5.916-10.357
	C54.946,3.182,55.613,1.953,57.07,1.286z"/>
<path fill="#95CA68" d="M87.614,8.624v0.772h0.105l1.79-8.128h-5.459C86.719,2.375,87.614,4.885,87.614,8.624z"/>
<path fill="#95CA68" d="M82.488,1.269c-6.021,0.562-10.48,5.565-10.48,12.148c0,4.125,2.335,7.127,6.355,7.355
	c-0.667-1.439-1.334-3.002-1.334-6.126C77.029,8.519,79.697,3.375,82.488,1.269z"/>
<path fill="#95CA68" d="M80.259,20.772h4.898l1.896-8.145h-0.105C86.052,15.084,83.384,19.104,80.259,20.772z"/>
<path fill="#95CA68" d="M94.97,18.648c0-1.123,0.369-2.791,0.667-4.125l2.458-11.147l0.983-3.212l-7.461,1.106l1.457,3.335
	l-3.458,16.168h6.249C95.198,20.315,94.97,19.543,94.97,18.648z"/>
<path fill="#95CA68" d="M102.325,5.166c-1.334,0-2.563,0.562-3.564,1.668c1.229,0.105,1.668,0.772,1.668,2.001
	c0,0.79-0.246,1.931-0.439,2.791l-2.019,9.146h6.249c-0.667-0.456-0.895-1.229-0.895-2.124c0-1.001,0.298-2.458,0.667-4.125
	l0.562-2.563c0.386-1.773,0.667-3.002,0.667-3.897C105.222,6.272,104.449,5.166,102.325,5.166z"/>
<path fill="#95CA68" d="M114.806,10.292l-0.316,1.334c1.001-1.334,1.878-1.896,3.335-2.001l1.001-4.459
	C116.808,5.394,115.579,7.202,114.806,10.292z"/>
<path fill="#95CA68" d="M114.034,8.396l0.895-3.212l-7.022,1.106l1.229,3.335l-2.458,11.147h6.249
	c-0.667-0.456-0.895-1.229-0.895-2.124c0-1.123,0.298-2.458,0.667-4.125L114.034,8.396z"/>
<path fill="#95CA68" d="M128.306,5.166v0.018h-0.088c0.211,0.667,0.439,1.668,0.439,3.23c0,6.232-2.229,10.796-4.02,12.587
	c5.354-0.562,8.689-4.792,8.689-10.146C133.326,7.29,131.097,5.166,128.306,5.166z"/>
<path fill="#95CA68" d="M127.287,5.166c-5.354,0.562-8.689,4.792-8.689,10.146c0,3.564,2.229,5.688,5.021,5.688v-0.018h0.088
	c-0.211-0.667-0.439-1.668-0.439-3.23C123.268,11.415,125.497,6.956,127.287,5.166z"/>
<path fill="#95CA68" d="M141.787,8.396l0.895-3.212l-7.022,1.106l1.229,3.335l-2.458,11.147h6.249
	c-0.667-0.456-0.895-1.229-0.895-2.124c0-1.123,0.298-2.458,0.667-4.125L141.787,8.396z"/>
<path fill="#95CA68" d="M155.269,5.166c-1.334,0-2.563,0.562-3.564,1.668c1.229,0.105,1.668,0.772,1.668,2.001
	c0,0.79-0.246,1.931-0.439,2.791l-2.019,9.146h6.249c-0.667-0.456-0.895-1.229-0.895-2.124c0-1.001,0.298-2.458,0.667-4.125
	l0.562-2.563c0.386-1.773,0.667-3.002,0.667-3.897C158.166,6.395,157.446,5.166,155.269,5.166z"/>
<path fill="#95CA68" d="M147.019,5.166c-1.334,0-2.563,0.562-3.563,1.668c1.229,0.105,1.668,0.772,1.668,2.001
	c0,0.79-0.246,1.931-0.439,2.791l-2.019,9.146h6.249c-0.667-0.456-0.895-1.229-0.895-2.124c0-1.001,0.298-2.458,0.667-4.125
	l0.562-2.563c0.386-1.773,0.667-3.002,0.667-3.897C149.915,6.395,149.196,5.166,147.019,5.166z"/>
<path fill="#95CA68" d="M166.083,21c4.125-0.439,6.021-2.896,6.583-5.126h-4.02C168.312,17.436,167.206,19.877,166.083,21z"/>
<path fill="#95CA68" d="M169.436,5.166c0.439,0.456,0.667,1.124,0.667,2.124c0,1.896-1.229,4.125-2.897,5.126h0.544
	c3.686,0,6.249-1.562,6.249-4.02C174,6.395,172.227,5.271,169.436,5.166z"/>
<path fill="#95CA68" d="M168.646,5.166c-5.354,0.562-8.689,4.792-8.689,10.146c0,3.564,2.229,5.688,5.021,5.688v-0.018h0.088
	c-0.211-0.667-0.439-1.668-0.439-3.23C164.626,11.415,166.855,6.956,168.646,5.166z"/>
</svg>
