<?xml version="1.0" encoding="utf-8"?>
<!-- Generator: Adobe Illustrator 17.0.0, SVG Export Plug-In . SVG Version: 6.00 Build 0)  -->
<!DOCTYPE svg PUBLIC "-//W3C//DTD SVG 1.1//EN" "http://www.w3.org/Graphics/SVG/1.1/DTD/svg11.dtd">
<svg version="1.1" id="Layer_1" xmlns="http://www.w3.org/2000/svg" xmlns:xlink="http://www.w3.org/1999/xlink" x="0px" y="0px"
	 width="73px" height="68px" viewBox="0 0 73 68" enable-background="new 0 0 73 68" xml:space="preserve">
<path fill-rule="evenodd" clip-rule="evenodd" fill="#5AD2FA" d="M16,35.99v0.02c0-0.003,0-0.006,0-0.01S16,35.994,16,35.99z M36,40
	l-6,11.999h0c-0.006,0-0.013,0.001-0.02,0.001H30l-2,4l1,1l4-4h1v7c0,2.209-1.791,4-4,4H8c-2.209,0-4-1.791-4-4h0V36h0
	c0-2.209,1.791-4,4-4h5v-4H8c-4.418,0-8,3.582-8,8v24c0,4.418,3.582,8,8,8h22c4.418,0,8-3.582,8-8v-7h1l4,4l1-1L36,40z"/>
<path fill-rule="evenodd" clip-rule="evenodd" fill="#E6E6E6" d="M14,13v27h19V28h6v12h19V13L36,4L14,13z M27,35h-6v-7h6V35z M27,23
	h-6v-7h6V23z M45,16h6v7h-6V16z M45,28h6v7h-6V28z M39,23h-6v-7h6V23z M36,0L12,10v2h2l22-9l22,9h2v-2L36,0z"/>
<path fill-rule="evenodd" clip-rule="evenodd" fill="#A0A0A0" d="M59,40h13v-8h1v-1l-14-7V40z"/>
</svg>
