<?xml version="1.0" encoding="utf-8"?>
<!-- Generator: Adobe Illustrator 18.1.0, SVG Export Plug-In . SVG Version: 6.00 Build 0)  -->
<!DOCTYPE svg PUBLIC "-//W3C//DTD SVG 1.1//EN" "http://www.w3.org/Graphics/SVG/1.1/DTD/svg11.dtd">
<svg version="1.1" id="Layer_1" xmlns="http://www.w3.org/2000/svg" xmlns:xlink="http://www.w3.org/1999/xlink" x="0px" y="0px"
	 viewBox="0 0 30 30" enable-background="new 0 0 30 30" xml:space="preserve">
<path fill="#FFFFFF" d="M30,12c-0.9,0.9-2.3,3-3,4c-0.6-0.1,0.8-5.5,0-6c0,2.6-4,11-12,11C7.8,21,4.1,14.8,3,10
	c-0.2,0.4-0.3,4.9,0,6c-0.6-0.8-2-3-3-4c0.1,2.3,0.9,4,2,6c-1-0.5-0.8-0.6-2-1c0,2.2,6,4,6,4H4c0,0,3.6,2.2,8.4,2.8
	C12.2,24.4,12,25,11,25c-3.6,0.1-3.6,3.1-4,4c0.5,0,1-1,3-1c1.1,0,2.2,1,3,1c0.3,0,1.1,0.2,2,0c1-0.3,2-1,2-1l-1,2h2c0,0,4-2.9,4-5
	c-0.3-0.4-4.8,1-4.8,1l-2-1l1.6-1.2C21.3,23.3,26,21,26,21h-2c0,0,5.7-1.6,6-4c-1,0.2-1.4,0.5-2,1C29.2,16.5,29.6,14.2,30,12z M15,0
	l-1,3h1h1L15,0z M15,18l1-3h-1h-1L15,18z M9,9V8L6,9l3,1V9z M24,9l-3-1v1v1L24,9z M9.3,11.1l-2.1,2.4l3.1-0.6l-0.5-0.8
	c1,1.8,3,3.1,5.2,3.1c1.9,0,3.6-0.9,4.7-2.3l-0.1,0.2l3.1,0.6l-2.1-2.4l-0.1,0.2C20.8,10.6,21,9.8,21,9c0-1.9-0.9-3.6-2.3-4.7l0,0
	l0.6-3.1L17,3.3l0.2,0.1C16.5,3.2,15.8,3,15,3c-0.8,0-1.6,0.2-2.3,0.4l0.2-0.1l-2.4-2.1l0.6,3.1l0.2-0.1C9.9,5.3,9,7.1,9,9
	c0,1,0.3,2,0.7,2.8L9.3,11.1z M22.8,4.4l-3.1,0.6l1,1.7L22.8,4.4z M12.7,14.7l-1.7-1l-0.6,3.1L12.7,14.7z M17.2,14.7l2.4,2.1
	l-0.6-3.1L17.2,14.7z M10.3,5.1L7.2,4.5l2.1,2.4L10.3,5.1z"/>
</svg>
