<?xml version="1.0" encoding="utf-8"?>
<!-- Generator: Adobe Illustrator 18.1.0, SVG Export Plug-In . SVG Version: 6.00 Build 0)  -->
<!DOCTYPE svg PUBLIC "-//W3C//DTD SVG 1.1//EN" "http://www.w3.org/Graphics/SVG/1.1/DTD/svg11.dtd">
<svg version="1.1" id="Layer_1" xmlns="http://www.w3.org/2000/svg" xmlns:xlink="http://www.w3.org/1999/xlink" x="0px" y="0px"
	 viewBox="0 0 22 28" enable-background="new 0 0 22 28" xml:space="preserve">
<path fill="#FFFFFF" d="M16.1,7.9l-0.9,6.3l0.4,0c0.9,0,1.6,0.5,1.8,1.2c0.2,0.8-0.4,1.7-1.4,1.8l-1.1,0.2c-0.4-0.6-2.9-3.6-2.8-8.5
	c0-2.6,0.9-3.4,1-6c0-1.2-1.2-2.2-2-3c-0.9,0.8-2,1.8-2,3c0.1,2.6,1,3.4,1,6c-0.1,5-2.5,7.9-2.9,8.5L6,17.3c-1-0.2-1.6-1-1.4-1.8
	c0.2-0.7,0.9-1.2,1.8-1.2l0.4,0L5.9,7.9C5.6,5.1,0.5,2.2,0,2v20h6c0.5,2,1.9,3.7,3.9,5c0.5,0.3,0.8,0.6,1.1,1c0.3-0.4,0.7-0.8,1.1-1
	c1.9-1.3,3.4-3,3.9-5h6V2C21.5,2.2,16.4,5.1,16.1,7.9z M2.8,15L2,15V6c1.2,1.2,1.8,0.2,2,1.8L4.8,13C3.8,13.4,3.1,14.1,2.8,15z
	 M11,21l-3-2c0,0,1.4-1,2-2c0.5-0.7,1-2,1-2s0.5,1.3,1,2c0.7,1,2,2,2,2L11,21z M20,15l-0.9,0c-0.3-0.9-1-1.6-1.9-2l0.7-5.2
	C18.2,6.2,18.8,7.2,20,6V15z"/>
</svg>
