<?xml version="1.0" encoding="utf-8"?>
<!-- Generator: Adobe Illustrator 18.1.0, SVG Export Plug-In . SVG Version: 6.00 Build 0)  -->
<!DOCTYPE svg PUBLIC "-//W3C//DTD SVG 1.1//EN" "http://www.w3.org/Graphics/SVG/1.1/DTD/svg11.dtd">
<svg version="1.1" id="Layer_1" xmlns="http://www.w3.org/2000/svg" xmlns:xlink="http://www.w3.org/1999/xlink" x="0px" y="0px"
	 viewBox="0 0 56 76" enable-background="new 0 0 56 76" xml:space="preserve">
<path fill="#FFFFFF" d="M41,25c-2.8,7.3-2.3,13.9-2.3,13.9l1-0.1c7.7,0,6.6,9.2,2.3,9.2h-3c-1-1.5-8.2-9.7-8.5-22.5
	c0.1-6.6,2.4-11.3,2.5-17.9c0-3-2.9-5.5-5.1-7.6c0,0,0,0,0,0c0,0,0,0,0,0c-2.2,2.1-5.1,4.6-5.1,7.6c0.1,6.6,2.5,11.3,2.5,17.9
	C25.2,38.3,18,46.5,17,48h-3c-4.3,0-5.4-9.2,2.3-9.2l1,0.1c0,0,0.5-6.6-2.3-13.9C10.8,14,1.2,7.6,0,7v54h15.3
	c1.2,5,4.9,9.5,9.8,12.7c1.2,0.7,2.2,1.3,2.9,2.3c0.7-1,1.7-1.6,2.9-2.3c4.9-3.2,8.7-7.7,9.8-12.7H56V7C54.8,7.6,45.2,14,41,25z
	 M4,16c3,3,5.9,5,8,11c1.1,3.2,2,9,2,9c-3,0-6.3,2.8-7,5H4V16z M13,57H4V45h3c0,0,1.2,3.9,3,5c2.4,1.5,4,1.7,4,1.7L13,57z M17,55.4
	c0-0.9,0.4-1.8,1-2.4l6,4h-7V55.4z M26,70l-5-6l-1-3h6V70z M28,55l-8-5c0,0,2.4-1.5,4-4c1.2-1.9,4-8,4-8s2.8,6.1,4,8
	c1.6,2.5,4,4,4,4L28,55z M35,64l-5,6v-9h6L35,64z M39,57h-7l6-4c0.6,0.6,1,1.5,1,2.4V57z M52,57h-9l-1-5.3c0,0,1.6-0.2,4-1.7
	c1.8-1.1,3-5,3-5h3V57z M52,41h-3c-0.7-2.2-4-5-7-5c0,0,0.9-5.8,2-9c2.1-6,5-8,8-11V41z"/>
</svg>
