<?xml version="1.0" encoding="utf-8"?>
<!-- Generator: Adobe Illustrator 18.1.0, SVG Export Plug-In . SVG Version: 6.00 Build 0)  -->
<!DOCTYPE svg PUBLIC "-//W3C//DTD SVG 1.1//EN" "http://www.w3.org/Graphics/SVG/1.1/DTD/svg11.dtd">
<svg version="1.1" id="Layer_1" xmlns="http://www.w3.org/2000/svg" xmlns:xlink="http://www.w3.org/1999/xlink" x="0px" y="0px"
	 viewBox="0 0 28 16" enable-background="new 0 0 28 16" xml:space="preserve">
<path fill="#2285B1" d="M22.6,6.6C22.6,6.6,22.6,6.6,22.6,6.6c-0.1-0.2,0-0.4,0-0.6c0-3.3-2.7-5.9-5.9-5.9c-2.6,0-4.8,1.6-5.6,3.9
	c-0.6-0.3-1.3-0.4-2-0.4C6.3,3.5,4,5.8,3.9,8.6c-0.1,0-0.2,0-0.2,0c-2,0-3.7,1.6-3.7,3.7S2,16,4,16h10l-4-4l1-1l2,1V6h3v6l2-1l1,1
	l-4,4h8c3,0,5-2.1,5-5C28,8.4,25.2,6.6,22.6,6.6z"/>
</svg>
