<?xml version="1.0" encoding="utf-8"?>
<!-- Generator: Adobe Illustrator 18.1.0, SVG Export Plug-In . SVG Version: 6.00 Build 0)  -->
<!DOCTYPE svg PUBLIC "-//W3C//DTD SVG 1.1//EN" "http://www.w3.org/Graphics/SVG/1.1/DTD/svg11.dtd">
<svg version="1.1" id="Layer_1" xmlns="http://www.w3.org/2000/svg" xmlns:xlink="http://www.w3.org/1999/xlink" x="0px" y="0px"
	 viewBox="0 0 30 30" enable-background="new 0 0 30 30" xml:space="preserve">
<path fill="#FFFFFF" d="M30,10c0-0.5-0.2-0.6-0.2-0.8c-4.1,3.8-0.9-2.1-1.1-3C28.6,5.8,28.3,5.5,28,5c-1.9,2.9-3.8,4.7-6.7,6.7
	c0.6,0.9,1,1.9,0.1,2.8C20.6,15.3,19,15.1,18,15c0,0-0.5-3.7,1-5c0.9-0.9,1.9-1.6,3-1c0.5-0.9-0.7-1.1-1-2c0,0-0.4-1-2-1
	c-0.9,0-0.5,0.1-1,0c-0.9,0.1-1.7-0.3-2-1c0.2-0.5,0.8-0.5,1-1c0.3-0.9,0.1-1.7-1-2c-0.3-0.2-0.4-0.4-0.5-0.5L16,1l-1-1l-1,1
	l0.5,0.5C14.4,1.6,14.3,1.8,14,2c-1.1,0.3-1.3,1.1-1,2c0.2,0.5,0.8,0.5,1,1c-0.3,0.7-1.1,1.1-2,1c-0.6,0-0.2,0-1,0
	C9.5,6.1,9,6.3,9,7C8.7,7.9,7.5,8.1,8,9c1.1-0.6,2.1,0.1,3,1c1.5,1.3,1,5,1,5c0,0,0,0,0,0c-1,0.1-2.6,0.3-3.4-0.5
	c-0.9-0.9-0.5-1.9,0.1-2.8C5.8,9.7,3.9,7.9,2,5C1.7,5.5,1.4,5.8,1.3,6.2c-0.2,0.9,3.1,6.7-1.1,3C0.2,9.4,0,9.5,0,10c0,1.7,4,4.6,0,3
	c0.1,2.7,5.4,2.7,1.5,3.5C1.9,17.8,5.9,20,6,20c1,0.4,2.1,0.8,2.6-0.2c0.3-0.7,0.5-2.4,0.8-3.1c0.9-0.1,1.9,0.8,2.6,1.3c0,0,0,0,0,0
	l0,2c0,0,0,0,0,0c-1.6,0-2.9,0.9-2.5,2.3c0.1,0.5,0.4,1.1,0.6,1.6c-1.7,0.7-3,0.5-4.2-0.7c-0.4-0.4-0.8-0.9-1.3-1.2
	C4,21.4,3,20.8,3,20c0-0.6-0.4-0.8-1-1c-0.1,0.5-1,0.5-1,1c0,0.3,0.1,0.6,0.1,1c0.1,0.3,0.4,1,0.9,1c0.9,0,1.4,0.3,2,1
	c0.6,0.7,1.4,1.4,2,2c-0.1,1.2,0.2,1,1,1c0.6,0,1.1,0.2,1.5,0.6C8.7,26.9,8.8,26.4,9,26c-0.3-0.3-0.4-0.2-0.8-0.7
	c1.1-0.3,2-0.5,3-0.8c0-0.1,0-0.3,0-0.4c-0.1-0.5,0-0.9,0.4-1.1c0.5-0.3,1,0,1.3,0.3c0.4,0.4,0.6,1.2,1,1.7c-0.5,0.2-3,1.1-3.7,2
	c-1,1.3,4,2.6,4.7,3c0.8-0.4,5.8-1.7,4.7-3c-0.7-0.9-3.2-1.8-3.7-2c0.4-0.6,0.6-1.3,1-1.7c0.1-0.1,0.2-0.2,0.3-0.3
	c0.3-0.1,0.6-0.1,0.8,0c0.2,0.1,0.3,0.6,0.5,0.9c0.1,0.2,0,0.4,0,0.7c1.5,0.1,3.7,0.5,4.8,1.5C24.1,26.9,26,26,26,25c0-1.2-1-2-1-2
	h-1c0,0-1.3,0.9-1.6,1.3c-0.5-0.1-2.1-0.2-2.7-0.3c0.3-0.9,0.6-1.6,0.7-2.3c0.1-1.2-1.1-1.8-2.4-1.7l0-2c0.6-0.5,1.6-1.4,2.5-1.2
	c0.3,0.7,0.5,2.4,0.8,3.1c0.5,1,1.6,0.5,2.6,0.2c0.1,0,4.1-2.2,4.5-3.5c-3.9-0.8,1.4-0.7,1.5-3.5C26,14.6,30,11.7,30,10z M17,9
	c-1,1.2-2,4-2,4c0,0.1-1-2.8-2-4c0.3-0.6,0.5-1.5,1-2c-0.8,0-1.6,0-2.3,0c0.1,0,0.2,0,0.3,0c0.6,0,1.8,0,2.4-1c0.2,0,0.3,0,0.6,0
	c0,0,0.4,0,0.6,0c0.6,1,1.8,1,2.4,1c0.1,0,0.2,0,0.3,0c-0.7,0-1.4,0-2.3,0C16.5,7.5,16.7,8.5,17,9z"/>
</svg>
