<?xml version="1.0" encoding="utf-8"?>
<!-- Generator: Adobe Illustrator 18.1.0, SVG Export Plug-In . SVG Version: 6.00 Build 0)  -->
<!DOCTYPE svg PUBLIC "-//W3C//DTD SVG 1.1//EN" "http://www.w3.org/Graphics/SVG/1.1/DTD/svg11.dtd">
<svg version="1.1" id="Layer_1" xmlns="http://www.w3.org/2000/svg" xmlns:xlink="http://www.w3.org/1999/xlink" x="0px" y="0px"
	 viewBox="0 0 136 116" enable-background="new 0 0 136 116" xml:space="preserve">
<path fill-opacity="0.2" d="M0,110.2L4,80h128l4,30.2c0.3,3.1-2.1,5.8-5.2,5.8H5.2C2.1,116-0.3,113.3,0,110.2z"/>
<path id="bottom" fill="#AFAFAF" d="M4,80v29c0,1.7,1.3,3,3,3h122c1.6,0,3-1.3,3-3V80H4z"/>
<path id="head_2_" fill="#F5F5F5" d="M4,80v23c0,1.7,1.3,3,3,3h122c1.6,0,3-1.3,3-3V80H4z"/>
<rect x="58" y="106" fill="#C8C8C8" width="20" height="2"/>
<rect x="12" y="82" fill="#666666" width="112" height="12"/>
<rect id="touchpad" x="53" y="96" fill="#C8C8C8" width="30" height="6"/>
<path id="head_1_" fill="#222222" d="M4,80V3c0-1.6,1.3-3,3-3h122c1.6,0,3,1.4,3,3v77H4z"/>
<linearGradient id="screen_2_" gradientUnits="userSpaceOnUse" x1="12.2914" y1="71.742" x2="124.0551" y2="8.0606">
	<stop  offset="0" style="stop-color:#52D079"/>
	<stop  offset="1" style="stop-color:#33A0F4"/>
</linearGradient>
<rect id="screen" x="12" y="8" fill="url(#screen_2_)" width="112" height="64"/>
<rect x="60" y="75" fill="#444444" width="16" height="2"/>
<path fill-rule="evenodd" clip-rule="evenodd" fill="#FFFFFF" d="M81,40c0-6.6-5.4-12-12-12c-5.2,0-9.7,3.4-11.3,8
	c-0.2,0-0.5,0-0.7,0c-4.4,0-8,3.6-8,8c0,4.4,3.6,8,8,8h11l-6-8h4v-8h4v8h4l-6,8h13c3.3,0,6-2.7,6-6C87,42.7,84.3,40,81,40z"/>
</svg>
