<?xml version="1.0" encoding="utf-8"?>
<!-- Generator: Adobe Illustrator 18.1.0, SVG Export Plug-In . SVG Version: 6.00 Build 0)  -->
<!DOCTYPE svg PUBLIC "-//W3C//DTD SVG 1.1//EN" "http://www.w3.org/Graphics/SVG/1.1/DTD/svg11.dtd">
<svg version="1.1" id="Layer_1" xmlns="http://www.w3.org/2000/svg" xmlns:xlink="http://www.w3.org/1999/xlink" x="0px" y="0px"
	 viewBox="0 0 19 16" enable-background="new 0 0 19 16" xml:space="preserve">
<path fill="#8AB1C3" d="M18.7,6.5c-0.4-0.4-1-0.4-1.4,0l-1,1C16,3.3,12.5,0,8.1,0C3.6,0,0,3.6,0,8c0,4.4,3.6,8,8.1,8
	c2.2,0,4.3-0.9,5.8-2.3l-1.4-1.4C11.4,13.3,9.8,14,8.1,14C4.8,14,2,11.3,2,8c0-3.3,2.7-6,6.1-6c3.3,0,6,2.6,6.1,5.7l-1.3-1.3
	c-0.4-0.4-1-0.4-1.4,0c-0.4,0.4-0.4,1,0,1.4l2.2,2.1l0.7,0.7c0.4,0.4,1,0.4,1.4,0l0.7-0.7l2.2-2.1C19.1,7.5,19.1,6.9,18.7,6.5z
	 M14.6,8h1.1C15.3,8.2,14.9,8.2,14.6,8z"/>
</svg>
