<?xml version="1.0" encoding="utf-8"?>
<!-- Generator: Adobe Illustrator 18.1.0, SVG Export Plug-In . SVG Version: 6.00 Build 0)  -->
<!DOCTYPE svg PUBLIC "-//W3C//DTD SVG 1.1//EN" "http://www.w3.org/Graphics/SVG/1.1/DTD/svg11.dtd">
<svg version="1.1" id="Layer_1" xmlns="http://www.w3.org/2000/svg" xmlns:xlink="http://www.w3.org/1999/xlink" x="0px" y="0px"
	 viewBox="0 0 76 72" enable-background="new 0 0 76 72" xml:space="preserve">
<path fill="#FFFFFF" d="M69.1,45.5c2-2.9,5-4.8,6.9-8.5c-3.1,1.1-4.4,3.4-6.9,4.6c2.8-5,6.4-9.1,6.9-14.8c-2.6,3.6-4.3,7.7-7.7,11
	c0.7-4.9,5.4-9.1,5.2-14.7c-2.6,2.5-3.7,5.9-5.3,8.1c-1.1,0.2-0.8-0.6-0.9-1.2c-0.2-1.1,0.3-2.3-0.3-3.4c-1.6-0.2-1.3,1.1-1.4,2
	c-0.4,3.1-1.1,6.8-2.3,9.8c-1.5,3.1-6.9,14.7-25.3,15c-18.5-0.3-23.8-11.9-25.3-15c-1.2-2.9-1.8-6.7-2.3-9.8c-0.1-0.9,0.2-2.1-1.4-2
	c-0.6,1.1-0.2,2.3-0.3,3.4c-0.1,0.6,0.2,1.4-0.9,1.2c-1.5-2.2-2.7-5.7-5.3-8.1c-0.2,5.6,4.6,9.9,5.2,14.7c-3.5-3.3-5.1-7.4-7.7-11
	c0.5,5.7,4.1,9.8,6.9,14.8C4.4,40.3,3.1,38,0,36.9c1.9,3.8,4.9,5.7,6.9,8.5c-1.8,0.4-2.6-1.6-4.6-1.3c1.4,2,3.1,3.2,4.9,4.3
	c0.6,0.4,1.7,0.9,1,1.7c-1.7,1.7,0.7,1.1,0.9,1.7c0.4,0.3,1.1,0.4,0.6,1.2c-0.1,0.1-0.2,0.1-0.3,0.2c-0.1,0.1-0.1,0.2-0.1,0.3
	c0.8,1.1,2.2,0.7,3.2,1.2c0,0.8-1.7,0.5-1.1,0.9c1.1,0.7,4.1,4,17.1,4.9c-0.1,0.2-0.3,0.4-0.4,0.5c-0.8,1.2-2.6,1-3.9,1.6
	c-2.9,1-2.4,2.6-3.2,4.3c3-0.9,5.2-1.7,8-1c2.1,2.1,10,1,10,1s-4.1,3.2-3,4c0.5,0.4,1.3,1,2,1c5.5-0.2,14.4-4.6,16-8c-1-1.3-6-2-8-2
	c-0.3,0-0.4-0.8-0.3-1.6c16.5-2.2,25.8-11.2,22.1-10.2c-1,0.3,0.3-1.3,1-1.7c1.8-1.1,3.5-2.3,4.9-4.3C71.7,43.8,70.9,45.8,69.1,45.5
	z M38,39c8.3,0,15-6.7,15-15c0-8.3-6.7-15-15-15s-15,6.7-15,15C23,32.3,29.7,39,38,39z M38,6c1.9,0,2-1.4,2-2c0-1.7-2-4-2-4
	s-2,2.3-2,4C36,4.6,36.2,6,38,6z M36,44c0,1.7,2,4,2,4s2-2.3,2-4c0-0.6-0.2-2-2-2C36.1,42,36,43.4,36,44z M20,24c0-1.9-1.4-2-2-2
	c-1.7,0-4,2-4,2s2.3,2,4,2C18.6,26,20,25.8,20,24z M58,22c-0.6,0-2,0.2-2,2c0,1.9,1.4,2,2,2c1.7,0,4-2,4-2S59.7,22,58,22z
	 M25.3,11.3c1.4-1.4,0.4-2.4,0-2.8C24.1,7.3,21,7,21,7s0.2,3.1,1.4,4.2C22.9,11.7,24,12.6,25.3,11.3z M50.7,36.7
	c-1.4,1.4-0.4,2.4,0,2.8C51.9,40.7,55,41,55,41s-0.2-3.1-1.4-4.2C53.1,36.3,52,35.4,50.7,36.7z M25.3,36.7c-1.4-1.4-2.4-0.4-2.8,0
	C21.3,37.9,21,41,21,41s3.1-0.2,4.2-1.4C25.7,39.1,26.6,38,25.3,36.7z M53.6,11.3C54.7,10.1,55,7,55,7s-3.1,0.2-4.2,1.4
	c-0.4,0.4-1.3,1.5,0,2.8C52.1,12.6,53.1,11.7,53.6,11.3z M31.1,7.4c1.8-0.7,1.3-2,1.1-2.6c-0.6-1.5-3.4-2.9-3.4-2.9s-1,2.9-0.3,4.5
	C28.7,6.8,29.4,8.1,31.1,7.4z M44.9,40.6c-1.8,0.7-1.3,2-1.1,2.6c0.6,1.5,3.4,2.9,3.4,2.9s1-2.9,0.3-4.5
	C47.3,41.2,46.6,39.9,44.9,40.6z M21.4,30.9c-0.7-1.8-2-1.3-2.6-1.1c-1.5,0.6-2.9,3.4-2.9,3.4s2.9,1,4.5,0.3
	C20.8,33.3,22.1,32.6,21.4,30.9z M54.6,17.1c0.7,1.8,2,1.3,2.6,1.1c1.5-0.6,2.9-3.4,2.9-3.4s-2.9-1-4.5-0.3
	C55.2,14.7,53.9,15.4,54.6,17.1z M18.8,18.2c0.5,0.2,1.9,0.6,2.6-1.1c0.7-1.8-0.5-2.4-1.1-2.6c-1.5-0.6-4.5,0.3-4.5,0.3
	S17.2,17.6,18.8,18.2z M60.2,33.2c0,0-1.4-2.7-2.9-3.4c-0.5-0.2-1.9-0.6-2.6,1.1c-0.7,1.8,0.5,2.4,1.1,2.6
	C57.2,34.1,60.2,33.2,60.2,33.2z M28.5,41.7c-0.6,1.5,0.3,4.5,0.3,4.5s2.7-1.4,3.4-2.9c0.2-0.5,0.6-1.9-1.1-2.6
	C29.3,39.9,28.7,41.1,28.5,41.7z M44.9,7.4c1.8,0.7,2.4-0.5,2.6-1.1c0.6-1.5-0.3-4.5-0.3-4.5s-2.7,1.4-3.4,2.9
	C43.6,5.3,43.2,6.7,44.9,7.4z"/>
</svg>
