<?xml version="1.0" encoding="utf-8"?>
<!-- Generator: Adobe Illustrator 17.0.0, SVG Export Plug-In . SVG Version: 6.00 Build 0)  -->
<!DOCTYPE svg PUBLIC "-//W3C//DTD SVG 1.1//EN" "http://www.w3.org/Graphics/SVG/1.1/DTD/svg11.dtd">
<svg version="1.1" id="Layer_1" xmlns="http://www.w3.org/2000/svg" xmlns:xlink="http://www.w3.org/1999/xlink" x="0px" y="0px"
	 width="12px" height="16px" viewBox="0 0 12 16" enable-background="new 0 0 12 16" xml:space="preserve">
<path fill-rule="evenodd" clip-rule="evenodd" fill="#C6C6C5" d="M11.6,15.4l-1.1,0.5c-0.4,0.2-1,0-1.2-0.4l-2.3-4.3
	c-0.2,0-0.4,0.1-0.7,0.1v-0.2c-0.3,0-0.5,0.1-0.8,0.1C2.5,11.2,0,8.7,0,5.6C0,2.5,2.5,0,5.6,0s5.6,2.5,5.6,5.6c0,1.6-0.6,3-1.7,4H10
	C9.9,9.7,9.8,9.9,9.6,10l2.2,4.3C12.1,14.7,12.1,15.2,11.6,15.4z M9.6,5.6c0-2.2-1.8-4-4-4s-4,1.8-4,4c0,2.2,1.8,4,4,4
	S9.6,7.8,9.6,5.6z"/>
</svg>
