<?xml version="1.0" encoding="utf-8"?>
<!-- Generator: Adobe Illustrator 18.0.0, SVG Export Plug-In . SVG Version: 6.00 Build 0)  -->
<!DOCTYPE svg PUBLIC "-//W3C//DTD SVG 1.1//EN" "http://www.w3.org/Graphics/SVG/1.1/DTD/svg11.dtd">
<svg version="1.1" id="Layer_1" xmlns="http://www.w3.org/2000/svg" xmlns:xlink="http://www.w3.org/1999/xlink" x="0px" y="0px"
	 viewBox="0 0 14 12" enable-background="new 0 0 14 12" xml:space="preserve">
<path fill="#FFFFFF" d="M12,5.7C11.8,2.5,9.2,0,6,0C2.7,0,0,2.7,0,6c0,3.3,2.7,6,6,6c1.7,0,3.2-0.7,4.2-1.8L8.8,8.8
	C8.1,9.6,7.1,10,6,10c-2.2,0-4-1.8-4-4c0-2.2,1.8-4,4-4c2.1,0,3.8,1.6,4,3.7L8,5v1l3,3l3-3V5L12,5.7z"/>
</svg>
