<?xml version="1.0" encoding="utf-8"?>
<!-- Generator: Adobe Illustrator 18.1.0, SVG Export Plug-In . SVG Version: 6.00 Build 0)  -->
<!DOCTYPE svg PUBLIC "-//W3C//DTD SVG 1.1//EN" "http://www.w3.org/Graphics/SVG/1.1/DTD/svg11.dtd">
<svg version="1.1" id="Layer_1" xmlns="http://www.w3.org/2000/svg" xmlns:xlink="http://www.w3.org/1999/xlink" x="0px" y="0px"
	 viewBox="0 0 72 76" enable-background="new 0 0 72 76" xml:space="preserve">
<path fill="#FFFFFF" d="M58.8,56.6c-0.7,0.5-1.4,1-2.2,1.6c-0.8-0.6-1.6-1.1-2.6-1.8c-0.7,0.9-1.4,1.7-2.2,2.7
	c-1.3-0.3-2.6-0.5-4-0.8c0.6-2.2,1.5-3.9,1.6-5.7c0.2-2.8-2.2-4.9-5.4-4.5c0,0.9,0,3,0,4c0,2.4-0.5,3-3,3c-1.9,0-3.6,0.4-5,2
	c-1.4-1.7-3.1-2-5-2c-2.3,0-2.9-0.7-3-3c0-1,0-3,0-4c-3.8-0.1-5.8,2.6-4.9,6c0.3,1.3,1,2.6,1.5,3.8c-4.1,1.8-7.2,1.3-10.2-1.7
	c-1-1-2-2.1-3.1-2.9c-1.6-1.2-2.4-2.8-2.5-4.7C8.7,47,8,46.2,6.7,45.7c-0.2,1.1-0.9,1.1-1.8,1c-1.2-0.2-1.8,0.5-1.8,1.7
	c0,0.7-0.1,1.2-1.2,1.6c0.4,0.7,1.9,2.4,3.3,2.3c2.2-0.1,3.8,0.8,5.2,2.5c1.4,1.6,3,3,4.5,4.4c-0.2,2.8,0.4,4.1,2.3,4.1
	c1.4,0,2.3,0.4,3.3,1.3c0.6,0.6,1.3,0.6,1.7-0.5c-0.6-0.7-1.3-1.8-2.3-3c3.4-0.2,4.4-0.3,7,0c0-0.3,0.1-1.7,0-2
	c-0.2-1.1,0.2-1.7,1.3-2.3c1.2-0.6,2.4-0.1,3.1,0.7c0.9,1,1.6,2.2,2.6,3.6c-1.2,0.4-2,0.7-2.8,1.1c-2.4,1-4.7,1.8-6.2,3.9
	c-1.5,2-1.4,4.1,1.5,4.8c1.9-4.6,4.3-7,8.2-7.9c-0.8,0.6-1.5,0.9-1.9,1.5c-1.3,1.5-2.8,3-3.7,4.8c-1.1,2.2-0.3,3.4,2.3,4.2
	c0.5-3,1.1-6,3.6-8.8c-0.6,2.6-1.1,4.7-1.4,6.8c-0.5,2.9-0.3,3.4,2.4,4.8c2.6-1.5,3-1.8,2.6-4.6c-0.2-1.6-0.7-3.1-1-4.7
	c-0.1-0.5-0.2-1.1-0.3-2.2c2.4,3,3,6,3.6,9c2.8-1.3,3.4-2.2,2.1-4.5c-1-1.7-2.5-3.2-3.8-4.7c-0.4-0.4-0.8-0.7-1.3-1.1
	c4,1.2,6.5,4,7.8,7.9c2.9-1.3,2.4-3.7,1.2-5c-1.2-1.2-2.5-2-3.9-2.9c-1.4-0.8-3.2-1.3-5.1-2.1c1.1-1.4,2.1-2.9,3.2-3.9
	c0.6-0.5,1.9-0.6,2.7-0.3c0.6,0.2,1.1,1.3,1.1,2.2c0,0.8,0,1.3,0,2c3.7-0.4,6.6-0.3,9,2c1.3,1.3,5,1.2,6.3-0.9
	C61.7,60.1,61.1,58.1,58.8,56.6z M13.3,36.9c0.5,0,0.9-0.1,1.4-0.1c-3.1,2.9-7.2,2.3-10.9,3.1c0.9,2.8,2.4,4,5.2,3.4
	c2.1-0.5,4.1-1.6,6.2-2.4c0.6-0.2,1.1-0.6,1.7-0.8c0.1,0.2,0.2,0.3,0.3,0.5c-1.9,3-5,4.1-8.4,5.1c1.2,1.7,2.6,2.2,4.3,1.8
	c2.1-0.4,3.5-1.7,4.8-3.2c0.6-0.7,1.2-1.4,1.8-2.1c0.2,3.7-2.6,5.4-4.7,7.5c0.3,0.3,0.4,0.5,0.6,0.6c2.4,0.9,4.4,0.3,5.6-2.1
	c0.8-1.6,1.3-3.4,1.9-5.1c2.2-0.3,3.6,1.9,5.1,3v-7c-2.5,0.3-5.2,0.6-7.1-1.4c-2.2-2.2-1.4-4.3,0.1-6.6C14,26.2,9.6,19.1,5,12
	c-1.1,1-1.4,2.2-1.7,3.2c-0.8,3,0,5.7,2.2,7.8c1.9,1.8,4,3.2,6.1,4.7c0.6,0.5,1.2,0.9,1.8,1.3c-0.1,0.2-0.2,0.4-0.4,0.6
	c-5-0.9-8.8-4-12.4-7.3c-0.3,0.4-0.4,0.5-0.5,0.6c-0.8,3.3,0.3,6.2,3.5,7.5c2.7,1.1,5.6,1.5,8.5,2.3c0.4,0.1,0.8,0.3,1.2,0.5
	C9,34.4,4.8,33.4,0.8,31.8c-0.3,3.5,1.5,5.7,4.8,5.8C8.1,37.7,10.7,37.2,13.3,36.9z M34,53c1.2,0.2,1.8,0.2,3,0c0.3,0,0.8-0.6,1-1
	c-1.3-3.6-4.8-13.7-5-14c-0.2-0.3-0.8-0.7-1-1c-0.1,0.1,0.1,0.9,0,1c0.2,0.7,0.1,0.7,0.3,1.5c-0.8,0.6-0.7,1.1-1.8,2
	c1.6,1.1,2.6,1.7,3.9,2.5h-3.7c0.3,1.1,0.5,2.1,0.8,3c0.5-0.2,0.8-0.3,1.6-0.6c-1,2-1.7,3.5-2.4,5.1C31.3,52.4,32.2,52.8,34,53z
	 M42,47c0,0-0.9-1.5-1.4-1.9c-1.1-0.7-1.1-0.7-1.2-2c0.3,0,0.6,0,0.6-0.1c0.2-0.7,1-1.3,1-2c0-1.8-2.7-0.4-3.9-0.3
	c-0.1-0.9-0.2-1.6-0.3-2.4c-2,1.6-2.2,0.9-1.8,2.8c1.3,3.6,2.7,7.4,4,11c0.5,0,1.1,0.5,1.3,0.3c0.6-0.6,0.9-1.1,1.7-2.3
	c-1.2-0.1-1.7-0.4-2.5-0.5C39.3,48.5,42,47,42,47z M12.9,17.7c1.1,0.5,1.9,0.8,3.1,1.3c-0.2-0.9,0-1.7-0.3-2.4
	c-0.2-0.6-0.8-1-1.1-1.5c-0.9-1.3-0.7-2.4,0.7-3.1c0.5-0.3,1.2-0.3,2-0.5c0.4,4,1.6,5.3,4.3,4.9c-3.3-1.8-3.4-2.9-1.6-6.5
	c-0.4-0.5-1.3-1.1-2-2c-1.8,2.6-4.1,4-7,5c0.7,1.1,1.2,1.8,1.5,2.6C12.8,16.4,12.9,17.3,12.9,17.7z M58.6,33.3
	c0.4-0.2,0.8-0.4,1.2-0.5c2.8-0.7,5.8-1.2,8.5-2.3c3.1-1.3,4.3-4.2,3.5-7.5c0-0.2-0.2-0.3-0.5-0.6c-3.6,3.3-7.4,6.4-12.4,7.3
	c-0.1-0.2-0.2-0.4-0.4-0.6c0.6-0.4,1.2-0.9,1.8-1.3c2-1.6,4.2-3,6.1-4.7c2.2-2.1,3-4.8,2.2-7.8c-0.3-1-0.6-2.2-1.7-3.2
	c-4.6,7.1-9,14.2-16,19c1.5,2.3,2.3,4.4,0.1,6.6c-1.9,2-4.6,1.7-7.1,1.4v7c1.5-1.1,2.9-3.3,5.1-3c0.6,1.7,1.1,3.4,1.9,5.1
	c1.2,2.4,3.2,3,5.6,2.1c0.2-0.1,0.3-0.2,0.6-0.6c-2.1-2.1-4.9-3.8-4.7-7.5c0.6,0.7,1.2,1.4,1.8,2.1c1.3,1.5,2.7,2.8,4.8,3.2
	c1.7,0.3,3.1-0.2,4.3-1.8c-3.4-1-6.6-2.1-8.4-5.1c0.1-0.2,0.2-0.3,0.3-0.5c0.6,0.3,1.1,0.6,1.7,0.8c2,0.8,4,2,6.2,2.4
	c2.8,0.6,4.4-0.6,5.2-3.4c-3.7-0.7-7.7-0.2-10.9-3.1c0.5,0,0.9,0,1.4,0.1c2.6,0.3,5.1,0.8,7.7,0.7c3.3-0.1,5.1-2.3,4.8-5.8
	C67.2,33.4,63,34.4,58.6,33.3z M19,21c0,1.8,0.5,2.1,1,3c2.7-1.5,4.9-1.9,7.2,0.2c3.5,3.2,4.1,6.8,2,11.8h13.7
	c-2.2-5-1.5-8.6,2-11.8c2.3-2.1,4.5-1.7,7.2-0.2c0.5-0.9,1-1.2,1-3c0-1-1.2-1.6-2.6-2c-1.2-0.3-2.5-0.3-3.7-0.4
	c-2.7-0.1-5.8-0.6-8.6-0.7c-0.2,1.8,2.3,2.7,3,4c-2.4,2.8-4.2,6.3-5,10c-0.8-3.7-2.6-7.2-5-10c0.7-1.3,3.2-2.2,3-4
	c-2.9,0.1-5.9,0.5-8.6,0.7c-1.2,0.1-2.5,0.1-3.7,0.4C20.2,19.4,19,20,19,21z M24,17c1.7,0,4,0,4,0s1.7-0.4,2.6-0.7
	c1.6-0.6,2.8-2.8,4.4-4.3h1c1,0,0.9,0,1.2,0c1.6,1,2.7,3.7,4.4,4.3c0.9,0.3,2.6,0.7,2.6,0.7s2.2,0,4,0c2-1.6,2.6-3.5,0.4-4.9
	c-0.6,0.5-1.2,0.9-1.9,1.5c-0.7-0.5-1.4-1-2-1.5c-1.7,1-1.5,1.8-0.7,3.7c-2-0.2-3.6-1.6-4.3-3.3c0.7-0.7,2.6-2,2.6-4.5
	c0-1.6-1.8-2.5-4.1-3c-2,3-2.1,3-2.1,3s0,0-2-3c-2.2,0.5-4,1.4-4,3c0,2.5,1.9,3.9,2.6,4.5c-0.7,1.7-2.2,3.1-4.2,3.3
	c0.8-1.9,1-2.7-0.7-3.7c-0.7,0.5-1.4,1-2,1.5c-0.7-0.6-1.4-1.1-1.9-1.5C21.4,13.5,22,15.4,24,17z M36,5l1-2h1V2l-1-1l-1-1l-1,1l-1,1
	v1h1L36,5z M50.4,16.5c2.7,0.4,3.9-1,4.3-4.9c0.8,0.2,1.4,0.2,2,0.5c1.4,0.7,1.6,1.7,0.7,3.1c-0.3,0.5-0.9,0.9-1.1,1.5
	C56,17.3,56.2,18.1,56,19c1.2-0.5,1.9-0.9,3.1-1.3c0.1-0.4,0.1-1.3,0.4-2c0.3-0.8,0.8-1.5,1.5-2.6c-2.9-1-5.2-2.4-7-5
	c-0.7,0.9-1.6,1.5-2,2C53.8,13.6,53.7,14.7,50.4,16.5z"/>
</svg>
