<?xml version="1.0" encoding="utf-8"?>
<!-- Generator: Adobe Illustrator 18.0.0, SVG Export Plug-In . SVG Version: 6.00 Build 0)  -->
<!DOCTYPE svg PUBLIC "-//W3C//DTD SVG 1.1//EN" "http://www.w3.org/Graphics/SVG/1.1/DTD/svg11.dtd">
<svg version="1.1" id="Слой_1" xmlns="http://www.w3.org/2000/svg" xmlns:xlink="http://www.w3.org/1999/xlink" x="0px" y="0px"
	 viewBox="0 0 26 15" enable-background="new 0 0 26 15" xml:space="preserve">
<path fill-rule="evenodd" clip-rule="evenodd" fill="#008CAA" d="M14.9,0c0.5,0,0.9,0.4,0.9,0.9c0,0.6,0,12.7,0,13.1
	c0,0.4,0,0.9-0.9,0.9c-0.9,0-2,0-3.7,0C9.6,15,0,6,0,0c1.2,0,3.6,0,4.6,0c0.5,1.5,4.8,8.4,6.5,8.4c0-1.9,0-5,0-5.6
	c0-0.7-0.3-0.9-0.9-0.9c-0.6,0-0.9-0.4-0.9-0.9c0-0.5,0-0.9,0-0.9S14.3,0,14.9,0z"/>
<path fill-rule="evenodd" clip-rule="evenodd" fill="#008CAA" d="M15.8,7.5c0.9-0.8,4.8-5.8,5.6-7.5c1.5,0,3.4,0,4.6,0
	c0,1.9-2.2,6.6-4.6,8.4c0.9,0.6,4.2,4.8,4.6,6.6c-1.4,0-4.6,0-5.6,0c-0.7-1.3-3.1-3.7-4.6-3.7C15.8,9.7,15.8,9,15.8,7.5z"/>
</svg>
