<?xml version="1.0" encoding="utf-8"?>
<!-- Generator: Adobe Illustrator 18.1.1, SVG Export Plug-In . SVG Version: 6.00 Build 0)  -->
<!DOCTYPE svg PUBLIC "-//W3C//DTD SVG 1.1//EN" "http://www.w3.org/Graphics/SVG/1.1/DTD/svg11.dtd">
<svg version="1.1" id="Слой_1" xmlns="http://www.w3.org/2000/svg" xmlns:xlink="http://www.w3.org/1999/xlink" x="0px" y="0px"
	 width="15px" height="28px" viewBox="0 0 15 28" enable-background="new 0 0 15 28" xml:space="preserve">
<path fill="#FFFFFF" d="M14,0.1c-0.9,0-4,0.6-4,7v5c0,2,1.4,3,2,3c0,0,0,11,0,12c0,1,3,1,3,0c0-1,0-25,0-25C15,1.1,15,0.1,14,0.1z
	 M6,9.1H5V1.6H4v7.5H3V1.6H2v7.5H1V1.6H0v9.5c0,1,2,2,2,3c0,0,0,12,0,13s3,1,3,0s0-13,0-13c0-1,2-2,2-3c0-0.4,0-0.4,0-2V1.6H6V9.1z"
	/>
</svg>
