<?xml version="1.0" encoding="utf-8"?>
<!-- Generator: Adobe Illustrator 18.0.0, SVG Export Plug-In . SVG Version: 6.00 Build 0)  -->
<!DOCTYPE svg PUBLIC "-//W3C//DTD SVG 1.1//EN" "http://www.w3.org/Graphics/SVG/1.1/DTD/svg11.dtd">
<svg version="1.1" id="Слой_1" xmlns="http://www.w3.org/2000/svg" xmlns:xlink="http://www.w3.org/1999/xlink" x="0px" y="0px"
	 viewBox="0 0 14 24" enable-background="new 0 0 14 24" xml:space="preserve">
<path fill="#008CAA" d="M7,11.8c3.3,0,5.9-2.6,5.9-5.9C12.9,2.6,10.3,0,7,0C3.7,0,1.1,2.6,1.1,5.9C1.1,9.1,3.7,11.8,7,11.8z M7,3
	c1.6,0,2.9,1.3,2.9,2.9c0,1.6-1.3,2.9-2.9,2.9S4.1,7.5,4.1,5.9C4.1,4.3,5.4,3,7,3z M13.8,12.5c-0.3-0.7-1.3-1.2-2.5-0.3
	C9.7,13.5,7,13.5,7,13.5s-2.7,0-4.3-1.3c-1.2-1-2.1-0.4-2.5,0.3c-0.6,1.2,0.1,1.7,1.6,2.7c1.3,0.8,3,1.1,4.1,1.2l-0.9,0.9
	c-1.3,1.3-2.6,2.6-3.5,3.5c-0.5,0.5-0.5,1.4,0,1.9l0.2,0.2c0.5,0.5,1.4,0.5,1.9,0L7,19.4c1.3,1.3,2.6,2.6,3.5,3.5
	c0.5,0.5,1.4,0.5,1.9,0l0.2-0.2c0.5-0.5,0.5-1.4,0-1.9l-3.5-3.5l-0.9-0.9c1.1-0.1,2.8-0.4,4.1-1.2C13.7,14.2,14.4,13.7,13.8,12.5z"
	/>
</svg>
