<?xml version="1.0" encoding="utf-8"?>
<!-- Generator: Adobe Illustrator 18.0.0, SVG Export Plug-In . SVG Version: 6.00 Build 0)  -->
<!DOCTYPE svg PUBLIC "-//W3C//DTD SVG 1.1//EN" "http://www.w3.org/Graphics/SVG/1.1/DTD/svg11.dtd">
<svg version="1.1" id="Слой_1" xmlns="http://www.w3.org/2000/svg" xmlns:xlink="http://www.w3.org/1999/xlink" x="0px" y="0px"
	 viewBox="0 0 19 19" enable-background="new 0 0 19 19" xml:space="preserve">
<path fill-rule="evenodd" clip-rule="evenodd" fill="#008CAA" d="M15,0H4C1.8,0,0,1.8,0,4v10.9c0,2.2,1.8,4,4,4h5.5v-7.8H6.6V8.3
	h2.8c0,0,0-1.1,0-2.5S11,3,12.3,3h3.6c0,1.1,0,2.8,0,2.8s-0.5,0-1.4,0c-0.9,0-1.4,0.5-1.4,1.4c0,1,0,1.1,0,1.1h2.8v2.8H13v7.8h2
	c2.2,0,4-1.8,4-4V4C19,1.8,17.2,0,15,0z"/>
</svg>
