<?xml version="1.0" encoding="utf-8"?>
<!-- Generator: Adobe Illustrator 18.0.0, SVG Export Plug-In . SVG Version: 6.00 Build 0)  -->
<!DOCTYPE svg PUBLIC "-//W3C//DTD SVG 1.1//EN" "http://www.w3.org/Graphics/SVG/1.1/DTD/svg11.dtd">
<svg version="1.1" id="Слой_1" xmlns="http://www.w3.org/2000/svg" xmlns:xlink="http://www.w3.org/1999/xlink" x="0px" y="0px"
	 viewBox="0 0 23 19" enable-background="new 0 0 23 19" xml:space="preserve">
<path fill-rule="evenodd" clip-rule="evenodd" fill="#008CAA" d="M21.1,2.8l1-1v-1h-1l-1,1h-1c0,0-1.1-1.9-2.9-1.9
	c-1.8,0-4.8,0.7-4.8,6.7C8.9,6.6,2.9,3.5,1,0.9C1,4.8,1.8,6.7,3.8,7.6c-1.5,0-2.9,0-2.9,0c0.6,2.1,1.4,2.9,3.8,2.9
	c-0.5,1.2-1.5,1.9-2.9,1.9c1.2,1.4,2.8,1.9,4.8,1.9c-0.5,1-2.6,2.7-6.7,1.9C1.3,17.7,3.9,19,7.7,19c6.6,0,12-5.2,12.5-9.5
	c0.6-5.2,1-4.8,1-4.8L23,2.8H21.1z"/>
</svg>
