<?xml version="1.0" encoding="utf-8"?>
<!-- Generator: Adobe Illustrator 17.0.0, SVG Export Plug-In . SVG Version: 6.00 Build 0)  -->
<!DOCTYPE svg PUBLIC "-//W3C//DTD SVG 1.1//EN" "http://www.w3.org/Graphics/SVG/1.1/DTD/svg11.dtd">
<svg version="1.1" id="Layer_1" xmlns="http://www.w3.org/2000/svg" xmlns:xlink="http://www.w3.org/1999/xlink" x="0px" y="0px"
	 width="96px" height="34px" viewBox="0 0 96 34" enable-background="new 0 0 96 34" xml:space="preserve">
<g>
	<g>
		<path fill="#C8C8C8" d="M92,3C81,1,78.504,1,70,1S54,6,48,6S34.504,1,26,1S15,1,4,3C2.406,3.289,0,4,0,6c0,3,1,3,3,4
			c0,14.174,6,24,17,24c8.504,0,15.165-2.165,18-5c4-4,5-9.165,5-12c0-3,2-6,3-6s0.832,0,2,0s1,0,2,0s3,3,3,6c0,2.835,1,8,5,12
			c2.835,2.835,9.496,5,18,5c11,0,17-9.826,17-24c2-1,3-1,3-4C96,4,93.594,3.289,92,3z M36,27c-3,3-8,4-16,4S7,21,7,16s1-6,3-8
			c3-1,8-2,17-2c10,0,13,4,13,9S40,23,36,27z M76,31c-8,0-13-1-16-4c-4-4-4-7-4-12s3-9,13-9c9,0,14,1,17,2c2,2,3,3,3,8S84,31,76,31z
			 M35,8h-1l-4,3l-4-4h-1l2,4L15,8l-1,1l11,4l-14,4l-1,2l18-5l-7,14l1,1l7-13l2,11l1-1l-1-11l6,5l1-1l-5-5l5-1v-1h-6L35,8z"/>
	</g>
</g>
</svg>
