<?xml version="1.0" encoding="utf-8"?>
<!-- Generator: Adobe Illustrator 17.0.0, SVG Export Plug-In . SVG Version: 6.00 Build 0)  -->
<!DOCTYPE svg PUBLIC "-//W3C//DTD SVG 1.1//EN" "http://www.w3.org/Graphics/SVG/1.1/DTD/svg11.dtd">
<svg version="1.1" id="Layer_1" xmlns="http://www.w3.org/2000/svg" xmlns:xlink="http://www.w3.org/1999/xlink" x="0px" y="0px"
	 width="24px" height="18px" viewBox="0 0 24 18" enable-background="new 0 0 24 18" xml:space="preserve">
<g id="flamp-photo-upload">
	<path fill-rule="evenodd" clip-rule="evenodd" fill="#C8BEC8" d="M22,18H2c-1.105,0-2-0.896-2-2V5c0-1.104,0.895-2,2-2h3l1-1
		c0-1.104,0.895-2,2-2h8c1.104,0,2,0.896,2,2l1,1h3c1.105,0,2,0.896,2,2v11C24,17.104,23.105,18,22,18z M12,4c-3.314,0-6,2.687-6,6
		c0,3.314,2.686,6,6,6c3.314,0,6-2.686,6-6C18,6.687,15.314,4,12,4z M12,14c-2.209,0-4-1.791-4-4c0-2.21,1.791-4,4-4
		c2.21,0,4,1.79,4,4C16,12.209,14.21,14,12,14z"/>
	<g opacity="0.1">
		<path d="M16,1c0.552,0,1,0.449,1,1v0.414l0.293,0.293l1,1L18.586,4H19h3c0.552,0,1,0.449,1,1v11c0,0.551-0.448,1-1,1H2
			c-0.552,0-1-0.449-1-1V5c0-0.551,0.448-1,1-1h3h0.414l0.293-0.293l1-1L7,2.414V2c0-0.551,0.448-1,1-1H16 M12,17
			c3.859,0,7-3.14,7-7c0-3.86-3.141-7-7-7c-3.859,0-7,3.14-7,7C5,13.86,8.141,17,12,17 M12,7c1.654,0,3,1.346,3,3s-1.346,3-3,3
			c-1.654,0-3-1.346-3-3S10.346,7,12,7 M16,0H8C6.895,0,6,0.896,6,2L5,3H2C0.895,3,0,3.896,0,5v11c0,1.104,0.895,2,2,2h20
			c1.105,0,2-0.896,2-2V5c0-1.104-0.895-2-2-2h-3l-1-1C18,0.896,17.104,0,16,0L16,0z M12,16c-3.314,0-6-2.686-6-6
			c0-3.313,2.686-6,6-6c3.314,0,6,2.687,6,6C18,13.314,15.314,16,12,16L12,16z M12,6c-2.209,0-4,1.79-4,4c0,2.209,1.791,4,4,4
			c2.21,0,4-1.791,4-4C16,7.79,14.21,6,12,6L12,6z"/>
	</g>
</g>
<g opacity="0.1">
	<path d="M24,15v1c0,1.104-0.895,2-2,2H2c-1.105,0-2-0.896-2-2v-1c0,1.104,0.895,2,2,2h20C23.105,17,24,16.104,24,15z M12,14
		c2.21,0,4-1.791,4-4c0-0.172-0.029-0.335-0.05-0.5C15.701,11.471,14.038,13,12,13c-2.038,0-3.701-1.529-3.949-3.5
		C8.03,9.665,8,9.828,8,10C8,12.209,9.791,14,12,14z M12,3C8.686,3,6,5.687,6,9c0,0.169,0.012,0.335,0.025,0.5
		C6.28,6.421,8.855,4,12,4c3.145,0,5.721,2.421,5.976,5.5C17.989,9.335,18,9.169,18,9C18,5.687,15.314,3,12,3z"/>
</g>
</svg>
