<?xml version="1.0" encoding="utf-8"?>
<!-- Generator: Adobe Illustrator 17.0.0, SVG Export Plug-In . SVG Version: 6.00 Build 0)  -->
<!DOCTYPE svg PUBLIC "-//W3C//DTD SVG 1.1//EN" "http://www.w3.org/Graphics/SVG/1.1/DTD/svg11.dtd">
<svg version="1.1" id="Layer_1" xmlns="http://www.w3.org/2000/svg" xmlns:xlink="http://www.w3.org/1999/xlink" x="0px" y="0px"
	 width="13px" height="12px" viewBox="0 0 13 12" enable-background="new 0 0 13 12" xml:space="preserve">
<path fill="#F15D5C" d="M9,4v1C7.071,5,6,2.888,6,2S5.37,0,4.5,0C3.631,0,3,1.02,3,2s0.216,2.111,0.5,3
	C2.575,5,0.498,5.303,0.498,6.968s0.345,2.027,1.011,2.027c-0.665,0-0.493,0.536-0.493,1.461C1.016,11.381,1.964,12,3,12h4
	c0.666,0,1.543-0.557,2-1v1h4V4H9z M9,9.484c-0.457,0.443-1.334,1.125-2,1.125c-0.108,0-1.407,0.016-3,0.016
	c-0.437,0-1.704,0.141-1.704-0.625c0-0.381,0.096-1,0.704-1C2.204,9,2,8.234,2,7.5C2,6.423,3,6,4.992,6C4.386,5.284,4,2.98,4,2
	c0-0.613,0.184-1,0.5-1C4.728,1,5,1.499,5,2c0,1.437,1.271,4.391,4,4.391V9.484z"/>
</svg>
