<?xml version="1.0" encoding="utf-8"?>
<!-- Generator: Adobe Illustrator 17.0.0, SVG Export Plug-In . SVG Version: 6.00 Build 0)  -->
<!DOCTYPE svg PUBLIC "-//W3C//DTD SVG 1.1//EN" "http://www.w3.org/Graphics/SVG/1.1/DTD/svg11.dtd">
<svg version="1.1" id="Layer_1" xmlns="http://www.w3.org/2000/svg" xmlns:xlink="http://www.w3.org/1999/xlink" x="0px" y="0px"
	 width="13px" height="16px" viewBox="0 0 13 16" enable-background="new 0 0 13 16" xml:space="preserve">
<g>
	<path fill-rule="evenodd" clip-rule="evenodd" fill="#C8BEC8" d="M0,7c1.638-0.91,3-4,3-4s1-2,1-3c2,0,2,1,2,3C5,5,6,5,6,5
		s4.148,0,5,0l1,1v1.399h-1V8h1l1,1v1.399h-2V11h1l1,1v1.399h-2V14h1v1l-1,1H3l-3-1V7z"/>
	<g opacity="0.1">
		<path d="M4.808,1.151C4.986,1.344,4.999,1.78,5,2.771C4.644,3.528,4.313,4.533,4.796,5.315C5.108,5.82,5.623,6,6,6h4.586
			l0.399,0.399H10v1V8v1h1h0.586l0.399,0.399H11h-1v1V11v1h1h0.586l0.399,0.399H11h-1v1V14v1h0.586H3.162L1,14.279V7.531
			c1.613-1.253,2.774-3.809,2.894-4.084C4.025,3.185,4.527,2.15,4.808,1.151 M4,0c0,1-1,3-1,3S1.638,6.09,0,7v8l3,1h8l1-1v-1h-1
			v-0.601h2V12l-1-1h-1v-0.601h2V9l-1-1h-1V7.399h1V6l-1-1c-0.852,0-5,0-5,0S5,5,6,3C6,1,6,0,4,0L4,0z"/>
	</g>
</g>
<g opacity="0.1">
	<path d="M3,16l-3-1v1l3,1h8l1-1v-1l-1,1H3z M6,4c0-0.357-0.004-0.671-0.016-0.964C5.453,4.113,5.512,4.593,5.672,4.811
		C5.741,4.583,5.837,4.326,6,4z M12,7.399h-1V8h1V7.399z M11,10.399V11h1l0.399,0.399H13v-1H11z M11,14h1v0.399h1v-1h-2V14z"/>
</g>
</svg>
