<?xml version="1.0" encoding="utf-8"?>
<!-- Generator: Adobe Illustrator 17.0.0, SVG Export Plug-In . SVG Version: 6.00 Build 0)  -->
<!DOCTYPE svg PUBLIC "-//W3C//DTD SVG 1.1//EN" "http://www.w3.org/Graphics/SVG/1.1/DTD/svg11.dtd">
<svg version="1.1" id="Layer_1" xmlns="http://www.w3.org/2000/svg" xmlns:xlink="http://www.w3.org/1999/xlink" x="0px" y="0px"
	 width="16px" height="16px" viewBox="0 0 16 16" enable-background="new 0 0 16 16" xml:space="preserve">
<g>
	<g opacity="0.1">
		<circle cx="8" cy="8.899" r="6.392"/>
	</g>
	<circle fill="#F05F5F" cx="8" cy="8.101" r="6.392"/>
</g>
<path fill="#FFFFFF" d="M8,2c3.309,0,6,2.691,6,6c0,3.309-2.691,6-6,6c-3.309,0-6-2.691-6-6C2,4.691,4.691,2,8,2 M8,0
	C3.582,0,0,3.582,0,8c0,4.418,3.582,8,8,8s8-3.582,8-8C16,3.582,12.418,0,8,0L8,0z"/>
<polygon fill="#FFFFFF" points="5,10 5,11 6,11 8,9 10,11 11,11 11,10 9,8 11,6 11,5 10,5 8,7 6,5 5,5 5,6 7,8 "/>
</svg>
