<?xml version="1.0" encoding="utf-8"?>
<!-- Generator: Adobe Illustrator 17.0.0, SVG Export Plug-In . SVG Version: 6.00 Build 0)  -->
<!DOCTYPE svg PUBLIC "-//W3C//DTD SVG 1.1//EN" "http://www.w3.org/Graphics/SVG/1.1/DTD/svg11.dtd">
<svg version="1.1" id="Layer_1" xmlns="http://www.w3.org/2000/svg" xmlns:xlink="http://www.w3.org/1999/xlink" x="0px" y="0px"
	 width="16px" height="13px" viewBox="0 0 16 13" enable-background="new 0 0 16 13" xml:space="preserve">
<path fill-rule="evenodd" clip-rule="evenodd" fill="#D4AD47" d="M14,2h-2c0-1.104-0.896-2-2-2H6C4.896,0,4,0.896,4,2H2
	C0.896,2,0,2.896,0,4v7c0,1.104,0.896,2,2,2h12c1.104,0,2-0.896,2-2V4C16,2.896,15.104,2,14,2z M8,11c-2.209,0-4-1.791-4-4
	s1.791-4,4-4c2.209,0,4,1.791,4,4S10.209,11,8,11z M8,4C7.695,4,7.407,4.059,7.13,4.143C7.643,4.382,8,4.897,8,5.5
	C8,6.328,7.329,7,6.5,7C5.898,7,5.382,6.643,5.143,6.13C5.059,6.407,5,6.695,5,7c0,1.657,1.343,3,3,3c1.657,0,3-1.343,3-3
	C11,5.343,9.657,4,8,4z"/>
</svg>
