<?xml version="1.0" encoding="utf-8"?>
<!-- Generator: Adobe Illustrator 17.1.0, SVG Export Plug-In . SVG Version: 6.00 Build 0)  -->
<!DOCTYPE svg PUBLIC "-//W3C//DTD SVG 1.1//EN" "http://www.w3.org/Graphics/SVG/1.1/DTD/svg11.dtd">
<svg version="1.1" id="Layer_1" xmlns="http://www.w3.org/2000/svg" xmlns:xlink="http://www.w3.org/1999/xlink" x="0px" y="0px"
	 width="18px" height="18px" viewBox="0 0 18 18" style="enable-background:new 0 0 18 18;" xml:space="preserve">
<path style="fill:#424242;" d="M17.1,8H16c-0.4-3.1-2.9-5.5-5.9-5.9V1c0-0.6-0.4-1-1-1C8.5,0,8,0.4,8,1v1.1C5,2.5,2.5,4.9,2.1,8H1
	C0.4,8,0,8.4,0,9c0,0.6,0.4,1,1,1h1.1C2.5,13.1,5,15.5,8,15.9V17c0,0.6,0.4,1,1,1c0.6,0,1-0.4,1-1v-1.1c3.1-0.4,5.5-2.9,5.9-5.9h1.1
	c0.6,0,1-0.4,1-1C18.1,8.4,17.6,8,17.1,8z M9,14c-2.8,0-5-2.2-5-5c0-2.8,2.2-5,5-5c2.8,0,5,2.2,5,5C14.1,11.8,11.8,14,9,14z M9,6
	C7.4,6,6,7.3,6,9c0,1.7,1.3,3,3,3c1.7,0,3-1.3,3-3C12.1,7.3,10.7,6,9,6z"/>
</svg>
