<?xml version="1.0" encoding="utf-8"?>
<!-- Generator: Adobe Illustrator 17.1.0, SVG Export Plug-In . SVG Version: 6.00 Build 0)  -->
<!DOCTYPE svg PUBLIC "-//W3C//DTD SVG 1.1//EN" "http://www.w3.org/Graphics/SVG/1.1/DTD/svg11.dtd">
<svg version="1.1" id="Layer_1" xmlns="http://www.w3.org/2000/svg" xmlns:xlink="http://www.w3.org/1999/xlink" x="0px" y="0px"
	 width="18px" height="18px" viewBox="0 0 18 18" style="enable-background:new 0 0 18 18;" xml:space="preserve">
<path style="fill:#ACACAC;" d="M17,8h-1.1C15.5,4.9,13,2.5,10,2.1V1c0-0.6-0.4-1-1-1C8.4,0,8,0.4,8,1v1.1C4.9,2.5,2.5,4.9,2,8H0.9
	c-0.6,0-1,0.4-1,1c0,0.6,0.4,1,1,1H2c0.4,3.1,2.9,5.5,5.9,5.9V17c0,0.6,0.4,1,1,1c0.6,0,1-0.4,1-1v-1.1c3.1-0.4,5.5-2.9,5.9-5.9H17
	c0.6,0,1-0.4,1-1C18,8.4,17.6,8,17,8z M9,14c-2.8,0-5-2.2-5-5c0-2.8,2.2-5,5-5c2.8,0,5,2.2,5,5C14,11.8,11.7,14,9,14z M9,6
	c-1.7,0-3,1.3-3,3c0,1.7,1.3,3,3,3c1.7,0,3-1.3,3-3C12,7.3,10.6,6,9,6z"/>
</svg>
