<?xml version="1.0" encoding="utf-8"?>
<!-- Generator: Adobe Illustrator 17.1.0, SVG Export Plug-In . SVG Version: 6.00 Build 0)  -->
<!DOCTYPE svg PUBLIC "-//W3C//DTD SVG 1.1//EN" "http://www.w3.org/Graphics/SVG/1.1/DTD/svg11.dtd">
<svg version="1.1" id="Layer_1" xmlns="http://www.w3.org/2000/svg" xmlns:xlink="http://www.w3.org/1999/xlink" x="0px" y="0px"
	 width="22px" height="22px" viewBox="0 0 22 22" style="enable-background:new 0 0 22 22;" xml:space="preserve">
<path style="fill:#1DAAD6;" d="M11,0C4.9,0,0,4.9,0,11s4.9,11,11,11s11-4.9,11-11S17.1,0,11,0z M11,20c-4.9,0-9-4.1-9-9s4.1-9,9-9
	c3.1,0,5.7,1.5,7.4,3.8l-1.7,1.1C15.4,5.2,13.3,4,11,4c-3.8,0-7,3.2-7,7s3.2,7,7,7s7-3.1,7-7c0-0.7-0.1-1.4-0.3-2.1l1.9-0.6
	C19.9,9.2,20,10.1,20,11C20,15.9,15.9,20,11,20z M11.4,10.1C11.3,10.1,11.1,10,11,10c-0.6,0-1,0.4-1,1s0.4,1,1,1s1-0.4,1-1
	c0-0.1,0-0.1-0.1-0.2l3.8-1.2C15.9,10,16,10.5,16,11c0,2.8-2.2,5-5,5s-5-2.2-5-5s2.2-5,5-5c1.6,0,3,0.8,3.9,1.9L11.4,10.1z"/>
</svg>
