<?xml version="1.0" encoding="utf-8"?>
<!-- Generator: Adobe Illustrator 18.1.0, SVG Export Plug-In . SVG Version: 6.00 Build 0)  -->
<!DOCTYPE svg PUBLIC "-//W3C//DTD SVG 1.1//EN" "http://www.w3.org/Graphics/SVG/1.1/DTD/svg11.dtd">
<svg version="1.1" id="Layer_1" xmlns="http://www.w3.org/2000/svg" xmlns:xlink="http://www.w3.org/1999/xlink" x="0px" y="0px"
	 width="16px" height="16px" viewBox="0 0 16 16" style="enable-background:new 0 0 16 16;" xml:space="preserve">
<g>
	<g>
		<path style="fill-rule:evenodd;clip-rule:evenodd;fill:#FFFFFF;" d="M7,13.3L5,12l-1,1l4,3l4-3l-1-1l-2,1.3V9H7V13.3z M12.5,2
			c-0.4,0-0.8,0.1-1.1,0.2C10.6,0.9,9.1,0,7.5,0C5.2,0,3.3,1.8,3,4.1C2.9,4,2.7,4,2.5,4C1.1,4,0,5.1,0,6.5c0,1.2,0.9,2.2,2,2.4V9h5
			V5h2v4h4V8.9c1.7-0.2,3-1.7,3-3.4C16,3.6,14.4,2,12.5,2z"/>
	</g>
</g>
</svg>
