<?xml version="1.0" encoding="utf-8"?>
<!-- Generator: Adobe Illustrator 17.1.0, SVG Export Plug-In . SVG Version: 6.00 Build 0)  -->
<!DOCTYPE svg PUBLIC "-//W3C//DTD SVG 1.1//EN" "http://www.w3.org/Graphics/SVG/1.1/DTD/svg11.dtd">
<svg version="1.1" id="Layer_1" xmlns="http://www.w3.org/2000/svg" xmlns:xlink="http://www.w3.org/1999/xlink" x="0px" y="0px"
	 width="16px" height="16px" viewBox="0 0 16 16" style="enable-background:new 0 0 16 16;" xml:space="preserve">
<path style="fill:#FFFFFF;" d="M4,7c0,1,1,2,2,3c1,1,1,1,2,1c1,0,1,0,2-1c1-1,2-2,2-3c0.5,0,0.5-2,0.5-2s0-1-0.5-1c0-2-0.5-4-2.5-4
	h-3C4.5,0,4,2,4,4C3.5,4,3.5,5,3.5,5S3.6,7,4,7z"/>
<path style="fill:#FFFFFF;" d="M11.8,9.6c-0.3,0.4-0.7,0.8-1.1,1.2C9.6,11.9,9.3,12,8,12s-1.6-0.2-2.7-1.3C4.9,10.3,4.5,10,4.2,9.6
	C1.8,10.3,0,11.6,0,13c0,2,4,3,8,3c4,0,8-1,8-3C16,11.6,14.2,10.3,11.8,9.6z"/>
</svg>
