<?xml version="1.0" encoding="utf-8"?>
<!-- Generator: Adobe Illustrator 18.1.1, SVG Export Plug-In . SVG Version: 6.00 Build 0)  -->
<!DOCTYPE svg PUBLIC "-//W3C//DTD SVG 1.1//EN" "http://www.w3.org/Graphics/SVG/1.1/DTD/svg11.dtd">
<svg version="1.1" id="Layer_1" xmlns="http://www.w3.org/2000/svg" xmlns:xlink="http://www.w3.org/1999/xlink" x="0px" y="0px"
	 width="18px" height="16px" viewBox="0 0 18 16" style="enable-background:new 0 0 18 16;" xml:space="preserve">
<path style="fill:#FFFFFF;" d="M13,8c2.8,0,5-2.2,5-5c0-1.1-0.9-2-2-2h-2V0H4v1H2C0.9,1,0,1.9,0,3c0,2.8,2.2,5,5,5
	C5.7,9,6.8,9.7,8,9.9c0,0.5,0,1,0,1.2C8.1,13.1,7,14,7,14H6c-0.9,0-2,1.1-2,2h10c0-0.9-1.1-2-2-2h-1c0,0-1.1-0.9-1.1-2.8
	c0-0.3,0-0.8,0-1.3C11.2,9.7,12.3,9,13,8z M16,3v0.9C16,5.1,15.1,6,13.9,6h0C14,5.7,14,5.4,14,5V3H16z M4.1,6C2.9,6,2,5.1,2,3.9V3h2
	v2C4,5.4,4,5.7,4.1,6L4.1,6z"/>
</svg>
