<?xml version="1.0" encoding="utf-8"?>
<!-- Generator: Adobe Illustrator 17.1.0, SVG Export Plug-In . SVG Version: 6.00 Build 0)  -->
<!DOCTYPE svg PUBLIC "-//W3C//DTD SVG 1.1//EN" "http://www.w3.org/Graphics/SVG/1.1/DTD/svg11.dtd">
<svg version="1.1" id="Layer_1" xmlns="http://www.w3.org/2000/svg" xmlns:xlink="http://www.w3.org/1999/xlink" x="0px" y="0px"
	 width="16px" height="16px" viewBox="0 0 16 16" style="enable-background:new 0 0 16 16;" xml:space="preserve">
<path style="fill:#FFFFFF;" d="M13.5,15.8c0.2-0.1,0.4-0.2,0.5-0.2c0.1,0,0.1,0,0.2-0.1c0.2-0.1,0.4-0.3,0.6-0.5
	c1-1,1.2-2.3,0.8-3.5l-4.4-2.2c-0.5,0.2-1,0.4-1.3,0.8c-0.2,0.2-0.3,0.4-0.5,0.6c0,0,0,0,0,0c-0.1,0.2-0.2,0.4-0.3,0.7v0
	c-0.2-0.1-0.3-0.2-0.5-0.2c-0.1-0.1-0.2-0.1-0.4-0.2c-0.1-0.1-0.3-0.2-0.4-0.2c-0.2-0.1-0.3-0.2-0.5-0.3c-0.1-0.1-0.2-0.1-0.3-0.2
	C6.9,10,6.6,9.8,6.4,9.6C6.2,9.4,6,9.1,5.8,8.9C5.6,8.7,5.5,8.6,5.4,8.4C5.3,8.4,5.3,8.3,5.2,8.2C5.1,8,5,7.8,4.8,7.6c0,0,0,0,0,0
	C4.6,7.4,4.5,7.2,4.4,7l0,0C4.6,6.9,4.8,6.8,5,6.7c0.1,0,0.1-0.1,0.2-0.1c0.1,0,0.1-0.1,0.2-0.1c0.2-0.1,0.3-0.2,0.5-0.4
	c0.4-0.4,0.7-0.9,0.8-1.4c-0.4-0.9-1.5-3-2.2-4.4C3.4,0,2,0.2,1,1.2C0.8,1.4,0.7,1.6,0.5,1.8c0,0.1-0.1,0.1-0.1,0.2
	C0.3,2.2,0.3,2.3,0.2,2.5c0,0.1,0,0.1,0,0.2C0.1,2.9,0.1,3.1,0,3.3c0,0,0,0.1,0,0.1c0,0.2,0,0.5,0,0.7v0c0,0,0,0,0,0
	c0,2,2,5.9,4,7.9c2,2,5.9,4,8,4c0,0,0,0,0,0h0c0.2,0,0.5,0,0.7,0c0,0,0,0,0.1,0c0.2,0,0.4-0.1,0.6-0.1
	C13.4,15.8,13.5,15.8,13.5,15.8z"/>
</svg>
