<?xml version="1.0" encoding="utf-8"?>
<!-- Generator: Adobe Illustrator 17.1.0, SVG Export Plug-In . SVG Version: 6.00 Build 0)  -->
<!DOCTYPE svg PUBLIC "-//W3C//DTD SVG 1.1//EN" "http://www.w3.org/Graphics/SVG/1.1/DTD/svg11.dtd">
<svg version="1.1" id="Layer_1" xmlns="http://www.w3.org/2000/svg" xmlns:xlink="http://www.w3.org/1999/xlink" x="0px" y="0px"
	 width="16px" height="16px" viewBox="0 0 16 16" style="enable-background:new 0 0 16 16;" xml:space="preserve">
<polygon style="fill:#FFFFFF;" points="0,12 0,16 6,16 6,12 3,9 "/>
<polygon style="fill:#FFFFFF;" points="12,6 11,5 11,4 10,3 9,3 9,0 8,0 8,3 7,3 6,4 6,5 5,6 5,9.5 7,11.5 7,16 13,16 13,15 12,14 
	"/>
<polygon style="fill:#FFFFFF;" points="13,8 13,13.5 14,14.5 14,16 16,16 16,8 "/>
</svg>
