<?xml version="1.0" encoding="utf-8"?>
<!-- Generator: Adobe Illustrator 17.1.0, SVG Export Plug-In . SVG Version: 6.00 Build 0)  -->
<!DOCTYPE svg PUBLIC "-//W3C//DTD SVG 1.1//EN" "http://www.w3.org/Graphics/SVG/1.1/DTD/svg11.dtd">
<svg version="1.1" id="Layer_1" xmlns="http://www.w3.org/2000/svg" xmlns:xlink="http://www.w3.org/1999/xlink" x="0px" y="0px"
	 width="18px" height="18px" viewBox="0 0 18 18" style="enable-background:new 0 0 18 18;" xml:space="preserve">
<path style="fill:#FFFFFF;" d="M8,14c4-3.4,6.5-5.6,6.5-7.8c0-0.8-0.6-2-2-2c-1.1,0-2.2,0.8-2,3.8h-2c-0.6-4,1-5.8,4.2-5.8
	c1.3,0,2.3,0.3,3,0.9C14.1,1.3,11.7,0,9,0C4,0,0,4,0,9c0,5,4,9,9,9c2.1,0,4.1-1,5.7-2H8V14z"/>
<path style="fill:#FFFFFF;" d="M16.5,4C16.8,4.6,17,5.3,17,6c0,3.2-3.1,6-5,8h4.5c1-1,1.5-3.2,1.5-5C18,7.2,17.5,5.4,16.5,4z"/>
</svg>
