<?xml version="1.0" encoding="utf-8"?>
<!-- Generator: Adobe Illustrator 17.1.0, SVG Export Plug-In . SVG Version: 6.00 Build 0)  -->
<!DOCTYPE svg PUBLIC "-//W3C//DTD SVG 1.1//EN" "http://www.w3.org/Graphics/SVG/1.1/DTD/svg11.dtd">
<svg version="1.1" id="Layer_1" xmlns="http://www.w3.org/2000/svg" xmlns:xlink="http://www.w3.org/1999/xlink" x="0px" y="0px"
	 width="16px" height="14px" viewBox="0 0 16 14" style="enable-background:new 0 0 16 14;" xml:space="preserve">
<path style="fill:#FFFFFF;" d="M11.7,0C10.3,0,9,0.7,8,2C7,0.7,5.7,0,4.3,0C2.2,0,0,1.7,0,4.9c0,3.3,2.6,4.5,4.6,6.2
	c0.7,0.6,1.3,1.1,1.7,1.5c0.7,0.6,1,0.9,1.4,1.3C7.8,14,7.9,14,8,14c0.1,0,0.2,0,0.3-0.1c0.5-0.5,0.9-0.9,2.1-1.9l1-0.8
	C13,9.8,16,8.4,16,4.9C16,1.7,13.8,0,11.7,0z"/>
</svg>
