<?xml version="1.0" encoding="utf-8"?>
<!-- Generator: Adobe Illustrator 17.1.0, SVG Export Plug-In . SVG Version: 6.00 Build 0)  -->
<!DOCTYPE svg PUBLIC "-//W3C//DTD SVG 1.1//EN" "http://www.w3.org/Graphics/SVG/1.1/DTD/svg11.dtd">
<svg version="1.1" id="Layer_1" xmlns="http://www.w3.org/2000/svg" xmlns:xlink="http://www.w3.org/1999/xlink" x="0px" y="0px"
	 width="16px" height="16px" viewBox="0 0 16 16" style="enable-background:new 0 0 16 16;" xml:space="preserve">
<path style="fill:#FFFFFF;" d="M13,10c-0.8,0-1.5,0.3-2.1,0.8L6,8.4C6,8.2,6,8.1,6,8c0-0.1,0-0.2,0-0.4l5-2.5C11.5,5.7,12.2,6,13,6
	c1.7,0,3-1.3,3-3c0-1.7-1.3-3-3-3c-1.7,0-3,1.3-3,3c0,0.1,0,0.2,0,0.4l-5,2.5C4.5,5.3,3.8,5,3,5C1.3,5,0,6.3,0,8s1.3,3,3,3
	c0.8,0,1.5-0.3,2.1-0.8l5,2.5c0,0.1,0,0.2,0,0.4c0,1.7,1.3,3,3,3c1.7,0,3-1.3,3-3S14.7,10,13,10z"/>
</svg>
