<?xml version="1.0" encoding="utf-8"?>
<!-- Generator: Adobe Illustrator 17.1.0, SVG Export Plug-In . SVG Version: 6.00 Build 0)  -->
<!DOCTYPE svg PUBLIC "-//W3C//DTD SVG 1.1//EN" "http://www.w3.org/Graphics/SVG/1.1/DTD/svg11.dtd">
<svg version="1.1" id="Layer_1" xmlns="http://www.w3.org/2000/svg" xmlns:xlink="http://www.w3.org/1999/xlink" x="0px" y="0px"
	 width="15px" height="13px" viewBox="0 0 15 13" style="enable-background:new 0 0 15 13;" xml:space="preserve">
<path style="fill:#FFFFFF;" d="M15,1c0-0.6-0.4-1-1-1H1C0.4,0,0,0.4,0,1v1c0,0.6,0.4,1,1,1h13c0.6,0,1-0.4,1-1V1z"/>
<path style="fill:#FFFFFF;" d="M15,11c0-0.6-0.4-1-1-1H1c-0.6,0-1,0.4-1,1v1c0,0.6,0.4,1,1,1h13c0.6,0,1-0.4,1-1V11z"/>
<path style="fill:#FFFFFF;" d="M15,6c0-0.6-0.4-1-1-1H1C0.4,5,0,5.4,0,6v1c0,0.6,0.4,1,1,1h13c0.6,0,1-0.4,1-1V6z"/>
</svg>
