<?xml version="1.0" encoding="utf-8"?>
<!-- Generator: Adobe Illustrator 17.1.0, SVG Export Plug-In . SVG Version: 6.00 Build 0)  -->
<!DOCTYPE svg PUBLIC "-//W3C//DTD SVG 1.1//EN" "http://www.w3.org/Graphics/SVG/1.1/DTD/svg11.dtd">
<svg version="1.1" id="Layer_1" xmlns="http://www.w3.org/2000/svg" xmlns:xlink="http://www.w3.org/1999/xlink" x="0px" y="0px"
	 width="20px" height="14px" viewBox="0 0 20 14" style="enable-background:new 0 0 20 14;" xml:space="preserve">
<path style="fill-rule:evenodd;clip-rule:evenodd;fill:#FFFFFF;" d="M15,4C15,4,14.9,4,15,4c-0.6-2.3-2.6-4-5-4C7.2,0,5,2.2,5,5
	c0,0.4,0.1,0.8,0.2,1.2C4.8,6.1,4.4,6,4,6c-2.2,0-4,1.8-4,4c0,2.2,1.8,4,4,4h5.8L6,9h3V5h3v4h3l-3.7,5H15c2.8,0,5-2.2,5-5
	S17.8,4,15,4z"/>
</svg>
