<?xml version="1.0" encoding="utf-8"?>
<!-- Generator: Adobe Illustrator 18.0.0, SVG Export Plug-In . SVG Version: 6.00 Build 0)  -->
<!DOCTYPE svg PUBLIC "-//W3C//DTD SVG 1.1//EN" "http://www.w3.org/Graphics/SVG/1.1/DTD/svg11.dtd">
<svg version="1.1" id="Layer_1" xmlns="http://www.w3.org/2000/svg" xmlns:xlink="http://www.w3.org/1999/xlink" x="0px" y="0px"
	 width="20px" height="20px" viewBox="0 0 20 20" enable-background="new 0 0 20 20" xml:space="preserve">
<g>
	<g>
		<path fill-rule="evenodd" clip-rule="evenodd" fill="#FFFFFF" d="M10,2c-4.418,0-8,3.582-8,8s3.582,8,8,8s8-3.582,8-8
			S14.418,2,10,2z M15,11.5c-0.309,2.74-2.306,3.205-4,3.45V15h-1l-1-0.05c-1.694-0.245-3.691-0.709-4-3.45C5,10.744,5,10,5,10h3
			l-1.865,2.297C7.086,13.977,8.123,13.771,9,13.95V7.723C8.405,7.376,8,6.738,8,6c0-1.104,0.896-2,2-2s2,0.896,2,2
			c0,0.738-0.405,1.376-1,1.723v6.227c0.877-0.178,1.914,0.027,2.865-1.652L12,10h3l-0.042,0.084C14.978,10.221,15,11.357,15,11.5z
			 M11,6c0-0.552-0.447-1-1-1H9v1c0,0.552,0.447,1,1,1h1V6z"/>
	</g>
</g>
</svg>
