<?xml version="1.0" encoding="utf-8"?>
<!-- Generator: Adobe Illustrator 18.0.0, SVG Export Plug-In . SVG Version: 6.00 Build 0)  -->
<!DOCTYPE svg PUBLIC "-//W3C//DTD SVG 1.1//EN" "http://www.w3.org/Graphics/SVG/1.1/DTD/svg11.dtd">
<svg version="1.1" id="Layer_1" xmlns="http://www.w3.org/2000/svg" xmlns:xlink="http://www.w3.org/1999/xlink" x="0px" y="0px"
	 width="20px" height="20px" viewBox="0 0 20 20" enable-background="new 0 0 20 20" xml:space="preserve">
<g>
	<g>
		<path fill-rule="evenodd" clip-rule="evenodd" fill="#FFFFFF" d="M8,13h1v-1H8V13z M11,6H9C8.305,6,8,6.308,8,7v2
			c0,0.392,0.835,2,2,2c1.165,0,2-1.641,2-2V7C12,6.259,11.732,6,11,6z M10,2c-4.418,0-8,3.582-8,8s3.582,8,8,8s8-3.582,8-8
			S14.418,2,10,2z M15,16h-1l-1.959-1.959C11.425,14.595,10.719,15,10,15c-0.72,0-1.427-0.404-2.044-0.956L6,16H5v-1l2.004-2.004
			C6.391,12.178,6,11.345,6,11V7c0-0.87,0.609-2,2-2l1-1h2l1,1c1.332,0,2,1.338,2,2v4c0,0.337-0.392,1.172-1.007,1.993L15,15V16z
			 M11,13h1v-1h-1V13z"/>
	</g>
</g>
</svg>
