<?xml version="1.0" encoding="utf-8"?>
<!-- Generator: Adobe Illustrator 18.0.0, SVG Export Plug-In . SVG Version: 6.00 Build 0)  -->
<!DOCTYPE svg PUBLIC "-//W3C//DTD SVG 1.1//EN" "http://www.w3.org/Graphics/SVG/1.1/DTD/svg11.dtd">
<svg version="1.1" id="Layer_1" xmlns="http://www.w3.org/2000/svg" xmlns:xlink="http://www.w3.org/1999/xlink" x="0px" y="0px"
	 width="20px" height="20px" viewBox="0 0 20 20" enable-background="new 0 0 20 20" xml:space="preserve">
<g>
	<g>
		<path fill-rule="evenodd" clip-rule="evenodd" fill="#FFFFFF" d="M11,12h2v-1h-1L11,12z M10,7.004C8.663,7.025,7.014,7.177,7,8.2
			L7.625,10h4.75L13,8.2C12.986,7.177,11.337,7.025,10,7.004z M7,11v1h2l-1-1H7z M10,2c-4.418,0-8,3.582-8,8s3.582,8,8,8
			s8-3.582,8-8S14.418,2,10,2z M8,16l1-2h2l1,2H8z M14,12c0,0.812-0.485,1.507-1.18,1.82L11,13H9l-1.82,0.82
			C6.485,13.507,6,12.812,6,12V8c-0.036-2.675,2.323-2.964,4-2.996C11.677,5.036,14.036,5.325,14,8V12z"/>
	</g>
</g>
</svg>
