<?xml version="1.0" encoding="utf-8"?>
<!-- Generator: Adobe Illustrator 18.0.0, SVG Export Plug-In . SVG Version: 6.00 Build 0)  -->
<!DOCTYPE svg PUBLIC "-//W3C//DTD SVG 1.1//EN" "http://www.w3.org/Graphics/SVG/1.1/DTD/svg11.dtd">
<svg version="1.1" id="Layer_1" xmlns="http://www.w3.org/2000/svg" xmlns:xlink="http://www.w3.org/1999/xlink" x="0px" y="0px"
	 width="20px" height="20px" viewBox="0 0 20 20" enable-background="new 0 0 20 20" xml:space="preserve">
<g>
	<g>
		<path fill-rule="evenodd" clip-rule="evenodd" fill="#FFFFFF" d="M7,10v1h2l-1-1H7z M10,2c-4.418,0-8,3.582-8,8s3.582,8,8,8
			s8-3.582,8-8S14.418,2,10,2z M13.999,15v1h-1l-1.5-1.5l-1.5,0.5L8.5,14.5L7,16H6v-1h1v-1l-1-1c0,0,0-4.999,0-5.999s1-2,2-2V5
			c0-1.105,0.895-2,1.999-2c1.104,0,2,0.895,2,2v0c1,0,2,1,2,2C13.999,9,14,10,14,13l-1.001,1v1H13.999z M10.999,4H9v1.5h1.999V4z
			 M12.999,8l-1-1H8L7,8v1h5.999V8z M12.999,10h-1l-1,1h2V10z"/>
	</g>
</g>
</svg>
