<?xml version="1.0" encoding="utf-8"?>
<!-- Generator: Adobe Illustrator 18.0.0, SVG Export Plug-In . SVG Version: 6.00 Build 0)  -->
<!DOCTYPE svg PUBLIC "-//W3C//DTD SVG 1.1//EN" "http://www.w3.org/Graphics/SVG/1.1/DTD/svg11.dtd">
<svg version="1.1" id="Layer_1" xmlns="http://www.w3.org/2000/svg" xmlns:xlink="http://www.w3.org/1999/xlink" x="0px" y="0px"
	 width="20px" height="20px" viewBox="0 0 20 20" enable-background="new 0 0 20 20" xml:space="preserve">
<g>
	<g>
		<path fill-rule="evenodd" clip-rule="evenodd" fill="#FFFFFF" d="M14,10c0-0.552-0.447-1-1-1h-1v3h2V10z M6,10v2h2V9H7
			C6.447,9,6,9.448,6,10z M9,12h2V9H9V12z M10,2c-4.418,0-8,3.582-8,8s3.582,8,8,8s8-3.582,8-8S14.418,2,10,2z M15,6l-4,0.508V8h2
			c1.316,0.041,2.037,0.804,2,2v4c0,0.552-0.447,1-1,1H6c-0.553,0-1-0.448-1-1v-4C4.963,8.804,5.684,8.041,7,8h2V6.708L5,7V6l10-1V6
			z"/>
	</g>
</g>
</svg>
