<?xml version="1.0" encoding="utf-8"?>
<!-- Generator: Adobe Illustrator 18.0.0, SVG Export Plug-In . SVG Version: 6.00 Build 0)  -->
<!DOCTYPE svg PUBLIC "-//W3C//DTD SVG 1.1//EN" "http://www.w3.org/Graphics/SVG/1.1/DTD/svg11.dtd">
<svg version="1.1" id="Layer_1" xmlns="http://www.w3.org/2000/svg" xmlns:xlink="http://www.w3.org/1999/xlink" x="0px" y="0px"
	 width="20px" height="20px" viewBox="0 0 20 20" enable-background="new 0 0 20 20" xml:space="preserve">
<g>
	<g>
		<path fill-rule="evenodd" clip-rule="evenodd" fill="#FFFFFF" d="M11,13h2v-1h-1L11,13z M12,7H8C7.447,7,7,7.447,7,8v2h6V8
			C13,7.447,12.553,7,12,7z M7,12v1h2l-1-1H7z M10,2c-4.418,0-8,3.582-8,8s3.582,8,8,8s8-3.582,8-8S14.418,2,10,2z M15,9.5
			c0,0.276-0.224,0.5-0.5,0.5H14v4h-1v1h-1v-1H8v1H7v-1H6v-4H5.5C5.224,10,5,9.776,5,9.5v-1C5,8.224,5.224,8,5.5,8H6V7.5
			C6,6.396,6.896,5,8,5h4c1.104,0,2,1.396,2,2.5V8h0.5C14.776,8,15,8.224,15,8.5V9.5z"/>
	</g>
</g>
</svg>
