<?xml version="1.0" encoding="utf-8"?>
<!-- Generator: Adobe Illustrator 18.0.0, SVG Export Plug-In . SVG Version: 6.00 Build 0)  -->
<!DOCTYPE svg PUBLIC "-//W3C//DTD SVG 1.1//EN" "http://www.w3.org/Graphics/SVG/1.1/DTD/svg11.dtd">
<svg version="1.1" id="Layer_1" xmlns="http://www.w3.org/2000/svg" xmlns:xlink="http://www.w3.org/1999/xlink" x="0px" y="0px"
	 width="20px" height="20px" viewBox="0 0 20 20" enable-background="new 0 0 20 20" xml:space="preserve">
<g>
	<g>
		<path fill-rule="evenodd" clip-rule="evenodd" fill="#FFFFFF" d="M10,2c-4.418,0-8,3.582-8,8s3.582,8,8,8s8-3.582,8-8
			S14.418,2,10,2z M15,14.007L5,15v-1.02l10-0.993V14.007z M15,10.803c0,0.552-0.447,1.06-1,1.133l-8,0.931
			C5.447,12.94,5,12.552,5,12V8C4.963,6.809,5.684,5.95,7,5.734l2-0.266l1-0.133l3-0.266c1.316-0.134,2.037,0.534,2,1.734V10.803z
			 M6,7.867v2l2-0.232V6.623L7,6.734C6.447,6.808,6,7.314,6,7.867z M9,9.518l2-0.232V6.291L9,6.512V9.518z M13,6.069L12,6.18v2.989
			l2-0.232v-2C14,6.384,13.553,5.996,13,6.069z"/>
	</g>
</g>
</svg>
