<?xml version="1.0" encoding="utf-8"?>
<!-- Generator: Adobe Illustrator 18.0.0, SVG Export Plug-In . SVG Version: 6.00 Build 0)  -->
<!DOCTYPE svg PUBLIC "-//W3C//DTD SVG 1.1//EN" "http://www.w3.org/Graphics/SVG/1.1/DTD/svg11.dtd">
<svg version="1.1" id="Layer_1" xmlns="http://www.w3.org/2000/svg" xmlns:xlink="http://www.w3.org/1999/xlink" x="0px" y="0px"
	 width="12px" height="10px" viewBox="0 0 12 10" enable-background="new 0 0 12 10" xml:space="preserve">
<g>
	<path fill="#FFFFFF" d="M11,4.147v3.111v1.037h1v1.037h-1l-1-2.074V4.147H11z"/>
	<polygon fill="#FFFFFF" points="9,4.147 10.777,4.147 11.666,3.732 12,3.111 11.666,2.488 6.666,0.155 6,0 5.334,0.155 
		0.334,2.488 0,3.111 0.334,3.732 5.334,6.066 6,6.222 6.666,6.066 9,4.977 	"/>
	<path fill="#FFFFFF" d="M9,6.155L6.7,7.584L6,7.777L5.3,7.584L2.796,6.028C2.302,6.373,2,6.796,2,7.259
		c0,1.146,1.791,2.074,4,2.074c1.201,0,2.267-0.28,3-0.716V6.155z"/>
</g>
</svg>
