<?xml version="1.0" encoding="utf-8"?>
<!-- Generator: Adobe Illustrator 18.0.0, SVG Export Plug-In . SVG Version: 6.00 Build 0)  -->
<!DOCTYPE svg PUBLIC "-//W3C//DTD SVG 1.1//EN" "http://www.w3.org/Graphics/SVG/1.1/DTD/svg11.dtd">
<svg version="1.1" id="Layer_1" xmlns="http://www.w3.org/2000/svg" xmlns:xlink="http://www.w3.org/1999/xlink" x="0px" y="0px"
	 width="20px" height="20px" viewBox="0 0 20 20" enable-background="new 0 0 20 20" xml:space="preserve">
<g>
	<g>
		<path fill-rule="evenodd" clip-rule="evenodd" fill="#FFFFFF" d="M10,2c-4.418,0-8,3.582-8,8s3.582,8,8,8s8-3.582,8-8
			S14.418,2,10,2z M16.445,11.24c-0.097,0.734-0.341,1.52-0.745,2.343c-0.076,0.14-0.144,0.284-0.229,0.417H12
			c4.128-2.405,2.118-7.008,1.4-7.033C13.398,7.004,10.5,14,10.5,14h-1c0,0-2.898-6.996-2.9-7.033C5.882,6.992,3.872,11.595,8,14
			H4.528c-0.085-0.133-0.152-0.277-0.228-0.417c-0.404-0.823-0.648-1.608-0.745-2.343c-0.021-0.183-0.035-0.367-0.041-0.554
			c-0.003-0.077-0.011-0.156-0.012-0.232C3.519,8.152,4.734,6.143,6.552,5h1.149L10,10.723L12.299,5h1.149
			c1.817,1.143,3.033,3.152,3.05,5.454c-0.001,0.076-0.009,0.155-0.012,0.232C16.48,10.873,16.467,11.058,16.445,11.24z"/>
	</g>
</g>
</svg>
