<?xml version="1.0" encoding="utf-8"?>
<!-- Generator: Adobe Illustrator 18.0.0, SVG Export Plug-In . SVG Version: 6.00 Build 0)  -->
<!DOCTYPE svg PUBLIC "-//W3C//DTD SVG 1.1//EN" "http://www.w3.org/Graphics/SVG/1.1/DTD/svg11.dtd">
<svg version="1.1" id="Layer_1" xmlns="http://www.w3.org/2000/svg" xmlns:xlink="http://www.w3.org/1999/xlink" x="0px" y="0px"
	 width="20px" height="20px" viewBox="0 0 20 20" enable-background="new 0 0 20 20" xml:space="preserve">
<g>
	<g>
		<path fill-rule="evenodd" clip-rule="evenodd" fill="#FFFFFF" d="M10.5,14H12v-1h-1L10.5,14z M10,8.013C8.619,8.013,8,8.116,8,9v3
			h4V9C12,8.116,11.381,8.013,10,8.013z M8,13v1h1.5L9,13H8z M10,2c-4.418,0-8,3.582-8,8s3.582,8,8,8s8-3.582,8-8S14.418,2,10,2z
			 M14,13c0,0.182-0.329,1.096-0.331,1.098c-0.097,0.147-0.217,0.277-0.348,0.394c-0.021,0.018-0.04,0.033-0.061,0.05
			c-0.021,0.017-0.047,0.023-0.067,0.039L14,16h-1l-0.686-1.057C12.209,14.961,12.111,15,12,15H8c-0.111,0-0.209-0.039-0.315-0.057
			L7,16H6l0.807-1.42c-0.021-0.016-0.047-0.022-0.067-0.039c-0.02-0.017-0.04-0.032-0.061-0.05
			c-0.131-0.116-0.251-0.246-0.348-0.394c-0.002-0.002-0.003-0.005-0.005-0.007c-0.09-0.139-0.157-0.29-0.211-0.448
			c-0.014-0.04-0.026-0.079-0.037-0.12C6.032,13.355,6,13.182,6,13V9c0-0.133,0.012-0.262,0.028-0.39
			c0.004-0.031,0.009-0.062,0.014-0.092c0.019-0.117,0.044-0.233,0.076-0.346C6.12,8.166,6.121,8.158,6.124,8.151
			c0.238-0.799,0.805-1.455,1.54-1.824L7.659,6.319C7.92,6.188,9,6,9,6V5L8,5V4h4v1l-1,0v1c0,0,1.08,0.188,1.341,0.319l-0.005,0.008
			c0.735,0.369,1.302,1.025,1.54,1.823l0.006,0.023C13.915,8.286,14,8.867,14,9V13z"/>
	</g>
</g>
</svg>
