<?xml version="1.0" encoding="utf-8"?>
<!-- Generator: Adobe Illustrator 18.0.0, SVG Export Plug-In . SVG Version: 6.00 Build 0)  -->
<!DOCTYPE svg PUBLIC "-//W3C//DTD SVG 1.1//EN" "http://www.w3.org/Graphics/SVG/1.1/DTD/svg11.dtd">
<svg version="1.1" id="Layer_1" xmlns="http://www.w3.org/2000/svg" xmlns:xlink="http://www.w3.org/1999/xlink" x="0px" y="0px"
	 width="9px" height="8px" viewBox="0 0 9 8" enable-background="new 0 0 9 8" xml:space="preserve">
<path fill="#FFFFFF" d="M2,0.9H0V0h2V0.9z"/>
<path fill="#FFFFFF" d="M1,6h2v2H2L1,7V6z"/>
<path fill="#FFFFFF" d="M4,6h2v2H5L4,7V6z"/>
<path fill="#FFFFFF" d="M1,1v4h5.951L9,1H1z M6,3v1H5V3H4v1H3V3H2V2h1v1h1V2h1v1H6V2h1v1H6z"/>
<path fill="#FFFFFF" d="M6,5.6H1V6h5V5.6z"/>
<path fill="#FFFFFF" d="M1.5,6H1V5h0.5V6z"/>
</svg>
