<?xml version="1.0" encoding="utf-8"?>
<!-- Generator: Adobe Illustrator 18.1.0, SVG Export Plug-In . SVG Version: 6.00 Build 0)  -->
<!DOCTYPE svg PUBLIC "-//W3C//DTD SVG 1.1//EN" "http://www.w3.org/Graphics/SVG/1.1/DTD/svg11.dtd">
<svg version="1.1" id="Layer_1" xmlns="http://www.w3.org/2000/svg" xmlns:xlink="http://www.w3.org/1999/xlink" x="0px" y="0px"
	 width="28px" height="28px" viewBox="0 0 28 28" enable-background="new 0 0 28 28" xml:space="preserve">
<path fill-rule="evenodd" clip-rule="evenodd" fill="#FFFFFF" d="M25.658,6.248c-3.108-4.677-8.882-7.078-14.391-5.984
	C5.804,1.349,1.411,5.721,0.289,11.173c-1.185,5.757,1.459,11.809,6.509,14.834c5.61,3.361,13.021,2.304,17.473-2.492
	C28.618,18.831,29.192,11.566,25.658,6.248C21.378-0.192,29.937,12.687,25.658,6.248z M4.723,15.067
	c-2.001,0.308-0.422-4.476-0.054-5.285c0.33-0.726,0.91-2.219,1.809-2.3c0.306-0.028,0.476,0.061,0.695,0.253
	C7.75,8.239,8.179,9.049,8.611,9.673c0.36,0.52,0.788,1.049,1.052,1.631c0.355,0.785,0.249,1.614-0.476,2.173
	c-0.609,0.469-1.495,0.654-2.21,0.906C6.278,14.628,5.448,14.991,4.723,15.067C4.691,15.072,4.734,15.066,4.723,15.067z
	 M12.161,23.079c-0.128,2.122-4.37-0.902-4.988-1.449c-0.598-0.529-1.922-1.595-1.711-2.499c0.066-0.285,0.2-0.393,0.423-0.545
	c0.87-0.592,2.79-1.012,3.957-1.24c0.89-0.174,1.818,0.061,2.154,1.036c0.196,0.567,0.157,1.234,0.175,1.828
	C12.199,21.146,12.291,22.148,12.161,23.079C12.16,23.094,12.179,22.953,12.161,23.079z M14.977,14.565
	c0,0.536-1.244,0.527-1.591,0.412c-0.503-0.166-0.571-1.111-0.412-1.591c0.165-0.497,1.112-0.571,1.591-0.412
	C15.185,13.18,14.977,14.021,14.977,14.565z M15.448,8.785c-1.84,2.103-3.541-0.718-4.59-2.175C10.18,5.669,9.47,4.678,11.014,4.206
	c1.138-0.349,2.35-0.501,3.549-0.428c0.903,0.055,2.418,0.091,3.092,0.729c0.262,0.248,0.351,0.566,0.262,0.904
	c-0.09,0.34-0.419,0.687-0.627,0.983C16.738,7.182,16.144,8.115,15.448,8.785z M22.546,19.336c-0.01,1.032-1.595,2.234-2.358,2.815
	c-0.808,0.615-1.695,1.093-2.655,1.449c-0.806,0.298-1.572,0.238-1.707-0.608c-0.2-1.264-0.181-3.106,0.107-4.356
	c0.19-0.827,0.812-1.366,1.672-1.381c0.758-0.013,1.559,0.343,2.276,0.557c0.686,0.205,1.59,0.371,2.206,0.756
	C22.395,18.758,22.546,18.974,22.546,19.336z M24.238,13.725c0.019,0.744-0.21,1.378-1.011,1.332
	c-1.11-0.063-2.891-0.822-3.996-1.361c-0.789-0.385-1.32-1.148-1.04-2.066c0.172-0.564,0.599-1.082,0.924-1.561
	c0.489-0.721,0.975-1.505,1.563-2.152c0.252-0.277,0.447-0.481,0.844-0.444c0.978,0.092,1.65,1.89,1.969,2.684
	C23.949,11.301,24.191,12.493,24.238,13.725z"/>
</svg>
