<?xml version="1.0" encoding="utf-8"?>
<!-- Generator: Adobe Illustrator 17.0.0, SVG Export Plug-In . SVG Version: 6.00 Build 0)  -->
<!DOCTYPE svg PUBLIC "-//W3C//DTD SVG 1.1//EN" "http://www.w3.org/Graphics/SVG/1.1/DTD/svg11.dtd">
<svg version="1.1" id="Layer_1" xmlns="http://www.w3.org/2000/svg" xmlns:xlink="http://www.w3.org/1999/xlink" x="0px" y="0px"
	 width="15px" height="28px" viewBox="0 0 15 28" enable-background="new 0 0 15 28" xml:space="preserve">
<path fill="#FFFFFF" d="M14,0.25c-0.905,0-4,0.646-4,6.999v5c0,2,1.383,3.001,2,3.001c0,0,0,10.998,0,11.999c0,1.001,3,0.999,3,0
	c0-0.999,0-25,0-25C15,1.249,15,0.25,14,0.25z M6,9.25H5v-7.5H4v7.5H3v-7.5H2v7.5H1v-7.5H0v9.5c0,1,2,2,2,3c0,0,0,12,0,13s3,1,3,0
	s0-13,0-13c0-1,2-2,2-3c0-0.43,0-0.369,0-2v-7.5H6V9.25z"/>
</svg>
