<?xml version="1.0" encoding="utf-8"?>
<!-- Generator: Adobe Illustrator 18.1.0, SVG Export Plug-In . SVG Version: 6.00 Build 0)  -->
<!DOCTYPE svg PUBLIC "-//W3C//DTD SVG 1.1//EN" "http://www.w3.org/Graphics/SVG/1.1/DTD/svg11.dtd">
<svg version="1.1" id="Слой_1" xmlns="http://www.w3.org/2000/svg" xmlns:xlink="http://www.w3.org/1999/xlink" x="0px" y="0px"
	 width="28px" height="22px" viewBox="0 0 28 22" enable-background="new 0 0 28 22" xml:space="preserve">
<path fill="#FFFFFF" stroke="#FFFFFF" stroke-miterlimit="10" d="M25.1,17.1c1.1,0,1.7,0,2.9-1.1c-3.4-1.1-2.9-4-5-10
	c-1.8-5.3-5.9-6-7-6s-1.8,0.4-2.2,1.2C13.4,0.4,13.1,0,12,0S6.7,0.7,5,6c-1.9,6.2-1.6,8.9-5,10c1.1,1.1,1.4,1.1,2.5,1.1
	c-0.4,1.3-1.1,2.2-2.2,2.2c0.5,0.5,2.5,0.8,3.7,0.6c1.6-0.2,2.1-0.3,3.5-2c1.4,2.4,3.6,4,6.5,4c2.8,0,5-1.5,6.4-3.8
	c1.4,1.6,2.1,1.7,3.6,1.8c1.1,0.1,3-0.2,3.4-0.6C26.3,19.4,25.5,18.5,25.1,17.1z M14,20c-4.3,0-6-3.4-6-8c0-0.1,0-0.3,0-0.4L12,6
	c0,0,2.6,4.2,4,5c1.7,1,3.2,1.4,4,1.5C19.9,16.8,18.2,20,14,20z"/>
<path fill="#FFFFFF" stroke="#FFFFFF" stroke-miterlimit="10" d="M14,15c-1.1,0-2,1-2,1s0.9,2,2,2s2-2,2-2S15.1,15,14,15z"/>
</svg>
