<?xml version="1.0" encoding="utf-8"?>
<!-- Generator: Adobe Illustrator 17.0.0, SVG Export Plug-In . SVG Version: 6.00 Build 0)  -->
<!DOCTYPE svg PUBLIC "-//W3C//DTD SVG 1.1//EN" "http://www.w3.org/Graphics/SVG/1.1/DTD/svg11.dtd">
<svg version="1.1" id="Layer_1" xmlns="http://www.w3.org/2000/svg" xmlns:xlink="http://www.w3.org/1999/xlink" x="0px" y="0px"
	 width="20px" height="27px" viewBox="0 0 20 27" enable-background="new 0 0 20 27" xml:space="preserve">
<path fill="#FFFFFF" d="M17.023,19.498v-9.98C18.774,8.748,20,7.005,20,4.97c0-1.112-0.377-2.128-0.995-2.956
	c-0.14,0.494-1.08,3.684-1.982,3.93c-0.979,0.267-3.894-0.911-4.006-2C12.917,2.94,14.699,0.394,14.98,0
	c-2.732,0.022-4.939,2.235-4.939,4.97c0,2.035,1.226,3.778,2.977,4.548v9.981c-1.192,0.693-2.002,1.968-2.002,3.445
	c0,2.209,1.793,4,4.005,4c2.213,0,4.005-1.791,4.005-4C19.025,21.467,18.215,20.191,17.023,19.498z M15.02,24.943
	c-1.105,0-2.003-0.896-2.003-2s0.897-2,2.003-2c1.107,0,2.003,0.896,2.003,2S16.127,24.943,15.02,24.943z M5.009,6.943l1.001-1
	l-1.001-5H2.005l-1.001,5l1.001,1v8l-2.003,1l1.002,3v7l1.001,1h3.004l1.001-1v-7l1.001-3l-2.002-1V6.943z"/>
</svg>
