<?xml version="1.0" encoding="utf-8"?>
<!-- Generator: Adobe Illustrator 17.0.0, SVG Export Plug-In . SVG Version: 6.00 Build 0)  -->
<!DOCTYPE svg PUBLIC "-//W3C//DTD SVG 1.1//EN" "http://www.w3.org/Graphics/SVG/1.1/DTD/svg11.dtd">
<svg version="1.1" id="Layer_1" xmlns="http://www.w3.org/2000/svg" xmlns:xlink="http://www.w3.org/1999/xlink" x="0px" y="0px"
	 width="24px" height="20px" viewBox="0 0 24 20" enable-background="new 0 0 24 20" xml:space="preserve">
<path fill="#FFFFFF" d="M4.8,5L4,7h16l-0.8-2H4.8z M18,2H6.143L5.285,4H18.8L18,2z M20.4,0H3.6C3.6,0,0,8.74,0,9v10
	c0,0.552,0.447,1,1,1h22c0.553,0,1-0.448,1-1V9C24,8.74,20.4,0,20.4,0z M15,13H9c-0.553,0-1-0.448-1-1s0.447-1,1-1h6
	c0.553,0,1,0.448,1,1S15.553,13,15,13z M2,8l2.8-7h14.4L22,8H2z"/>
</svg>
