<?xml version="1.0" encoding="utf-8"?>
<!-- Generator: Adobe Illustrator 17.0.0, SVG Export Plug-In . SVG Version: 6.00 Build 0)  -->
<!DOCTYPE svg PUBLIC "-//W3C//DTD SVG 1.1//EN" "http://www.w3.org/Graphics/SVG/1.1/DTD/svg11.dtd">
<svg version="1.1" id="Layer_1" xmlns="http://www.w3.org/2000/svg" xmlns:xlink="http://www.w3.org/1999/xlink" x="0px" y="0px"
	 width="26px" height="18px" viewBox="0 0 26 18" enable-background="new 0 0 26 18" xml:space="preserve">
<path fill="#FFFFFF" d="M7.501,6c1.381,0,2.5-1.119,2.5-2.5S8.882,1,7.501,1c-1.381,0-2.5,1.119-2.5,2.5S6.12,6,7.501,6z M18,3
	h-5.999c0,2.762-2.238,5-5,5H5C4.448,8.001,4.001,8.448,4.001,9S4.448,9.999,5,10h21V8C26,6.781,24.094,3,18,3z M3,2
	c0,0-0.102-2-1-2H0c0,0,0.001,1.75,0.001,1.912c0,0.092,0,16.088,0,16.088H3v-4l1-1h18l1,1v4h3v-7H3V2z"/>
</svg>
