<?xml version="1.0" encoding="utf-8"?>
<!-- Generator: Adobe Illustrator 18.1.0, SVG Export Plug-In . SVG Version: 6.00 Build 0)  -->
<!DOCTYPE svg PUBLIC "-//W3C//DTD SVG 1.1//EN" "http://www.w3.org/Graphics/SVG/1.1/DTD/svg11.dtd">
<svg version="1.1" id="Layer_1" xmlns="http://www.w3.org/2000/svg" xmlns:xlink="http://www.w3.org/1999/xlink" x="0px" y="0px"
	 width="26px" height="26px" viewBox="0 0 26 26" enable-background="new 0 0 26 26" xml:space="preserve">
<path fill="#FFFFFF" d="M13.001,0c-7.18,0-13,5.82-13,13l0,0l0,0C0,20.179,5.821,26,13,26c0,0,0,0,0.001,0l0,0
	c0.007,0,0.014-0.001,0.02-0.001c1.659-0.003,3.238-0.327,4.696-0.895l-1.285-2.722c-0.789,0.289-1.622,0.485-2.488,0.569
	c-0.308,0.029-0.618,0.047-0.933,0.048c-0.004,0-0.007,0-0.01,0c-5.522,0-10-4.478-10-10s4.478-10,10-10s10,4.478,10,10
	c0,1.498-0.336,2.914-0.93,4.187c-0.291,0.434-0.794,0.813-1.57,0.813c-0.828,0-1.5-0.672-1.5-1.5v-9.5l-3,1.028
	c-1.011-0.648-2.21-1.028-3.5-1.028c-3.59,0-6.5,2.91-6.5,6.5s2.91,6.5,6.5,6.5c1.526,0,2.928-0.53,4.037-1.411
	c0.754,1.428,2.236,2.411,3.963,2.411c1.06,0,2.021-0.382,2.79-0.995c0.022-0.001,0.057-0.005,0.069-0.005
	c0.079-0.069,0.152-0.162,0.229-0.241c0.079-0.074,0.15-0.154,0.224-0.234c0.06-0.07,0.119-0.141,0.178-0.216
	c0.131-0.163,0.253-0.332,0.36-0.513c0.994-1.559,1.649-3.825,1.649-5.796C26.001,5.82,20.181,0,13.001,0z M12.501,17
	c-1.933,0-3.5-1.567-3.5-3.5s1.567-3.5,3.5-3.5s3.5,1.567,3.5,3.5S14.434,17,12.501,17z"/>
</svg>
