<?xml version="1.0" encoding="utf-8"?>
<!-- Generator: Adobe Illustrator 17.0.0, SVG Export Plug-In . SVG Version: 6.00 Build 0)  -->
<!DOCTYPE svg PUBLIC "-//W3C//DTD SVG 1.1//EN" "http://www.w3.org/Graphics/SVG/1.1/DTD/svg11.dtd">
<svg version="1.1" id="Layer_1" xmlns="http://www.w3.org/2000/svg" xmlns:xlink="http://www.w3.org/1999/xlink" x="0px" y="0px"
	 width="22px" height="22px" viewBox="0 0 22 22" enable-background="new 0 0 22 22" xml:space="preserve">
<path fill="#FFFFFF" d="M22,4H11V0H0v22h22V4z M7,21H4v-6h3V21z M9,11H2V9h7V11z M9,8H2V6h7V8z M9,5H2V3h7V5z M16,15h-3v-2h3V15z
	 M16,12h-3v-2h3V12z M16,9h-3V7h3V9z M20,15h-3v-2h3V15z M20,12h-3v-2h3V12z M20,9h-3V7h3V9z"/>
</svg>
