<?xml version="1.0" encoding="utf-8"?>
<!-- Generator: Adobe Illustrator 18.0.0, SVG Export Plug-In . SVG Version: 6.00 Build 0)  -->
<!DOCTYPE svg PUBLIC "-//W3C//DTD SVG 1.1//EN" "http://www.w3.org/Graphics/SVG/1.1/DTD/svg11.dtd">
<svg version="1.1" id="Layer_1" xmlns="http://www.w3.org/2000/svg" xmlns:xlink="http://www.w3.org/1999/xlink" x="0px" y="0px"
	 width="12px" height="18px" viewBox="0 0 12 18" enable-background="new 0 0 12 18" xml:space="preserve">
<path fill-rule="evenodd" clip-rule="evenodd" fill="#F2FAFF" d="M10,13v-2l-2,1v1H10z M2,13h2v-1l-2-1V13z M10,6
	c0-0.552-0.447-1-1-1H3C2.447,5,2,5.448,2,6v3h8V6z M7,3l2-3H6.5l-2,3H7z M10,0L8,3c1.104,0,3,1.396,3,2.5V6h0.5
	C11.776,6,12,6.224,12,6.5V0H10z M0.5,6H1V5.5C1,4.396,2.895,3,4,3H3.5l2-3H0v6.5C0,6.224,0.225,6,0.5,6z M11.5,9H11v5h-1v1H8v-1H4
	v1H2v-1H1V9H0.5C0.225,9,0,8.776,0,8.5V18h12V8.5C12,8.776,11.776,9,11.5,9z"/>
</svg>
