<?xml version="1.0" encoding="utf-8"?>
<!-- Generator: Adobe Illustrator 18.0.0, SVG Export Plug-In . SVG Version: 6.00 Build 0)  -->
<!DOCTYPE svg PUBLIC "-//W3C//DTD SVG 1.1//EN" "http://www.w3.org/Graphics/SVG/1.1/DTD/svg11.dtd">
<svg version="1.1" id="Layer_1" xmlns="http://www.w3.org/2000/svg" xmlns:xlink="http://www.w3.org/1999/xlink" x="0px" y="0px"
	 width="12px" height="18px" viewBox="0 0 12 18" enable-background="new 0 0 12 18" xml:space="preserve">
<path fill-rule="evenodd" clip-rule="evenodd" fill="#F2FAFF" d="M2,13h2v-2H2V13z M3.678,14.968L3,18h5l-0.678-3.032H3.678z M5,6
	H3.461C2.785,6,2.309,5.92,2.102,6.5H2V9h3V6z M0,0v18h1l1.803-3.407C2.084,14.699,1.155,14.232,1,13V7
	c0-1.361,0.912-2.497,2.153-2.864C3.133,4.093,3.121,4.045,3.103,4h1.018C4.06,3.841,4,3.681,4,3.5C4,2.671,4.672,2,5.5,2
	C5.676,2,5.843,2.036,6,2.092v0.009C6.58,2.309,7,2.849,7,3.5C7,3.681,6.94,3.841,6.88,4h1.017C7.88,4.045,7.867,4.093,7.847,4.136
	C9.089,4.503,10,5.639,10,7v6c-0.155,1.232-1.084,1.699-1.803,1.593L10,18h2V0H0z M5,4h1V3H5V4z M9,6.5H8.899
	C8.691,5.92,8.216,6,7.539,6H6v3h3V6.5z M9,13v-2H7v2H9z"/>
</svg>
