<?xml version="1.0" encoding="utf-8"?>
<!-- Generator: Adobe Illustrator 18.0.0, SVG Export Plug-In . SVG Version: 6.00 Build 0)  -->
<!DOCTYPE svg PUBLIC "-//W3C//DTD SVG 1.1//EN" "http://www.w3.org/Graphics/SVG/1.1/DTD/svg11.dtd">
<svg version="1.1" id="Layer_1" xmlns="http://www.w3.org/2000/svg" xmlns:xlink="http://www.w3.org/1999/xlink" x="0px" y="0px"
	 width="12px" height="18px" viewBox="0 0 12 18" enable-background="new 0 0 12 18" xml:space="preserve">
<path fill-rule="evenodd" clip-rule="evenodd" fill="#FFFFFF" d="M0,0v11.071C0,7.718,2.686,5,6,5c3.313,0,6,2.718,6,6.071V0H0z
	 M1.43,15C0.54,13.94,0,12.57,0,11.071V18h12v-6.929c0,1.499-0.54,2.869-1.43,3.929H1.43z M8.652,7H7.769L6,11.45L4.231,7H3.348
	c-1.399,0.888-2.334,2.452-2.346,4.242c0,0.06,0.006,0.12,0.009,0.181c0.004,0.146,0.015,0.288,0.03,0.431
	c0.075,0.571,0.264,1.182,0.574,1.822c0.059,0.108,0.11,0.221,0.176,0.324h2.67c-3.175-1.87-1.629-5.451-1.076-5.47
	C3.386,8.559,5.615,14,5.615,14h0.77c0,0,2.229-5.441,2.23-5.47c0.553,0.02,2.099,3.6-1.077,5.47h2.671
	c0.065-0.104,0.117-0.216,0.176-0.324c0.311-0.641,0.499-1.251,0.573-1.822c0.017-0.143,0.027-0.285,0.031-0.431
	c0.003-0.061,0.009-0.121,0.009-0.181C10.986,9.452,10.051,7.888,8.652,7z"/>
</svg>
