<?xml version="1.0" encoding="utf-8"?>
<!-- Generator: Adobe Illustrator 18.0.0, SVG Export Plug-In . SVG Version: 6.00 Build 0)  -->
<!DOCTYPE svg PUBLIC "-//W3C//DTD SVG 1.1//EN" "http://www.w3.org/Graphics/SVG/1.1/DTD/svg11.dtd">
<svg version="1.1" id="Layer_1" xmlns="http://www.w3.org/2000/svg" xmlns:xlink="http://www.w3.org/1999/xlink" x="0px" y="0px"
	 width="12px" height="18px" viewBox="0 0 12 18" enable-background="new 0 0 12 18" xml:space="preserve">
<path fill-rule="evenodd" clip-rule="evenodd" fill="#FFFFFF" d="M0,0v11.071C0,7.718,2.686,5,6,5c3.313,0,6,2.718,6,6.071V0H0z
	 M1.43,15C0.54,13.94,0,12.57,0,11.071V18h12v-6.929c0,1.499-0.54,2.869-1.43,3.929H1.43z M8.235,7L6,10.223L3.765,7H2.834L1.5,12H1
	v1h3v-1H3.5l0.1-3.033L5.23,12h1.538L8.4,8.967L8.5,12H8v1h3v-1h-0.5L9.167,7H8.235z"/>
</svg>
