<?xml version="1.0" encoding="utf-8"?>
<!-- Generator: Adobe Illustrator 18.0.0, SVG Export Plug-In . SVG Version: 6.00 Build 0)  -->
<!DOCTYPE svg PUBLIC "-//W3C//DTD SVG 1.1//EN" "http://www.w3.org/Graphics/SVG/1.1/DTD/svg11.dtd">
<svg version="1.1" id="Layer_1" xmlns="http://www.w3.org/2000/svg" xmlns:xlink="http://www.w3.org/1999/xlink" x="0px" y="0px"
	 width="12px" height="18px" viewBox="0 0 12 18" enable-background="new 0 0 12 18" xml:space="preserve">
<path fill-rule="evenodd" clip-rule="evenodd" fill="#F2FAFF" d="M4,13h1v-1H4V13z M7,6H5C4.305,6,4,6.308,4,7v2
	c0,0.392,0.835,2,2,2c1.165,0,2-1.641,2-2V7C8,6.259,7.732,6,7,6z M12,0H0v18h12V0z M11,16h-1l-1.959-1.959
	C7.425,14.595,6.719,15,6,15c-0.72,0-1.427-0.404-2.044-0.956L2,16H1v-1l2.004-2.004C2.391,12.178,2,11.345,2,11V7
	c0-0.87,0.609-2,2-2l1-1h2l1,1c1.332,0,2,1.338,2,2v4c0,0.337-0.392,1.172-1.007,1.993L11,15V16z M7,13h1v-1H7V13z"/>
</svg>
