<?xml version="1.0" encoding="utf-8"?>
<!-- Generator: Adobe Illustrator 18.0.0, SVG Export Plug-In . SVG Version: 6.00 Build 0)  -->
<!DOCTYPE svg PUBLIC "-//W3C//DTD SVG 1.1//EN" "http://www.w3.org/Graphics/SVG/1.1/DTD/svg11.dtd">
<svg version="1.1" id="Layer_1" xmlns="http://www.w3.org/2000/svg" xmlns:xlink="http://www.w3.org/1999/xlink" x="0px" y="0px"
	 width="12px" height="18px" viewBox="0 0 12 18" enable-background="new 0 0 12 18" xml:space="preserve">
<path fill-rule="evenodd" clip-rule="evenodd" fill="#F2FAFF" d="M9,7.2C8.986,6.177,7.337,6.025,6,6.004
	C4.663,6.025,3.014,6.177,3,7.2L2.625,10h6.75L9,7.2z M8,13h2v-2H8V13z M2,13h2v-2H2V13z M0,0v18h3l1-3h4l1,3h3V0H0z M11,13
	c0,0.811-0.485,1.507-1.18,1.82L8,14H4l-1.82,0.82C1.485,14.507,1,13.811,1,13v-2l1-4C1.963,4.325,4.323,4.036,6,4.004
	C7.677,4.036,10.036,4.325,10,7l1,4V13z"/>
</svg>
