<?xml version="1.0" encoding="utf-8"?>
<!-- Generator: Adobe Illustrator 18.0.0, SVG Export Plug-In . SVG Version: 6.00 Build 0)  -->
<!DOCTYPE svg PUBLIC "-//W3C//DTD SVG 1.1//EN" "http://www.w3.org/Graphics/SVG/1.1/DTD/svg11.dtd">
<svg version="1.1" id="Layer_1" xmlns="http://www.w3.org/2000/svg" xmlns:xlink="http://www.w3.org/1999/xlink" x="0px" y="0px"
	 width="12px" height="18px" viewBox="0 0 12 18" enable-background="new 0 0 12 18" xml:space="preserve">
<path fill-rule="evenodd" clip-rule="evenodd" fill="#FFFFFF" d="M3.678,14.968L3,18h6l-0.678-3.032H3.678z M6,6.004
	C4.663,6.025,3.014,6.177,3,7.2L2.625,10h6.75L9,7.2C8.986,6.177,7.337,6.025,6,6.004z M10,13v-2H8v2H10z M2,13h2v-2H2V13z M4.333,2
	h3.334L8,1H4L4.333,2z M8,0c0.553,0,1,0.448,1,1v1L8,4H7l0.333-1H4.666L5,4H4L3,2V1c0-0.552,0.448-1,1-1H0v18h1l1.802-3.407
	C2.084,14.699,1.155,14.232,1,13v-2l1-4C1.963,4.325,4.323,4.036,6,4.004C7.677,4.036,10.036,4.325,10,7l1,4v2
	c-0.155,1.232-1.084,1.699-1.803,1.593L11,18h1V0H8z"/>
</svg>
