<?xml version="1.0" encoding="utf-8"?>
<!-- Generator: Adobe Illustrator 18.0.0, SVG Export Plug-In . SVG Version: 6.00 Build 0)  -->
<!DOCTYPE svg PUBLIC "-//W3C//DTD SVG 1.1//EN" "http://www.w3.org/Graphics/SVG/1.1/DTD/svg11.dtd">
<svg version="1.1" id="Layer_1" xmlns="http://www.w3.org/2000/svg" xmlns:xlink="http://www.w3.org/1999/xlink" x="0px" y="0px"
	 width="12px" height="18px" viewBox="0 0 12 18" enable-background="new 0 0 12 18" xml:space="preserve">
<path fill-rule="evenodd" clip-rule="evenodd" fill="#FFFFFF" d="M2.001,7h3V5.635L0.001,6v3C-0.036,7.804,0.685,7.041,2.001,7z
	 M1.001,10v2h4V9h-3C1.448,9,1.001,9.448,1.001,10z M0.001,0v4l11-1v2l-5,0.508V7h3c1.316,0.041,2.037,0.804,2,2v5
	c0,0.553-0.447,1-1,1h-9c-0.553,0-1-0.447-1-1v4H12V0H0.001z M10.001,10c0-0.552-0.447-1-1-1h-3v3h4V10z"/>
</svg>
