<?xml version="1.0" encoding="utf-8"?>
<!-- Generator: Adobe Illustrator 18.0.0, SVG Export Plug-In . SVG Version: 6.00 Build 0)  -->
<!DOCTYPE svg PUBLIC "-//W3C//DTD SVG 1.1//EN" "http://www.w3.org/Graphics/SVG/1.1/DTD/svg11.dtd">
<svg version="1.1" id="Layer_1" xmlns="http://www.w3.org/2000/svg" xmlns:xlink="http://www.w3.org/1999/xlink" x="0px" y="0px"
	 width="12px" height="18px" viewBox="0 0 12 18" enable-background="new 0 0 12 18" xml:space="preserve">
<path fill-rule="evenodd" clip-rule="evenodd" fill="#FFFFFF" d="M9,7c0-0.552-0.447-1-1-1H3C2.448,6,2,6.448,2,7v2h7V7z M0,0v8h1
	c0-0.492,0.006-4.007,3.5-4h2C9.994,3.993,10,7.508,10,8h1v2h-1v5H8v-1H3v1H1v-5H0v8h12V0H0z M2,12h2v-1l-2-1V12z M9,12v-2l-2,1v1H9
	z"/>
</svg>
