<?xml version="1.0" encoding="utf-8"?>
<!-- Generator: Adobe Illustrator 18.0.0, SVG Export Plug-In . SVG Version: 6.00 Build 0)  -->
<!DOCTYPE svg PUBLIC "-//W3C//DTD SVG 1.1//EN" "http://www.w3.org/Graphics/SVG/1.1/DTD/svg11.dtd">
<svg version="1.1" id="Layer_1" xmlns="http://www.w3.org/2000/svg" xmlns:xlink="http://www.w3.org/1999/xlink" x="0px" y="0px"
	 width="12px" height="18px" viewBox="0 0 12 18" enable-background="new 0 0 12 18" xml:space="preserve">
<path fill-rule="evenodd" clip-rule="evenodd" fill="#F2FAFF" d="M5,5h1V4H5V5z M0,0v9l4.1,2.455l-2.274-0.361
	c0.94,1.619,1.157,2.253,3.175,2.418V9H3.4C3.18,9,3,8.776,3,8.5S3.18,8,3.4,8H5V7h0.5C4.119,7,3,5.881,3,4.5S4.119,2,5.5,2
	C6.881,2,8,3.119,8,4.5S6.881,7,5.5,7H6v1h1.6C7.821,8,8,8.224,8,8.5S7.821,9,7.6,9H6v4.512c2.018-0.165,2.234-0.799,3.175-2.418
	L6.9,11.455L11,9v4.727l-1.184-1.76C9.816,12.936,8.619,15,5.5,15c-3.119,0-4.316-2.076-4.316-3.032L0,13.727V18h12V0H0z"/>
</svg>
