<?xml version="1.0" encoding="utf-8"?>
<!-- Generator: Adobe Illustrator 18.1.0, SVG Export Plug-In . SVG Version: 6.00 Build 0)  -->
<!DOCTYPE svg PUBLIC "-//W3C//DTD SVG 1.1//EN" "http://www.w3.org/Graphics/SVG/1.1/DTD/svg11.dtd">
<svg version="1.1" id="Layer_1" xmlns="http://www.w3.org/2000/svg" xmlns:xlink="http://www.w3.org/1999/xlink" x="0px" y="0px"
	 width="16px" height="16px" viewBox="0 0 16 16" enable-background="new 0 0 16 16" xml:space="preserve">
<path fill-rule="evenodd" clip-rule="evenodd" fill="#FFFFFF" d="M12,5C8.891,5,8.118,6.254,6,6.775V4h4V0H4v7
	C2.406,7,1.025,6.025,0,5c0,0,0,0.957,0,2v5c0,0,0,0.957,0,2c0.781,0.781,1.543,2,4,2c3.957,0,3.959-2,8-2c2.437,0,3.031,1.031,4,2
	c0-2.031,0-1.281,0-2V8c0-0.761,0-0.445,0-1C15.016,6.016,14.449,5,12,5z M14,12.344C13.501,12.133,12.874,12,12,12
	c-3.922,0-4.117,2-8,2c-0.715,0-1.384-0.202-2-0.512V8.626C2.515,8.849,3.151,9,4,9v2l1,1l1-1V8.779C8.123,8.261,8.788,7,12,7
	c0.87,0,1.499,0.135,2,0.349V12.344z"/>
</svg>
