<?xml version="1.0" encoding="utf-8"?>
<!-- Generator: Adobe Illustrator 17.0.0, SVG Export Plug-In . SVG Version: 6.00 Build 0)  -->
<!DOCTYPE svg PUBLIC "-//W3C//DTD SVG 1.1//EN" "http://www.w3.org/Graphics/SVG/1.1/DTD/svg11.dtd">
<svg version="1.1" id="Layer_1" xmlns="http://www.w3.org/2000/svg" xmlns:xlink="http://www.w3.org/1999/xlink" x="0px" y="0px"
	 width="40px" height="54px" viewBox="0 0 40 54" enable-background="new 0 0 40 54" xml:space="preserve">
<polygon fill="#F5FAFF" points="38,2 18,2 18,12 2,12 2,52 22,52 22,42 38,42 "/>
<path fill="#8D949D" d="M17.5,31H13v-4.5c0-0.552-0.448-1-1-1c-0.552,0-1,0.448-1,1V31H7.5c-0.552,0-1,0.448-1,1
	c0,0.552,0.448,1,1,1H11v3.5c0,0.552,0.448,1,1,1c0.552,0,1-0.448,1-1V33h4.5c0.552,0,1-0.448,1-1C18.5,31.448,18.052,31,17.5,31z"
	/>
<g>
	<path fill="#8D949D" d="M37,0H19c-1.657,0-3,1.343-3,3v7h2V3c0-0.551,0.449-1,1-1h18c0.551,0,1,0.448,1,1v38c0,0.551-0.449,1-1,1
		H24v2h13c1.657,0,3-1.343,3-3V3C40,1.343,38.657,0,37,0z"/>
	<path fill="#8D949D" d="M33.5,16c0-0.552-0.448-1-1-1H24v2h8.5C33.052,17,33.5,16.552,33.5,16z"/>
	<path fill="#8D949D" d="M30.5,24c0-0.552-0.448-1-1-1H24v2h5.5C30.052,25,30.5,24.552,30.5,24z"/>
	<path fill="#8D949D" d="M21.5,9h7c0.552,0,1-0.448,1-1c0-0.552-0.448-1-1-1h-7c-0.552,0-1,0.448-1,1C20.5,8.552,20.948,9,21.5,9z"
		/>
	<path fill="#8D949D" d="M21.5,6h10c0.552,0,1-0.448,1-1s-0.448-1-1-1h-10c-0.552,0-1,0.448-1,1S20.948,6,21.5,6z"/>
	<path fill="#8D949D" d="M32.5,27c0-0.552-0.448-1-1-1H24v2h7.5C32.052,28,32.5,27.552,32.5,27z"/>
	<path fill="#8D949D" d="M34.5,19c0-0.552-0.448-1-1-1H24v2h9.5C34.052,20,34.5,19.552,34.5,19z"/>
	<path fill="#8D949D" d="M24,14h10.5c0.552,0,1-0.448,1-1c0-0.552-0.448-1-1-1H23.816c-0.413-1.162-1.512-2-2.816-2H3
		c-1.657,0-3,1.343-3,3v38c0,1.657,1.343,3,3,3h18c1.657,0,3-1.343,3-3V14L24,14z M22,51c0,0.552-0.448,1-1,1H3
		c-0.552,0-1-0.448-1-1V13c0-0.552,0.448-1,1-1h18c0.552,0,1,0.448,1,1V51z"/>
	<path fill="#8D949D" d="M24,38v2h2.5c0.552,0,1-0.448,1-1s-0.448-1-1-1H24z"/>
</g>
</svg>
