<?xml version="1.0" encoding="utf-8"?>
<!-- Generator: Adobe Illustrator 17.0.0, SVG Export Plug-In . SVG Version: 6.00 Build 0)  -->
<!DOCTYPE svg PUBLIC "-//W3C//DTD SVG 1.1//EN" "http://www.w3.org/Graphics/SVG/1.1/DTD/svg11.dtd">
<svg version="1.1" id="Layer_1" xmlns="http://www.w3.org/2000/svg" xmlns:xlink="http://www.w3.org/1999/xlink" x="0px" y="0px"
	 width="12px" height="28px" viewBox="0 0 12 28" enable-background="new 0 0 12 28" xml:space="preserve">
<path fill-rule="evenodd" clip-rule="evenodd" fill="#8A8580" d="M8,16.349v-4.697c2.329-0.825,4-3.04,4-5.651c0-3.314-2.686-6-6-6
	C2.686,0,0,2.686,0,6c0,2.611,1.671,4.827,4,5.651v4.697C1.671,17.173,0,19.389,0,22c0,3.314,2.686,6,6,6c3.314,0,6-2.686,6-6
	C12,19.389,10.329,17.173,8,16.349z M3,6c0-1.657,1.343-3,3-3c1.657,0,3,1.343,3,3c0,1.657-1.343,3-3,3C4.343,9,3,7.657,3,6z M6,25
	c-1.657,0-3-1.343-3-3c0-1.657,1.343-3,3-3c1.657,0,3,1.343,3,3C9,23.657,7.657,25,6,25z M6,20c-1.105,0-2,0.896-2,2
	c0,1.105,0.895,2,2,2c1.105,0,2-0.896,2-2C8,20.895,7.105,20,6,20z"/>
</svg>
