<?xml version="1.0" encoding="utf-8"?>
<!-- Generator: Adobe Illustrator 18.1.0, SVG Export Plug-In . SVG Version: 6.00 Build 0)  -->
<!DOCTYPE svg PUBLIC "-//W3C//DTD SVG 1.1//EN" "http://www.w3.org/Graphics/SVG/1.1/DTD/svg11.dtd">
<svg version="1.1" id="Layer_1" xmlns="http://www.w3.org/2000/svg" xmlns:xlink="http://www.w3.org/1999/xlink" x="0px" y="0px"
	 width="16px" height="14px" viewBox="0 0 16 14" enable-background="new 0 0 16 14" xml:space="preserve">
<path fill-rule="evenodd" clip-rule="evenodd" fill="#FFFFFF" d="M13,11h-2v-1H5v1H3v-1H0v2c0,1.104,0.895,2,2,2h12
	c1.104,0,2-0.896,2-2v-2h-3V11z M14,3h-2V1l-1-1H5L4,1v2H2C0.895,3,0,3.896,0,5v4h3V8h2v1h6V8h2v1h3V5C16,3.896,15.104,3,14,3z M5,3
	l1-1h4l1,1H5z"/>
</svg>
