<?xml version="1.0" encoding="utf-8"?>
<!-- Generator: Adobe Illustrator 17.0.0, SVG Export Plug-In . SVG Version: 6.00 Build 0)  -->
<!DOCTYPE svg PUBLIC "-//W3C//DTD SVG 1.1//EN" "http://www.w3.org/Graphics/SVG/1.1/DTD/svg11.dtd">
<svg version="1.1" id="Layer_1" xmlns="http://www.w3.org/2000/svg" xmlns:xlink="http://www.w3.org/1999/xlink" x="0px" y="0px"
	 width="20px" height="16px" viewBox="0 0 20 16" enable-background="new 0 0 20 16" xml:space="preserve">
<path fill="#8A8580" d="M4.8,5L4,7h12l-0.8-2H4.8z M14,2H6.143L5.285,4H14.8L14,2z M16.4,0H3.6C3.6,0,0,8.74,0,9v6
	c0,0.552,0.447,1,1,1h18c0.553,0,1-0.448,1-1V9C20,8.74,16.4,0,16.4,0z M12,12H8c-0.553,0-1-0.448-1-1s0.447-1,1-1h4
	c0.553,0,1,0.448,1,1S12.553,12,12,12z M2,8l2.8-7h10.4L18,8H2z"/>
</svg>
