<?xml version="1.0" encoding="utf-8"?>
<!-- Generator: Adobe Illustrator 18.1.0, SVG Export Plug-In . SVG Version: 6.00 Build 0)  -->
<!DOCTYPE svg PUBLIC "-//W3C//DTD SVG 1.1//EN" "http://www.w3.org/Graphics/SVG/1.1/DTD/svg11.dtd">
<svg version="1.1" id="Layer_1" xmlns="http://www.w3.org/2000/svg" xmlns:xlink="http://www.w3.org/1999/xlink" x="0px" y="0px"
	 width="15px" height="16px" viewBox="0 0 15 16" enable-background="new 0 0 15 16" xml:space="preserve">
<path fill-rule="evenodd" clip-rule="evenodd" fill="#8C8782" d="M14,5V3c0-1.657-1.344-3-3-3H4C2.343,0,1,1.343,1,3v2H0v3h1v5
	c0,0.552,0.447,1,1,1v2h2v-2h7v2h2v-2c0.553,0,1-0.448,1-1V8h1V5H14z M5,1h5v1H5V1z M4.5,11.85c-0.746,0-1.35-0.604-1.35-1.35
	c0-0.746,0.604-1.35,1.35-1.35s1.35,0.604,1.35,1.35C5.85,11.245,5.246,11.85,4.5,11.85z M10.5,11.85c-0.746,0-1.35-0.604-1.35-1.35
	c0-0.746,0.603-1.35,1.35-1.35s1.35,0.604,1.35,1.35C11.85,11.245,11.246,11.85,10.5,11.85z M12,7H3V4c0-0.553,0.447-1,1-1h7
	c0.553,0,1,0.447,1,1V7z"/>
</svg>
