<?xml version="1.0" encoding="utf-8"?>
<!-- Generator: Adobe Illustrator 18.0.0, SVG Export Plug-In . SVG Version: 6.00 Build 0)  -->
<!DOCTYPE svg PUBLIC "-//W3C//DTD SVG 1.1//EN" "http://www.w3.org/Graphics/SVG/1.1/DTD/svg11.dtd">
<svg version="1.1" id="Слой_1" xmlns="http://www.w3.org/2000/svg" xmlns:xlink="http://www.w3.org/1999/xlink" x="0px" y="0px"
	 width="16px" height="16px" viewBox="0 0 16 16" enable-background="new 0 0 16 16" xml:space="preserve">
<path id="BG1_5_" fill="#1BCF8D" d="M16,8c0,4.418-3.582,8-8,8s-8-3.582-8-8C3.071,8,12.214,8,16,8z"/>
<path id="BG1_7_" fill="#51B3DF" d="M16,8C12.143,8,2.929,8,0,8c0-4.418,3.582-8,8-8S16,3.582,16,8z"/>
<path fill="#FFFFFF" d="M9,4H5.3v8H7v-2h2c1.657,0,3-1.343,3-3S10.657,4,9,4z M9,8.3H7V5.7h2c0.718,0,1.3,0.582,1.3,1.3
	S9.718,8.3,9,8.3z"/>
</svg>
