<?xml version="1.0" encoding="utf-8"?>
<!-- Generator: Adobe Illustrator 18.0.0, SVG Export Plug-In . SVG Version: 6.00 Build 0)  -->
<!DOCTYPE svg PUBLIC "-//W3C//DTD SVG 1.1//EN" "http://www.w3.org/Graphics/SVG/1.1/DTD/svg11.dtd">
<svg version="1.1" id="Слой_1" xmlns="http://www.w3.org/2000/svg" xmlns:xlink="http://www.w3.org/1999/xlink" x="0px" y="0px"
	 width="20px" height="20px" viewBox="0 0 20 20" enable-background="new 0 0 20 20" xml:space="preserve">
<path id="BG1_15_" fill="#FF6528" d="M20,10c0,5.523-4.477,10-10,10S0,15.523,0,10C4.333,10,14.333,10,20,10z"/>
<path id="BG1_14_" fill="#51B3DF" d="M20,10c-2.952,0-17.048,0-20,0C0,4.477,4.477,0,10,0S20,4.477,20,10z"/>
<path fill="#FFFFFF" d="M11.5,5H7v10h2v-3h2.5c1.933,0,3.5-1.567,3.5-3.5S13.433,5,11.5,5z M11.5,10H9V7h2.5
	C12.328,7,13,7.672,13,8.5S12.328,10,11.5,10z"/>
</svg>
