<?xml version="1.0" encoding="utf-8"?>
<!-- Generator: Adobe Illustrator 16.0.0, SVG Export Plug-In . SVG Version: 6.00 Build 0)  -->
<!DOCTYPE svg PUBLIC "-//W3C//DTD SVG 1.1//EN" "http://www.w3.org/Graphics/SVG/1.1/DTD/svg11.dtd">
<svg version="1.1" id="Layer_1" xmlns="http://www.w3.org/2000/svg" xmlns:xlink="http://www.w3.org/1999/xlink" x="0px" y="0px"
	 width="34px" height="34px" viewBox="0 0 34 34" enable-background="new 0 0 34 34" xml:space="preserve">
<polyline fill="none" points="0,0.417 0,34.417 34,34.417 34,0.417 "/>
<path fill="#008A8D" d="M17,29.417c-3.059,0-5.842-1.154-7.961-3.039L6.21,29.207c2.847,2.606,6.626,4.21,10.79,4.21
	s7.943-1.604,10.79-4.21l-2.829-2.829C22.842,28.262,20.059,29.417,17,29.417"/>
<path fill="#008A8D" d="M17,1.417c-4.164,0-7.943,1.604-10.79,4.21l2.829,2.829C11.158,6.57,13.941,5.417,17,5.417"/>
<path fill="#008A8D" d="M17,5.417c3.059,0,5.842,1.154,7.961,3.039l2.829-2.829c-2.847-2.606-6.626-4.21-10.79-4.21"/>
<path id="XMLID_1_" fill="#F15B5A" d="M28.79,6.626l-2.829,2.828C27.846,11.575,29,14.357,29,17.417c0,3.06-1.154,5.842-3.039,7.961
	l2.829,2.829C31.396,25.36,33,21.58,33,17.417C33,13.252,31.396,9.473,28.79,6.626 M5.21,6.626C2.604,9.473,1,13.252,1,17.417
	c0,4.163,1.604,7.943,4.21,10.79l2.828-2.829C6.154,23.258,5,20.476,5,17.417c0-3.059,1.154-5.842,3.038-7.962L5.21,6.626z"/>
<polyline fill="none" points="34,0.417 34,34.417 0,34.417 0,0.417 "/>
<polyline fill="none" points="0,0 0,34 34,34 34,0 "/>
</svg>
