<?xml version="1.0" encoding="utf-8"?>
<!-- Generator: Adobe Illustrator 16.0.0, SVG Export Plug-In . SVG Version: 6.00 Build 0)  -->
<!DOCTYPE svg PUBLIC "-//W3C//DTD SVG 1.1//EN" "http://www.w3.org/Graphics/SVG/1.1/DTD/svg11.dtd">
<svg version="1.1" id="Layer_1" xmlns="http://www.w3.org/2000/svg" xmlns:xlink="http://www.w3.org/1999/xlink" x="0px" y="0px"
	 width="18px" height="18px" viewBox="0 0 18 18" enable-background="new 0 0 18 18" xml:space="preserve">
<path opacity="0.05" d="M9,0C4.029,0,0,4.029,0,9c0,4.971,4.029,9,9,9c4.971,0,9-4.029,9-9C18,4.029,13.971,0,9,0z M9,14
	c-2.761,0-5-2.239-5-5s2.239-5,5-5c2.762,0,5,2.239,5,5S11.762,14,9,14z"/>
<path id="white_4_" fill="#FFFFFF" d="M9,3c1.402,0,2.688,0.485,3.71,1.29l1.423-1.423C12.744,1.703,10.955,1,9,1
	S5.256,1.703,3.867,2.867L5.29,4.29C6.312,3.485,7.598,3,9,3z M9,15c-1.402,0-2.688-0.484-3.71-1.29l-1.423,1.423
	C5.256,16.297,7.045,17,9,17s3.744-0.703,5.133-1.867L12.71,13.71C11.688,14.516,10.402,15,9,15z"/>
<path id="green_4_" fill="#C8F050" d="M2.867,3.867C1.703,5.256,1,7.045,1,9s0.703,3.744,1.867,5.133L4.29,12.71
	C3.485,11.688,3,10.402,3,9c0-1.402,0.485-2.688,1.29-3.71L2.867,3.867z M15.133,3.867L13.71,5.29C14.516,6.312,15,7.598,15,9
	c0,1.402-0.484,2.688-1.29,3.71l1.423,1.423C16.297,12.744,17,10.955,17,9S16.297,5.256,15.133,3.867z"/>
<path id="white_3_" fill="#FFFFFF" d="M9,3c1.402,0,2.688,0.485,3.71,1.29l1.423-1.423C12.744,1.703,10.955,1,9,1
	S5.256,1.703,3.867,2.867L5.29,4.29C6.312,3.485,7.598,3,9,3z M9,15c-1.402,0-2.688-0.485-3.71-1.29l-1.423,1.423
	C5.256,16.297,7.045,17,9,17s3.744-0.703,5.133-1.867L12.71,13.71C11.688,14.515,10.402,15,9,15z"/>
<path id="green_2_" fill="#C8F050" d="M2.867,3.867C1.703,5.256,1,7.045,1,9s0.703,3.744,1.867,5.133L4.29,12.71
	C3.485,11.688,3,10.402,3,9s0.485-2.688,1.29-3.71L2.867,3.867z M15.133,3.867L13.71,5.29C14.515,6.312,15,7.598,15,9
	s-0.485,2.688-1.29,3.71l1.423,1.423C16.297,12.744,17,10.955,17,9S16.297,5.256,15.133,3.867z"/>
</svg>
