<?xml version="1.0" encoding="utf-8"?>
<!-- Generator: Adobe Illustrator 16.0.0, SVG Export Plug-In . SVG Version: 6.00 Build 0)  -->
<!DOCTYPE svg PUBLIC "-//W3C//DTD SVG 1.1//EN" "http://www.w3.org/Graphics/SVG/1.1/DTD/svg11.dtd">
<svg version="1.1" id="Layer_1" xmlns="http://www.w3.org/2000/svg" xmlns:xlink="http://www.w3.org/1999/xlink" x="0px" y="0px"
	 width="34px" height="34px" viewBox="0 0 34 34" enable-background="new 0 0 34 34" xml:space="preserve">
<path opacity="0.05" d="M17,0C7.611,0,0,7.611,0,17c0,9.389,7.611,17,17,17c9.389,0,17-7.611,17-17C34,7.611,26.389,0,17,0z M17,28
	c-6.075,0-11-4.925-11-11S10.925,6,17,6s11,4.925,11,11S23.075,28,17,28z"/>
<path id="blue_2_" fill="#46A0C8" d="M17,5c3.059,0,5.842,1.154,7.961,3.039L27.79,5.21C24.943,2.604,21.164,1,17,1
	S9.057,2.604,6.21,5.21l2.828,2.828C11.158,6.154,13.941,5,17,5z M17,29c-3.059,0-5.842-1.154-7.961-3.039L6.21,28.79
	C9.057,31.396,12.836,33,17,33s7.943-1.604,10.79-4.21l-2.828-2.828C22.842,27.846,20.059,29,17,29z"/>
<path id="green_9_" fill="#A0C850" d="M28.79,6.21l-2.828,2.828C27.846,11.158,29,13.941,29,17c0,3.059-1.154,5.842-3.039,7.961
	l2.828,2.828C31.396,24.943,33,21.164,33,17S31.396,9.057,28.79,6.21z M5.21,6.21C2.604,9.057,1,12.836,1,17s1.604,7.943,4.21,10.79
	l2.828-2.828C6.154,22.842,5,20.059,5,17c0-3.059,1.154-5.842,3.039-7.961L5.21,6.21z"/>
</svg>
