<?xml version="1.0" encoding="utf-8"?>
<!-- Generator: Adobe Illustrator 17.1.0, SVG Export Plug-In . SVG Version: 6.00 Build 0)  -->
<!DOCTYPE svg PUBLIC "-//W3C//DTD SVG 1.1//EN" "http://www.w3.org/Graphics/SVG/1.1/DTD/svg11.dtd">
<svg version="1.1" id="Layer_1" xmlns="http://www.w3.org/2000/svg" xmlns:xlink="http://www.w3.org/1999/xlink" x="0px" y="0px"
	 width="25px" height="16px" viewBox="0 0 25 16" enable-background="new 0 0 25 16" xml:space="preserve">
<path fill="#E6E6E6" d="M5,0C4.2,0,2,0,2,0L1,4c0,0,1.4,0,3,0c2.6,0,4-0.9,4-2C8,1.2,7.1,0,5,0z M4,6C3.2,6,1,6,1,6l-1,4
	c0,0,1.4,0,3,0c2.6,0,4-0.9,4-2C7,7.2,6.1,6,4,6z M14,0c-0.8,0-3,0-3,0l-1,4c0,0,1.4,0,3,0c2.6,0,4-0.9,4-2C17,1.2,16.1,0,14,0z
	 M13,6c-0.8,0-3,0-3,0l-1,4c0,0,1.4,0,3,0c2.6,0,4-0.9,4-2C16,7.2,15.1,6,13,6z M12,12c-0.8,0-3,0-3,0l-1,4c0,0,1.4,0,3,0
	c2.6,0,4-0.9,4-2C15,13.2,14.1,12,12,12z M22,4c-0.8,0-3,0-3,0l-1,4c0,0,1.4,0,3,0c2.6,0,4-0.9,4-2C25,5.2,24.1,4,22,4z M21,10
	c-0.8,0-3,0-3,0l-1,4c0,0,1.4,0,3,0c2.6,0,4-0.9,4-2C24,11.2,23.1,10,21,10z"/>
</svg>
