<?xml version="1.0" encoding="utf-8"?>
<!-- Generator: Adobe Illustrator 17.1.0, SVG Export Plug-In . SVG Version: 6.00 Build 0)  -->
<!DOCTYPE svg PUBLIC "-//W3C//DTD SVG 1.1//EN" "http://www.w3.org/Graphics/SVG/1.1/DTD/svg11.dtd">
<svg version="1.1" id="Layer_1" xmlns="http://www.w3.org/2000/svg" xmlns:xlink="http://www.w3.org/1999/xlink" x="0px" y="0px"
	 width="20px" height="24px" viewBox="0 0 20 24" enable-background="new 0 0 20 24" xml:space="preserve">
<path fill-rule="evenodd" clip-rule="evenodd" fill="#E6E6E6" d="M0,1c0,2.1,0,10.9,0,10.9s0,8.7,0,11c2.1-2.2,6.8-7.2,10.4-10.9
	C6.8,8.2,2.1,3.2,0,1z M14.1,8l-3.8-2.3c0,0-8.7-5.3-9.2-5.6C0.9,0,0.9,0,0.8,0l10.5,11C12.5,9.7,13.6,8.6,14.1,8z M19.6,11.4
	c-0.4-0.2-3.7-2.2-4.5-2.7l-3.1,3.3l3,3.2c0.7-0.4,4-2.4,4.5-2.7C20.1,12.1,20.1,11.7,19.6,11.4z M0.8,23.8c0.5-0.3,9.4-5.7,9.4-5.7
	l3.8-2.3c-0.5-0.6-1.5-1.6-2.8-3L0.8,23.8z"/>
</svg>
