<?xml version="1.0" encoding="utf-8"?>
<!-- Generator: Adobe Illustrator 17.1.0, SVG Export Plug-In . SVG Version: 6.00 Build 0)  -->
<!DOCTYPE svg PUBLIC "-//W3C//DTD SVG 1.1//EN" "http://www.w3.org/Graphics/SVG/1.1/DTD/svg11.dtd">
<svg version="1.1" id="Layer_1" xmlns="http://www.w3.org/2000/svg" xmlns:xlink="http://www.w3.org/1999/xlink" x="0px" y="0px"
	 width="16px" height="20px" viewBox="0 0 16 20" enable-background="new 0 0 16 20" xml:space="preserve">
<g>
	<g>
		<path fill-rule="evenodd" clip-rule="evenodd" fill="#E6E6E6" d="M16,8c-0.3-1.5-2.7-2-4-2c-1.7,0-2.8,1-4,1C6.8,7,6.5,6,5,6
			C3.6,6,2,6.5,1,8c-1.4,2.1-1.2,6.6,1,10c0.8,1.2,1.6,2,3,2c1.2,0,1.3-1,3-1c1.7,0,1.8,1,3,1c1.4,0,3.2-0.8,4-2c0.6-0.9,1-3,1-3
			C11.8,15,12.1,8,16,8z M10.6,3.7L11,4c0.6-0.8,1.2-2.9,1-4c-1,0.1-2.3,1.2-3,2C8.4,2.8,7.8,3.9,8,5C9.1,5,10,4.5,10.6,3.7z"/>
	</g>
</g>
</svg>
