<?xml version="1.0" encoding="utf-8"?>
<!-- Generator: Adobe Illustrator 17.1.0, SVG Export Plug-In . SVG Version: 6.00 Build 0)  -->
<!DOCTYPE svg PUBLIC "-//W3C//DTD SVG 1.1//EN" "http://www.w3.org/Graphics/SVG/1.1/DTD/svg11.dtd">
<svg version="1.1" id="Layer_1" xmlns="http://www.w3.org/2000/svg" xmlns:xlink="http://www.w3.org/1999/xlink" x="0px" y="0px"
	 width="40px" height="25px" viewBox="0 0 40 25" enable-background="new 0 0 40 25" xml:space="preserve">
<path fill-rule="evenodd" clip-rule="evenodd" fill="#E6E6E6" d="M30,4c-0.3,0-0.7,0-1,0.1C26.8,1.6,23.6,0,20,0
	c-5.2,0-9.7,3.4-11.3,8C8.5,8,8.2,8,8,8c-4.4,0-8,3.6-8,8c0,4.4,3.6,8,8,8h22v0c5.5,0,10-4.5,10-10C40,8.5,35.5,4,30,4z M20,20l-7-7
	l2-2l3,3V4h4v10l3-3l2,2L20,20z"/>
</svg>
