<?xml version="1.0" encoding="utf-8"?>
<!-- Generator: Adobe Illustrator 17.1.0, SVG Export Plug-In . SVG Version: 6.00 Build 0)  -->
<!DOCTYPE svg PUBLIC "-//W3C//DTD SVG 1.1//EN" "http://www.w3.org/Graphics/SVG/1.1/DTD/svg11.dtd">
<svg version="1.1" id="Layer_1" xmlns="http://www.w3.org/2000/svg" xmlns:xlink="http://www.w3.org/1999/xlink" x="0px" y="0px"
	 width="15px" height="18px" viewBox="0 0 15 18" enable-background="new 0 0 15 18" xml:space="preserve">
<path fill-rule="evenodd" clip-rule="evenodd" fill="#E6E6E6" d="M0,2c0,2.2,0,7,0,7s0,4.9,0,7c1.5-1.5,4.5-4.5,7-7
	C4.5,6.6,1.5,3.6,0,2z M10.2,5.9L7.5,4.3c0,0-6.2-4-6.5-4.2c-0.2-0.1-0.5,0-0.7,0.3L8,8C8.9,7.2,9.6,6.4,10.2,5.9z M0.4,17.7
	C0.6,17.9,0.8,18,1,18c0.7,0,6.5-4.3,6.5-4.3l2.6-1.6c-0.5-0.5-1.3-1.3-2.1-2.1L0.4,17.7z M14.7,8.6c-0.3-0.2-2.5-1.5-3.3-2L9,9
	l2.4,2.4c0.7-0.4,3-1.8,3.3-2C15.1,9.2,15.1,8.8,14.7,8.6z"/>
</svg>
