<?xml version="1.0" encoding="utf-8"?>
<!-- Generator: Adobe Illustrator 17.1.0, SVG Export Plug-In . SVG Version: 6.00 Build 0)  -->
<!DOCTYPE svg PUBLIC "-//W3C//DTD SVG 1.1//EN" "http://www.w3.org/Graphics/SVG/1.1/DTD/svg11.dtd">
<svg version="1.1" id="Layer_1" xmlns="http://www.w3.org/2000/svg" xmlns:xlink="http://www.w3.org/1999/xlink" x="0px" y="0px"
	 width="21px" height="24px" viewBox="0 0 21 24" enable-background="new 0 0 21 24" xml:space="preserve">
<path fill-rule="evenodd" clip-rule="evenodd" fill="#E6E6E6" d="M19.9,8.1c-1.2-1.5-3-2.4-4.6-2.4c-2.2,0-3.1,1-4.6,1
	c-1.5,0-2.7-1-4.6-1c-1.8,0-3.8,1.1-5,3c-1.7,2.7-1.4,7.7,1.4,12.1c1,1.5,2.4,3.3,4.1,3.3c1.6,0,2-1,4.1-1c2.1,0,2.5,1,4.1,1
	c1.8,0,3.2-1.9,4.2-3.5c0.7-1.1,1-1.7,1.6-2.9C16.5,16.1,15.8,10.3,19.9,8.1z M13.6,3.9c0.8-1,1.4-2.4,1.2-3.9
	c-1.3,0.1-2.8,0.9-3.7,2c-0.8,1-1.5,2.4-1.2,3.8C11.3,5.8,12.8,5,13.6,3.9z"/>
</svg>
