<?xml version="1.0" encoding="utf-8"?>
<!-- Generator: Adobe Illustrator 17.1.0, SVG Export Plug-In . SVG Version: 6.00 Build 0)  -->
<!DOCTYPE svg PUBLIC "-//W3C//DTD SVG 1.1//EN" "http://www.w3.org/Graphics/SVG/1.1/DTD/svg11.dtd">
<svg version="1.1" id="Layer_1" xmlns="http://www.w3.org/2000/svg" xmlns:xlink="http://www.w3.org/1999/xlink" x="0px" y="0px"
	 width="19px" height="13px" viewBox="0 0 19 13" enable-background="new 0 0 19 13" xml:space="preserve">
<g>
	<g>
		<path fill="#E6E6E6" d="M3.9,0C3.3,0,1.7,0,1.7,0L1,3c0,0,1,0,2.1,0C5,3,6,2.3,6,1.5C6,0.9,5.3,0,3.9,0z M2.9,5C2.3,5,0.7,5,0.7,5
			L0,8c0,0,1,0,2.1,0C4,8,5,7.3,5,6.5C5,5.9,4.3,5,2.9,5z M10.9,0c-0.6,0-2.1,0-2.1,0L8,3c0,0,1,0,2.1,0C12,3,13,2.3,13,1.5
			C13,0.9,12.3,0,10.9,0z M9.9,5C9.3,5,7.7,5,7.7,5L7,8c0,0,1,0,2.1,0C11,8,12,7.3,12,6.5C12,5.9,11.3,5,9.9,5z M8.9,10
			c-0.6,0-2.1,0-2.1,0L6,13c0,0,1,0,2.1,0c1.8,0,2.9-0.7,2.9-1.5C11,10.9,10.3,10,8.9,10z M16.9,3c-0.6,0-2.1,0-2.1,0L14,6
			c0,0,1,0,2.1,0C18,6,19,5.3,19,4.5C19,3.9,18.3,3,16.9,3z M15.9,8c-0.6,0-2.1,0-2.1,0L13,11c0,0,1,0,2.1,0C17,11,18,10.3,18,9.5
			C18,8.9,17.3,8,15.9,8z"/>
	</g>
</g>
</svg>
