<?xml version="1.0" encoding="utf-8"?>
<!-- Generator: Adobe Illustrator 18.1.0, SVG Export Plug-In . SVG Version: 6.00 Build 0)  -->
<!DOCTYPE svg PUBLIC "-//W3C//DTD SVG 1.1//EN" "http://www.w3.org/Graphics/SVG/1.1/DTD/svg11.dtd">
<svg version="1.1" id="Layer_1" xmlns="http://www.w3.org/2000/svg" xmlns:xlink="http://www.w3.org/1999/xlink" x="0px" y="0px"
	 width="26px" height="27px" viewBox="0 0 26 27" enable-background="new 0 0 26 27" xml:space="preserve">
<path fill-rule="evenodd" clip-rule="evenodd" fill="#222222" d="M9.52,3.897C9.52,3.898,9.519,3.898,9.52,3.897L9.52,3.897
	C9.52,3.897,9.52,3.897,9.52,3.897z M19.54,5.643c1.438,0.835,3.276,0.339,4.107-1.107c0.83-1.446,0.337-3.296-1.1-4.131
	c-1.438-0.835-3.276-0.339-4.107,1.107C17.61,2.959,18.102,4.808,19.54,5.643z M19.54,21.357c-1.438,0.835-1.93,2.685-1.1,4.131
	c0.83,1.446,2.669,1.942,4.107,1.107c1.438-0.835,1.93-2.684,1.1-4.131C22.817,21.017,20.978,20.522,19.54,21.357z M19.039,20.484
	c1.41-0.819,3.106-0.671,4.346,0.228c1.499-1.761,2.406-3.935,2.615-6.204h-3.955v-2.016h3.954c-0.14-1.552-0.597-3.098-1.422-4.536
	c-0.347-0.605-0.745-1.162-1.181-1.674c-1.242,0.906-2.943,1.056-4.357,0.235c-1.411-0.819-2.131-2.371-1.977-3.901
	c-2.189-0.413-4.511-0.174-6.65,0.823l1.979,3.448l-0.868,0.504c3.355-1.948,7.645-0.792,9.582,2.583
	c1.937,3.375,0.787,7.69-2.567,9.639c-3.355,1.948-7.645,0.792-9.582-2.583c-1.937-3.375-0.788-7.69,2.567-9.639l-0.868,0.504
	L8.677,4.446C6.75,5.811,5.383,7.713,4.644,9.827c1.395,0.631,2.37,2.034,2.37,3.673c0,1.643-0.98,3.05-2.381,3.678
	c0.223,0.636,0.504,1.261,0.851,1.866c0.825,1.438,1.928,2.609,3.194,3.507l1.977-3.444l1.736,1.008l-1.977,3.445
	c2.057,0.953,4.382,1.249,6.648,0.824C16.908,22.854,17.629,21.303,19.039,20.484z M6.012,13.5c0-1.67-1.346-3.024-3.006-3.024
	S0,11.83,0,13.5c0,1.67,1.346,3.024,3.006,3.024S6.012,15.17,6.012,13.5z"/>
</svg>
