<?xml version="1.0" encoding="utf-8"?>
<!-- Generator: Adobe Illustrator 18.0.0, SVG Export Plug-In . SVG Version: 6.00 Build 0)  -->
<!DOCTYPE svg PUBLIC "-//W3C//DTD SVG 1.1//EN" "http://www.w3.org/Graphics/SVG/1.1/DTD/svg11.dtd">
<svg version="1.1" id="Слой_1" xmlns="http://www.w3.org/2000/svg" xmlns:xlink="http://www.w3.org/1999/xlink" x="0px" y="0px"
	 width="25px" height="29px" viewBox="0 0 25 29" enable-background="new 0 0 25 29" xml:space="preserve">
<path fill="#3D3C3B" d="M19.1,3.9H2c-1.1,0-2,0.9-2,2V27c0,1.1,0.9,2,2,2h17.1c1.1,0,2-0.9,2-2V5.9C21.1,4.8,20.2,3.9,19.1,3.9z
	 M13.1,13.5h-2.4c0,0-0.6,0.3-0.6,2.8c0,2.5,0.7,2.9,0.7,2.9h2.3V23c0,0-0.8,0.7-1.7,0.7c-0.9,0-3.5,0.3-3.5-7.1
	c0-7.4,2.4-7.3,3.5-7.3c1.3,0,1.8,0.6,1.8,0.6V13.5z"/>
<path fill="#3D3C3B" d="M21,0H4.2C2.6,0,1.3,0.9,0.6,2.1C1.1,2,1.5,1.9,2,1.9h17.1c2.2,0,4,1.8,4,4V27c0,0.1,0,0.2,0,0.3
	c1.1-0.7,1.9-2,1.9-3.4V4C25,1.8,23.2,0,21,0z"/>
</svg>
