<?xml version="1.0" encoding="utf-8"?>
<!-- Generator: Adobe Illustrator 18.0.0, SVG Export Plug-In . SVG Version: 6.00 Build 0)  -->
<!DOCTYPE svg PUBLIC "-//W3C//DTD SVG 1.1//EN" "http://www.w3.org/Graphics/SVG/1.1/DTD/svg11.dtd">
<svg version="1.1" id="Слой_1" xmlns="http://www.w3.org/2000/svg" xmlns:xlink="http://www.w3.org/1999/xlink" x="0px" y="0px"
	 width="28px" height="31px" viewBox="0 0 28 31" enable-background="new 0 0 28 31" xml:space="preserve">
<path fill="#3D3C3B" d="M3,13.2V22c0,1.1,0.9,2,2,2h4v-7c0-1.1,0.9-2,2-2h6c1.1,0,2,0.9,2,2v7h4c1.1,0,2-0.9,2-2v-8.9L13.9,6L3,13.2
	z"/>
<path fill="#3D3C3B" d="M10,26.1h3.1c0,1.1-0.2,2.3-0.6,2.8c-0.1,0.1-0.2,0.2-0.4,0.2H3.5v2h8.6c0.7,0,1.4-0.3,1.9-0.9
	c0.9-1,1.1-2.7,1.1-4.1H18l-4-5L10,26.1z"/>
<polygon fill="#3D3C3B" points="14,0 14,0 14,0 0,8.8 2.8,10.6 14,3.5 25.2,10.6 28,8.8 "/>
</svg>
