<?xml version="1.0" encoding="utf-8"?>
<!-- Generator: Adobe Illustrator 18.0.0, SVG Export Plug-In . SVG Version: 6.00 Build 0)  -->
<!DOCTYPE svg PUBLIC "-//W3C//DTD SVG 1.1//EN" "http://www.w3.org/Graphics/SVG/1.1/DTD/svg11.dtd">
<svg version="1.1" id="Слой_1" xmlns="http://www.w3.org/2000/svg" xmlns:xlink="http://www.w3.org/1999/xlink" x="0px" y="0px"
	 width="34px" height="34px" viewBox="0 0 34 34" enable-background="new 0 0 34 34" xml:space="preserve">
<path fill="#3D3C3B" d="M31.8,8.6l-3,3c0.8,1.6,1.2,3.5,1.2,5.4c0,7.2-5.8,13-13,13C9.8,30,4,24.2,4,17S9.8,4,17,4
	c3,0,5.8,1.1,8.1,2.8l-7.3,7.3C17.5,14,17.3,14,17,14c-1.7,0-3,1.3-3,3s1.3,3,3,3c1.7,0,3-1.3,3-3c0-0.3,0-0.5-0.1-0.8L30,6.1
	C26.9,2.4,22.2,0,17,0C7.6,0,0,7.6,0,17c0,9.4,7.6,17,17,17c9.4,0,17-7.6,17-17C34,14,33.2,11.1,31.8,8.6z"/>
<circle fill="#3D3C3B" cx="17" cy="26" r="2"/>
<circle fill="#3D3C3B" cx="26" cy="17" r="2"/>
<circle fill="#3D3C3B" cx="17" cy="8" r="2"/>
<circle fill="#3D3C3B" cx="8" cy="17" r="2"/>
</svg>
