<?xml version="1.0" encoding="utf-8"?>
<!-- Generator: Adobe Illustrator 17.0.0, SVG Export Plug-In . SVG Version: 6.00 Build 0)  -->
<!DOCTYPE svg PUBLIC "-//W3C//DTD SVG 1.1//EN" "http://www.w3.org/Graphics/SVG/1.1/DTD/svg11.dtd">
<svg version="1.1" id="Слой_1" xmlns="http://www.w3.org/2000/svg" xmlns:xlink="http://www.w3.org/1999/xlink" x="0px" y="0px"
	 width="18px" height="18px" viewBox="0 0 18 18" enable-background="new 0 0 18 18" xml:space="preserve">
<path fill-rule="evenodd" clip-rule="evenodd" fill="#E6E6E6" d="M9,0C4.031,0,0.002,4.03,0.002,9c0,4.97,4.028,9,8.998,9
	c4.969,0,8.998-4.029,8.998-9C17.998,4.03,13.969,0,9,0z M12.012,13.908c-0.622,0.357-1.308,0.501-1.974,0.455
	c-1.151-0.473-2.15-1.179-2.962-2.049L5.16,9.01C4.798,7.837,4.684,6.577,4.868,5.305C5.163,4.736,5.612,4.24,6.209,3.897
	L7.212,3.32l1.546,2.667l-0.142,0.53L7.95,6.9C7.396,7.219,7.206,7.925,7.527,8.478l1.161,2.002
	c0.321,0.553,1.029,0.743,1.583,0.424l0.64-0.368l0.574,0.154l1.531,2.641L12.012,13.908z"/>
</svg>
