<?xml version="1.0" encoding="utf-8"?>
<!-- Generator: Adobe Illustrator 17.0.0, SVG Export Plug-In . SVG Version: 6.00 Build 0)  -->
<!DOCTYPE svg PUBLIC "-//W3C//DTD SVG 1.1//EN" "http://www.w3.org/Graphics/SVG/1.1/DTD/svg11.dtd">
<svg version="1.1" id="Слой_1" xmlns="http://www.w3.org/2000/svg" xmlns:xlink="http://www.w3.org/1999/xlink" x="0px" y="0px"
	 width="72px" height="70px" viewBox="0 0 72 70" enable-background="new 0 0 72 70" xml:space="preserve">
<path fill-rule="evenodd" clip-rule="evenodd" fill="#9F9F9F" d="M30.985,9C26.575,9,23,12.583,23,17.004s3.575,8.004,7.985,8.004
	c4.41,0,7.985-3.583,7.985-8.004S35.395,9,30.985,9z M34.462,20.641l-0.482,0.441c-0.131,0.107-0.184,0.14-0.22,0.165
	c-0.037,0.024-0.53,0.377-0.773,0.408c-0.204,0.027-0.437,0.167-0.639,0.098c-0.181-0.051-0.805-0.299-1.392-0.782
	c-0.488-0.402-2.734-3.091-3.36-5.685c-0.173-0.658-0.083-1.243-0.017-1.612c0.08-0.348,0.572-0.839,0.884-1.042
	c0.282-0.183,0.512-0.186,0.512-0.186l0.743-0.103l0.43,2.158c0,0-0.479,0.352-0.791,0.304c0,0-0.346,0.251-0.34,0.374
	c0.104,0.647,1.801,4.191,2.659,4.311c0.099,0.105,0.433-0.068,0.433-0.068l0.455-0.415c0.082-0.149,0.261-0.264,0.437-0.105
	l1.476,1.288C34.558,20.285,34.69,20.441,34.462,20.641z"/>
<path fill-rule="evenodd" clip-rule="evenodd" fill="#E5E5E5" d="M56,0H7C5.895,0,5,0.895,5,2v32H2c-1.105,0-2,0.896-2,2v1
	c0,1.104,0.895,2,2,2h43v-1c0-4,0,0,0-4H9c-1.105,0-2-0.896-2-2V4c0-1.104,0.895-2,2-2h45c1.104,0,2,0.896,2,2v18
	c0.689,0,1.425,0,2,0V2C58,0.895,57.104,0,56,0z"/>
<path fill="#A4C630" d="M59.015,39.999c-3.306,0-5.985,2.686-5.985,6c0,3.313,2.679,5.999,5.985,5.999
	c3.305,0,5.985-2.685,5.985-5.999C65,42.685,62.32,39.999,59.015,39.999z M61.621,48.725l-0.361,0.331
	c-0.099,0.08-0.138,0.105-0.166,0.123c-0.027,0.018-0.397,0.283-0.58,0.306c-0.152,0.021-0.327,0.125-0.479,0.073
	c-0.136-0.038-0.603-0.224-1.043-0.586c-0.366-0.302-2.05-2.317-2.519-4.261c-0.13-0.493-0.062-0.932-0.013-1.208
	c0.061-0.261,0.429-0.629,0.662-0.781c0.211-0.137,0.384-0.139,0.384-0.139l0.556-0.078l0.322,1.618c0,0-0.358,0.264-0.593,0.228
	c0,0-0.26,0.188-0.255,0.28c0.077,0.485,1.35,3.142,1.993,3.232c0.074,0.078,0.324-0.052,0.324-0.052l0.341-0.31
	c0.062-0.112,0.195-0.199,0.328-0.079l1.106,0.965C61.693,48.458,61.792,48.575,61.621,48.725z"/>
<path fill-rule="evenodd" clip-rule="evenodd" fill="#E5E5E5" d="M72,27.482c0.015-4.413-3.36-4.48-10.759-4.482
	c-0.19,0-0.241,0-5.241,0c-7,0-10.03-0.043-10,4.483c0.019,3.01,0.03,29.067,0,36.758c-0.017,4.526,3.575,5.759,11,5.759
	c0.179,0,3.826,0.001,4,0c7.847-0.041,11-1.368,11-5.797C72,64.202,71.99,30.298,72,27.482z M56.5,25.999h5
	c0.276,0,0.5,0.224,0.5,0.5s-0.224,0.5-0.5,0.5h-5c-0.276,0-0.5-0.224-0.5-0.5S56.224,25.999,56.5,25.999z M60.482,66.999h-2.689
	c-0.855,0-1.793-0.042-1.793-0.896l0.138-1.138h6l0.138,1.138C62.275,66.958,61.337,66.999,60.482,66.999z M70,62.999H48v-33h22
	V62.999z"/>
<path fill="#A4C630" d="M29.524,52.96L29.524,52.96c2.468,2.467,5.749,3.827,9.24,3.827c0.683,0,1.236-0.554,1.236-1.236
	c0.001-0.342-0.138-0.651-0.362-0.875c-0.224-0.224-0.533-0.362-0.874-0.362c-2.83,0-5.49-1.103-7.491-3.103
	c-2.001-2.001-3.102-4.661-3.103-7.49c0-0.683-0.554-1.237-1.237-1.236c-0.683-0.001-1.237,0.553-1.237,1.236
	C25.697,47.21,27.056,50.492,29.524,52.96z"/>
<path fill="#A4C630" d="M20.484,43.72c0,4.882,1.901,9.474,5.353,12.926l0,0c3.453,3.453,8.044,5.354,12.926,5.354
	C39.446,62,40,61.446,40,60.763c0-0.683-0.554-1.237-1.236-1.237c-4.222,0-8.191-1.644-11.176-4.629
	c-2.985-2.985-4.629-6.955-4.629-11.176c-0.001-0.341-0.139-0.651-0.363-0.875c-0.224-0.225-0.534-0.363-0.875-0.363
	C21.038,42.484,20.484,43.037,20.484,43.72z"/>
</svg>
