<?xml version="1.0" encoding="utf-8"?>
<!-- Generator: Adobe Illustrator 17.0.0, SVG Export Plug-In . SVG Version: 6.00 Build 0)  -->
<!DOCTYPE svg PUBLIC "-//W3C//DTD SVG 1.1//EN" "http://www.w3.org/Graphics/SVG/1.1/DTD/svg11.dtd">
<svg version="1.1" id="Слой_1" xmlns="http://www.w3.org/2000/svg" xmlns:xlink="http://www.w3.org/1999/xlink" x="0px" y="0px"
	 width="26px" height="47px" viewBox="0 0 26 47" enable-background="new 0 0 26 47" xml:space="preserve">
<path fill="#A4C630" d="M13.015,16.999c-3.306,0-5.985,2.686-5.985,6c0,3.314,2.679,5.999,5.985,5.999
	c3.305,0,5.985-2.685,5.985-5.999C19,19.685,16.32,16.999,13.015,16.999z M15.621,25.725l-0.361,0.331
	c-0.099,0.08-0.138,0.105-0.166,0.123c-0.027,0.018-0.397,0.283-0.58,0.306c-0.152,0.021-0.327,0.125-0.478,0.073
	c-0.136-0.038-0.604-0.224-1.043-0.586c-0.366-0.302-2.05-2.317-2.519-4.261c-0.13-0.493-0.062-0.932-0.013-1.208
	c0.061-0.261,0.429-0.629,0.662-0.781c0.211-0.137,0.384-0.139,0.384-0.139l0.556-0.078l0.322,1.618c0,0-0.358,0.264-0.593,0.228
	c0,0-0.26,0.188-0.255,0.28c0.077,0.485,1.35,3.142,1.993,3.232c0.074,0.078,0.324-0.052,0.324-0.052l0.341-0.31
	c0.062-0.112,0.195-0.199,0.328-0.079l1.106,0.965C15.693,25.458,15.792,25.575,15.621,25.725z"/>
<path fill-rule="evenodd" clip-rule="evenodd" fill="#E5E5E5" d="M26,4.483c0.015-4.413-3.36-4.48-10.759-4.482C15.051,0,15,0,10,0
	C3,0-0.03-0.043,0,4.483c0.019,3.01,0.03,29.067,0,36.758C-0.017,45.768,3.575,47,11,47c0.179,0,3.826,0.002,4,0
	c7.847-0.041,11-1.368,11-5.797C26,41.203,25.99,7.299,26,4.483z M10.5,3h5C15.776,3,16,3.224,16,3.5S15.776,4,15.5,4h-5
	C10.224,4,10,3.776,10,3.5S10.224,3,10.5,3z M14.482,44h-2.689C10.938,44,10,43.959,10,43.104l0.138-1.138h6l0.138,1.138
	C16.275,43.959,15.337,44,14.482,44z M24,40H2V7h22V40z"/>
</svg>
