<?xml version="1.0" encoding="utf-8"?>
<!-- Generator: Adobe Illustrator 17.0.0, SVG Export Plug-In . SVG Version: 6.00 Build 0)  -->
<!DOCTYPE svg PUBLIC "-//W3C//DTD SVG 1.1//EN" "http://www.w3.org/Graphics/SVG/1.1/DTD/svg11.dtd">
<svg version="1.1" id="Слой_1" xmlns="http://www.w3.org/2000/svg" xmlns:xlink="http://www.w3.org/1999/xlink" x="0px" y="0px"
	 width="40px" height="31px" viewBox="0 0 40 31" enable-background="new 0 0 40 31" xml:space="preserve">
<path fill-rule="evenodd" clip-rule="evenodd" fill="#686867" d="M36,11H0v18h36c1.657,0,3-1.343,3-3V14C39,12.343,37.657,11,36,11z
	"/>
<path fill-rule="evenodd" clip-rule="evenodd" fill="#EADDC3" d="M38,16.216c0,0,2,0.316,2,1.967s-2,2.95-2,2.95s1,0.207,1,1.967
	c0,1.76-2,1.967-2,1.967s1,0.316,1,1.967S36,29,36,29H20V11.299h2c3.551,0,4-4.917,4-4.917s0-4.365,0-4.917
	c0-1.1,0.819-2.084,3-0.983c2.181,1.1,2,3.554,2,5.9c0,1.76-1,4.917-1,4.917s5.633,0,8,0c1.09,0,2,0.316,2,1.967
	C40,14.916,38,16.216,38,16.216z"/>
<path fill-rule="evenodd" clip-rule="evenodd" fill="#FFFFFF" d="M16,9h1c2.209,0,4,1.791,4,4v14c0,2.209-1.791,4-4,4h-1
	c-2.209,0-4-1.791-4-4V13C12,10.791,13.791,9,16,9z"/>
<path fill-rule="evenodd" clip-rule="evenodd" d="M16.5,25c0.828,0,1.5,0.672,1.5,1.5S17.328,28,16.5,28c-0.828,0-1.5-0.672-1.5-1.5
	S15.672,25,16.5,25z"/>
</svg>
