<?xml version="1.0" encoding="utf-8"?>
<!-- Generator: Adobe Illustrator 17.0.0, SVG Export Plug-In . SVG Version: 6.00 Build 0)  -->
<!DOCTYPE svg PUBLIC "-//W3C//DTD SVG 1.1//EN" "http://www.w3.org/Graphics/SVG/1.1/DTD/svg11.dtd">
<svg version="1.1" id="Слой_1" xmlns="http://www.w3.org/2000/svg" xmlns:xlink="http://www.w3.org/1999/xlink" x="0px" y="0px"
	 width="18px" height="18px" viewBox="0 0 18 18" enable-background="new 0 0 18 18" xml:space="preserve">
<path d="M9,0C4.037,0,0,4.037,0,9s4.037,9,9,9s9-4.037,9-9S13.963,0,9,0 M6.159,11.142h5.682c-0.657,0.88-1.699,1.43-2.841,1.43
	C7.858,12.571,6.816,12.021,6.159,11.142"/>
<path fill="#FFC84B" d="M9,1C4.581,1,1,4.581,1,9s3.581,8,8,8s8-3.581,8-8S13.419,1,9,1 M12,5c0.553,0,1,0.447,1,1s-0.447,1-1,1
	s-1-0.447-1-1S11.447,5,12,5 M6,5c0.553,0,1,0.447,1,1S6.553,7,6,7S5,6.553,5,6S5.447,5,6,5 M9,13.571
	c-2.127,0-3.899-1.461-4.409-3.43h8.818C12.899,12.11,11.127,13.571,9,13.571"/>
<path d="M6,6c0.367,0,0.673,0.206,0.847,0.5C6.936,6.351,7,6.186,7,6c0-0.553-0.447-1-1-1S5,5.447,5,6
	c0,0.186,0.065,0.351,0.153,0.5C5.327,6.206,5.634,6,6,6 M13.004,11.142c0.168-0.315,0.312-0.646,0.405-1H4.591
	c0.092,0.354,0.237,0.685,0.406,1H13.004z M12,6c0.367,0,0.673,0.206,0.847,0.5C12.936,6.351,13,6.186,13,6c0-0.553-0.447-1-1-1
	c-0.554,0-1,0.447-1,1c0,0.186,0.064,0.351,0.152,0.5C11.327,6.206,11.634,6,12,6 M16.975,9.5C16.716,13.685,13.25,17,9,17
	s-7.715-3.315-7.974-7.5L1,10c0,4.419,3.581,8,8,8s8-3.581,8-8L16.975,9.5"/>
</svg>
