<?xml version="1.0" encoding="utf-8"?>
<!-- Generator: Adobe Illustrator 18.0.0, SVG Export Plug-In . SVG Version: 6.00 Build 0)  -->
<!DOCTYPE svg PUBLIC "-//W3C//DTD SVG 1.1//EN" "http://www.w3.org/Graphics/SVG/1.1/DTD/svg11.dtd">
<svg version="1.1" id="Layer_1" xmlns="http://www.w3.org/2000/svg" xmlns:xlink="http://www.w3.org/1999/xlink" x="0px" y="0px"
	 width="75px" height="14px" viewBox="0 0 75 14" enable-background="new 0 0 75 14" xml:space="preserve">
<polygon fill="#FDC854" points="44.023,4.989 38.774,4.987 37.024,-0.002 35.275,4.987 30.026,4.989 34.194,8.706 32.699,14 
	37.024,10.869 41.35,14 39.856,8.706 "/>
<polygon fill="#FDC854" points="13.997,4.991 8.748,4.989 6.998,0 5.249,4.989 0,4.991 4.168,8.708 2.674,14.002 6.998,10.871 
	11.324,14.002 9.83,8.708 "/>
<polygon fill="#FDC854" points="74.024,4.991 68.775,4.989 67.025,0 65.276,4.989 60.027,4.991 64.195,8.708 62.701,14.002 
	67.025,10.871 71.351,14.002 69.857,8.708 "/>
<polygon fill="#FDC854" points="58.973,4.989 53.724,4.987 51.974,-0.002 50.225,4.987 44.976,4.989 49.144,8.706 47.65,14 
	51.974,10.869 56.3,14 54.806,8.706 "/>
<polygon fill="#FDC854" points="28.973,4.989 23.724,4.987 21.974,-0.002 20.225,4.987 14.976,4.989 19.144,8.706 17.65,14 
	21.974,10.869 26.3,14 24.806,8.706 "/>
</svg>
