<?xml version="1.0" encoding="utf-8"?>
<!-- Generator: Adobe Illustrator 18.0.0, SVG Export Plug-In . SVG Version: 6.00 Build 0)  -->
<!DOCTYPE svg PUBLIC "-//W3C//DTD SVG 1.1//EN" "http://www.w3.org/Graphics/SVG/1.1/DTD/svg11.dtd">
<svg version="1.1" id="Layer_1" xmlns="http://www.w3.org/2000/svg" xmlns:xlink="http://www.w3.org/1999/xlink" x="0px" y="0px"
	 width="60px" height="10px" viewBox="0 0 60 10" enable-background="new 0 0 60 10" xml:space="preserve">
<path fill="#C8C8C8" d="M28.999,0l1.25,4.001l3.75,0.001l-2.978,2.656L31.999,10l-3-2l-3,2l0.978-3.342L24,4.002l3.75-0.001
	L28.999,0z"/>
<path fill="#C8C8C8" d="M4.999,0l1.25,4.001l3.75,0.001L7.021,6.658L7.999,10l-3-2l-3,2l0.978-3.342L0,4.002l3.75-0.001L4.999,0z"/>
<path fill="#C8C8C8" d="M53,0l1.25,4.001L58,4.002l-2.978,2.656L56,10l-3-2l-3,2l0.978-3.342l-2.977-2.656l3.75-0.001L53,0z"/>
<path fill="#C8C8C8" d="M40.999,0l1.25,4.001l3.75,0.001l-2.978,2.656L43.999,10l-3-2l-3,2l0.979-3.342L36,4.002l3.75-0.001
	L40.999,0z"/>
<path fill="#C8C8C8" d="M16.999,0l1.25,4.001l3.75,0.001l-2.978,2.656L19.999,10l-3-2l-3,2l0.978-3.342L12,4.002l3.75-0.001
	L16.999,0z"/>
</svg>
