<?xml version="1.0" encoding="utf-8"?>
<!-- Generator: Adobe Illustrator 18.0.0, SVG Export Plug-In . SVG Version: 6.00 Build 0)  -->
<!DOCTYPE svg PUBLIC "-//W3C//DTD SVG 1.1//EN" "http://www.w3.org/Graphics/SVG/1.1/DTD/svg11.dtd">
<svg version="1.1" id="Layer_1" xmlns="http://www.w3.org/2000/svg" xmlns:xlink="http://www.w3.org/1999/xlink" x="0px" y="0px"
	 width="75px" height="14px" viewBox="0 0 75 14" enable-background="new 0 0 75 14" xml:space="preserve">
<polygon fill="#C8C8C8" points="44.022,4.991 38.774,4.989 37.024,0 35.274,4.989 30.026,4.991 34.194,8.708 32.7,14.002 
	37.024,10.871 41.35,14.002 39.856,8.708 "/>
<polygon fill="#C8C8C8" points="13.996,4.991 8.748,4.989 6.998,0 5.248,4.989 0,4.991 4.168,8.708 2.674,14.002 6.998,10.871 
	11.324,14.002 9.83,8.708 "/>
<polygon fill="#C8C8C8" points="74.024,4.989 68.776,4.987 67.026,-0.002 65.276,4.987 60.028,4.989 64.196,8.706 62.702,14 
	67.026,10.869 71.352,14 69.858,8.706 "/>
<polygon fill="#C8C8C8" points="58.972,4.989 53.724,4.987 51.974,-0.002 50.224,4.987 44.976,4.989 49.144,8.706 47.65,14 
	51.974,10.869 56.3,14 54.806,8.706 "/>
<polygon fill="#C8C8C8" points="28.972,4.991 23.724,4.989 21.974,0 20.224,4.989 14.976,4.991 19.144,8.708 17.65,14.002 
	21.974,10.871 26.3,14.002 24.806,8.708 "/>
</svg>
