<?xml version="1.0" encoding="utf-8"?>
<!-- Generator: Adobe Illustrator 17.0.0, SVG Export Plug-In . SVG Version: 6.00 Build 0)  -->
<!DOCTYPE svg PUBLIC "-//W3C//DTD SVG 1.1//EN" "http://www.w3.org/Graphics/SVG/1.1/DTD/svg11.dtd">
<svg version="1.1" id="Layer_1" xmlns="http://www.w3.org/2000/svg" xmlns:xlink="http://www.w3.org/1999/xlink" x="0px" y="0px"
	 width="32px" height="32px" viewBox="0 0 32 32" enable-background="new 0 0 32 32" xml:space="preserve">
<path fill="#FFC63E" d="M10.001,11c1.104,0,2,0.895,2,2c0,1.104-0.896,2-2,2c-1.105,0-2-0.896-2-2C8.001,11.895,8.896,11,10.001,11z
	 M22.001,11c1.104,0,2,0.895,2,2c0,1.104-0.896,2-2,2c-1.105,0-2-0.896-2-2C20.001,11.895,20.896,11,22.001,11z M25.53,19.039
	C24.244,23.074,20.464,26,16.001,26c-4.455,0-8.23-2.914-9.523-6.939C9.329,19.061,21.396,19.039,25.53,19.039z M16.001,0
	c-8.838,0-16,7.164-16,16s7.162,16,16,16c8.836,0,16-7.164,16-16S24.837,0,16.001,0z M16.001,30c-7.732,0-14-6.27-14-14
	c0-7.732,6.268-14,14-14c6.766,0,12.41,4.799,13.716,11.178c0.187,0.912,0.284,1.855,0.284,2.822C30.001,23.732,23.733,30,16.001,30
	z"/>
</svg>
