<?xml version="1.0" encoding="utf-8"?>
<!-- Generator: Adobe Illustrator 18.0.0, SVG Export Plug-In . SVG Version: 6.00 Build 0)  -->
<!DOCTYPE svg PUBLIC "-//W3C//DTD SVG 1.1//EN" "http://www.w3.org/Graphics/SVG/1.1/DTD/svg11.dtd">
<svg version="1.1" id="Layer_1" xmlns="http://www.w3.org/2000/svg" xmlns:xlink="http://www.w3.org/1999/xlink" x="0px" y="0px"
	 width="90px" height="16px" viewBox="0 0 90 16" enable-background="new 0 0 90 16" xml:space="preserve">
<path fill-rule="evenodd" clip-rule="evenodd" fill="#EF595C" d="M47.049,6h4.668l-4.432,3.952l1.707,6.05l-4.942-3.578
	l-4.943,3.578l1.708-6.05L36.383,6h4.666V5.702h1.001l2-5.702l1.999,5.702h1V6z"/>
<path fill-rule="evenodd" clip-rule="evenodd" fill="#EF595C" d="M10.999,6h4.668l-4.432,3.952l1.707,6.05L8,12.424l-4.943,3.578
	l1.708-6.05L0.333,6h4.666V5.702H6L8,0l1.999,5.702h1V6z"/>
<path fill-rule="evenodd" clip-rule="evenodd" fill="#EF595C" d="M83.099,5.998h4.668L83.335,9.95L85.042,16L80.1,12.422L75.157,16
	l1.708-6.05l-4.432-3.952h4.666V5.7H78.1l2-5.702L82.099,5.7h1V5.998z"/>
<path fill-rule="evenodd" clip-rule="evenodd" fill="#EF595C" d="M29.049,6h4.668l-4.432,3.952l1.707,6.05l-4.942-3.578
	l-4.943,3.578l1.708-6.05L18.383,6h4.666V5.702h1.001l2-5.702l1.999,5.702h1V6z"/>
<path fill-rule="evenodd" clip-rule="evenodd" fill="#EF595C" d="M65.049,5.998h4.668L65.285,9.95L66.992,16l-4.942-3.578L57.107,16
	l1.708-6.05l-4.432-3.952h4.666V5.7h1.001l2-5.702L64.049,5.7h1V5.998z"/>
</svg>
