<?xml version="1.0" encoding="utf-8"?>
<!-- Generator: Adobe Illustrator 17.0.0, SVG Export Plug-In . SVG Version: 6.00 Build 0)  -->
<!DOCTYPE svg PUBLIC "-//W3C//DTD SVG 1.1//EN" "http://www.w3.org/Graphics/SVG/1.1/DTD/svg11.dtd">
<svg version="1.1" id="Layer_1" xmlns="http://www.w3.org/2000/svg" xmlns:xlink="http://www.w3.org/1999/xlink" x="0px" y="0px"
	 width="32px" height="32px" viewBox="0 0 32 32" enable-background="new 0 0 32 32" xml:space="preserve">
<path fill="#FFC63E" d="M23.967,22.121C21.621,20.771,18.9,20,16,20c-2.861,0-5.548,0.752-7.872,2.066
	c0.429,0.842,0.704,1.275,0.979,1.744C11.142,22.658,13.494,22,16,22c2.49,0,4.83,0.65,6.855,1.791
	C23.338,23.033,23.455,23.07,23.967,22.121z M10,11c1.104,0,2,0.895,2,2c0,1.104-0.896,2-2,2s-2-0.896-2-2C8,11.895,8.896,11,10,11z
	 M22,11c1.104,0,2,0.895,2,2c0,1.104-0.896,2-2,2s-2-0.896-2-2C20,11.895,20.896,11,22,11z M16,0C7.162,0,0,7.164,0,16
	s7.162,16,16,16c8.836,0,16-7.164,16-16S24.836,0,16,0z M16,30C8.268,30,2,23.73,2,16C2,8.268,8.268,2,16,2
	c6.766,0,12.41,4.799,13.716,11.178C29.902,14.09,30,15.033,30,16C30,23.732,23.732,30,16,30z"/>
</svg>
