<?xml version="1.0" encoding="utf-8"?>
<!-- Generator: Adobe Illustrator 17.0.0, SVG Export Plug-In . SVG Version: 6.00 Build 0)  -->
<!DOCTYPE svg PUBLIC "-//W3C//DTD SVG 1.1//EN" "http://www.w3.org/Graphics/SVG/1.1/DTD/svg11.dtd">
<svg version="1.1" id="Layer_1" xmlns="http://www.w3.org/2000/svg" xmlns:xlink="http://www.w3.org/1999/xlink" x="0px" y="0px"
	 width="32px" height="32px" viewBox="0 0 32 32" enable-background="new 0 0 32 32" xml:space="preserve">
<path fill="#FFFFFF" d="M10,11c1.105,0,2.001,0.896,2.001,2S11.105,15,10,15c-1.104,0-2-0.896-2-2S8.896,11,10,11z M22.001,11
	c1.104,0,2,0.896,2,2s-0.896,2-2,2c-1.105,0-2-0.896-2-2S20.896,11,22.001,11z M25.53,19.039C24.244,23.075,20.464,26,16.001,26
	c-4.455,0-8.229-2.913-9.522-6.938C9.33,19.062,21.396,19.039,25.53,19.039z M16.001,0C7.164,0,0,7.164,0,16
	c0,8.837,7.164,16,16.001,16c8.836,0,16-7.163,16-16C32.001,7.164,24.837,0,16.001,0z M16.001,30C8.269,30,2,23.731,2,16
	C2,8.268,8.269,2,16.001,2c6.766,0,12.41,4.799,13.716,11.179c0.187,0.911,0.284,1.855,0.284,2.821
	C30.001,23.732,23.733,30,16.001,30z"/>
</svg>
