<?xml version="1.0" encoding="utf-8"?>
<!-- Generator: Adobe Illustrator 17.0.0, SVG Export Plug-In . SVG Version: 6.00 Build 0)  -->
<!DOCTYPE svg PUBLIC "-//W3C//DTD SVG 1.1//EN" "http://www.w3.org/Graphics/SVG/1.1/DTD/svg11.dtd">
<svg version="1.1" id="Layer_1" xmlns="http://www.w3.org/2000/svg" xmlns:xlink="http://www.w3.org/1999/xlink" x="0px" y="0px"
	 width="32px" height="32px" viewBox="0 0 32 32" enable-background="new 0 0 32 32" xml:space="preserve">
<path fill="#FFFFFF" d="M10,11c1.104,0,2,0.896,2,2s-0.896,2-2,2s-2-0.896-2-2S8.896,11,10,11z M22,11c1.104,0,2,0.896,2,2
	s-0.896,2-2,2s-2-0.896-2-2S20.896,11,22,11z M9,20h14c0.553,0,1,0.447,1,1s-0.447,1-1,1H9c-0.553,0-1-0.447-1-1S8.447,20,9,20z
	 M16,0C7.162,0,0,7.164,0,16c0,8.837,7.162,16,16,16c8.836,0,16-7.163,16-16C32,7.164,24.836,0,16,0z M16,30C8.268,30,2,23.731,2,16
	C2,8.268,8.268,2,16,2c6.766,0,12.41,4.799,13.716,11.179C29.902,14.09,30,15.033,30,16C30,23.732,23.732,30,16,30z"/>
</svg>
