<?xml version="1.0" encoding="utf-8"?>
<!-- Generator: Adobe Illustrator 17.1.0, SVG Export Plug-In . SVG Version: 6.00 Build 0)  -->
<!DOCTYPE svg PUBLIC "-//W3C//DTD SVG 1.1//EN" "http://www.w3.org/Graphics/SVG/1.1/DTD/svg11.dtd">
<svg version="1.1" id="Layer_1" xmlns="http://www.w3.org/2000/svg" xmlns:xlink="http://www.w3.org/1999/xlink" x="0px" y="0px"
	 viewBox="0 0 20 36" style="enable-background:new 0 0 20 36;" xml:space="preserve">
<path style="fill:#1DAAD6;" d="M12.9,27.7c1.3-2.8,2-5.9,1.9-9.1C14.6,13,12.1,8.1,8.3,4.7L4.8,8.3c2.9,2.6,4.7,6.3,4.9,10.4
	c0.1,2.2-0.3,4.4-1.2,6.3L6,23.6l-0.5,0.9l1.2,7.8l0.9,0.5l7.5-2.5l0.5-0.9L12.9,27.7z"/>
<path style="opacity:0.2;fill:#666666;" d="M8.3,4.7c3.8,3.5,6.3,8.4,6.5,13.9c0.1,3.3-0.6,6.4-1.9,9.1l2.7,1.6l-0.5,0.9l-7.5,2.5
	l-0.9-0.5l-1.2-7.8L6,23.6l2.6,1.5c0.8-1.9,1.2-4.1,1.2-6.3c-0.2-4.1-2-7.8-4.9-10.4L8.3,4.7 M8.1,0.4l-2,2.2L2.6,6.3L0.6,8.5l2.3,2
	c2.4,2.2,3.8,5.1,3.9,8.3c0,0.5,0,1.1,0,1.6l-1.7-1L3.4,22l-0.5,0.9l-0.6,0.9l0.2,1.1l1.2,7.8L4,34l1.2,0.7L6,35.3L7.2,36l1.3-0.4
	l7.5-2.5l1-0.3l0.6-0.9l0.5-0.9l1.6-2.6l-2.6-1.6l-0.5-0.3c0.9-2.6,1.2-5.3,1.1-8c-0.3-6.2-2.9-11.8-7.5-16L8.1,0.4L8.1,0.4z"/>
<path style="fill:#FFFFFF;" d="M8.3,4.7c3.8,3.5,6.3,8.4,6.5,13.9c0.1,3.3-0.6,6.4-1.9,9.1l2.7,1.6l-0.5,0.9l-7.5,2.5l-0.9-0.5
	l-1.2-7.8L6,23.6l2.6,1.5c0.8-1.9,1.2-4.1,1.2-6.3c-0.2-4.1-2-7.8-4.9-10.4L8.3,4.7 M8.2,1.8L6.8,3.3L3.4,7L2,8.5l1.5,1.4
	c2.6,2.4,4.1,5.6,4.2,9c0,1.1-0.1,2.2-0.3,3.3L7,21.8l-1.7-1l-1,1.7l-0.5,0.9L3.4,24l0.1,0.7l1.2,7.8l0.1,0.9l0.8,0.5l0.9,0.5
	l0.8,0.5l0.9-0.3l7.5-2.5l0.7-0.2l0.4-0.6l0.5-0.9l1.1-1.7l-1.7-1l-1.2-0.7c1-2.7,1.5-5.5,1.3-8.4C16.6,12.6,14,7.2,9.6,3.2L8.2,1.8
	L8.2,1.8z"/>
</svg>
