<?xml version="1.0" encoding="utf-8"?>
<!-- Generator: Adobe Illustrator 17.1.0, SVG Export Plug-In . SVG Version: 6.00 Build 0)  -->
<!DOCTYPE svg PUBLIC "-//W3C//DTD SVG 1.1//EN" "http://www.w3.org/Graphics/SVG/1.1/DTD/svg11.dtd">
<svg version="1.1" id="Layer_1" xmlns="http://www.w3.org/2000/svg" xmlns:xlink="http://www.w3.org/1999/xlink" x="0px" y="0px"
	 viewBox="0 0 20 36" style="enable-background:new 0 0 20 36;" xml:space="preserve">
<path style="fill:#1DAAD6;" d="M11.7,25.1c-0.8-1.9-1.2-4.1-1.2-6.3c0.2-4.1,2-7.8,4.9-10.4L12,4.7C8.1,8.1,5.7,13,5.4,18.6
	c-0.1,3.3,0.6,6.4,1.9,9.1l-2.7,1.6l0.5,0.9l7.5,2.5l0.9-0.5l1.2-7.8l-0.5-0.9L11.7,25.1z"/>
<path style="opacity:0.2;fill:#666666;" d="M12,4.7l3.4,3.7c-2.9,2.6-4.7,6.3-4.9,10.4c-0.1,2.2,0.3,4.4,1.2,6.3l2.6-1.5l0.5,0.9
	l-1.2,7.8l-0.9,0.5l-7.5-2.5l-0.5-0.9l2.7-1.6c-1.3-2.8-2-5.9-1.9-9.1C5.7,13,8.1,8.1,12,4.7 M12.1,0.4l-2.2,2
	c-4.6,4.2-7.3,9.9-7.5,16c-0.1,2.7,0.3,5.4,1.1,8l-0.5,0.3l-2.6,1.6L2,30.9l0.5,0.9l0.6,0.9l1,0.3l7.5,2.5L13,36l1.2-0.7l0.9-0.5
	l1.2-0.7l0.2-1.4l1.2-7.8l0.2-1.1l-0.6-0.9L16.8,22l-1.5-2.5l-1.7,1c-0.1-0.5-0.1-1.1,0-1.6c0.1-3.2,1.5-6.2,3.9-8.3l2.3-2l-2.1-2.2
	l-3.4-3.7L12.1,0.4L12.1,0.4z"/>
<path style="fill:#FFFFFF;" d="M12,4.7l3.4,3.7c-2.9,2.6-4.7,6.3-4.9,10.4c-0.1,2.2,0.3,4.4,1.2,6.3l2.6-1.5l0.5,0.9l-1.2,7.8
	l-0.9,0.5l-7.5-2.5l-0.5-0.9l2.7-1.6c-1.3-2.8-2-5.9-1.9-9.1C5.7,13,8.1,8.1,12,4.7 M12.1,1.8l-1.5,1.3c-4.4,4-6.9,9.4-7.2,15.3
	c-0.1,2.9,0.3,5.7,1.3,8.4l-1.2,0.7l-1.7,1l1.1,1.7l0.5,0.9l0.4,0.6l0.7,0.2l7.5,2.5l0.9,0.3l0.8-0.5l0.9-0.5l0.8-0.5l0.1-0.9
	l1.2-7.8l0.1-0.7l-0.4-0.6L16,22.5l-1-1.7l-1.7,1l-0.4,0.3c-0.2-1.1-0.3-2.2-0.3-3.3c0.1-3.5,1.6-6.7,4.2-9l1.5-1.4L16.9,7l-3.4-3.7
	L12.1,1.8L12.1,1.8z"/>
</svg>
