<?xml version="1.0" encoding="utf-8"?>
<!-- Generator: Adobe Illustrator 18.0.0, SVG Export Plug-In . SVG Version: 6.00 Build 0)  -->
<!DOCTYPE svg PUBLIC "-//W3C//DTD SVG 1.1//EN" "http://www.w3.org/Graphics/SVG/1.1/DTD/svg11.dtd">
<svg version="1.1" id="Layer_1" xmlns="http://www.w3.org/2000/svg" xmlns:xlink="http://www.w3.org/1999/xlink" x="0px" y="0px"
	 width="12px" height="9px" viewBox="0 0 12 9" enable-background="new 0 0 12 9" xml:space="preserve">
<path fill-rule="evenodd" clip-rule="evenodd" fill="#FFFFFF" d="M3,0h1l2,6l0,0l2-6h1c1.818,1.142,2.984,3.195,3,5.497
	c0,0.076-0.008,0.155-0.011,0.232c-0.005,0.187-0.02,0.371-0.041,0.554c-0.111,0.843-0.417,1.753-0.936,2.712
	C11.008,8.996,11.006,8.998,11.002,9H9c2-3,1-6,0-7C8.998,2.037,7,9,7,9H6H5c0,0-2.1-7.009-2-7C2,3,1,6,3,9H1
	C0.464,8.024,0.167,7.14,0.054,6.282C0.033,6.1,0.019,5.915,0.014,5.729C0.01,5.651,0.003,5.573,0.002,5.497
	C0.018,3.195,1.182,1.142,3,0z"/>
</svg>
