<?xml version="1.0" encoding="utf-8"?>
<!-- Generator: Adobe Illustrator 18.0.0, SVG Export Plug-In . SVG Version: 6.00 Build 0)  -->
<!DOCTYPE svg PUBLIC "-//W3C//DTD SVG 1.1//EN" "http://www.w3.org/Graphics/SVG/1.1/DTD/svg11.dtd">
<svg version="1.1" id="Layer_1" xmlns="http://www.w3.org/2000/svg" xmlns:xlink="http://www.w3.org/1999/xlink" x="0px" y="0px"
	 width="10px" height="14px" viewBox="0 0 10 14" enable-background="new 0 0 10 14" xml:space="preserve">
<path fill-rule="evenodd" clip-rule="evenodd" fill="#FFFFFF" d="M8.82,10.816L7,9.995H3l-1.82,0.82C0.485,10.502,0,9.807,0,8.995
	v-1v-1l1-4C0.964,0.321,3.323,0.031,5,0c1.677,0.031,4.036,0.321,4,2.995l1,4v1v1C10,9.807,9.515,10.502,8.82,10.816z M1,8.995h2v-2
	H1V8.995z M5,1.999C3.663,2.021,2.013,2.172,2,3.195l-0.375,2.8h6.75L8,3.195C7.986,2.172,6.337,2.021,5,1.999z M9,6.995H7v2h2
	V6.995z M7,10.995l1,3H2l1-3H7z"/>
</svg>
