<?xml version="1.0" encoding="utf-8"?>
<!-- Generator: Adobe Illustrator 18.0.0, SVG Export Plug-In . SVG Version: 6.00 Build 0)  -->
<!DOCTYPE svg PUBLIC "-//W3C//DTD SVG 1.1//EN" "http://www.w3.org/Graphics/SVG/1.1/DTD/svg11.dtd">
<svg version="1.1" id="Layer_1" xmlns="http://www.w3.org/2000/svg" xmlns:xlink="http://www.w3.org/1999/xlink" x="0px" y="0px"
	 width="12px" height="15px" viewBox="0 0 12 15" enable-background="new 0 0 12 15" xml:space="preserve">
<g>
	<g>
		<path fill-rule="evenodd" clip-rule="evenodd" fill="#FFFFFF" d="M11.5,6H11V5.5C11,4.395,9.104,3,8,3l2-3H9L7,3H4.5l2-3h-1l-2,3
			H4C2.896,3,1,4.396,1,5.5V6H0.5C0.224,6,0,6.224,0,6.5v2C0,8.776,0.224,9,0.5,9H1v5h1v1h2v-1h4v1h2v-1h1V9h0.5
			C11.776,9,12,8.776,12,8.5v-2C12,6.224,11.776,6,11.5,6z M4,13H2v-2l2,1V13z M10,13H8v-1l2-1V13z M10,9H2V6c0-0.552,0.448-1,1-1h6
			c0.552,0,1,0.448,1,1V9z"/>
	</g>
</g>
</svg>
