<?xml version="1.0" encoding="utf-8"?>
<!-- Generator: Adobe Illustrator 18.0.0, SVG Export Plug-In . SVG Version: 6.00 Build 0)  -->
<!DOCTYPE svg PUBLIC "-//W3C//DTD SVG 1.1//EN" "http://www.w3.org/Graphics/SVG/1.1/DTD/svg11.dtd">
<svg version="1.1" id="Layer_1" xmlns="http://www.w3.org/2000/svg" xmlns:xlink="http://www.w3.org/1999/xlink" x="0px" y="0px"
	 width="9px" height="14px" viewBox="0 0 9 14" enable-background="new 0 0 9 14" xml:space="preserve">
<g>
	<g>
		<path fill-rule="evenodd" clip-rule="evenodd" fill="#A0A0A0" d="M8.95,12.834l-4.107-5.81V5.752l2.872,1.562
			c0,0,0.141,0.009,0.355,0.009c0.474,0,0.858-0.372,0.858-0.831c0-0.417-0.312-0.679-0.527-0.766L5.377,4H3.179
			C0.844,5.247,1.152,4.502,0.006,7.717C0.003,9.035,1.52,8.69,1.592,8.287c0,0.009,0.736-2.157,0.736-2.157l0.824-0.399l-0.836,5.1
			c0,0-1.975,1.774-1.966,1.765c-0.961,0.901,0.279,1.835,1.053,1.11c-0.002,0.004,2.467-1.989,2.467-1.989l0.619-2.234l2.765,3.894
			c0.107,0.341,0.43,0.591,0.818,0.591C9.223,13.904,8.95,12.834,8.95,12.834z M4.493,3c0.828,0,1.5-0.672,1.5-1.5
			c0-0.828-0.672-1.5-1.5-1.5c-0.828,0-1.5,0.672-1.5,1.5C2.993,2.328,3.664,3,4.493,3z"/>
	</g>
</g>
</svg>
