<?xml version="1.0" encoding="utf-8"?>
<!-- Generator: Adobe Illustrator 18.0.0, SVG Export Plug-In . SVG Version: 6.00 Build 0)  -->
<!DOCTYPE svg PUBLIC "-//W3C//DTD SVG 1.1//EN" "http://www.w3.org/Graphics/SVG/1.1/DTD/svg11.dtd">
<svg version="1.1" id="Layer_1" xmlns="http://www.w3.org/2000/svg" xmlns:xlink="http://www.w3.org/1999/xlink" x="0px" y="0px"
	 width="10px" height="15px" viewBox="0 0 10 15" enable-background="new 0 0 10 15" xml:space="preserve">
<path fill-rule="evenodd" clip-rule="evenodd" fill="#A0A0A0" d="M10,11H9V9H7v2l0,0l0,0H10L10,11
	c-0.155,1.232-1.084,1.699-1.802,1.593L10,15H8l-0.678-2.033H2.678L2,15H0l1.802-2.407C1.084,12.699,0.155,12.232,0,11h3l0,0l0,0
	l0-2H1l0,2H0l0,0l0,0l0-1l0,0l1-3C0.964,4.325,3.323,4.036,5,4.005C6.677,4.036,9.037,4.325,9,7l1,3l0,0V11L10,11z M8,6.196
	C7.987,5.173,6.337,5.021,5,5C3.663,5.021,2.014,5.173,2,6.196L1.625,8h6.75L8,6.196z M6,4l0.333-1H3.667L4,4H3L2,2V1
	c0-0.552,0.448-1,1-1h4c0.552,0,1,0.448,1,1v1L7,4H6z M3,1L3,1l0.333,1h3.333L7,1H3z"/>
</svg>
