<?xml version="1.0" encoding="utf-8"?>
<!-- Generator: Adobe Illustrator 18.0.0, SVG Export Plug-In . SVG Version: 6.00 Build 0)  -->
<!DOCTYPE svg PUBLIC "-//W3C//DTD SVG 1.1//EN" "http://www.w3.org/Graphics/SVG/1.1/DTD/svg11.dtd">
<svg version="1.1" id="Layer_1" xmlns="http://www.w3.org/2000/svg" xmlns:xlink="http://www.w3.org/1999/xlink" x="0px" y="0px"
	 width="10px" height="12px" viewBox="0 0 10 12" enable-background="new 0 0 10 12" xml:space="preserve">
<path fill-rule="evenodd" clip-rule="evenodd" fill="#FFFFFF" d="M7.993,8.993C8.608,8.172,9,7.337,9,7V3c0-0.662-0.668-2-2-2L6,0H4
	L3,1C1.609,1,1,2.13,1,3v4c0,0.345,0.391,1.178,1.004,1.996L0,11v1h1l1.956-1.956C3.573,10.596,4.28,11,5,11
	c0.719,0,1.426-0.405,2.041-0.959L9,12h1v-1L7.993,8.993z M4,9H3V8h1V9z M7,9H6V8h1V9z M7,5c0,0.359-0.835,2-2,2
	C3.835,7,3,5.392,3,5V3c0-0.692,0.305-1,1-1h2c0.732,0,1,0.259,1,1V5z"/>
</svg>
