<?xml version="1.0" encoding="utf-8"?>
<!-- Generator: Adobe Illustrator 18.0.0, SVG Export Plug-In . SVG Version: 6.00 Build 0)  -->
<!DOCTYPE svg PUBLIC "-//W3C//DTD SVG 1.1//EN" "http://www.w3.org/Graphics/SVG/1.1/DTD/svg11.dtd">
<svg version="1.1" id="Layer_1" xmlns="http://www.w3.org/2000/svg" xmlns:xlink="http://www.w3.org/1999/xlink" x="0px" y="0px"
	 width="12px" height="9px" viewBox="0 0 12 9" enable-background="new 0 0 12 9" xml:space="preserve">
<path fill-rule="evenodd" clip-rule="evenodd" fill="#FFFFFF" d="M11,5v4H9V8H6H3v1H1V5H0V3h1h1l0,0c0-1.105,1.895-3,3-3h1h1
	c1.105,0,3,1.895,3,3l0,0h1h1v2H11z M8,7h2V5L8,6V7z M2,7h2V6L2,5V7z M7,2H6H5C2.951,1.957,2.98,3.056,3,4h3h3
	C9.019,3.056,9.049,1.957,7,2z"/>
</svg>
