<?xml version="1.0" encoding="utf-8"?>
<!-- Generator: Adobe Illustrator 18.0.0, SVG Export Plug-In . SVG Version: 6.00 Build 0)  -->
<!DOCTYPE svg PUBLIC "-//W3C//DTD SVG 1.1//EN" "http://www.w3.org/Graphics/SVG/1.1/DTD/svg11.dtd">
<svg version="1.1" id="Layer_1" xmlns="http://www.w3.org/2000/svg" xmlns:xlink="http://www.w3.org/1999/xlink" x="0px" y="0px"
	 width="16px" height="16px" viewBox="0 0 16 16" enable-background="new 0 0 16 16" xml:space="preserve">
<path fill-rule="evenodd" clip-rule="evenodd" fill="#A0A0A0" d="M9,4H7C6.305,4,6,4.308,6,5v2c0,0.392,0.835,2,2,2
	c1.165,0,2-1.641,2-2V5C10,4.259,9.732,4,9,4z M6,11h1v-1H6V11z M8,0C3.582,0,0,3.582,0,8s3.582,8,8,8s8-3.582,8-8S12.418,0,8,0z
	 M13,14h-1l-1.959-1.959C9.425,12.595,8.719,13,8,13c-0.72,0-1.427-0.404-2.044-0.956L4,14H3v-1l2.004-2.004
	C4.391,10.178,4,9.345,4,9V5c0-0.871,0.609-2,2-2l1-1h2l1,1c1.332,0,2,1.338,2,2v4c0,0.337-0.392,1.172-1.007,1.993L13,13V14z M9,11
	h1v-1H9V11z"/>
</svg>
