<?xml version="1.0" encoding="utf-8"?>
<!-- Generator: Adobe Illustrator 18.0.0, SVG Export Plug-In . SVG Version: 6.00 Build 0)  -->
<!DOCTYPE svg PUBLIC "-//W3C//DTD SVG 1.1//EN" "http://www.w3.org/Graphics/SVG/1.1/DTD/svg11.dtd">
<svg version="1.1" id="Layer_1" xmlns="http://www.w3.org/2000/svg" xmlns:xlink="http://www.w3.org/1999/xlink" x="0px" y="0px"
	 width="10px" height="12px" viewBox="0 0 10 12" enable-background="new 0 0 10 12" xml:space="preserve">
<path fill-rule="evenodd" clip-rule="evenodd" fill="#FFFFFF" d="M10,2V0L0,1v2l5.001-0.5V4h-3c-1.316,0.041-2.037,0.804-2,2v5
	c0,0.552,0.448,1,1,1H9c0.552,0,1-0.448,1-1V6c0.037-1.196-0.684-1.959-2-2H6.001V2.4L10,2z M5.001,9h-4V7c0-0.552,0.448-1,1-1h3V9z
	 M8,6c0.552,0,1,0.448,1,1v2H6.001V6H8z"/>
</svg>
