<?xml version="1.0" encoding="utf-8"?>
<!-- Generator: Adobe Illustrator 18.0.0, SVG Export Plug-In . SVG Version: 6.00 Build 0)  -->
<!DOCTYPE svg PUBLIC "-//W3C//DTD SVG 1.1//EN" "http://www.w3.org/Graphics/SVG/1.1/DTD/svg11.dtd">
<svg version="1.1" id="Layer_1" xmlns="http://www.w3.org/2000/svg" xmlns:xlink="http://www.w3.org/1999/xlink" x="0px" y="0px"
	 width="12px" height="11px" viewBox="0 0 12 11" enable-background="new 0 0 12 11" xml:space="preserve">
<path fill-rule="evenodd" clip-rule="evenodd" fill="#FFFFFF" d="M11,6v5H9v-1H3v1H1V6H0V4h1l0,0c0-0.492,0.006-4.007,3.5-4
	c0.563,0,3.347,0,3,0C10.994-0.007,11,3.508,11,4l0,0h1v2H11z M2,8h2V7L2,6V8z M10,3c0-0.552-0.448-1-1-1H3C2.448,2,2,2.448,2,3v2
	l8,0V3z M10,6L8,7v1h2V6z"/>
</svg>
