<?xml version="1.0" encoding="utf-8"?>
<!-- Generator: Adobe Illustrator 18.0.0, SVG Export Plug-In . SVG Version: 6.00 Build 0)  -->
<!DOCTYPE svg PUBLIC "-//W3C//DTD SVG 1.1//EN" "http://www.w3.org/Graphics/SVG/1.1/DTD/svg11.dtd">
<svg version="1.1" id="Layer_1" xmlns="http://www.w3.org/2000/svg" xmlns:xlink="http://www.w3.org/1999/xlink" x="0px" y="0px"
	 width="10px" height="12px" viewBox="0 0 10 12" enable-background="new 0 0 10 12" xml:space="preserve">
<path fill-rule="evenodd" clip-rule="evenodd" fill="#A0A0A0" d="M9.999,2V0l-10,1v2L5,2.5V4H2C0.684,4.041-0.037,4.804,0,6v5
	c0,0.552,0.448,1,1,1h7.999c0.552,0,1-0.448,1-1V6c0.037-1.196-0.684-1.959-2-2H6V2.4L9.999,2z M5,9H1V7c0-0.552,0.448-1,1-1h3V9z
	 M7.999,6c0.552,0,1,0.448,1,1v2H6V6H7.999z"/>
</svg>
