<?xml version="1.0" encoding="utf-8"?>
<!-- Generator: Adobe Illustrator 18.0.0, SVG Export Plug-In . SVG Version: 6.00 Build 0)  -->
<!DOCTYPE svg PUBLIC "-//W3C//DTD SVG 1.1//EN" "http://www.w3.org/Graphics/SVG/1.1/DTD/svg11.dtd">
<svg version="1.1" id="Layer_1" xmlns="http://www.w3.org/2000/svg" xmlns:xlink="http://www.w3.org/1999/xlink" x="0px" y="0px"
	 width="10px" height="16px" viewBox="0 0 10 16" enable-background="new 0 0 10 16" xml:space="preserve">
<g>
	<g>
		<path fill-rule="evenodd" clip-rule="evenodd" fill="#A0A0A0" d="M10,11V5c0-2-1-3-3-3v0c0-1.105-0.895-2-2-2C3.896,0,3,0.895,3,2
			h0C1,2,0,3,0,5v6c0,1.105,0.895,2,2,2l-2,3h2l1-3h4l1,3h2l-2-3C9.105,13,10,12.105,10,11z M4,1h2v2H4V1z M4,11H2V9h2V11z M4.5,7
			h-3V5l1-1h2V7z M8,11H6V9h2V11z M8.5,7h-3V4h2l1,1V7z"/>
	</g>
</g>
</svg>
