<?xml version="1.0" encoding="utf-8"?>
<!-- Generator: Adobe Illustrator 18.0.0, SVG Export Plug-In . SVG Version: 6.00 Build 0)  -->
<!DOCTYPE svg PUBLIC "-//W3C//DTD SVG 1.1//EN" "http://www.w3.org/Graphics/SVG/1.1/DTD/svg11.dtd">
<svg version="1.1" id="Layer_1" xmlns="http://www.w3.org/2000/svg" xmlns:xlink="http://www.w3.org/1999/xlink" x="0px" y="0px"
	 width="12px" height="15px" viewBox="0 0 12 15" enable-background="new 0 0 12 15" xml:space="preserve">
<g>
	<g>
		<path fill-rule="evenodd" clip-rule="evenodd" fill="#FFFFFF" d="M12,7.992l-4,2.061h2c0,1.199-1.278,2.197-3,2.485V7.992h0.75
			v-1.03H7V5.811C8.163,5.398,9,4.3,9,2.997C9,1.342,7.657,0,6,0S3,1.342,3,2.997C3,4.3,3.837,5.398,5,5.811v1.151H4.25v1.03H5
			v4.545c-1.722-0.287-3-1.286-3-2.485h2L0,7.992v5.151l0.673-2.081c0.522,1.549,2.21,2.748,4.327,3.04v0.712h2v-0.712
			c2.117-0.292,3.805-1.491,4.327-3.04L12,13.144V7.992z M5,1.936h2v2.061H5V1.936z"/>
	</g>
</g>
</svg>
