<?xml version="1.0" encoding="utf-8"?>
<!-- Generator: Adobe Illustrator 18.0.0, SVG Export Plug-In . SVG Version: 6.00 Build 0)  -->
<!DOCTYPE svg PUBLIC "-//W3C//DTD SVG 1.1//EN" "http://www.w3.org/Graphics/SVG/1.1/DTD/svg11.dtd">
<svg version="1.1" id="Layer_1" xmlns="http://www.w3.org/2000/svg" xmlns:xlink="http://www.w3.org/1999/xlink" x="0px" y="0px"
	 width="12px" height="12px" viewBox="0 0 12 12" enable-background="new 0 0 12 12" xml:space="preserve">
<path fill-rule="evenodd" clip-rule="evenodd" fill="#FFFFFF" d="M11.5,6H11v5h-1v1H8v-1H4v1H2v-1H1v-1V6l0,0l0,0H0.5
	C0.224,6,0,5.776,0,5.5v-2C0,3.224,0.224,3,0.5,3l0,0H1V2.5l0,0C1,1.395,2.895,0,4,0h4c1.105,0,3,1.395,3,2.5v0l0,0V3h0.5l0,0
	C11.776,3,12,3.224,12,3.5v2C12,5.776,11.776,6,11.5,6z M2,10h2V9L2,8V10z M10,3L10,3c0-0.552-0.448-1-1-1H3C2.448,2,2,2.448,2,3v3
	h8V3z M10,8L8,9v1h2V8z"/>
</svg>
