<?xml version="1.0" encoding="utf-8"?>
<!-- Generator: Adobe Illustrator 18.0.0, SVG Export Plug-In . SVG Version: 6.00 Build 0)  -->
<!DOCTYPE svg PUBLIC "-//W3C//DTD SVG 1.1//EN" "http://www.w3.org/Graphics/SVG/1.1/DTD/svg11.dtd">
<svg version="1.1" id="Layer_1" xmlns="http://www.w3.org/2000/svg" xmlns:xlink="http://www.w3.org/1999/xlink" x="0px" y="0px"
	 width="16px" height="14px" viewBox="0 0 16 14" enable-background="new 0 0 16 14" xml:space="preserve">
<path fill-rule="evenodd" clip-rule="evenodd" fill="#9F9F9F" d="M1.907,14C0.72,12.517,0,10.599,0,8.5C0,3.806,3.582,0,8,0
	s8,3.806,8,8.5c0,2.099-0.72,4.017-1.907,5.5H1.907z"/>
<path fill-rule="evenodd" clip-rule="evenodd" fill="#FFFFFF" d="M4.998,3h1l2,6l0,0l2-6h1c1.818,1.142,2.984,3.195,3,5.497
	c0,0.076-0.008,0.155-0.011,0.232c-0.005,0.187-0.02,0.371-0.041,0.554c-0.111,0.843-0.417,1.753-0.936,2.712
	C13.006,11.996,13.003,11.998,13,12l-2.002,0c2-3,1-6,0-7c-0.002,0.037-2,7-2,7h-1h-1c0,0-2.1-7.009-2-7c-1,1-2,4,0,7h-2
	c-0.536-0.976-0.833-1.86-0.946-2.718C2.031,9.1,2.017,8.915,2.011,8.729C2.008,8.651,2.001,8.573,2,8.497
	C2.016,6.195,3.18,4.142,4.998,3z"/>
</svg>
