<?xml version="1.0" encoding="utf-8"?>
<!-- Generator: Adobe Illustrator 17.1.0, SVG Export Plug-In . SVG Version: 6.00 Build 0)  -->
<!DOCTYPE svg PUBLIC "-//W3C//DTD SVG 1.1//EN" "http://www.w3.org/Graphics/SVG/1.1/DTD/svg11.dtd">
<svg version="1.1" id="Слой_1" xmlns="http://www.w3.org/2000/svg" xmlns:xlink="http://www.w3.org/1999/xlink" x="0px" y="0px"
	 width="19px" height="24px" viewBox="0 0 19 24" enable-background="new 0 0 19 24" xml:space="preserve">
<path fill="#49b2e0" d="M18,16.8c-0.4,0.4-0.8,0.8-1.3,1.2c0.8,1.1,0.6,2.3-0.5,2.9c-0.7,0.4-1.5,0.2-2.2-0.4
	c-1.1-1-2.1-2.1-3.2-3.2c-1.1-1.1-2.7-1.3-4-0.7c-1.4,0.6-2.2,2-2.1,3.5c0,0.8,0.3,1.5,0.8,2.1c0.5,0.5,1,1,1.5,1.5
	c0.4,0.4,0.9,0.4,1.3,0c0.3-0.3,0.3-0.9,0-1.3c-0.4-0.4-0.8-0.8-1.2-1.2c-0.7-0.8-0.7-1.9,0-2.6c0.7-0.7,1.8-0.7,2.6,0
	c1.1,1.1,2.1,2.1,3.2,3.2c1,1,2.2,1.3,3.6,0.9c1.4-0.4,2.2-1.4,2.5-2.8C19.2,18.7,18.8,17.6,18,16.8z M7.5,11.3
	c1.6,1.4,5.2,4.2,7,5.8c0.4,0.4,0.9,0.4,1.3,0.1c0.4-0.2,0.7-0.5,1-0.8c0.8-0.8,0.7-1.3,0-2.1c-1.5-1.7-4.2-5.1-5.6-6.6
	C11.1,8.5,10.6,9.3,10,10C9.3,10.7,8.4,11.1,7.5,11.3z M9.2,9.1c2.1-2.1,2.1-5.4,0.1-7.5L1.6,9.2C3.7,11.2,7.1,11.2,9.2,9.1z
	 M1.6,1.6c-1.8,1.8-2.1,4.7-0.7,6.8l7.4-7.4C6.3-0.5,3.4-0.3,1.6,1.6z"/>
</svg>
