<?xml version="1.0" encoding="utf-8"?>
<!-- Generator: Adobe Illustrator 17.1.0, SVG Export Plug-In . SVG Version: 6.00 Build 0)  -->
<!DOCTYPE svg PUBLIC "-//W3C//DTD SVG 1.1//EN" "http://www.w3.org/Graphics/SVG/1.1/DTD/svg11.dtd">
<svg version="1.1" id="Слой_1" xmlns="http://www.w3.org/2000/svg" xmlns:xlink="http://www.w3.org/1999/xlink" x="0px" y="0px"
	 width="18px" height="23px" viewBox="0 0 18 23" enable-background="new 0 0 18 23" xml:space="preserve">
<path fill="#D2875C" d="M16,14.8c0-0.3-0.1-0.5-0.2-0.8c0-4.7,1.4-6.6,1.4-6.6s-4.3,3.3-4.8,4.1c-0.9-2.9,0.3-6.7,0.9-8.1
	C13,3.5,9.7,5.9,8.6,8.6C7.9,7,9.4,1.7,10.3,0C3.8,4.6,0,9.7,0,13.9c0,3.2,0.8,8.3,8.6,8.3c4.6,0,6.9-1.8,7.4-5.2l0.1,0.1
	c0-0.2,0-0.3,0-0.4C16,16,16,15.4,16,14.8z M11.8,18c-0.4,0.9-0.7,1.2-3.5,1.3c-2.8,0.1-3.4-0.6-3.9-1.8c-1.5-3.2,0.4-5.2,0.3-5
	c-0.1,0.2-0.7,2.3,2.1,4c-1.3-2,1.1-4.3,2-5.4c0,2.8,1,5.4,1,5.4s1.6-0.1,2.7-3.9C13,15.6,13.1,15.4,11.8,18z"/>
</svg>
