<?xml version="1.0" encoding="utf-8"?>
<!-- Generator: Adobe Illustrator 17.1.0, SVG Export Plug-In . SVG Version: 6.00 Build 0)  -->
<!DOCTYPE svg PUBLIC "-//W3C//DTD SVG 1.1//EN" "http://www.w3.org/Graphics/SVG/1.1/DTD/svg11.dtd">
<svg version="1.1" id="Слой_1" xmlns="http://www.w3.org/2000/svg" xmlns:xlink="http://www.w3.org/1999/xlink" x="0px" y="0px"
	 width="22px" height="22px" viewBox="0 0 22 22" enable-background="new 0 0 22 22" xml:space="preserve">
<g>
	<path fill="#DA807F" d="M10.5,0.8L7.3,6h1.8c0.1,0,0.2,0.5,0.4,0.6c0.5,0.3,0.7,0.8,0.7,1.2c0,0.4-0.3,0.9-0.7,1.2
		C8.5,9.6,8,10.6,8,11.7c0,1.1,0.6,2,1.5,2.6c0.5,0.3,0.7,0.7,0.7,1.2c0,0.4-0.3,0.9-0.7,1.2c-1,0.6-1.5,1.6-1.5,2.6s0.6,2,1.5,2.6
		c0.4,0.3,0.9,0.1,1.2-0.3c0.2-0.4,0.1-1-0.3-1.2c-0.5-0.3-0.7-0.7-0.7-1.2c0-0.4,0.3-0.9,0.7-1.2c1-0.6,1.5-1.6,1.5-2.6
		s-0.6-2-1.5-2.6c-0.5-0.3-0.7-0.7-0.7-1.2c0-0.4,0.3-0.9,0.7-1.2c1-0.6,1.5-1.7,1.5-2.7c0-0.6-0.2-0.8-0.6-1.8h2.3L10.5,0.8z"/>
	<path fill="#DA807F" d="M3.2,0.8L0,6h1.8C1.8,6,2,6.5,2.2,6.6c0.5,0.3,0.7,0.8,0.7,1.2c0,0.4-0.3,0.9-0.7,1.2
		c-1,0.6-1.5,1.6-1.5,2.6c0,1.1,0.6,2,1.5,2.6c0.5,0.3,0.7,0.7,0.7,1.2c0,0.4-0.3,0.9-0.7,1.2c-1,0.6-1.5,1.6-1.5,2.6s0.6,2,1.5,2.6
		c0.4,0.3,0.9,0.1,1.2-0.3c0.2-0.4,0.1-1-0.3-1.2c-0.5-0.3-0.7-0.7-0.7-1.2c0-0.4,0.3-0.9,0.7-1.2c1-0.6,1.5-1.6,1.5-2.6
		s-0.6-2-1.5-2.6c-0.5-0.3-0.7-0.7-0.7-1.2c0-0.4,0.3-0.9,0.7-1.2c1-0.6,1.5-1.7,1.5-2.7C4.6,7.2,4.4,7,4,6h2.3L3.2,0.8z"/>
	<path fill="#DA807F" d="M17.7,10.5c1-0.6,1.5-1.7,1.5-2.7C19.2,7.2,19,7,18.7,6H21l-3.2-5.2L14.7,6h1.8c0.1,0,0.2,0.5,0.4,0.6
		c0.5,0.3,0.7,0.8,0.7,1.2c0,0.4-0.3,0.9-0.7,1.2c-1,0.6-1.5,1.6-1.5,2.6c0,1.1,0.6,2,1.5,2.6c0.5,0.3,0.7,0.7,0.7,1.2
		c0,0.4-0.3,0.9-0.7,1.2c-1,0.6-1.5,1.6-1.5,2.6s0.6,2,1.5,2.6c0.4,0.3,0.9,0.1,1.2-0.3c0.2-0.4,0.1-1-0.3-1.2
		c-0.5-0.3-0.7-0.7-0.7-1.2c0-0.4,0.3-0.9,0.7-1.2c1-0.6,1.5-1.6,1.5-2.6s-0.6-2-1.5-2.6c-0.5-0.3-0.7-0.7-0.7-1.2
		C17,11.2,17.3,10.8,17.7,10.5z"/>
</g>
</svg>
