<?xml version="1.0" encoding="utf-8"?>
<!-- Generator: Adobe Illustrator 17.1.0, SVG Export Plug-In . SVG Version: 6.00 Build 0)  -->
<!DOCTYPE svg PUBLIC "-//W3C//DTD SVG 1.1//EN" "http://www.w3.org/Graphics/SVG/1.1/DTD/svg11.dtd">
<svg version="1.1" id="Слой_1" xmlns="http://www.w3.org/2000/svg" xmlns:xlink="http://www.w3.org/1999/xlink" x="0px" y="0px"
	 width="19px" height="21px" viewBox="0 0 19 21" enable-background="new 0 0 19 21" xml:space="preserve">
<g>
	<path fill="#E7A448" d="M15.2,11.8c-0.5-1-0.6-2.4-0.9-3.3h1c0.7,0,1.3-0.2,1.3-0.4V7.7c0-0.2-0.6-0.4-1.3-0.4h-1.6V1.9H14
		c0.4,0,0.7-0.2,0.7-0.4V1c0-0.2-0.3-0.4-0.7-0.4h-2.7c-0.4,0-0.7,0.2-0.7,0.4v0.4c0,0.2,0.3,0.4,0.7,0.4h0.5V3c0,0-3.1,0.1-4.3,0.1
		C6,3.2,4.3,4.6,4.3,7.6v9.6c0,1.6-0.5,2.2-1.8,2.2c-0.5,0-0.7-0.1-0.8-0.2C1,18.6,1,16.5,1,13.1H0c0,4,0,5.9,0.9,6.7
		c0.4,0.4,0.8,0.5,1.5,0.5h0c2.5,0,2.8-1.7,2.8-3.2V7.6C5.2,4.1,7.8,4,7.9,4h3.9v3.2H10c-0.7,0-1.3,0.2-1.3,0.4V8
		c0,0.2,0.6,0.4,1.3,0.4h1.2c-0.3,0.9-0.4,2.3-0.9,3.3C9.4,13.4,7,13.7,7,16c0,2.7,1.9,4.9,5.3,4.9c0.2,0,0.3,0,0.5,0
		c0.2,0,0.3,0,0.5,0c3.4,0,5.3-2.2,5.3-4.9C18.6,13.7,16.1,13.4,15.2,11.8z"/>
</g>
</svg>
