<?xml version="1.0" encoding="utf-8"?>
<!-- Generator: Adobe Illustrator 17.1.0, SVG Export Plug-In . SVG Version: 6.00 Build 0)  -->
<!DOCTYPE svg PUBLIC "-//W3C//DTD SVG 1.1//EN" "http://www.w3.org/Graphics/SVG/1.1/DTD/svg11.dtd">
<svg version="1.1" id="Слой_1" xmlns="http://www.w3.org/2000/svg" xmlns:xlink="http://www.w3.org/1999/xlink" x="0px" y="0px"
	 width="21px" height="24px" viewBox="0 0 21 24" enable-background="new 0 0 21 24" xml:space="preserve">
<g>
	<path fill="#49b2e0" d="M2.7,22.4c0,0.9,1,1.6,2.2,1.6h10.6c1.2,0,2.2-0.7,2.2-1.6v-1H2.7V22.4z"/>
	<path fill="#49b2e0" d="M18.5,8.8l-7.4-3.4c0,0-0.1,0-0.1-0.1c0,0,0.1-0.1,0.1-0.1c0.1-0.1,0.2-0.2,0.3-0.2
		c0.7-0.5,1.2-1.3,1.2-2.1c0.1-0.8-0.3-1.6-0.9-2.2C11,0,9.9-0.2,8.8,0.2c-1,0.3-1.7,1.2-1.7,2.2c0,0.5,0.3,0.9,0.8,1
		c0.1,0,0.1,0,0.2,0c0.5,0,0.9-0.3,1-0.8c0-0.2,0.1-0.4,0.2-0.4C9.4,2.1,9.6,2,9.8,2c0.3,0,0.6,0.1,0.7,0.3c0.1,0.2,0.2,0.4,0.1,0.5
		c0,0.2-0.2,0.4-0.4,0.5C10.1,3.5,10,3.6,9.8,3.6C9.6,3.8,9.4,3.9,9.2,4C8.8,4.4,8.6,4.9,8.7,5.4c0,0-0.1,0-0.1,0.1L1.8,8.9
		C0.5,9.5-0.2,11,0,12.5c0.2,1.5,1.3,2.6,2.7,2.8v4.8h14.9v-4.8c1.4-0.2,2.5-1.3,2.7-2.8C20.5,10.9,19.8,9.4,18.5,8.8z M17.6,12.9
		v-0.2c0-0.9-1-1.6-2.2-1.6H4.9c-1.2,0-2.2,0.7-2.2,1.6v0.2v0.2c-0.3-0.2-0.5-0.5-0.6-0.9C2,11.6,2.3,11,2.7,10.8l6.8-3.4
		c0.1-0.1,0.2-0.1,0.4-0.1c0.1,0,0.2,0,0.3,0.1l7.4,3.4c0.5,0.2,0.7,0.8,0.6,1.4c-0.1,0.4-0.3,0.8-0.6,0.9V12.9z"/>
</g>
</svg>
