<?xml version="1.0" encoding="utf-8"?>
<!-- Generator: Adobe Illustrator 17.1.0, SVG Export Plug-In . SVG Version: 6.00 Build 0)  -->
<!DOCTYPE svg PUBLIC "-//W3C//DTD SVG 1.1//EN" "http://www.w3.org/Graphics/SVG/1.1/DTD/svg11.dtd">
<svg version="1.1" id="Слой_1" xmlns="http://www.w3.org/2000/svg" xmlns:xlink="http://www.w3.org/1999/xlink" x="0px" y="0px"
	 width="24px" height="22px" viewBox="0 0 24 22" enable-background="new 0 0 24 22" xml:space="preserve">
<path fill="#49b2e0" d="M10.3,19.2c-0.8,0-1.4,0.6-1.4,1.4c0,0.8,0.6,1.4,1.4,1.4c0.8,0,1.4-0.6,1.4-1.4
	C11.8,19.8,11.1,19.2,10.3,19.2 M7.4,16.3c-0.8,0-1.4,0.6-1.4,1.4c0,0.8,0.6,1.4,1.4,1.4c0.8,0,1.4-0.6,1.4-1.4
	C8.8,16.9,8.2,16.3,7.4,16.3 M4.5,13.3c-0.8,0-1.4,0.6-1.4,1.4c0,0.8,0.6,1.4,1.4,1.4s1.4-0.6,1.4-1.4C5.9,14,5.3,13.3,4.5,13.3
	 M1.6,10.4c-0.8,0-1.4,0.6-1.4,1.4c0,0.8,0.6,1.4,1.4,1.4S3,12.6,3,11.8C3,11.1,2.4,10.4,1.6,10.4 M13.3,16.3
	c-0.8,0-1.4,0.6-1.4,1.4c0,0.8,0.6,1.4,1.4,1.4c0.8,0,1.4-0.6,1.4-1.4C14.7,16.9,14,16.3,13.3,16.3 M10.3,13.3
	c-0.8,0-1.4,0.6-1.4,1.4c0,0.8,0.6,1.4,1.4,1.4c0.8,0,1.4-0.6,1.4-1.4C11.8,14,11.1,13.3,10.3,13.3 M7.4,10.4
	c-0.8,0-1.4,0.6-1.4,1.4c0,0.8,0.6,1.4,1.4,1.4c0.8,0,1.4-0.6,1.4-1.4C8.8,11.1,8.2,10.4,7.4,10.4 M4.5,7.5c-0.8,0-1.4,0.6-1.4,1.4
	c0,0.8,0.6,1.4,1.4,1.4s1.4-0.6,1.4-1.4C5.9,8.1,5.3,7.5,4.5,7.5 M5.6,4.1c0,0-0.3,0.9,0.1,1.3c2.2,2.2,8.9,8.9,11.1,11.1
	c0.4,0.4,1.3,0.1,1.3,0.1l1.4-1.4L7,2.7L5.6,4.1z M18.7,2.1c-0.9,0.9-1.6,1.6-1.6,1.6l-0.1,0c-5.5-5-9-2-9-2l12.6,12.6
	c0,0,2.5-3.3-1.3-8.3c0-0.1,0.3-0.6,1.1-1.4c1.6-1.6,3.9-1,3.9-1s0-0.8,0-2.7c-0.6,0-1.1,0-1.6,0C21,0.9,19.7,1,18.7,2.1"/>
</svg>
