<?xml version="1.0" encoding="utf-8"?>
<!-- Generator: Adobe Illustrator 17.1.0, SVG Export Plug-In . SVG Version: 6.00 Build 0)  -->
<!DOCTYPE svg PUBLIC "-//W3C//DTD SVG 1.1//EN" "http://www.w3.org/Graphics/SVG/1.1/DTD/svg11.dtd">
<svg version="1.1" id="Слой_1" xmlns="http://www.w3.org/2000/svg" xmlns:xlink="http://www.w3.org/1999/xlink" x="0px" y="0px"
	 width="65px" height="65px" viewBox="0 0 65 65" enable-background="new 0 0 65 65" xml:space="preserve">
<g>
	<path fill="#F1F2F3" d="M32.5,0C14.6,0,0,14.6,0,32.5C0,50.4,14.6,65,32.5,65C50.4,65,65,50.4,65,32.5C65,14.6,50.4,0,32.5,0z
		 M37.6,14.8c-0.6-0.5-0.7-1.4-0.3-2c0.5-0.6,1.4-0.7,2-0.3c1.1,0.9,1.8,2.2,1.8,3.6c0,1.4-0.6,2.8-1.8,3.6
		c-0.4,0.3-0.7,0.8-0.7,1.4c0,0.5,0.2,1,0.7,1.4c0.6,0.5,0.7,1.4,0.3,2c-0.3,0.4-0.7,0.6-1.1,0.6c-0.3,0-0.6-0.1-0.9-0.3
		c-1.1-0.9-1.8-2.2-1.8-3.6c0-1.4,0.6-2.8,1.8-3.6c0.4-0.3,0.7-0.8,0.7-1.4C38.2,15.6,38,15.1,37.6,14.8z M37,27.2l-1.6,19h-6.6
		l-1.6-19H37z M31.2,14.8c-0.6-0.5-0.7-1.4-0.3-2c0.5-0.6,1.4-0.7,2-0.3c1.1,0.9,1.8,2.2,1.8,3.6c0,1.4-0.6,2.8-1.8,3.6
		c-0.4,0.3-0.7,0.8-0.7,1.4c0,0.5,0.2,1,0.7,1.4c0.6,0.5,0.7,1.4,0.3,2c-0.3,0.4-0.7,0.6-1.1,0.6c-0.3,0-0.6-0.1-0.9-0.3
		c-1.1-0.9-1.8-2.2-1.8-3.6c0-1.4,0.6-2.8,1.8-3.6c0.4-0.3,0.7-0.8,0.7-1.4C31.9,15.6,31.6,15.1,31.2,14.8z M24.8,14.8
		c-0.6-0.5-0.7-1.4-0.3-2c0.5-0.6,1.4-0.7,2-0.3c1.1,0.9,1.8,2.2,1.8,3.6c0,1.4-0.6,2.8-1.8,3.6c-0.4,0.3-0.7,0.8-0.7,1.4
		c0,0.5,0.2,1,0.7,1.4c0.6,0.5,0.7,1.4,0.3,2c-0.3,0.4-0.7,0.6-1.1,0.6c-0.3,0-0.6-0.1-0.9-0.3c-1.1-0.9-1.8-2.2-1.8-3.6
		c0-1.4,0.6-2.8,1.8-3.6c0.4-0.3,0.7-0.8,0.7-1.4C25.5,15.6,25.3,15.1,24.8,14.8z M15.7,36.2c-1.2,0-1.7-0.8-1.7-2v-0.6
		c0-1.2,0.5-1.4,1.7-1.4H18l-0.6-5h8l1.6,19h-6.5l-1.7-10H15.7z M20.1,51.2l0.5-4h23.2l0.4,4H20.1z M50,34.3c0,1.2-0.9,2-2.1,2h-2.6
		l-1.7,10H37l1.6-19h8l-0.6,5h1.8c1.2,0,2.1,0.3,2.1,1.4V34.3z"/>
</g>
</svg>
