<?xml version="1.0" encoding="utf-8"?>
<!-- Generator: Adobe Illustrator 17.1.0, SVG Export Plug-In . SVG Version: 6.00 Build 0)  -->
<!DOCTYPE svg PUBLIC "-//W3C//DTD SVG 1.1//EN" "http://www.w3.org/Graphics/SVG/1.1/DTD/svg11.dtd">
<svg version="1.1" id="Слой_1" xmlns="http://www.w3.org/2000/svg" xmlns:xlink="http://www.w3.org/1999/xlink" x="0px" y="0px"
	 width="14px" height="25px" viewBox="0 0 14 25" enable-background="new 0 0 14 25" xml:space="preserve">
<g>
	<path fill="#E88C46" d="M11,12.4V4.1C11,1.8,9.2,0,7,0C4.8,0,3,1.8,3,4.1v8.3c-2,1.3-3,3.3-3,5.7c0,3.9,3.1,7,6.9,7s7-3.1,7-7
		C13.9,15.7,13,13.6,11,12.4z M6.9,23.3c-2.9,0-5.2-2.3-5.2-5.2c0-1.7,1-3.3,2.4-4.2L5,13.2v-0.9V4.1c0-1.3,0.7-2.3,2-2.3
		c1.3,0,2,1,2,2.3v8.3v0.9l0.9,0.5c1.4,1,2.2,2.6,2.2,4.2C12.1,20.9,9.8,23.3,6.9,23.3z"/>
	<path fill="#E88C46" d="M8,14.6V7H6v7.6c-2,0.4-2.6,1.8-2.6,3.4c0,2,1.6,3.6,3.6,3.6c2,0,3.6-1.6,3.6-3.6C10.6,16.4,9,15,8,14.6z"
		/>
</g>
</svg>
