<?xml version="1.0" encoding="utf-8"?>
<!-- Generator: Adobe Illustrator 17.1.0, SVG Export Plug-In . SVG Version: 6.00 Build 0)  -->
<!DOCTYPE svg PUBLIC "-//W3C//DTD SVG 1.1//EN" "http://www.w3.org/Graphics/SVG/1.1/DTD/svg11.dtd">
<svg version="1.1" id="Слой_1" xmlns="http://www.w3.org/2000/svg" xmlns:xlink="http://www.w3.org/1999/xlink" x="0px" y="0px"
	 width="22px" height="14px" viewBox="0 0 22 14" enable-background="new 0 0 22 14" xml:space="preserve">
<path fill="#C4AD74" d="M20.7,9.8c-0.4-0.2-0.9-0.1-1.2,0.3c-0.3,0.5-0.7,0.7-1.1,0.7c-0.4,0-0.9-0.3-1.1-0.7
	c-0.6-1-1.5-1.5-2.6-1.5c-1,0-2,0.6-2.6,1.5c-0.3,0.5-0.7,0.7-1.1,0.7s-0.9-0.3-1.1-0.7c-0.6-1-1.6-1.5-2.6-1.5C6.4,8.6,6,8.9,5,9.5
	V6.8L-0.1,10L5,13.2v-1.8c0,0.1,0.8,0,1-0.4c0.3-0.5,0.7-0.7,1.2-0.7c0.4,0,0.9,0.3,1.1,0.7c0.6,1,1.6,1.5,2.6,1.5
	c1,0,2-0.6,2.6-1.5c0.3-0.5,0.7-0.7,1.1-0.7c0.4,0,0.9,0.3,1.1,0.7c0.6,1,1.5,1.5,2.6,1.5c1,0,2-0.6,2.6-1.5
	C21.2,10.6,21.1,10.1,20.7,9.8z"/>
<path fill="#C4AD74" d="M21.1,3.2L16,0v1.8c0,0.1-0.2,0.2-0.3,0.4c-0.3,0.5-0.6,0.7-1,0.7c-0.4,0-0.8-0.3-1.1-0.7
	c-0.6-1-1.5-1.5-2.6-1.5c-1,0-2,0.6-2.6,1.5C8.2,2.6,7.8,2.9,7.3,2.9c-0.4,0-0.8-0.3-1.1-0.7c-0.6-1-1.5-1.5-2.6-1.5S1.6,1.2,1,2.2
	C0.8,2.6,0.9,3.1,1.3,3.3c0.4,0.2,0.9,0.1,1.2-0.3c0.3-0.5,0.7-0.7,1.1-0.7c0.4,0,0.9,0.3,1.1,0.7c0.6,1,1.5,1.5,2.6,1.5
	c1,0,2-0.6,2.6-1.5c0.3-0.5,0.7-0.7,1.1-0.7c0.4,0,0.9,0.3,1.1,0.7c0.6,1,1.3,1.5,2.4,1.5C15.2,4.6,16,4.4,16,4v2.3L21.1,3.2z"/>
</svg>
