<?xml version="1.0" encoding="utf-8"?>
<!-- Generator: Adobe Illustrator 17.0.0, SVG Export Plug-In . SVG Version: 6.00 Build 0)  -->
<!DOCTYPE svg PUBLIC "-//W3C//DTD SVG 1.1//EN" "http://www.w3.org/Graphics/SVG/1.1/DTD/svg11.dtd">
<svg version="1.1" id="Layer_1" xmlns="http://www.w3.org/2000/svg" xmlns:xlink="http://www.w3.org/1999/xlink" x="0px" y="0px"
	 width="12px" height="11px" viewBox="0 0 12 11" enable-background="new 0 0 12 11" xml:space="preserve">
<path fill="#AAA5A0" d="M4,7h4c0.58,0,1.461-0.916,1.826-2.023V5C11.047,5,12,3.453,12,2.031C12,1.453,11.531,1,11.016,1
	C10.5,1,10,1,10,1c0-0.812-0.219-1-1-1C8.432,0,3,0,3,0C2.297,0,2,0.188,2,1v3C2,5.49,3.137,7,4,7z M10,2h0.5
	C10.875,2,11,2.219,11,2.5C11,3.625,10.562,4,10,4C10,3.125,10,2,10,2z M0,9c0,0.448,1.791,1,3,1c0,0.405,0.645,1,1,1
	c0.546,0,2,0,2,0s1.454,0,2,0c0.353,0,1-0.595,1-1c1.208,0,3-0.552,3-1s0-1,0-1H0C0,8,0,8.552,0,9z"/>
</svg>
