<?xml version="1.0" encoding="utf-8"?>
<!-- Generator: Adobe Illustrator 18.1.0, SVG Export Plug-In . SVG Version: 6.00 Build 0)  -->
<!DOCTYPE svg PUBLIC "-//W3C//DTD SVG 1.1//EN" "http://www.w3.org/Graphics/SVG/1.1/DTD/svg11.dtd">
<svg version="1.1" id="Layer_1" xmlns="http://www.w3.org/2000/svg" xmlns:xlink="http://www.w3.org/1999/xlink" x="0px" y="0px"
	 width="18px" height="16px" viewBox="0 0 18 16" enable-background="new 0 0 18 16" xml:space="preserve">
<path fill-rule="evenodd" clip-rule="evenodd" fill="#32B8E1" d="M9,0C4.029,0,0,4.349,0,9.714C0,12.113,0.81,14.305,2.145,16h13.71
	C17.19,14.305,18,12.113,18,9.714C18,4.349,13.971,0,9,0z M15,12h-3v-1h0.5l-1.1-4.033L9.769,10H8.231L6.6,6.967L5.5,11H6v1H3v-1
	h0.5l2.333-7h0.931L9,8.222L11.235,4h0.931l2.333,7H15V12z"/>
</svg>
