<?xml version="1.0" encoding="utf-8"?>
<!-- Generator: Adobe Illustrator 16.0.4, SVG Export Plug-In . SVG Version: 6.00 Build 0)  -->
<!DOCTYPE svg PUBLIC "-//W3C//DTD SVG 1.1//EN" "http://www.w3.org/Graphics/SVG/1.1/DTD/svg11.dtd">
<svg version="1.1" id="Слой_1" xmlns="http://www.w3.org/2000/svg" xmlns:xlink="http://www.w3.org/1999/xlink" x="0px" y="0px"
	 width="20px" height="16px" viewBox="0 0 20 16" style="enable-background:new 0 0 20 16;" xml:space="preserve">
<g>
	<path style="fill:#FFFFFF;" d="M18.5,0.3h-17C0.7,0.3,0,0.9,0,1.7l0,10.9C0,13.4,0.8,14,1.6,14h5l1.4,2c0,0,5.2,0,5.9,0
		c0.7,0,1.8-0.5,1.9-2h2.7c0.8,0,1.4-0.6,1.4-1.4V1.7C20,0.9,19.3,0.3,18.5,0.3z M18,12.2h-2c0-1.4,0-3.1,0-3.1l-2,0.4V8.2l-2,0.3
		V7.1l-2,0.4c0,0,0-1.7,0-3.2c0-1.4-1.9-1.4-1.9,0c0,1.5,0,7.7,0,7.7S6.6,9.1,5.4,9.1C4.2,9.1,4,10.4,4,10.4l1.3,1.8H2V1.9h16V12.2z
		"/>
</g>
</svg>
