<?xml version="1.0" encoding="utf-8"?>
<!-- Generator: Adobe Illustrator 16.0.0, SVG Export Plug-In . SVG Version: 6.00 Build 0)  -->
<!DOCTYPE svg PUBLIC "-//W3C//DTD SVG 1.1//EN" "http://www.w3.org/Graphics/SVG/1.1/DTD/svg11.dtd">
<svg version="1.1" id="Layer_1" xmlns="http://www.w3.org/2000/svg" xmlns:xlink="http://www.w3.org/1999/xlink" x="0px" y="0px"
	 width="16px" height="16px" viewBox="0 0 16 16" enable-background="new 0 0 16 16" xml:space="preserve">
<path fill="#E6E6E6" d="M3.5,12C3.224,12,3,11.776,3,11.5v-1C3,10.224,3.224,10,3.5,10h2C5.776,10,6,10.224,6,10.5v1
	C6,11.776,5.776,12,5.5,12H3.5 M10.5,12c-0.276,0-0.5-0.224-0.5-0.5v-1c0-0.276,0.224-0.5,0.5-0.5h2c0.276,0,0.5,0.224,0.5,0.5v1
	c0,0.276-0.224,0.5-0.5,0.5H10.5 M2.5,9V5L3,4h10l0.5,1v4H2.5 M3,3l1-1h8l1,1H3 M11,0H5C2,0,1,1,1,2v3C0.448,5,0,5.448,0,6v2
	c0,0.552,0.448,1,1,1v4c0,0.552,0.448,1,1,1v1.5C2,15.776,2.224,16,2.5,16h2C4.776,16,5,15.776,5,15.5V14h6v1.5
	c0,0.276,0.224,0.5,0.5,0.5h2c0.276,0,0.5-0.224,0.5-0.5V14c0.552,0,1-0.448,1-1V9c0.552,0,1-0.448,1-1V6c0-0.552-0.448-1-1-1V2
	C15,1,14,0,11,0"/>
</svg>
