<?xml version="1.0" encoding="utf-8"?>
<!-- Generator: Adobe Illustrator 16.0.0, SVG Export Plug-In . SVG Version: 6.00 Build 0)  -->
<!DOCTYPE svg PUBLIC "-//W3C//DTD SVG 1.1//EN" "http://www.w3.org/Graphics/SVG/1.1/DTD/svg11.dtd">
<svg version="1.1" id="Layer_1" xmlns="http://www.w3.org/2000/svg" xmlns:xlink="http://www.w3.org/1999/xlink" x="0px" y="0px"
	 width="15px" height="20px" viewBox="0 0 15 20" enable-background="new 0 0 15 20" xml:space="preserve">
<path fill-rule="evenodd" clip-rule="evenodd" fill="#FFFFFF" d="M14.532,19.222l-1.39,0.671c-0.548,0.265-1.217,0.052-1.493-0.476
	l-2.961-5.637l-0.702,0.118C7.656,13.947,7.328,14,6.985,14C3.119,14,0,10.866,0,7c0-3.866,3.119-7,6.985-7s7,3.134,7,7
	c0,1.961-0.812,3.729-2.111,5l-0.077,0.078l3.029,5.805C15.103,18.411,15.081,18.957,14.532,19.222z M11.985,7c0-2.761-2.239-5-5-5
	s-5,2.239-5,5c0,2.762,2.239,5,5,5S11.985,9.762,11.985,7z"/>
</svg>
