<?xml version="1.0" encoding="utf-8"?>
<!-- Generator: Adobe Illustrator 18.1.0, SVG Export Plug-In . SVG Version: 6.00 Build 0)  -->
<!DOCTYPE svg PUBLIC "-//W3C//DTD SVG 1.1//EN" "http://www.w3.org/Graphics/SVG/1.1/DTD/svg11.dtd">
<svg version="1.1" id="Layer_1" xmlns="http://www.w3.org/2000/svg" xmlns:xlink="http://www.w3.org/1999/xlink" x="0px" y="0px"
	 width="24px" height="8px" viewBox="0 0 24 8" enable-background="new 0 0 24 8" xml:space="preserve">
<path fill="none" d="M20,3c-0.552,0-1,0.448-1,1s0.448,1,1,1c0.552,0,1-0.448,1-1S20.552,3,20,3z M20,0
	c-1.862,0-3.413,1.278-3.859,3H7.859C7.412,1.278,5.862,0,4,0C1.791,0,0,1.791,0,4s1.791,4,4,4c1.862,0,3.412-1.278,3.859-3h8.283
	C16.587,6.722,18.138,8,20,8c2.209,0,4-1.791,4-4S22.209,0,20,0z M4,6C2.895,6,2,5.105,2,4s0.895-2,2-2c1.105,0,2,0.895,2,2
	S5.105,6,4,6z M20,6c-1.105,0-2-0.895-2-2s0.895-2,2-2c1.105,0,2,0.895,2,2S21.105,6,20,6z"/>
<circle fill="#E6E6E6" cx="20" cy="4" r="1"/>
<path fill="#E6E6E6" d="M20,0c-1.862,0-3.412,1-3.859,3H7.859C7.412,1,5.862,0,4,0C1.791,0,0,1.791,0,4c0,2.209,1.791,4,4,4
	c1.862,0,3.413-1,3.859-3h8.283C16.587,7,18.138,8,20,8c2.209,0,4-1.791,4-4C24,1.791,22.209,0,20,0z M4,6C2.895,6,2,5.104,2,4
	c0-1.105,0.896-2,2-2c1.104,0,2,0.896,2,2C6,5.104,5.104,6,4,6z M20,6c-1.105,0-2-0.895-2-2c0-1.105,0.895-2,2-2s2,0.896,2,2
	C22,5.104,21.105,6,20,6z"/>
</svg>
