<?xml version="1.0" encoding="utf-8"?>
<!-- Generator: Adobe Illustrator 16.0.0, SVG Export Plug-In . SVG Version: 6.00 Build 0)  -->
<!DOCTYPE svg PUBLIC "-//W3C//DTD SVG 1.1//EN" "http://www.w3.org/Graphics/SVG/1.1/DTD/svg11.dtd">
<svg version="1.1" id="Layer_1" xmlns="http://www.w3.org/2000/svg" xmlns:xlink="http://www.w3.org/1999/xlink" x="0px" y="0px"
	 width="16px" height="12px" viewBox="0 0 16 12" enable-background="new 0 0 16 12" xml:space="preserve">
<path fill="#32B8E1" d="M3,8L2,7.5V6h1h1v2H3 M5.5,8V6h5v2H5.5 M12,8V6h1h1v1.5L13,8H12 M3.5,4C3.5,4,4,1.5,6,1.5c1,0,3,0,4,0
	c2,0,2.5,2.5,2.5,2.5H3.5 M10,0C9,0,7,0,6,0C4,0,2.771,0.915,2.5,2C2.389,2.445,2.306,2.779,2.238,3.048L2,3H1C0.447,3,0,3.448,0,4
	c0,0.552,0.447,1,1,1v4c0,0.552,0.448,1,1,1v1c0,0.552,0.447,1,1,1h1c0.553,0,1-0.448,1-1v-1h6v1c0,0.552,0.448,1,1,1h1
	c0.553,0,1-0.448,1-1v-1c0.553,0,1-0.448,1-1V5c0.552,0,1-0.448,1-1c0-0.552-0.448-1-1-1h-1l-0.238,0.048
	C13.694,2.779,13.611,2.445,13.5,2C13.229,0.915,12,0,10,0"/>
</svg>
