<?xml version="1.0" encoding="utf-8"?>
<!-- Generator: Adobe Illustrator 18.0.0, SVG Export Plug-In . SVG Version: 6.00 Build 0)  -->
<!DOCTYPE svg PUBLIC "-//W3C//DTD SVG 1.1//EN" "http://www.w3.org/Graphics/SVG/1.1/DTD/svg11.dtd">
<svg version="1.1" id="Layer_1" xmlns="http://www.w3.org/2000/svg" xmlns:xlink="http://www.w3.org/1999/xlink" x="0px" y="0px"
	 width="12px" height="14px" viewBox="0 0 12 14" enable-background="new 0 0 12 14" xml:space="preserve">
<path fill-rule="evenodd" clip-rule="evenodd" fill="#32B8E1" d="M9.267,11.267C10.249,10.393,11,9.43,11,9V3c0-0.773-1.315-2-2-2
	S8,1,8,1L7,0H5L4,1c0,0-0.29,0-1,0S1,1.984,1,3v6c0,0.439,0.748,1.401,1.729,2.271L0,14h2l1.855-1.855C4.603,12.645,5.374,13,6,13
	c0.625,0,1.395-0.356,2.142-0.858L10,14h2L9.267,11.267z M4,10H3V9h1V10z M9,10H8V9h1V10z M9,6c0,0.418-1.641,3-3,3S3,6.458,3,6V4
	c0-0.807,0.19-1,1-1h4c0.854,0,1,0.135,1,1V6z"/>
</svg>
