<?xml version="1.0" encoding="utf-8"?>
<!-- Generator: Adobe Illustrator 18.1.0, SVG Export Plug-In . SVG Version: 6.00 Build 0)  -->
<!DOCTYPE svg PUBLIC "-//W3C//DTD SVG 1.1//EN" "http://www.w3.org/Graphics/SVG/1.1/DTD/svg11.dtd">
<svg version="1.1" id="Layer_1" xmlns="http://www.w3.org/2000/svg" xmlns:xlink="http://www.w3.org/1999/xlink" x="0px" y="0px"
	 width="32px" height="32px" viewBox="0 0 32 32" enable-background="new 0 0 32 32" xml:space="preserve">
<path fill="#A3CC4E" d="M32,16c0-1.969-0.239-3.592-0.889-5.333C30.938,16.398,24.753,21.064,21.333,24h8.889
	C31.111,21.334,32,18.719,32,16 M25.778,3.556C23.067,1.444,19.701,0,16,0C7.163,0,0,7.164,0,16s7.163,16,16,16
	c4.047,0,8.182-1.523,11-4H15v-4c6.979-6.068,11.667-9.778,11.667-13.333c0-1.473-1.034-3.556-3.559-3.556
	c-1.999,0-3.549,1.778-3.552,6.222h-4.445C14.094,7.721,17.49,3.072,23.312,3.072C24.214,3.072,25.016,3.355,25.778,3.556"/>
</svg>
