<?xml version="1.0" encoding="utf-8"?>
<!-- Generator: Adobe Illustrator 17.0.0, SVG Export Plug-In . SVG Version: 6.00 Build 0)  -->
<!DOCTYPE svg PUBLIC "-//W3C//DTD SVG 1.1//EN" "http://www.w3.org/Graphics/SVG/1.1/DTD/svg11.dtd">
<svg version="1.1" id="Layer_1" xmlns="http://www.w3.org/2000/svg" xmlns:xlink="http://www.w3.org/1999/xlink" x="0px" y="0px"
	 width="29px" height="16px" viewBox="0 0 29 16" enable-background="new 0 0 29 16" xml:space="preserve">
<path fill-rule="evenodd" clip-rule="evenodd" fill="#FFFFFF" d="M24,9c2.649-1.916,5.036-6.942,5-9c-1.307,0-4.393,0-6,0
	c-0.825,1.85-4.99,7.186-6,8c0-3.35,0-6.701,0-7c0-0.603-0.437-1-1-1c-0.563,0-6,0-6,0s0,0.462,0,1c0,0.538,0.343,1,1,1s1,0.286,1,1
	s0,4.008,0,6C10.172,9,5.49,1.602,5,0c-1.142,0-3.71,0-5,0C0,6.409,10.31,16,12,16c1.793,0,3.035,0,4,0c0.968,0,1-0.557,1-1
	c0-0.13,0-1.342,0-3c1.707,0,4.285,2.596,5,4c1.073,0,5.506,0,7,0C28.541,14.114,24.964,9.679,24,9z"/>
</svg>
