<?xml version="1.0" encoding="utf-8"?>
<!-- Generator: Adobe Illustrator 17.1.0, SVG Export Plug-In . SVG Version: 6.00 Build 0)  -->
<!DOCTYPE svg PUBLIC "-//W3C//DTD SVG 1.1//EN" "http://www.w3.org/Graphics/SVG/1.1/DTD/svg11.dtd">
<svg version="1.1" id="Layer_1" xmlns="http://www.w3.org/2000/svg" xmlns:xlink="http://www.w3.org/1999/xlink" x="0px" y="0px"
	 width="12px" height="12px" viewBox="0 0 12 12" enable-background="new 0 0 12 12" xml:space="preserve">
<path fill="#F6F6F6" d="M10.578,4C10.846,4.613,11,5.288,11,6c0,2.761-2.239,5-5,5c-2.761,0-5-2.239-5-5
	c0-0.712,0.154-1.387,0.422-2H0v7c0,0.552,0.448,1,1,1h10c0.552,0,1-0.448,1-1V4H10.578z"/>
<path fill-rule="evenodd" clip-rule="evenodd" fill="#F6F6F6" d="M6,3C4.343,3,3,4.343,3,6c0,1.657,1.343,3,3,3c1.657,0,3-1.343,3-3
	C9,4.343,7.657,3,6,3z"/>
<path fill-rule="evenodd" clip-rule="evenodd" fill="#F6F6F6" d="M9,0v2h2V0H9z"/>
</svg>
