<?xml version="1.0" encoding="utf-8"?>
<!-- Generator: Adobe Illustrator 17.0.0, SVG Export Plug-In . SVG Version: 6.00 Build 0)  -->
<!DOCTYPE svg PUBLIC "-//W3C//DTD SVG 1.1//EN" "http://www.w3.org/Graphics/SVG/1.1/DTD/svg11.dtd">
<svg version="1.1" id="Layer_1" xmlns="http://www.w3.org/2000/svg" xmlns:xlink="http://www.w3.org/1999/xlink" x="0px" y="0px"
	 width="15px" height="24px" viewBox="0 0 15 24" enable-background="new 0 0 15 24" xml:space="preserve">
<path fill="#FFFFFF" d="M7.327,12.333c3.405,0,6.167-2.761,6.167-6.166C13.494,2.762,10.732,0,7.327,0
	C3.922,0,1.161,2.762,1.161,6.167C1.161,9.572,3.922,12.333,7.327,12.333z M7.327,3.133c1.676,0,3.034,1.358,3.034,3.034
	c0,1.675-1.358,3.033-3.034,3.033c-1.675,0-3.033-1.358-3.033-3.033C4.294,4.491,5.652,3.133,7.327,3.133z M14.435,13.086
	c-0.349-0.7-1.312-1.281-2.594-0.271c-1.732,1.364-4.515,1.364-4.515,1.364s-2.782,0-4.514-1.364
	c-1.281-1.01-2.246-0.429-2.594,0.271c-0.607,1.219,0.079,1.809,1.626,2.801c1.322,0.85,3.138,1.166,4.311,1.285L5.178,18.15
	c-1.379,1.379-2.71,2.71-3.634,3.633c-0.552,0.553-0.552,1.447,0,2l0.167,0.167c0.552,0.552,1.447,0.552,1.999,0l3.634-3.634
	c1.379,1.379,2.71,2.71,3.634,3.633c0.552,0.553,1.447,0.553,1.999,0l0.167-0.166c0.552-0.553,0.552-1.447,0-2L9.51,18.15
	l-0.982-0.982c1.174-0.121,2.971-0.439,4.281-1.281C14.356,14.894,15.042,14.305,14.435,13.086z"/>
</svg>
