<?xml version="1.0" encoding="utf-8"?>
<!-- Generator: Adobe Illustrator 17.0.0, SVG Export Plug-In . SVG Version: 6.00 Build 0)  -->
<!DOCTYPE svg PUBLIC "-//W3C//DTD SVG 1.1//EN" "http://www.w3.org/Graphics/SVG/1.1/DTD/svg11.dtd">
<svg version="1.1" id="Layer_1" xmlns="http://www.w3.org/2000/svg" xmlns:xlink="http://www.w3.org/1999/xlink" x="0px" y="0px"
	 width="24px" height="20px" viewBox="0 0 24 20" enable-background="new 0 0 24 20" xml:space="preserve">
<path fill-rule="evenodd" clip-rule="evenodd" fill="#FFFFFF" d="M0,17c1.301,1.645,4.113,3,8,3c6.94,0,12.491-5.484,13-10
	c0.619-5.498,1-5,1-5l2-2h-2l1-1V1h-1l-1,1h-1c0,0-1.169-2-3-2c-1.832,0-5,0.741-5,7C9.287,7,2.99,3.662,1,1
	c0.053,4.086,0.871,6.014,3,7C2.477,8,1,8,1,8c0.609,2.162,1.447,3,4,3c-0.481,1.268-1.557,2-3,2c1.219,1.435,2.898,2,5,2
	C6.513,16.045,4.272,17.805,0,17z"/>
</svg>
