<?xml version="1.0" encoding="utf-8"?>
<!-- Generator: Adobe Illustrator 17.1.0, SVG Export Plug-In . SVG Version: 6.00 Build 0)  -->
<!DOCTYPE svg PUBLIC "-//W3C//DTD SVG 1.1//EN" "http://www.w3.org/Graphics/SVG/1.1/DTD/svg11.dtd">
<svg version="1.1" id="Layer_1" xmlns="http://www.w3.org/2000/svg" xmlns:xlink="http://www.w3.org/1999/xlink" x="0px" y="0px"
	 width="12px" height="10px" viewBox="0 0 12 10" enable-background="new 0 0 12 10" xml:space="preserve">
<path fill="#F6F6F6" d="M12,0.984c-0.776,0.28-1.496,0.354-2.152,0.252C9.548,0.511,8.834,0,8,0C6.896,0,6,0.896,6,2h0
	c0,0.31-0.009,0.604-0.022,0.89C3.463,3.403,0.668,2.194,0,1c0,1.603,1.289,3,2.5,3C1.875,4,1.566,4,1,4
	c0.225,0.639,0.722,1.5,2,1.5C3,5.719,2.437,6,2,6c0.619,0.672,1.496,0.917,2.418,0.923C3.508,7.638,2.114,8,0,8
	c1.109,0.906,3,2,5,2c3.28,0,4.779-3.452,4.976-7.149C11.053,2.541,12,1.779,12,0.984z"/>
</svg>
