<?xml version="1.0" encoding="utf-8"?>
<!-- Generator: Adobe Illustrator 17.0.0, SVG Export Plug-In . SVG Version: 6.00 Build 0)  -->
<!DOCTYPE svg PUBLIC "-//W3C//DTD SVG 1.1//EN" "http://www.w3.org/Graphics/SVG/1.1/DTD/svg11.dtd">
<svg version="1.1" id="Layer_1" xmlns="http://www.w3.org/2000/svg" xmlns:xlink="http://www.w3.org/1999/xlink" x="0px" y="0px"
	 width="12px" height="12px" viewBox="0 0 12 12" enable-background="new 0 0 12 12" xml:space="preserve">
<path fill-rule="evenodd" clip-rule="evenodd" fill="#B4AFAA" d="M9,0H3C1.343,0,0,1.343,0,3v6c0,1.657,1.343,3,3,3h6
	c1.657,0,3-1.343,3-3V3C12,1.343,10.657,0,9,0z M11,9c0,1.104-0.896,2-2,2H3c-1.105,0-2-0.896-2-2V3c0-1.104,0.895-2,2-2h6
	c1.104,0,2,0.896,2,2V9z M6,5H3v2h3v2l4-3L6,3V5z"/>
</svg>
