<?xml version="1.0" encoding="utf-8"?>
<!-- Generator: Adobe Illustrator 18.0.0, SVG Export Plug-In . SVG Version: 6.00 Build 0)  -->
<!DOCTYPE svg PUBLIC "-//W3C//DTD SVG 1.1//EN" "http://www.w3.org/Graphics/SVG/1.1/DTD/svg11.dtd">
<svg version="1.1" id="Layer_1" xmlns="http://www.w3.org/2000/svg" xmlns:xlink="http://www.w3.org/1999/xlink" x="0px" y="0px"
	 width="12px" height="12px" viewBox="0 0 12 12" enable-background="new 0 0 12 12" xml:space="preserve">
<circle opacity="0.5" fill="#FFFFFF" cx="6" cy="6" r="6"/>
<path opacity="0.5" fill="#010204" d="M6.707,6l2.646-2.646c0.195-0.195,0.195-0.512,0-0.707s-0.512-0.195-0.707,0L6,5.293
	L3.354,2.646c-0.195-0.195-0.512-0.195-0.707,0s-0.195,0.512,0,0.707L5.293,6L2.646,8.646c-0.195,0.195-0.195,0.512,0,0.707
	C2.744,9.451,2.872,9.5,3,9.5s0.256-0.049,0.354-0.146L6,6.707l2.646,2.646C8.744,9.451,8.872,9.5,9,9.5s0.256-0.049,0.354-0.146
	c0.195-0.195,0.195-0.512,0-0.707L6.707,6z"/>
</svg>
