<?xml version="1.0" encoding="utf-8"?>
<!-- Generator: Adobe Illustrator 17.0.0, SVG Export Plug-In . SVG Version: 6.00 Build 0)  -->
<!DOCTYPE svg PUBLIC "-//W3C//DTD SVG 1.1//EN" "http://www.w3.org/Graphics/SVG/1.1/DTD/svg11.dtd">
<svg version="1.1" id="Layer_1" xmlns="http://www.w3.org/2000/svg" xmlns:xlink="http://www.w3.org/1999/xlink" x="0px" y="0px"
	 width="20px" height="12px" viewBox="0 0 20 12" enable-background="new 0 0 20 12" xml:space="preserve">
<path id="show_x5F_password" fill="#333333" d="M10,3.5C8.619,3.5,7.5,4.619,7.5,6S8.619,8.5,10,8.5c1.381,0,2.5-1.119,2.5-2.5
	l-0.007-0.068C12.334,5.972,12.171,6,12,6c-1.105,0-2-0.896-2-2c0-0.171,0.028-0.335,0.068-0.493L10,3.5 M10,11
	c-2.762,0-5-2.238-5-5s2.238-5,5-5c2.762,0,5,2.238,5,5S12.762,11,10,11 M10,0C4,0,1,4,0,6c1,2,4,6,10,6s9-4,10-6C19,4,16,0,10,0"/>
</svg>
