<?xml version="1.0" encoding="utf-8"?>
<!-- Generator: Adobe Illustrator 18.0.0, SVG Export Plug-In . SVG Version: 6.00 Build 0)  -->
<!DOCTYPE svg PUBLIC "-//W3C//DTD SVG 1.1//EN" "http://www.w3.org/Graphics/SVG/1.1/DTD/svg11.dtd">
<svg version="1.1" id="Layer_1" xmlns="http://www.w3.org/2000/svg" xmlns:xlink="http://www.w3.org/1999/xlink" x="0px" y="0px"
	 width="14px" height="18px" viewBox="0 0 14 18" enable-background="new 0 0 14 18" xml:space="preserve">
<path opacity="0.2" d="M4,0H2C0.9,0,0,0.9,0,2v14c0,1.1,0.9,2,2,2h2c1.1,0,2-0.9,2-2V2C6,0.9,5.1,0,4,0z"/>
<path opacity="0.2" d="M12,0h-2C8.9,0,8,0.9,8,2v14c0,1.1,0.9,2,2,2h2c1.1,0,2-0.9,2-2V2C14,0.9,13.1,0,12,0z"/>
<path fill="#E6E6E6" d="M4,1H2C1.45,1,1,1.45,1,2v14c0,0.55,0.45,1,1,1h2c0.55,0,1-0.45,1-1V2C5,1.45,4.55,1,4,1z"/>
<path fill="#E6E6E6" d="M12,1h-2C9.45,1,9,1.45,9,2v14c0,0.55,0.45,1,1,1h2c0.55,0,1-0.45,1-1V2C13,1.45,12.55,1,12,1z"/>
</svg>
