<?xml version="1.0" encoding="utf-8"?>
<!-- Generator: Adobe Illustrator 18.0.0, SVG Export Plug-In . SVG Version: 6.00 Build 0)  -->
<!DOCTYPE svg PUBLIC "-//W3C//DTD SVG 1.1//EN" "http://www.w3.org/Graphics/SVG/1.1/DTD/svg11.dtd">
<svg version="1.1" id="Layer_1" xmlns="http://www.w3.org/2000/svg" xmlns:xlink="http://www.w3.org/1999/xlink" x="0px" y="0px"
	 width="19px" height="18px" viewBox="0 0 19 18" enable-background="new 0 0 19 18" xml:space="preserve">
<path opacity="0.2" d="M11,0h-1L5,5H2L0,7v5l2,2h4l4,4h1l1-1v-2h5l1-1v-3l1-1V8l-1-1V4l-1-1h-5V1L11,0"/>
<rect x="13" y="4" fill="#E6E6E6" width="4" height="2"/>
<polygon fill="#E6E6E6" points="5,6 2,6 1,7 1,12 2,13 6,13 10,17 11,17 11,1 10,1 "/>
<rect x="13" y="8" fill="#E6E6E6" width="5" height="2"/>
<rect x="13" y="12" fill="#E6E6E6" width="4" height="2"/>
</svg>
