<?xml version="1.0" encoding="utf-8"?>
<!-- Generator: Adobe Illustrator 18.0.0, SVG Export Plug-In . SVG Version: 6.00 Build 0)  -->
<!DOCTYPE svg PUBLIC "-//W3C//DTD SVG 1.1//EN" "http://www.w3.org/Graphics/SVG/1.1/DTD/svg11.dtd">
<svg version="1.1" id="Layer_1" xmlns="http://www.w3.org/2000/svg" xmlns:xlink="http://www.w3.org/1999/xlink" x="0px" y="0px"
	 width="18px" height="20px" viewBox="0 0 18 20" enable-background="new 0 0 18 20" xml:space="preserve">
<path opacity="0.2" d="M9,0C8.822,0,8.644,0.048,8.485,0.142l-5,3C3.184,3.323,3,3.649,3,4c0,0.351,0.184,0.677,0.485,0.858l5,3
	C8.644,7.952,8.822,8,9,8c0.17,0,0.34-0.043,0.493-0.13C9.806,7.693,10,7.36,10,7V6.101c2.279,0.465,4,2.485,4,4.899
	c0,2.757-2.243,5-5,5s-5-2.243-5-5c0-0.777,0.179-1.528,0.532-2.233C4.651,8.53,4.671,8.255,4.587,8.003
	c-0.084-0.252-0.264-0.46-0.502-0.579L2.298,6.531C2.154,6.459,2.002,6.425,1.851,6.425c-0.366,0-0.719,0.202-0.895,0.552
	C0.322,8.244,0,9.598,0,11c0,4.963,4.037,9,9,9s9-4.037,9-9c0-4.625-3.506-8.446-8-8.945V1c0-0.36-0.194-0.693-0.507-0.87
	C9.34,0.043,9.17,0,9,0L9,0z"/>
<path fill-rule="evenodd" clip-rule="evenodd" fill="#E6E6E6" d="M9,19c-4.418,0-8-3.582-8-8c0-1.286,0.311-2.498,0.851-3.575
	l1.804,0.902C3.249,9.135,3,10.035,3,11c0,3.314,2.686,6,6,6s6-2.686,6-6s-2.686-6-6-6v2L4,4l5-3v2c4.418,0,8,3.582,8,8
	S13.418,19,9,19z"/>
</svg>
