<?xml version="1.0" encoding="utf-8"?>
<!-- Generator: Adobe Illustrator 18.1.1, SVG Export Plug-In . SVG Version: 6.00 Build 0)  -->
<svg version="1.1" id="Layer_1" xmlns="http://www.w3.org/2000/svg" xmlns:xlink="http://www.w3.org/1999/xlink" x="0px" y="0px"
	 width="32px" height="20px" viewBox="0 0 32 20" enable-background="new 0 0 32 20" xml:space="preserve">
<path id="Sunny" fill="#E6E6E6" d="M16.024,3h-1.5V0.75c0-0.414,0.336-0.75,0.75-0.75c0.414,0,0.75,0.336,0.75,0.75V3z
	 M14.524,19.25c0,0.414,0.336,0.75,0.75,0.75c0.414,0,0.75-0.336,0.75-0.75V17h-1.5V19.25z M10.552,4.778l1.214-0.882l-1.323-1.82
	C10.2,1.741,9.731,1.666,9.396,1.91C9.061,2.153,8.987,2.622,9.23,2.957L10.552,4.778z M19.995,15.222l-1.214,0.882l1.323,1.82
	c0.243,0.335,0.712,0.409,1.048,0.166c0.335-0.243,0.409-0.712,0.166-1.048L19.995,15.222z M5.763,6.91
	C5.635,7.304,5.851,7.727,6.245,7.855l2.14,0.695l0.464-1.427l-2.14-0.695C6.314,6.3,5.891,6.516,5.763,6.91z M24.303,12.145
	l-2.14-0.695l-0.464,1.427l2.14,0.695c0.394,0.128,0.817-0.088,0.945-0.482S24.697,12.273,24.303,12.145z M6.245,12.145
	c-0.394,0.128-0.609,0.551-0.482,0.945s0.551,0.61,0.945,0.482l2.14-0.695L8.385,11.45L6.245,12.145z M24.303,7.855
	c0.394-0.128,0.609-0.551,0.482-0.945c-0.128-0.394-0.551-0.609-0.945-0.482l-2.14,0.695l0.464,1.427L24.303,7.855z M9.23,17.043
	c-0.243,0.335-0.169,0.804,0.166,1.048c0.335,0.243,0.804,0.169,1.048-0.166l1.323-1.82l-1.214-0.882L9.23,17.043z M20.104,2.076
	l-1.323,1.82l1.214,0.882l1.323-1.82c0.243-0.335,0.169-0.804-0.166-1.048C20.816,1.666,20.347,1.741,20.104,2.076z M15.273,4.25
	c3.171,0,5.75,2.58,5.75,5.75s-2.579,5.75-5.75,5.75s-5.75-2.58-5.75-5.75S12.103,4.25,15.273,4.25z M15.273,5.75
	c-2.344,0-4.25,1.907-4.25,4.25s1.906,4.25,4.25,4.25s4.25-1.907,4.25-4.25S17.617,5.75,15.273,5.75z"/>
</svg>
