<?xml version="1.0" encoding="utf-8"?>
<!-- Generator: Adobe Illustrator 18.1.1, SVG Export Plug-In . SVG Version: 6.00 Build 0)  -->
<svg version="1.1" id="Layer_1" xmlns="http://www.w3.org/2000/svg" xmlns:xlink="http://www.w3.org/1999/xlink" x="0px" y="0px"
	 width="32px" height="20px" viewBox="0 0 32 20" enable-background="new 0 0 32 20" xml:space="preserve">
<path id="Clear" fill="#E6E6E6" d="M16,19.75c-3.366,0-6.451-1.708-8.251-4.571c-0.193-0.307-0.139-0.708,0.128-0.952
	c0.267-0.246,0.67-0.264,0.96-0.045C9.76,14.881,10.854,15.25,12,15.25c2.895,0,5.25-2.355,5.25-5.25S14.895,4.75,12,4.75
	c-1.146,0-2.24,0.369-3.163,1.068c-0.289,0.218-0.693,0.199-0.96-0.045S7.556,5.127,7.749,4.821C9.549,1.958,12.634,0.25,16,0.25
	c5.376,0,9.75,4.374,9.75,9.75S21.376,19.75,16,19.75z M11.191,16.702c1.378,0.995,3.048,1.548,4.809,1.548
	c4.549,0,8.25-3.701,8.25-8.25S20.549,1.75,16,1.75c-1.761,0-3.431,0.553-4.809,1.548C11.458,3.266,11.728,3.25,12,3.25
	c3.722,0,6.75,3.028,6.75,6.75s-3.028,6.75-6.75,6.75C11.728,16.75,11.458,16.734,11.191,16.702z"/>
</svg>
