<?xml version="1.0" encoding="utf-8"?>
<!-- Generator: Adobe Illustrator 18.1.1, SVG Export Plug-In . SVG Version: 6.00 Build 0)  -->
<svg version="1.1" id="Layer_1" xmlns="http://www.w3.org/2000/svg" xmlns:xlink="http://www.w3.org/1999/xlink" x="0px" y="0px"
	 width="32px" height="20px" viewBox="0 0 32 20" enable-background="new 0 0 32 20" xml:space="preserve">
<path id="Clody_night" fill="#E6E6E6" d="M25,0.25c-2.143,0-4.18,1.039-5.45,2.778c-0.206,0.282-0.19,0.668,0.037,0.932
	c0.228,0.265,0.607,0.336,0.916,0.175C20.99,3.879,21.494,3.75,22,3.75c1.792,0,3.25,1.458,3.25,3.25
	c0,1.372-0.848,2.557-2.104,3.027C22.099,8.934,20.629,8.25,19,8.25c-0.074,0-0.147,0.003-0.22,0.008
	C17.424,5.807,14.82,4.25,12,4.25c-3.617,0-6.758,2.552-7.55,6.032c-2.361,0.273-4.2,2.285-4.2,4.718c0,2.619,2.131,4.75,4.75,4.75
	h14c3.171,0,5.75-2.58,5.75-5.75c0-0.089-0.009-0.175-0.013-0.263c0.088,0.004,0.177,0.013,0.263,0.013
	c3.722,0,6.75-3.028,6.75-6.75S28.722,0.25,25,0.25z M19,18.25H5c-1.792,0-3.25-1.458-3.25-3.25s1.458-3.25,3.182-3.254l0.796,0.024
	l0.093-0.656C6.256,8.056,8.913,5.75,12,5.75c2.422,0,4.646,1.425,5.668,3.63l0.231,0.5l0.678-0.09
	C18.717,9.772,18.855,9.75,19,9.75c1.339,0,2.52,0.634,3.299,1.604c0.002,0.002,0.002,0.005,0.003,0.008
	c0.205,0.256,0.376,0.525,0.514,0.804c0.002,0.005,0.006,0.01,0.008,0.015c0.138,0.281,0.242,0.573,0.31,0.875
	c0.001,0.004,0.004,0.008,0.005,0.013c0.068,0.301,0.11,0.611,0.11,0.932C23.25,16.343,21.344,18.25,19,18.25z M24.465,12.221
	c-0.107-0.329-0.241-0.646-0.403-0.946C25.685,10.501,26.75,8.865,26.75,7c0-2.389-1.773-4.372-4.072-4.702
	C23.393,1.943,24.187,1.75,25,1.75c2.895,0,5.25,2.355,5.25,5.25C30.25,10.07,27.642,12.568,24.465,12.221z"/>
</svg>
