<?xml version="1.0" encoding="utf-8"?>
<!-- Generator: Adobe Illustrator 18.1.1, SVG Export Plug-In . SVG Version: 6.00 Build 0)  -->
<svg version="1.1" id="Layer_1" xmlns="http://www.w3.org/2000/svg" xmlns:xlink="http://www.w3.org/1999/xlink" x="0px" y="0px"
	 width="12px" height="9px" viewBox="0 0 12 9" enable-background="new 0 0 12 9" xml:space="preserve">
<g>
	<path fill-rule="evenodd" clip-rule="evenodd" fill="#FAE3A9" d="M8.633,1.484C7.918,1.188,7.075,1,6.04,1
		c-7.031,0-5.985,7.998-5.985,7.998l1.007-0.019C1.062,8.979,0.045,2,6.04,2c0.764,0,1.411,0.118,1.964,0.319L8.633,1.484z"/>
	<path fill-rule="evenodd" clip-rule="evenodd" fill="#FAE3A9" d="M10.005,3.862c1.451,2.072,1.052,5.131,1.052,5.131l0.833-0.011
		L12.065,9c0,0,0.478-3.872-1.598-6.229L10.005,3.862z"/>
</g>
<path fill-rule="evenodd" clip-rule="evenodd" fill="#FAE3A9" d="M10.803-0.008l-5.555,7.4l0.005,0.003C5.1,7.566,5,7.785,5,8.032
	C5,8.567,5.433,9,5.968,9c0.428,0,0.78-0.283,0.907-0.668l0.329,0.19L10.803-0.008z"/>
</svg>
