<?xml version="1.0" encoding="utf-8"?>
<!-- Generator: Adobe Illustrator 18.1.1, SVG Export Plug-In . SVG Version: 6.00 Build 0)  -->
<svg version="1.1" id="Layer_1" xmlns="http://www.w3.org/2000/svg" xmlns:xlink="http://www.w3.org/1999/xlink" x="0px" y="0px"
	 width="32px" height="20px" viewBox="0 0 32 20" enable-background="new 0 0 32 20" xml:space="preserve">
<path id="Snowy_1_" fill="#E6E6E6" d="M22,15.75c-0.414,0-0.75-0.336-0.75-0.75s0.336-0.75,0.75-0.75c2.344,0,4.25-1.907,4.25-4.25
	S24.344,5.75,22,5.75c-0.145,0-0.283,0.022-0.423,0.041l-0.678,0.09l-0.231-0.5C19.646,3.175,17.422,1.75,15,1.75
	c-3.087,0-5.744,2.306-6.18,5.364L8.728,7.77L7.932,7.746C6.208,7.75,4.75,9.208,4.75,11S6.208,14.25,8,14.25
	c0.414,0,0.75,0.336,0.75,0.75S8.414,15.75,8,15.75c-2.619,0-4.75-2.131-4.75-4.75c0-2.433,1.839-4.445,4.2-4.718
	C8.242,2.802,11.383,0.25,15,0.25c2.82,0,5.424,1.557,6.78,4.008C21.853,4.253,21.926,4.25,22,4.25c3.171,0,5.75,2.58,5.75,5.75
	S25.171,15.75,22,15.75z M14,18.5c0-0.828-0.672-1.5-1.5-1.5S11,17.672,11,18.5s0.672,1.5,1.5,1.5S14,19.328,14,18.5z M20,18.5
	c0-0.828-0.672-1.5-1.5-1.5S17,17.672,17,18.5s0.672,1.5,1.5,1.5S20,19.328,20,18.5z M17,14.5c0-0.828-0.672-1.5-1.5-1.5
	c-0.828,0-1.5,0.672-1.5,1.5s0.672,1.5,1.5,1.5C16.328,16,17,15.328,17,14.5z"/>
</svg>
