<?xml version="1.0" encoding="utf-8"?>
<!-- Generator: Adobe Illustrator 18.1.1, SVG Export Plug-In . SVG Version: 6.00 Build 0)  -->
<svg version="1.1" id="Layer_1" xmlns="http://www.w3.org/2000/svg" xmlns:xlink="http://www.w3.org/1999/xlink" x="0px" y="0px"
	 width="32px" height="20px" viewBox="0 0 32 20" enable-background="new 0 0 32 20" xml:space="preserve">
<path id="Very_clody_1_" fill="#E6E6E6" d="M27.161,4.252C26.084,1.836,23.676,0.25,21,0.25c-2.866,0-5.395,1.848-6.341,4.493
	C13.818,4.432,12.924,4.25,12,4.25c-3.617,0-6.758,2.552-7.55,6.032c-2.361,0.273-4.2,2.285-4.2,4.718c0,2.619,2.131,4.75,4.75,4.75
	h14c3.171,0,5.75-2.58,5.75-5.75c0-0.084-0.009-0.167-0.013-0.25H27c2.619,0,4.75-2.131,4.75-4.75
	C31.75,6.435,29.706,4.338,27.161,4.252z M17.668,9.38l0.231,0.5l0.678-0.09c2.485-0.229,4.767,1.74,4.673,4.209
	c0,2.343-1.906,4.25-4.25,4.25H5c-1.792,0-3.25-1.458-3.25-3.25s1.458-3.25,3.182-3.254l0.796,0.024l0.093-0.656
	C6.256,8.056,8.913,5.75,12,5.75c1.067,0,2.089,0.29,2.993,0.788C16.562,7.422,17.234,8.484,17.668,9.38z M16.008,5.375
	C16.703,3.246,18.722,1.75,21,1.75c2.23,0,4.222,1.418,4.956,3.53l0.19,0.549l0.746-0.067C26.928,5.757,26.963,5.75,27,5.75
	c1.792,0,3.25,1.458,3.25,3.25s-1.458,3.25-3.25,3.25h-2.522c-0.743-2.234-2.837-4.031-5.698-3.993
	C18.219,7.203,17.234,6.125,16.008,5.375z"/>
</svg>
