<?xml version="1.0" encoding="utf-8"?>
<!-- Generator: Adobe Illustrator 18.1.1, SVG Export Plug-In . SVG Version: 6.00 Build 0)  -->
<svg version="1.1" id="Layer_1" xmlns="http://www.w3.org/2000/svg" xmlns:xlink="http://www.w3.org/1999/xlink" x="0px" y="0px"
	 width="32px" height="20px" viewBox="0 0 32 20" enable-background="new 0 0 32 20" xml:space="preserve">
<path id="Clody_day_1_" fill="#E6E6E6" d="M26.835,4.587l-1.213-0.882l1.323-1.82c0.243-0.335,0.712-0.409,1.048-0.166
	c0.335,0.243,0.409,0.713,0.166,1.048L26.835,4.587z M28.64,7.859l2.14-0.695c0.394-0.128,0.609-0.551,0.481-0.945
	c-0.128-0.394-0.551-0.609-0.945-0.482l-2.14,0.695L28.64,7.859z M23.452,0.75c0-0.414-0.336-0.75-0.75-0.75s-0.75,0.336-0.75,0.75
	V3h1.5V0.75z M30.78,10.836l-2.14-0.695l-0.464,1.427l2.14,0.695c0.394,0.128,0.817-0.088,0.945-0.482
	C31.389,11.387,31.174,10.964,30.78,10.836z M26.835,13.413l-1.213,0.882l1.323,1.82c0.243,0.335,0.712,0.409,1.048,0.166
	c0.335-0.243,0.409-0.712,0.166-1.048L26.835,13.413z M18.568,4.587l1.214-0.882l-1.323-1.82c-0.244-0.335-0.713-0.409-1.048-0.166
	s-0.409,0.713-0.166,1.048L18.568,4.587z M24.422,13.413c0.02,0.193,0.03,0.389,0.03,0.587c0,3.17-2.579,5.75-5.75,5.75h-14
	c-2.619,0-4.75-2.131-4.75-4.75c0-2.433,1.839-4.445,4.2-4.718c0.791-3.479,3.932-6.032,7.55-6.032c2.61,0,5.021,1.344,6.443,3.486
	c0.558-2.003,2.379-3.486,4.557-3.486c2.619,0,4.75,2.131,4.75,4.75C27.452,10.961,26.212,12.712,24.422,13.413z M23.399,10.693
	c0.272,0.385,0.495,0.804,0.667,1.249l0,0c1.124-0.523,1.887-1.671,1.887-2.943c0-1.792-1.458-3.25-3.25-3.25
	c-1.555,0-2.858,1.097-3.176,2.558c0.046,0.007,0.09,0.021,0.135,0.029C21.203,8.609,22.5,9.469,23.399,10.693z M18.277,9.792
	l-0.676,0.089l-0.231-0.5c-1.021-2.205-3.246-3.63-5.668-3.63c-3.088,0-5.745,2.306-6.18,5.363L5.43,11.77l-0.796-0.024
	C2.91,11.75,1.452,13.208,1.452,15s1.458,3.25,3.25,3.25h14c2.344,0,4.25-1.907,4.25-4.25c0-0.272-0.031-0.536-0.08-0.793
	C22.516,11.266,20.75,9.547,18.277,9.792z"/>
</svg>
